# Blender 4.2.1 LTS
# www.blender.org
mtllib Slide_Curved_01.mtl
o Cube
v 1.000000 5.034523 -8.049689
v 1.000000 4.706887 -8.049689
v 13.924377 -4.706457 8.049689
v 13.924377 -5.034093 8.049689
v -1.000000 5.034523 -8.049689
v -1.000000 4.706887 -8.049689
v 11.924377 -4.706457 8.049689
v 11.924377 -5.034093 8.049689
v 3.371433 -0.163818 0.000000
v 0.000000 4.706887 -8.049689
v 1.000000 4.870705 -8.049689
v 11.924377 -4.870275 8.049689
v 13.924377 -4.870275 8.049689
v -1.000000 4.870705 -8.049689
v 12.924377 -4.706457 8.049689
v 5.371433 0.163818 0.000000
v 12.924377 -5.034093 8.049689
v 3.371433 0.163818 0.000000
v 0.000000 5.034523 -8.049689
v 5.371433 -0.163818 0.000000
v 0.000000 4.870705 -8.049689
v 5.371433 0.000000 0.000000
v 4.371433 -0.163818 0.000000
v 3.371433 0.000000 0.000000
v 12.924377 -4.870275 8.049689
v 4.371433 0.163818 0.000000
v 7.045677 -2.660405 4.024845
v -0.500000 4.706887 -8.049689
v 1.000000 4.788796 -8.049689
v 11.924377 -4.788366 8.049689
v 13.924377 -4.952184 8.049689
v -1.000000 4.788796 -8.049689
v 12.424377 -4.706457 8.049689
v 9.045677 -2.332769 4.024845
v 13.424377 -5.034093 8.049689
v 0.915263 2.626578 -4.024845
v 0.500000 5.034523 -8.049689
v 2.915263 2.298942 -4.024845
v 0.915263 2.298942 -4.024845
v 0.500000 4.706887 -8.049689
v 1.000000 4.952614 -8.049689
v 11.924377 -4.952184 8.049689
v 13.924377 -4.788366 8.049689
v -1.000000 4.952614 -8.049689
v 13.424377 -4.706457 8.049689
v 2.915263 2.626578 -4.024845
v 12.424377 -5.034093 8.049689
v 7.045677 -2.332769 4.024845
v -0.500000 5.034523 -8.049689
v 9.045677 -2.660405 4.024845
v 0.500000 4.870705 -8.049689
v -0.500000 4.870705 -8.049689
v 0.000000 4.788796 -8.049689
v 0.000000 4.952614 -8.049689
v 9.045677 -2.496587 4.024845
v 2.915263 2.462760 -4.024845
v 5.371433 -0.081909 0.000000
v 5.371433 0.081909 0.000000
v 8.045677 -2.660405 4.024845
v 1.915263 2.298942 -4.024845
v 3.871433 -0.163818 0.000000
v 4.871433 -0.163818 0.000000
v 0.915263 2.462760 -4.024845
v 7.045677 -2.496587 4.024845
v 3.371433 -0.081909 0.000000
v 3.371433 0.081909 0.000000
v 12.424377 -4.870275 8.049689
v 13.424377 -4.870275 8.049689
v 12.924377 -4.952184 8.049689
v 12.924377 -4.788366 8.049689
v 8.045677 -2.332769 4.024845
v 1.915263 2.626578 -4.024845
v 4.871433 0.163818 0.000000
v 3.871433 0.163818 0.000000
v 1.415263 2.626578 -4.024845
v 2.415263 2.626578 -4.024845
v 8.545677 -2.332769 4.024845
v 13.424377 -4.788366 8.049689
v 13.424377 -4.952184 8.049689
v 12.424377 -4.952184 8.049689
v 7.045677 -2.414678 4.024845
v 7.045677 -2.578496 4.024845
v 0.915263 2.380851 -4.024845
v 2.415263 2.298942 -4.024845
v 1.415263 2.298942 -4.024845
v 7.545677 -2.660405 4.024845
v 2.915263 2.544669 -4.024845
v 2.915263 2.380851 -4.024845
v 9.045677 -2.578496 4.024845
v -0.500000 4.952614 -8.049689
v -0.500000 4.788796 -8.049689
v 0.500000 4.788796 -8.049689
v 0.500000 4.952614 -8.049689
v 9.045677 -2.414678 4.024845
v 8.545677 -2.660405 4.024845
v 0.915263 2.544669 -4.024845
v 12.424377 -4.788366 8.049689
v 7.545677 -2.332769 4.024845
vn -0.0000 0.8614 0.5080
vn -0.0000 -0.0000 1.0000
vn -0.9030 -0.0000 0.4297
vn -0.0000 -0.8614 -0.5080
vn 0.6364 -0.0000 -0.7714
vn -0.0000 -0.0000 -1.0000
vn 0.8536 -0.0000 -0.5209
vn -0.0000 -0.8530 -0.5219
vn -0.7385 -0.0000 0.6742
vn -0.0000 0.8530 0.5219
vn -0.0000 0.8581 0.5134
vn -0.0000 0.8498 0.5271
vn -0.6364 -0.0000 0.7714
vn -0.8536 -0.0000 0.5209
vn -0.0000 -0.8581 -0.5134
vn -0.0000 -0.8498 -0.5271
vn 0.9030 -0.0000 -0.4297
vn 0.7385 -0.0000 -0.6742
vt 0.812500 0.687500
vt 0.875000 0.687500
vt 0.875000 0.750000
vt 0.812500 0.750000
vt 0.562500 0.937500
vt 0.625000 0.937500
vt 0.625000 1.000000
vt 0.562500 1.000000
vt 0.562500 0.187500
vt 0.625000 0.187500
vt 0.625000 0.250000
vt 0.562500 0.250000
vt 0.312500 0.687500
vt 0.375000 0.687500
vt 0.375000 0.750000
vt 0.312500 0.750000
vt 0.562500 0.687500
vt 0.625000 0.687500
vt 0.625000 0.750000
vt 0.562500 0.750000
vt 0.562500 0.437500
vt 0.625000 0.437500
vt 0.625000 0.500000
vt 0.562500 0.500000
vt 0.437500 0.437500
vt 0.500000 0.437500
vt 0.500000 0.500000
vt 0.437500 0.500000
vt 0.437500 0.312500
vt 0.500000 0.312500
vt 0.500000 0.375000
vt 0.437500 0.375000
vt 0.562500 0.312500
vt 0.625000 0.312500
vt 0.625000 0.375000
vt 0.562500 0.375000
vt 0.437500 0.687500
vt 0.500000 0.687500
vt 0.500000 0.750000
vt 0.437500 0.750000
vt 0.437500 0.562500
vt 0.500000 0.562500
vt 0.500000 0.625000
vt 0.437500 0.625000
vt 0.562500 0.562500
vt 0.625000 0.562500
vt 0.625000 0.625000
vt 0.562500 0.625000
vt 0.187500 0.687500
vt 0.250000 0.687500
vt 0.250000 0.750000
vt 0.187500 0.750000
vt 0.187500 0.562500
vt 0.250000 0.562500
vt 0.250000 0.625000
vt 0.187500 0.625000
vt 0.312500 0.562500
vt 0.375000 0.562500
vt 0.375000 0.625000
vt 0.312500 0.625000
vt 0.437500 0.187500
vt 0.500000 0.187500
vt 0.500000 0.250000
vt 0.437500 0.250000
vt 0.437500 0.062500
vt 0.500000 0.062500
vt 0.500000 0.125000
vt 0.437500 0.125000
vt 0.562500 0.062500
vt 0.625000 0.062500
vt 0.625000 0.125000
vt 0.562500 0.125000
vt 0.437500 0.937500
vt 0.500000 0.937500
vt 0.500000 1.000000
vt 0.437500 1.000000
vt 0.437500 0.812500
vt 0.500000 0.812500
vt 0.500000 0.875000
vt 0.437500 0.875000
vt 0.562500 0.812500
vt 0.625000 0.812500
vt 0.625000 0.875000
vt 0.562500 0.875000
vt 0.687500 0.687500
vt 0.750000 0.687500
vt 0.750000 0.750000
vt 0.687500 0.750000
vt 0.687500 0.562500
vt 0.750000 0.562500
vt 0.750000 0.625000
vt 0.687500 0.625000
vt 0.812500 0.562500
vt 0.875000 0.562500
vt 0.875000 0.625000
vt 0.812500 0.625000
vt 0.750000 0.500000
vt 0.812500 0.500000
vt 0.875000 0.500000
vt 0.687500 0.500000
vt 0.375000 0.812500
vt 0.375000 0.875000
vt 0.375000 0.937500
vt 0.375000 1.000000
vt 0.500000 0.000000
vt 0.562500 0.000000
vt 0.625000 0.000000
vt 0.375000 0.062500
vt 0.375000 0.125000
vt 0.375000 0.000000
vt 0.437500 0.000000
vt 0.375000 0.187500
vt 0.375000 0.250000
vt 0.250000 0.500000
vt 0.312500 0.500000
vt 0.375000 0.500000
vt 0.125000 0.562500
vt 0.125000 0.625000
vt 0.125000 0.500000
vt 0.187500 0.500000
vt 0.125000 0.687500
vt 0.125000 0.750000
vt 0.375000 0.312500
vt 0.375000 0.375000
vt 0.375000 0.437500
s 0
usemtl Material
f 98/1/1 48/2/1 7/3/1 33/4/1
f 97/5/2 33/6/2 7/7/2 30/8/2
f 96/9/3 36/10/3 5/11/3 44/12/3
f 95/13/4 50/14/4 4/15/4 35/16/4
f 94/17/5 34/18/5 3/19/5 43/20/5
f 93/21/6 37/22/6 1/23/6 41/24/6
f 92/25/6 51/26/6 11/27/6 29/28/6
f 91/29/6 52/30/6 21/31/6 53/32/6
f 90/33/6 49/34/6 19/35/6 54/36/6
f 89/37/5 55/38/5 13/39/5 31/40/5
f 88/41/7 56/42/7 22/43/7 57/44/7
f 87/45/7 46/46/7 16/47/7 58/48/7
f 86/49/4 59/50/4 17/51/4 47/52/4
f 85/53/8 60/54/8 23/55/8 61/56/8
f 84/57/8 38/58/8 20/59/8 62/60/8
f 83/61/3 63/62/3 14/63/3 32/64/3
f 82/65/9 64/66/9 24/67/9 65/68/9
f 81/69/9 48/70/9 18/71/9 66/72/9
f 80/73/2 67/74/2 12/75/2 42/76/2
f 79/77/2 68/78/2 25/79/2 69/80/2
f 78/81/2 45/82/2 15/83/2 70/84/2
f 77/85/1 71/86/1 15/87/1 45/88/1
f 76/89/10 72/90/10 26/91/10 73/92/10
f 75/93/10 36/94/10 18/95/10 74/96/10
f 72/90/10 75/93/10 74/96/10 26/91/10
f 19/97/11 49/98/11 75/93/11 72/90/11
f 49/98/11 5/99/11 36/94/11 75/93/11
f 46/46/10 76/89/10 73/92/10 16/47/10
f 1/23/11 37/100/11 76/89/11 46/46/11
f 37/100/11 19/97/11 72/90/11 76/89/11
f 34/18/1 77/85/1 45/88/1 3/19/1
f 16/47/12 73/92/12 77/85/12 34/18/12
f 73/92/12 26/91/12 71/86/12 77/85/12
f 68/78/2 78/81/2 70/84/2 25/79/2
f 13/39/2 43/20/2 78/81/2 68/78/2
f 43/20/2 3/19/2 45/82/2 78/81/2
f 35/101/2 79/77/2 69/80/2 17/102/2
f 4/15/2 31/40/2 79/77/2 35/101/2
f 31/40/2 13/39/2 68/78/2 79/77/2
f 47/103/2 80/73/2 42/76/2 8/104/2
f 17/102/2 69/80/2 80/73/2 47/103/2
f 69/80/2 25/79/2 67/74/2 80/73/2
f 64/66/9 81/69/9 66/72/9 24/67/9
f 12/105/13 30/106/13 81/69/13 64/66/13
f 30/106/13 7/107/13 48/70/13 81/69/13
f 27/108/9 82/65/9 65/68/9 9/109/9
f 8/110/13 42/111/13 82/65/13 27/108/13
f 42/111/13 12/105/13 64/66/13 82/65/13
f 39/112/3 83/61/3 32/64/3 6/113/3
f 9/109/14 65/68/14 83/61/14 39/112/14
f 65/68/14 24/67/14 63/62/14 83/61/14
f 60/54/8 84/57/8 62/60/8 23/55/8
f 10/114/15 40/115/15 84/57/15 60/54/15
f 40/115/15 2/116/15 38/58/15 84/57/15
f 39/117/8 85/53/8 61/56/8 9/118/8
f 6/119/15 28/120/15 85/53/15 39/117/15
f 28/120/15 10/114/15 60/54/15 85/53/15
f 27/121/4 86/49/4 47/52/4 8/122/4
f 9/118/16 61/56/16 86/49/16 27/121/16
f 61/56/16 23/55/16 59/50/16 86/49/16
f 56/42/7 87/45/7 58/48/7 22/43/7
f 11/27/17 41/24/17 87/45/17 56/42/17
f 41/24/17 1/23/17 46/46/17 87/45/17
f 38/58/7 88/41/7 57/44/7 20/59/7
f 2/116/17 29/28/17 88/41/17 38/58/17
f 29/28/17 11/27/17 56/42/17 88/41/17
f 50/14/5 89/37/5 31/40/5 4/15/5
f 20/59/18 57/44/18 89/37/18 50/14/18
f 57/44/18 22/43/18 55/38/18 89/37/18
f 52/30/6 90/33/6 54/36/6 21/31/6
f 14/63/6 44/12/6 90/33/6 52/30/6
f 44/12/6 5/11/6 49/34/6 90/33/6
f 28/123/6 91/29/6 53/32/6 10/124/6
f 6/113/6 32/64/6 91/29/6 28/123/6
f 32/64/6 14/63/6 52/30/6 91/29/6
f 40/125/6 92/25/6 29/28/6 2/116/6
f 10/124/6 53/32/6 92/25/6 40/125/6
f 53/32/6 21/31/6 51/26/6 92/25/6
f 51/26/6 93/21/6 41/24/6 11/27/6
f 21/31/6 54/36/6 93/21/6 51/26/6
f 54/36/6 19/35/6 37/22/6 93/21/6
f 55/38/5 94/17/5 43/20/5 13/39/5
f 22/43/18 58/48/18 94/17/18 55/38/18
f 58/48/18 16/47/18 34/18/18 94/17/18
f 59/50/4 95/13/4 35/16/4 17/51/4
f 23/55/16 62/60/16 95/13/16 59/50/16
f 62/60/16 20/59/16 50/14/16 95/13/16
f 63/62/3 96/9/3 44/12/3 14/63/3
f 24/67/14 66/72/14 96/9/14 63/62/14
f 66/72/14 18/71/14 36/10/14 96/9/14
f 67/74/2 97/5/2 30/8/2 12/75/2
f 25/79/2 70/84/2 97/5/2 67/74/2
f 70/84/2 15/83/2 33/6/2 97/5/2
f 71/86/1 98/1/1 33/4/1 15/87/1
f 26/91/12 74/96/12 98/1/12 71/86/12
f 74/96/12 18/95/12 48/2/12 98/1/12
