# Blender 4.2.1 LTS
# www.blender.org
mtllib Block_01.mtl
o Cube
v 0.880000 0.880000 -1.000000
v 0.880000 1.000000 -0.880000
v 1.000000 0.880000 -0.880000
v 0.880000 -1.000000 -0.880000
v 0.880000 -0.880000 -1.000000
v 1.000000 -0.880000 -0.880000
v 1.000000 0.880000 0.880000
v 0.880000 1.000000 0.880000
v 0.880000 0.880000 1.000000
v 1.000000 -0.880000 0.880000
v 0.880000 -0.880000 1.000000
v 0.880000 -1.000000 0.880000
v -0.880000 0.880000 -1.000000
v -1.000000 0.880000 -0.880000
v -0.880000 1.000000 -0.880000
v -1.000000 -0.880000 -0.880000
v -0.880000 -0.880000 -1.000000
v -0.880000 -1.000000 -0.880000
v -1.000000 0.880000 0.880000
v -0.880000 0.880000 1.000000
v -0.880000 1.000000 0.880000
v -0.880000 -1.000000 0.880000
v -0.880000 -0.880000 1.000000
v -1.000000 -0.880000 0.880000
vn -0.0000 -1.0000 -0.0000
vn -1.0000 -0.0000 -0.0000
vn -0.0000 -0.0000 1.0000
vn -0.0000 1.0000 -0.0000
vn 1.0000 -0.0000 -0.0000
vn 0.5774 0.5774 -0.5774
vn 0.5774 -0.5774 -0.5774
vn 0.5774 0.5774 0.5774
vn 0.5774 -0.5774 0.5774
vn -0.5774 0.5774 -0.5774
vn -0.5774 -0.5774 -0.5774
vn -0.5774 0.5774 0.5774
vn -0.5774 -0.5774 0.5774
vn -0.7071 -0.7071 -0.0000
vn -0.0000 -0.7071 -0.7071
vn 0.7071 -0.0000 -0.7071
vn -0.7071 -0.0000 0.7071
vn 0.7071 -0.0000 0.7071
vn -0.7071 -0.0000 -0.7071
vn -0.0000 0.7071 0.7071
vn 0.7071 0.7071 -0.0000
vn -0.0000 -0.7071 0.7071
vn -0.7071 0.7071 -0.0000
vn -0.0000 0.7071 -0.7071
vn 0.7071 -0.7071 -0.0000
vn -0.0000 -0.0000 -1.0000
vt 0.925462 0.398043
vt 0.928036 0.594098
vt 0.730857 0.595723
vt 0.730211 0.399637
vt 0.225308 0.784829
vt 0.225747 0.981196
vt 0.029080 0.981050
vt 0.029521 0.785015
vt 0.464529 0.783930
vt 0.465292 0.980031
vt 0.268304 0.980060
vt 0.269065 0.783888
vt 0.278750 0.400347
vt 0.278798 0.596530
vt 0.082008 0.596014
vt 0.083082 0.399837
vt 0.696912 0.788489
vt 0.697190 0.984795
vt 0.500680 0.984717
vt 0.500959 0.788581
vt 0.292104 0.400381
vt 0.278760 0.386971
vt 0.941458 0.593988
vt 0.928190 0.607466
vt 0.083143 0.386461
vt 0.069728 0.399802
vt 0.730923 0.609092
vt 0.717435 0.595834
vt 0.292203 0.596565
vt 0.278789 0.609906
vt 0.925309 0.384675
vt 0.938797 0.397934
vt 0.081948 0.609390
vt 0.068603 0.595979
vt 0.716876 0.399746
vt 0.730145 0.386267
vt 0.710278 0.788485
vt 0.710582 0.984799
vt 0.238667 0.784820
vt 0.239146 0.981203
vt 0.477873 0.783932
vt 0.478706 0.980030
vt 0.015681 0.981043
vt 0.016162 0.785024
vt 0.927396 0.785015
vt 0.926867 0.981086
vt 0.731167 0.981218
vt 0.730640 0.784915
s 0
usemtl Material
f 18/1/1 4/2/1 12/3/1 22/4/1
f 24/5/2 19/6/2 14/7/2 16/8/2
f 11/9/3 9/10/3 20/11/3 23/12/3
f 2/13/4 15/14/4 21/15/4 8/16/4
f 6/17/5 3/18/5 7/19/5 10/20/5
f 1/21/6 2/13/6 3/22/6
f 4/2/7 5/23/7 6/24/7
f 7/25/8 8/16/8 9/26/8
f 10/27/9 11/28/9 12/3/9
f 13/29/10 14/30/10 15/14/10
f 16/31/11 17/32/11 18/1/11
f 19/33/12 20/34/12 21/15/12
f 22/4/13 23/35/13 24/36/13
f 18/1/14 22/4/14 24/36/14 16/31/14
f 4/2/15 18/1/15 17/32/15 5/23/15
f 3/18/16 6/17/16 5/37/16 1/38/16
f 23/39/17 20/40/17 19/6/17 24/5/17
f 9/10/18 11/9/18 10/41/18 7/42/18
f 13/43/19 17/44/19 16/8/19 14/7/19
f 8/16/20 21/15/20 20/34/20 9/26/20
f 2/13/21 8/16/21 7/25/21 3/22/21
f 22/4/22 12/3/22 11/28/22 23/35/22
f 21/15/23 15/14/23 14/30/23 19/33/23
f 15/14/24 2/13/24 1/21/24 13/29/24
f 12/3/25 4/2/25 6/24/25 10/27/25
f 17/45/26 13/46/26 1/47/26 5/48/26
