# Blender 4.2.1 LTS
# www.blender.org
mtllib Block_02.mtl
o Platform_Start
v 0.880000 0.406367 -1.000000
v 0.880000 0.526367 -0.880000
v 1.000000 0.406367 -0.880000
v 0.880000 -0.094439 -0.880000
v 0.880000 0.025561 -1.000000
v 1.000000 0.025561 -0.880000
v 1.000000 0.406367 0.880000
v 0.880000 0.526367 0.880000
v 0.880000 0.406367 1.000000
v 1.000000 0.025561 0.880000
v 0.880000 0.025561 1.000000
v 0.880000 -0.094439 0.880000
v -0.880000 0.406367 -1.000000
v -1.000000 0.406367 -0.880000
v -0.880000 0.526367 -0.880000
v -1.000000 0.025561 -0.880000
v -0.880000 0.025561 -1.000000
v -0.880000 -0.094439 -0.880000
v -1.000000 0.406367 0.880000
v -0.880000 0.406367 1.000000
v -0.880000 0.526367 0.880000
v -0.880000 -0.094439 0.880000
v -0.880000 0.025561 1.000000
v -1.000000 0.025561 0.880000
vn -0.0000 -1.0000 -0.0000
vn -1.0000 -0.0000 -0.0000
vn -0.0000 -0.0000 1.0000
vn -0.0000 1.0000 -0.0000
vn 1.0000 -0.0000 -0.0000
vn 0.5774 0.5774 -0.5774
vn 0.5774 -0.5774 -0.5774
vn 0.5774 0.5774 0.5774
vn 0.5774 -0.5774 0.5774
vn -0.5774 0.5774 -0.5774
vn -0.5774 -0.5774 -0.5774
vn -0.5774 0.5774 0.5774
vn -0.5774 -0.5774 0.5774
vn -0.7071 -0.7071 -0.0000
vn -0.0000 -0.7071 -0.7071
vn 0.7071 -0.0000 -0.7071
vn -0.7071 -0.0000 0.7071
vn 0.7071 -0.0000 0.7071
vn -0.7071 -0.0000 -0.7071
vn -0.0000 0.7071 0.7071
vn 0.7071 0.7071 -0.0000
vn -0.0000 -0.7071 0.7071
vn -0.7071 0.7071 -0.0000
vn -0.0000 0.7071 -0.7071
vn 0.7071 -0.7071 -0.0000
vn -0.0000 -0.0000 -1.0000
vt 0.454971 0.548185
vt 0.454353 0.965215
vt 0.036704 0.963978
vt 0.038554 0.546955
vt 0.449451 0.233672
vt 0.450332 0.322985
vt 0.037379 0.322976
vt 0.038260 0.233674
vt 0.961374 0.035771
vt 0.962444 0.124905
vt 0.549146 0.125254
vt 0.550213 0.035664
vt 0.960408 0.553462
vt 0.960380 0.966423
vt 0.546349 0.965333
vt 0.548489 0.552383
vt 0.443467 0.037626
vt 0.444535 0.127087
vt 0.031222 0.126935
vt 0.032291 0.037672
vt 0.988517 0.553535
vt 0.960433 0.525305
vt 0.482815 0.965300
vt 0.454297 0.993649
vt 0.548611 0.524227
vt 0.520380 0.552309
vt 0.036592 0.992411
vt 0.008242 0.963893
vt 0.988585 0.966497
vt 0.960354 0.994579
vt 0.455027 0.519752
vt 0.483377 0.548269
vt 0.546227 0.993489
vt 0.518143 0.965259
vt 0.010148 0.546871
vt 0.038667 0.518521
vt 0.471533 0.037625
vt 0.472683 0.127095
vt 0.477513 0.233672
vt 0.478462 0.322986
vt 0.989439 0.035771
vt 0.990592 0.124888
vt 0.009249 0.322975
vt 0.010198 0.233674
vt 0.965808 0.235414
vt 0.966502 0.324713
vt 0.553916 0.324623
vt 0.554611 0.235429
s 0
usemtl Material
f 18/1/1 4/2/1 12/3/1 22/4/1
f 24/5/2 19/6/2 14/7/2 16/8/2
f 11/9/3 9/10/3 20/11/3 23/12/3
f 2/13/4 15/14/4 21/15/4 8/16/4
f 6/17/5 3/18/5 7/19/5 10/20/5
f 1/21/6 2/13/6 3/22/6
f 4/2/7 5/23/7 6/24/7
f 7/25/8 8/16/8 9/26/8
f 10/27/9 11/28/9 12/3/9
f 13/29/10 14/30/10 15/14/10
f 16/31/11 17/32/11 18/1/11
f 19/33/12 20/34/12 21/15/12
f 22/4/13 23/35/13 24/36/13
f 18/1/14 22/4/14 24/36/14 16/31/14
f 4/2/15 18/1/15 17/32/15 5/23/15
f 3/18/16 6/17/16 5/37/16 1/38/16
f 23/39/17 20/40/17 19/6/17 24/5/17
f 9/10/18 11/9/18 10/41/18 7/42/18
f 13/43/19 17/44/19 16/8/19 14/7/19
f 8/16/20 21/15/20 20/34/20 9/26/20
f 2/13/21 8/16/21 7/25/21 3/22/21
f 22/4/22 12/3/22 11/28/22 23/35/22
f 21/15/23 15/14/23 14/30/23 19/33/23
f 15/14/24 2/13/24 1/21/24 13/29/24
f 12/3/25 4/2/25 6/24/25 10/27/25
f 17/45/26 13/46/26 1/47/26 5/48/26
