# Blender 4.2.1 LTS
# www.blender.org
mtllib Crystal_Castle_Structure_01.mtl
o Cube
v 1.000000 2.979482 -1.000000
v 1.000000 -1.000000 -1.000000
v 1.000000 2.979482 1.000000
v 1.000000 -1.000000 1.000000
v -1.000000 2.979482 -1.000000
v -1.000000 -1.000000 -1.000000
v -1.000000 2.979482 1.000000
v -1.000000 -1.000000 1.000000
v -1.391915 -1.391915 0.000000
v 0.000000 -1.391915 -1.391915
v 1.000000 1.099979 -1.000000
v -1.000000 1.099979 1.000000
v 1.000000 1.099979 1.000000
v -1.000000 1.099979 -1.000000
v 0.000000 3.371397 1.391915
v 1.391915 3.371397 0.000000
v 0.000000 -1.391915 1.391915
v -1.391915 3.371397 0.000000
v 0.000000 3.371397 -1.391915
v 1.391915 -1.391915 0.000000
v 0.000000 1.099979 -1.391915
v 1.391915 1.099979 0.000000
v 0.000000 -1.000000 0.000000
v -1.391915 1.099979 0.000000
v 0.000000 1.099979 1.391915
v 0.000000 5.429815 0.000000
v -0.500000 3.175440 1.195958
v 1.195958 3.175440 0.500000
v -1.195958 3.175440 -0.500000
v 0.500000 3.175440 -1.195958
v 0.500000 3.175440 1.195958
v 1.195958 3.175440 -0.500000
v -1.195958 3.175440 0.500000
v -0.500000 3.175440 -1.195958
v 0.000000 4.224607 0.923818
v 0.000000 4.224607 -0.923818
v 0.923818 4.224607 0.000000
v -0.923818 4.224607 0.000000
v -0.597979 4.224607 -0.597979
v 0.597979 4.224607 -0.597979
v 0.597979 4.224607 0.597979
v -0.597979 4.224607 0.597979
vn -0.7864 0.4046 0.4668
vn -0.3649 -0.0000 0.9310
vn -0.9310 -0.0000 -0.3649
vn -0.2616 -0.9291 0.2616
vn 0.9310 -0.0000 0.3649
vn 0.3649 -0.0000 -0.9310
vn -0.3649 -0.0000 -0.9310
vn 0.9310 -0.0000 -0.3649
vn -0.2616 -0.9291 -0.2616
vn -0.9310 -0.0000 0.3649
vn 0.3649 -0.0000 0.9310
vn 0.4497 0.4189 0.7889
vn 0.3969 0.5584 -0.7285
vn -0.7889 0.4189 -0.4497
vn -0.7285 0.5584 -0.3969
vn -0.4497 0.4189 -0.7889
vn -0.7864 0.4046 -0.4668
vn 0.7889 0.4189 -0.4497
vn 0.4668 0.4046 -0.7864
vn 0.4497 0.4189 -0.7889
vn 0.4668 0.4046 0.7864
vn 0.7889 0.4189 0.4497
vn 0.3969 0.5584 0.7285
vn -0.4497 0.4189 0.7889
vn -0.7285 0.5584 0.3969
vn -0.7889 0.4189 0.4497
vn 0.7864 0.4046 0.4668
vn -0.4668 0.4046 0.7864
vn -0.4668 0.4046 -0.7864
vn 0.7864 0.4046 -0.4668
vn -0.3969 0.5584 -0.7285
vn -0.3969 0.5584 0.7285
vn 0.7285 0.5584 0.3969
vn 0.7285 0.5584 -0.3969
vn 0.2616 -0.9291 -0.2616
vn 0.2616 -0.9291 0.2616
vt 0.939155 0.630625
vt 0.933300 0.531128
vt 0.986475 0.504353
vt 0.126108 0.324178
vt 0.124644 0.600679
vt 0.066328 0.567410
vt 0.012224 0.536542
vt 0.010943 0.324272
vt 0.877194 0.292505
vt 0.875719 0.560122
vt 0.818293 0.532641
vt 0.764121 0.506716
vt 0.767632 0.297710
vt 0.759345 0.865601
vt 0.888536 0.865806
vt 0.846054 0.953285
vt 0.390434 0.330014
vt 0.390320 0.630588
vt 0.325967 0.598154
vt 0.265767 0.567813
vt 0.266489 0.335126
vt 0.647072 0.316101
vt 0.648690 0.573465
vt 0.593133 0.545778
vt 0.540015 0.519307
vt 0.536151 0.315687
vt 0.645180 0.015175
vt 0.531610 0.076379
vt 0.756966 0.082021
vt 0.755537 0.315500
vt 0.754320 0.514399
vt 0.703309 0.542923
vt 0.390557 0.004771
vt 0.267287 0.077929
vt 0.511138 0.082126
vt 0.511719 0.336088
vt 0.512245 0.565816
vt 0.453705 0.596915
vt 0.759472 0.992757
vt 0.671695 0.952529
vt 0.671645 0.776916
vt 0.760864 0.735605
vt 0.847987 0.777689
vt 0.878723 0.014971
vt 0.771383 0.074371
vt 0.984089 0.080820
vt 0.985322 0.299704
vt 0.127812 0.002489
vt 0.009446 0.076130
vt 0.249336 0.068970
vt 0.244998 0.324241
vt 0.241292 0.542333
vt 0.184365 0.570808
vt 0.188699 0.658070
vt 0.124542 0.672713
vt 0.589304 0.627943
vt 0.649222 0.641285
vt 0.649801 0.706490
vt 0.812499 0.633504
vt 0.875806 0.644380
vt 0.876210 0.733370
vt 0.708302 0.623797
vt 0.458014 0.699527
vt 0.389639 0.717121
vt 0.319997 0.701605
vt 0.124620 0.740526
vt 0.061860 0.653122
vt 0.388592 0.801997
vt 0.631780 0.864686
s 0
usemtl Crystal_Castle_Structure_01
f 42/1/1 33/2/1 7/3/1
f 25/4/2 15/5/2 27/6/2 7/7/2 12/8/2
f 24/9/3 18/10/3 29/11/3 5/12/3 14/13/3
f 23/14/4 20/15/4 4/16/4
f 22/17/5 16/18/5 28/19/5 3/20/5 13/21/5
f 21/22/6 19/23/6 30/24/6 1/25/6 11/26/6
f 10/27/6 21/22/6 11/26/6 2/28/6
f 6/29/7 14/30/7 21/22/7 10/27/7
f 14/30/7 5/31/7 34/32/7 19/23/7 21/22/7
f 20/33/5 22/17/5 13/21/5 4/34/5
f 2/35/8 11/36/8 22/17/8 20/33/8
f 11/36/8 1/37/8 32/38/8 16/18/8 22/17/8
f 23/14/9 17/39/9 8/40/9
f 6/41/4 10/42/4 23/14/4
f 2/43/9 20/15/9 23/14/9
f 9/44/3 24/9/3 14/13/3 6/45/3
f 8/46/10 12/47/10 24/9/10 9/44/10
f 12/47/10 7/3/10 33/2/10 18/10/10 24/9/10
f 17/48/2 25/4/2 12/8/2 8/49/2
f 4/50/11 13/51/11 25/4/11 17/48/11
f 13/51/11 3/52/11 31/53/11 15/5/11 25/4/11
f 41/54/12 35/55/12 15/5/12 31/53/12
f 40/56/13 36/57/13 26/58/13
f 39/59/14 29/11/14 18/10/14 38/60/14
f 39/59/15 38/60/15 26/61/15
f 19/23/16 34/32/16 39/62/16 36/57/16
f 5/12/17 29/11/17 39/59/17
f 32/38/18 40/63/18 37/64/18 16/18/18
f 1/25/19 30/24/19 40/56/19
f 30/24/20 19/23/20 36/57/20 40/56/20
f 41/54/21 31/53/21 3/52/21
f 16/18/22 37/64/22 41/65/22 28/19/22
f 26/66/23 35/55/23 41/54/23
f 35/55/24 42/67/24 27/6/24 15/5/24
f 26/61/25 38/60/25 42/1/25
f 38/60/26 18/10/26 33/2/26 42/1/26
f 28/19/27 41/65/27 3/20/27
f 27/6/28 42/67/28 7/7/28
f 34/32/29 5/31/29 39/62/29
f 32/38/30 1/37/30 40/63/30
f 36/57/31 39/62/31 26/58/31
f 35/55/32 26/66/32 42/67/32
f 37/64/33 26/68/33 41/65/33
f 37/64/34 40/63/34 26/68/34
f 9/69/35 6/41/35 23/14/35
f 9/69/36 23/14/36 8/40/36
f 10/42/36 2/43/36 23/14/36
f 17/39/35 23/14/35 4/16/35
