# Blender 4.2.1 LTS
# www.blender.org
mtllib Crystal_House.mtl
o Cube
v 0.801013 1.000000 -0.588309
v 0.801013 -1.000000 -0.588309
v 0.801013 1.000000 0.588309
v 0.801013 -1.000000 0.588309
v -0.801013 1.000000 -0.588309
v -0.801013 -1.000000 -0.588309
v -0.801013 1.000000 0.588309
v -0.801013 -1.000000 0.588309
v -1.000000 -1.000000 0.000000
v 0.000000 -1.000000 -1.000000
v 0.964101 0.000000 -0.672570
v -0.964101 0.000000 0.672570
v 0.964101 0.000000 0.672570
v -0.964101 0.000000 -0.672570
v 0.000000 1.000000 1.000000
v 1.000000 1.000000 0.000000
v 0.000000 -1.000000 1.000000
v -1.000000 1.000000 0.000000
v 0.000000 1.000000 -1.000000
v 1.000000 -1.000000 0.000000
v 0.000000 0.000000 -1.143226
v 1.203602 0.000000 0.000000
v 0.000000 -1.000000 0.000000
v -1.203602 0.000000 0.000000
v 0.000000 0.000000 1.143226
v 0.000000 1.750454 0.000000
v -0.400506 1.000000 0.794154
v 0.900506 1.000000 0.294154
v -0.900506 1.000000 -0.294154
v 0.400506 1.000000 -0.794154
v 0.400506 1.000000 0.794154
v 0.900506 1.000000 -0.294154
v -0.900506 1.000000 0.294154
v -0.400506 1.000000 -0.794154
v 0.000000 1.420681 0.500000
v 0.000000 1.420681 -0.500000
v 0.500000 1.420681 0.000000
v -0.500000 1.420681 0.000000
v -0.450253 1.420681 -0.397077
v 0.450253 1.420681 -0.397077
v 0.450253 1.420681 0.397077
v -0.450253 1.420681 0.397077
vn -0.5227 0.6734 0.5227
vn -0.4429 0.1369 0.8860
vn -0.9284 0.1838 -0.3229
vn -0.0000 -1.0000 -0.0000
vn 0.9284 0.1838 0.3229
vn 0.4429 0.1369 -0.8860
vn 0.4429 -0.1369 -0.8860
vn -0.4429 -0.1369 -0.8860
vn -0.4429 0.1369 -0.8860
vn 0.9284 -0.1838 0.3229
vn 0.9284 -0.1838 -0.3229
vn 0.9284 0.1838 -0.3229
vn -0.9284 -0.1838 -0.3229
vn -0.9284 -0.1838 0.3229
vn -0.9284 0.1838 0.3229
vn -0.4429 -0.1369 0.8860
vn 0.4429 -0.1369 0.8860
vn 0.4429 0.1369 0.8860
vn 0.2434 0.7007 0.6707
vn 0.3410 0.8761 -0.3410
vn -0.6647 0.7332 -0.1435
vn -0.3410 0.8761 -0.3410
vn -0.2434 0.7007 -0.6707
vn -0.5227 0.6734 -0.5227
vn 0.6647 0.7332 -0.1435
vn 0.5227 0.6734 -0.5227
vn 0.2434 0.7007 -0.6707
vn 0.5227 0.6734 0.5227
vn 0.6647 0.7332 0.1435
vn 0.3410 0.8761 0.3410
vn -0.2434 0.7007 0.6707
vn -0.3410 0.8761 0.3410
vn -0.6647 0.7332 0.1435
vn -0.1249 0.8282 -0.5463
vn -0.5493 0.8328 -0.0688
vn 0.5493 0.8328 0.0688
vn -0.3595 0.6177 -0.6994
vn 0.1249 0.8282 0.5463
vn -0.6918 0.6832 -0.2340
vn 0.3595 0.6177 0.6994
vn 0.6918 0.6832 0.2340
vt 0.597796 0.446634
vt 0.636612 0.555832
vt 0.555552 0.528794
vt 0.498238 0.418950
vt 0.845121 0.799097
vt 0.844588 0.969277
vt 0.778423 0.963180
vt 0.717114 0.957531
vt 0.689504 0.799960
vt 0.114941 0.455762
vt 0.116962 0.616990
vt 0.072588 0.615640
vt 0.030197 0.614351
vt 0.014955 0.461272
vt 0.386719 0.150406
vt 0.388286 0.012177
vt 0.469295 0.040605
vt 0.524945 0.151973
vt 0.120612 0.837107
vt 0.119737 0.990174
vt 0.075595 0.987378
vt 0.033101 0.984688
vt 0.018600 0.837407
vt 0.519536 0.798110
vt 0.518899 0.972775
vt 0.450799 0.966331
vt 0.387666 0.960357
vt 0.359156 0.798482
vt 0.518893 0.623978
vt 0.387858 0.636981
vt 0.645836 0.637991
vt 0.674783 0.798512
vt 0.646031 0.959393
vt 0.585066 0.965810
vt 0.120844 0.686140
vt 0.034672 0.691964
vt 0.206241 0.692887
vt 0.221655 0.838181
vt 0.205676 0.985073
vt 0.163563 0.987573
vt 0.385152 0.288629
vt 0.466782 0.262047
vt 0.304146 0.260203
vt 0.248493 0.148839
vt 0.306653 0.038762
vt 0.117323 0.309135
vt 0.033919 0.319816
vt 0.205671 0.316872
vt 0.221607 0.459832
vt 0.208946 0.615077
vt 0.163711 0.616018
vt 0.844576 0.630147
vt 0.717557 0.643247
vt 0.968156 0.644123
vt 0.996418 0.800019
vt 0.968606 0.956746
vt 0.909124 0.962756
vt 0.596533 0.175418
vt 0.566158 0.311379
vt 0.440745 0.308762
vt 0.496896 0.197891
vt 0.836254 0.174707
vt 0.867435 0.310487
vt 0.716796 0.313686
vt 0.716349 0.160019
vt 0.836598 0.445928
vt 0.798446 0.555354
vt 0.717610 0.582848
vt 0.717241 0.461203
vt 0.750000 0.562500
vt 0.812500 0.562500
vt 0.812500 0.625000
vt 0.750000 0.625000
vt 0.992852 0.307128
vt 0.936010 0.417656
vt 0.812500 0.500000
vt 0.875000 0.500000
vt 0.875000 0.562500
vt 0.797547 0.058303
vt 0.715975 0.030881
vt 0.879055 0.085703
vt 0.936043 0.196589
vt 0.625000 0.687500
vt 0.687500 0.687500
vt 0.687500 0.750000
vt 0.625000 0.750000
vt 0.634567 0.058787
vt 0.687500 0.625000
vt 0.750000 0.687500
vt 0.879346 0.527839
vt 0.553224 0.086670
s 0
usemtl Material
f 42/1/1 33/2/1 7/3/1 27/4/1
f 25/5/2 15/6/2 27/7/2 7/8/2 12/9/2
f 24/10/3 18/11/3 29/12/3 5/13/3 14/14/3
f 23/15/4 20/16/4 4/17/4 17/18/4
f 22/19/5 16/20/5 28/21/5 3/22/5 13/23/5
f 21/24/6 19/25/6 30/26/6 1/27/6 11/28/6
f 10/29/7 21/24/7 11/28/7 2/30/7
f 6/31/8 14/32/8 21/24/8 10/29/8
f 14/32/9 5/33/9 34/34/9 19/25/9 21/24/9
f 20/35/10 22/19/10 13/23/10 4/36/10
f 2/37/11 11/38/11 22/19/11 20/35/11
f 11/38/12 1/39/12 32/40/12 16/20/12 22/19/12
f 9/41/4 23/15/4 17/18/4 8/42/4
f 6/43/4 10/44/4 23/15/4 9/41/4
f 10/44/4 2/45/4 20/16/4 23/15/4
f 9/46/13 24/10/13 14/14/13 6/47/13
f 8/48/14 12/49/14 24/10/14 9/46/14
f 12/49/15 7/50/15 33/51/15 18/11/15 24/10/15
f 17/52/16 25/5/16 12/9/16 8/53/16
f 4/54/17 13/55/17 25/5/17 17/52/17
f 13/55/18 3/56/18 31/57/18 15/6/18 25/5/18
f 41/58/19 35/59/19 15/60/19 31/61/19
f 40/62/20 36/63/20 26/64/20 37/65/20
f 39/66/21 29/67/21 18/68/21 38/69/21
f 36/70/22 39/71/22 38/72/22 26/73/22
f 19/74/23 34/75/23 39/66/23 36/63/23
f 34/76/24 5/77/24 29/78/24 39/71/24
f 32/79/25 40/62/25 37/65/25 16/80/25
f 1/81/26 30/82/26 40/62/26 32/79/26
f 30/82/27 19/74/27 36/63/27 40/62/27
f 28/83/28 41/84/28 31/85/28 3/86/28
f 16/80/29 37/65/29 41/58/29 28/87/29
f 37/88/30 26/73/30 35/89/30 41/84/30
f 35/59/31 42/1/31 27/4/31 15/60/31
f 26/64/32 38/69/32 42/1/32 35/59/32
f 38/69/33 18/68/33 33/2/33 42/1/33
f 36/63/34 39/66/34 26/64/34
f 26/64/35 39/66/35 38/69/35
f 37/65/36 26/64/36 41/58/36
f 34/75/37 5/90/37 39/66/37
f 26/64/38 35/59/38 41/58/38
f 39/66/39 5/90/39 29/67/39
f 31/61/40 3/91/40 41/58/40
f 41/58/41 3/91/41 28/87/41
l 1 40
l 7 42
l 26 40
l 26 42
