# Blender 4.2.1 LTS
# www.blender.org
mtllib Crystal_Pillar.mtl
o Jagged_Pillar
v 0.683526 27.938736 -0.633215
v 0.683526 0.199328 -0.633215
v 0.683526 27.938736 0.633215
v 0.683526 0.199328 0.633215
v -0.683526 27.938736 -0.633215
v -0.683526 0.199328 -0.633215
v -0.683526 27.938736 0.633215
v -0.683526 0.199328 0.633215
v -1.000000 0.199328 0.000000
v 0.000000 0.199328 -1.000000
v 0.385565 14.069032 -0.353559
v -0.385565 14.069032 0.353559
v 0.385565 14.069032 0.353559
v -0.385565 14.069032 -0.353559
v 0.000000 27.938736 1.000000
v 1.000000 27.938736 0.000000
v 0.000000 0.199328 1.000000
v -1.000000 27.938736 0.000000
v 0.000000 27.938736 -1.000000
v 1.000000 0.199328 0.000000
v 0.000000 14.069032 -0.353559
v 0.385565 14.069032 0.000000
v 0.000000 0.199328 0.000000
v -0.385565 14.069032 0.000000
v 0.000000 14.069032 0.353559
v 0.000000 27.938736 0.000000
v -0.683526 0.199328 0.316607
v -0.341763 0.199328 -0.633215
v 0.624220 7.134180 -0.572992
v -0.624220 21.003883 0.572992
v 0.624220 7.134180 0.572992
v -0.624220 7.134180 -0.572992
v -0.341763 27.938736 0.633215
v 0.683526 27.938736 0.316607
v 0.341763 0.199328 0.633215
v -0.683526 27.938736 -0.316607
v 0.341763 27.938736 -0.633215
v 0.683526 0.199328 -0.316607
v -0.683526 0.199328 -0.316607
v 0.341763 0.199328 -0.633215
v 0.624220 21.003883 -0.572992
v -0.624220 7.134180 0.572992
v 0.624220 21.003883 0.572992
v -0.624220 21.003883 -0.572992
v 0.341763 27.938736 0.633215
v 0.683526 27.938736 -0.316607
v -0.341763 0.199328 0.633215
v -0.683526 27.938736 0.316607
v -0.341763 27.938736 -0.633215
v 0.683526 0.199328 0.316607
v 0.192783 14.069032 -0.353559
v -0.192783 14.069032 -0.353559
v -0.000000 7.134180 -0.572992
v -0.000000 21.003883 -0.572992
v 0.385565 14.069032 0.176779
v 0.385565 14.069032 -0.176779
v 0.624220 7.134180 -0.000000
v 0.624220 21.003883 -0.000000
v 0.000000 0.199328 0.500000
v 0.000000 0.199328 -0.500000
v -0.500000 0.199328 0.000000
v 0.500000 0.199328 0.000000
v -0.385565 14.069032 -0.176779
v -0.385565 14.069032 0.176779
v -0.624220 7.134180 -0.000000
v -0.624220 21.003883 -0.000000
v -0.192783 14.069032 0.353559
v 0.192783 14.069032 0.353559
v -0.000000 7.134180 0.572992
v -0.000000 21.003883 0.572992
v 0.000000 27.938736 0.500000
v 0.000000 27.938736 -0.500000
v 0.500000 27.938736 0.000000
v -0.500000 27.938736 0.000000
v -0.341763 27.938736 -0.316607
v 0.341763 27.938736 -0.316607
v 0.341763 27.938736 0.316607
v 0.312110 21.003883 0.572992
v 0.312110 7.134180 0.572992
v -0.312110 7.134180 0.572992
v -0.624220 21.003883 0.286496
v -0.624220 7.134180 0.286496
v -0.624220 7.134180 -0.286496
v 0.341763 0.199328 -0.316607
v -0.341763 0.199328 -0.316607
v -0.341763 0.199328 0.316607
v 0.624220 21.003883 -0.286496
v 0.624220 7.134180 -0.286496
v 0.624220 7.134180 0.286496
v -0.312110 21.003883 -0.572992
v -0.312110 7.134180 -0.572992
v 0.312110 7.134180 -0.572992
v 0.312110 21.003883 -0.572992
v 0.624220 21.003883 0.286496
v 0.341763 0.199328 0.316607
v -0.624220 21.003883 -0.286496
v -0.312110 21.003883 0.572992
v -0.341763 27.938736 0.316607
vn -0.0000 1.0000 -0.0000
vn -0.0000 -0.0087 1.0000
vn -1.0000 -0.0086 -0.0000
vn -0.0000 -1.0000 -0.0000
vn 1.0000 -0.0086 -0.0000
vn -0.0000 -0.0087 -1.0000
vn -0.0000 0.0316 -0.9995
vn -0.4890 -0.0317 -0.8717
vn 0.9994 0.0344 -0.0000
vn 0.8851 -0.0288 -0.4645
vn -0.9994 0.0344 -0.0000
vn -0.8851 -0.0288 0.4645
vn -0.0000 0.0316 0.9995
vn 0.4890 -0.0317 0.8717
vn -0.0000 -0.0316 0.9995
vn 0.4890 0.0317 0.8717
vn -0.0000 0.0087 1.0000
vn -0.4890 0.0317 0.8717
vn -0.9994 -0.0344 -0.0000
vn -0.8851 0.0288 0.4645
vn -1.0000 0.0086 -0.0000
vn -0.8851 0.0288 -0.4645
vn 0.9994 -0.0344 -0.0000
vn 0.8851 0.0288 -0.4645
vn 1.0000 0.0086 -0.0000
vn 0.8851 0.0288 0.4645
vn -0.0000 -0.0316 -0.9995
vn -0.4890 0.0317 -0.8717
vn -0.0000 0.0087 -1.0000
vn 0.4890 0.0317 -0.8717
vn 0.4890 -0.0317 -0.8717
vn 0.8851 -0.0288 0.4645
vn -0.8851 -0.0288 -0.4645
vn -0.4890 -0.0317 0.8717
vt 0.812500 0.687500
vt 0.875000 0.687500
vt 0.875000 0.750000
vt 0.812500 0.750000
vt 0.562500 0.937500
vt 0.625000 0.937500
vt 0.625000 1.000000
vt 0.562500 1.000000
vt 0.562500 0.187500
vt 0.625000 0.187500
vt 0.625000 0.250000
vt 0.562500 0.250000
vt 0.312500 0.687500
vt 0.375000 0.687500
vt 0.375000 0.750000
vt 0.312500 0.750000
vt 0.562500 0.687500
vt 0.625000 0.687500
vt 0.625000 0.750000
vt 0.562500 0.750000
vt 0.562500 0.437500
vt 0.625000 0.437500
vt 0.625000 0.500000
vt 0.562500 0.500000
vt 0.437500 0.437500
vt 0.500000 0.437500
vt 0.500000 0.500000
vt 0.437500 0.500000
vt 0.437500 0.312500
vt 0.500000 0.312500
vt 0.500000 0.375000
vt 0.437500 0.375000
vt 0.562500 0.312500
vt 0.625000 0.312500
vt 0.625000 0.375000
vt 0.562500 0.375000
vt 0.437500 0.687500
vt 0.500000 0.687500
vt 0.500000 0.750000
vt 0.437500 0.750000
vt 0.437500 0.562500
vt 0.500000 0.562500
vt 0.500000 0.625000
vt 0.437500 0.625000
vt 0.562500 0.562500
vt 0.625000 0.562500
vt 0.625000 0.625000
vt 0.562500 0.625000
vt 0.187500 0.687500
vt 0.250000 0.687500
vt 0.250000 0.750000
vt 0.187500 0.750000
vt 0.187500 0.562500
vt 0.250000 0.562500
vt 0.250000 0.625000
vt 0.187500 0.625000
vt 0.312500 0.562500
vt 0.375000 0.562500
vt 0.375000 0.625000
vt 0.312500 0.625000
vt 0.437500 0.187500
vt 0.500000 0.187500
vt 0.500000 0.250000
vt 0.437500 0.250000
vt 0.437500 0.062500
vt 0.500000 0.062500
vt 0.500000 0.125000
vt 0.437500 0.125000
vt 0.562500 0.062500
vt 0.625000 0.062500
vt 0.625000 0.125000
vt 0.562500 0.125000
vt 0.437500 0.937500
vt 0.500000 0.937500
vt 0.500000 1.000000
vt 0.437500 1.000000
vt 0.437500 0.812500
vt 0.500000 0.812500
vt 0.500000 0.875000
vt 0.437500 0.875000
vt 0.562500 0.812500
vt 0.625000 0.812500
vt 0.625000 0.875000
vt 0.562500 0.875000
vt 0.687500 0.687500
vt 0.750000 0.687500
vt 0.750000 0.750000
vt 0.687500 0.750000
vt 0.687500 0.562500
vt 0.750000 0.562500
vt 0.750000 0.625000
vt 0.687500 0.625000
vt 0.812500 0.562500
vt 0.875000 0.562500
vt 0.875000 0.625000
vt 0.812500 0.625000
vt 0.750000 0.500000
vt 0.812500 0.500000
vt 0.875000 0.500000
vt 0.687500 0.500000
vt 0.375000 0.812500
vt 0.375000 0.875000
vt 0.375000 0.937500
vt 0.375000 1.000000
vt 0.500000 0.000000
vt 0.562500 0.000000
vt 0.625000 0.000000
vt 0.375000 0.062500
vt 0.375000 0.125000
vt 0.375000 0.000000
vt 0.437500 0.000000
vt 0.375000 0.187500
vt 0.375000 0.250000
vt 0.250000 0.500000
vt 0.312500 0.500000
vt 0.375000 0.500000
vt 0.125000 0.562500
vt 0.125000 0.625000
vt 0.125000 0.500000
vt 0.187500 0.500000
vt 0.125000 0.687500
vt 0.125000 0.750000
vt 0.375000 0.312500
vt 0.375000 0.375000
vt 0.375000 0.437500
s 0
usemtl Material
f 98/1/1 48/2/1 7/3/1 33/4/1
f 97/5/2 33/6/2 7/7/2 30/8/2
f 96/9/3 36/10/3 5/11/3 44/12/3
f 95/13/4 50/14/4 4/15/4 35/16/4
f 94/17/5 34/18/5 3/19/5 43/20/5
f 93/21/6 37/22/6 1/23/6 41/24/6
f 92/25/7 51/26/7 11/27/7 29/28/7
f 91/29/7 52/30/7 21/31/7 53/32/7
f 90/33/8 49/34/8 19/35/8 54/36/8
f 89/37/9 55/38/9 13/39/9 31/40/9
f 88/41/9 56/42/9 22/43/9 57/44/9
f 87/45/10 46/46/10 16/47/10 58/48/10
f 86/49/4 59/50/4 17/51/4 47/52/4
f 85/53/4 60/54/4 23/55/4 61/56/4
f 84/57/4 38/58/4 20/59/4 62/60/4
f 83/61/11 63/62/11 14/63/11 32/64/11
f 82/65/11 64/66/11 24/67/11 65/68/11
f 81/69/12 48/70/12 18/71/12 66/72/12
f 80/73/13 67/74/13 12/75/13 42/76/13
f 79/77/13 68/78/13 25/79/13 69/80/13
f 78/81/14 45/82/14 15/83/14 70/84/14
f 77/85/1 71/86/1 15/87/1 45/88/1
f 76/89/1 72/90/1 26/91/1 73/92/1
f 75/93/1 36/94/1 18/95/1 74/96/1
f 72/90/1 75/93/1 74/96/1 26/91/1
f 19/97/1 49/98/1 75/93/1 72/90/1
f 49/98/1 5/99/1 36/94/1 75/93/1
f 46/46/1 76/89/1 73/92/1 16/47/1
f 1/23/1 37/100/1 76/89/1 46/46/1
f 37/100/1 19/97/1 72/90/1 76/89/1
f 34/18/1 77/85/1 45/88/1 3/19/1
f 16/47/1 73/92/1 77/85/1 34/18/1
f 73/92/1 26/91/1 71/86/1 77/85/1
f 68/78/15 78/81/15 70/84/15 25/79/15
f 13/39/15 43/20/15 78/81/15 68/78/15
f 43/20/2 3/19/2 45/82/2 78/81/2
f 35/101/16 79/77/16 69/80/16 17/102/16
f 4/15/17 31/40/17 79/77/17 35/101/17
f 31/40/13 13/39/13 68/78/13 79/77/13
f 47/103/17 80/73/17 42/76/17 8/104/17
f 17/102/18 69/80/18 80/73/18 47/103/18
f 69/80/13 25/79/13 67/74/13 80/73/13
f 64/66/19 81/69/19 66/72/19 24/67/19
f 12/105/19 30/106/19 81/69/19 64/66/19
f 30/106/3 7/107/3 48/70/3 81/69/3
f 27/108/20 82/65/20 65/68/20 9/109/20
f 8/110/21 42/111/21 82/65/21 27/108/21
f 42/111/11 12/105/11 64/66/11 82/65/11
f 39/112/21 83/61/21 32/64/21 6/113/21
f 9/109/22 65/68/22 83/61/22 39/112/22
f 65/68/11 24/67/11 63/62/11 83/61/11
f 60/54/4 84/57/4 62/60/4 23/55/4
f 10/114/4 40/115/4 84/57/4 60/54/4
f 40/115/4 2/116/4 38/58/4 84/57/4
f 39/117/4 85/53/4 61/56/4 9/118/4
f 6/119/4 28/120/4 85/53/4 39/117/4
f 28/120/4 10/114/4 60/54/4 85/53/4
f 27/121/4 86/49/4 47/52/4 8/122/4
f 9/118/4 61/56/4 86/49/4 27/121/4
f 61/56/4 23/55/4 59/50/4 86/49/4
f 56/42/23 87/45/23 58/48/23 22/43/23
f 11/27/23 41/24/23 87/45/23 56/42/23
f 41/24/5 1/23/5 46/46/5 87/45/5
f 38/58/24 88/41/24 57/44/24 20/59/24
f 2/116/25 29/28/25 88/41/25 38/58/25
f 29/28/9 11/27/9 56/42/9 88/41/9
f 50/14/25 89/37/25 31/40/25 4/15/25
f 20/59/26 57/44/26 89/37/26 50/14/26
f 57/44/9 22/43/9 55/38/9 89/37/9
f 52/30/27 90/33/27 54/36/27 21/31/27
f 14/63/27 44/12/27 90/33/27 52/30/27
f 44/12/6 5/11/6 49/34/6 90/33/6
f 28/123/28 91/29/28 53/32/28 10/124/28
f 6/113/29 32/64/29 91/29/29 28/123/29
f 32/64/7 14/63/7 52/30/7 91/29/7
f 40/125/29 92/25/29 29/28/29 2/116/29
f 10/124/30 53/32/30 92/25/30 40/125/30
f 53/32/7 21/31/7 51/26/7 92/25/7
f 51/26/27 93/21/27 41/24/27 11/27/27
f 21/31/27 54/36/27 93/21/27 51/26/27
f 54/36/31 19/35/31 37/22/31 93/21/31
f 55/38/23 94/17/23 43/20/23 13/39/23
f 22/43/23 58/48/23 94/17/23 55/38/23
f 58/48/32 16/47/32 34/18/32 94/17/32
f 59/50/4 95/13/4 35/16/4 17/51/4
f 23/55/4 62/60/4 95/13/4 59/50/4
f 62/60/4 20/59/4 50/14/4 95/13/4
f 63/62/19 96/9/19 44/12/19 14/63/19
f 24/67/19 66/72/19 96/9/19 63/62/19
f 66/72/33 18/71/33 36/10/33 96/9/33
f 67/74/15 97/5/15 30/8/15 12/75/15
f 25/79/15 70/84/15 97/5/15 67/74/15
f 70/84/34 15/83/34 33/6/34 97/5/34
f 71/86/1 98/1/1 33/4/1 15/87/1
f 26/91/1 74/96/1 98/1/1 71/86/1
f 74/96/1 18/95/1 48/2/1 98/1/1
