# Blender 4.2.1 LTS
# www.blender.org
mtllib Hill_Barrier_02.mtl
o Plane
v -9.170192 2.683198 30.411011
v 7.066398 0.000000 30.411011
v -9.170192 2.683198 -30.411011
v 7.066398 0.000000 -30.411011
v -9.170192 2.683198 0.000000
v 0.000000 6.858860 29.981028
v 7.066398 0.000000 0.000000
v 0.000000 7.163379 -31.876154
v 0.000000 6.892159 0.000000
v -9.170192 2.683198 15.205505
v 3.533199 2.620809 30.411011
v 7.066398 0.000000 -15.205505
v -3.533199 8.960196 -30.411011
v -9.170192 2.683198 -15.205505
v -3.533199 8.327235 30.411011
v 7.066398 0.000000 15.205505
v 3.533199 2.620809 -31.532084
v 0.000000 6.195549 -15.205505
v 0.000000 6.880392 15.205505
v -3.533199 9.209099 0.000000
v 3.533199 2.620809 0.000000
v 3.533199 2.620809 15.205505
v -3.533199 9.425763 15.205505
v -3.533199 8.683501 -15.205505
v 3.533199 2.620809 -15.205505
v -9.170192 2.683198 22.808258
v 5.299798 1.310405 30.411011
v 7.066398 0.000000 -22.808258
v -6.104923 6.038313 -30.411011
v -9.170192 2.683198 -7.602753
v -1.766599 7.593048 29.424875
v 7.066398 0.000000 7.602753
v 1.766599 4.892094 -32.095425
v 0.000000 6.679464 -23.540831
v 0.000000 6.543854 7.602753
v -6.104923 6.038313 0.000000
v 1.766599 4.756484 0.000000
v -9.170192 2.683198 7.602753
v 1.766599 4.739835 29.424875
v 7.066398 0.000000 -7.602753
v -1.766599 8.289919 -31.143585
v -9.170192 2.683198 -22.808258
v -6.104923 6.038313 30.411011
v 7.066398 0.000000 22.808258
v 5.299798 1.310405 -31.518011
v 0.000000 6.080010 -7.602753
v 0.000000 6.527205 21.822123
v -1.766599 8.464329 0.000000
v 5.299798 1.310405 0.000000
v 3.533199 2.620809 7.602753
v 3.533199 2.620809 22.808258
v 1.766599 4.408179 15.205505
v 5.299798 1.310405 15.205505
v -3.533199 8.327235 7.602753
v -3.533199 8.327235 22.808258
v -6.104923 6.038313 15.205505
v -1.766599 8.018407 15.205505
v -3.533199 8.327235 -22.808258
v -3.533199 7.842496 -7.602753
v -6.104923 6.038313 -15.205505
v -1.766599 7.840210 -15.205505
v 3.533199 2.620809 -22.808258
v 3.533199 2.620809 -7.602753
v 1.766599 4.408179 -15.205505
v 5.299798 1.310405 -15.205505
v 5.299798 1.310405 -7.602753
v 1.766599 4.582332 -7.602753
v 1.766599 4.650136 -23.174545
v -1.766599 7.435544 -7.602753
v -6.104923 6.038313 -7.602753
v -6.104923 6.038313 -22.808258
v -1.766599 7.427220 22.315189
v -6.104923 6.038313 22.808258
v -6.104923 6.038313 7.602753
v 5.299798 1.310405 22.808258
v 1.766599 4.574007 22.315189
v 1.766599 4.582332 7.602753
v 5.299798 1.310405 7.602753
v -1.766599 7.435544 7.602753
v -1.766599 7.503349 -23.174545
v 5.299798 1.310405 -22.808258
vn 0.5958 0.8032 -0.0000
vn 0.4982 0.8645 0.0674
vn 0.5704 0.8180 0.0741
vn 0.7573 0.6530 0.0075
vn 0.7275 0.6861 -0.0077
vn -0.7273 0.6852 0.0397
vn -0.7402 0.6707 0.0485
vn 0.5050 0.8611 0.0592
vn -0.7114 0.7022 0.0292
vn -0.6537 0.7556 0.0418
vn 0.6470 0.7620 0.0261
vn 0.7717 0.6359 0.0087
vn 0.7277 0.6858 -0.0079
vn 0.6809 0.7324 -0.0028
vn 0.7162 0.6964 -0.0452
vn 0.7573 0.6530 -0.0075
vn 0.7720 0.6351 0.0267
vn 0.7320 0.6806 0.0303
vn 0.7333 0.6798 0.0106
vn 0.3326 0.9399 0.0770
vn 0.3065 0.9403 -0.1481
vn 0.6353 0.7667 -0.0928
vn -0.7383 0.6745 -0.0000
vn -0.6938 0.7173 -0.0645
vn -0.6922 0.7215 -0.0169
vn 0.5536 0.8274 0.0950
vn 0.4162 0.9092 -0.0102
vn 0.4200 0.9070 -0.0296
vn -0.6648 0.7470 -0.0000
vn -0.7402 0.6707 -0.0485
vn 0.7810 0.6245 0.0085
vn 0.7550 0.6554 -0.0214
vn 0.7566 0.6538 -0.0074
vn 0.7571 0.6529 0.0224
vn 0.7820 0.6232 -0.0067
vn 0.7277 0.6858 0.0079
vn 0.4176 0.9016 0.1133
vn 0.5431 0.8346 -0.0923
vn 0.4974 0.8659 -0.0524
vn 0.4099 0.9084 0.0828
vn 0.4230 0.9052 -0.0403
vn 0.5732 0.8194 0.0074
vt 0.756139 0.397966
vt 0.752983 0.370343
vt 0.838198 0.370677
vt 0.854986 0.398355
vt 0.776508 0.515310
vt 0.778549 0.484077
vt 0.879961 0.484089
vt 0.875462 0.515302
vt 0.405476 0.513884
vt 0.406375 0.482721
vt 0.497139 0.482801
vt 0.497082 0.513723
vt 0.411018 0.396612
vt 0.412137 0.369005
vt 0.497347 0.369340
vt 0.497297 0.396950
vt 0.408156 0.453270
vt 0.409871 0.424919
vt 0.497245 0.425262
vt 0.497193 0.453436
vt 0.235882 0.452602
vt 0.235127 0.424233
vt 0.322499 0.424576
vt 0.319410 0.453105
vt 0.238466 0.395934
vt 0.241722 0.368337
vt 0.326929 0.368671
vt 0.324741 0.396273
vt 0.406400 0.592019
vt 0.404560 0.545630
vt 0.497025 0.545819
vt 0.496948 0.592376
vt 0.225309 0.591305
vt 0.219633 0.544902
vt 0.310101 0.545039
vt 0.315854 0.591662
vt 0.228229 0.513190
vt 0.236665 0.482067
vt 0.315028 0.482094
vt 0.312837 0.513225
vt 0.768600 0.593447
vt 0.774432 0.547087
vt 0.869190 0.547335
vt 0.859153 0.593804
vt 0.587497 0.592733
vt 0.589060 0.546453
vt 0.682603 0.546655
vt 0.678047 0.593090
vt 0.588691 0.514605
vt 0.587504 0.483800
vt 0.678070 0.484066
vt 0.681017 0.514765
vt 0.768773 0.454616
vt 0.759375 0.426292
vt 0.859639 0.426686
vt 0.874173 0.454774
vt 0.586231 0.453970
vt 0.584621 0.425605
vt 0.671997 0.425949
vt 0.674981 0.454502
vt 0.583576 0.397289
vt 0.582558 0.369674
vt 0.667770 0.370008
vt 0.669857 0.397628
vt 0.584714 0.645097
vt 0.672569 0.645444
vt 0.496860 0.644750
vt 0.760425 0.645791
vt 0.848283 0.646137
vt 0.127172 0.544538
vt 0.142008 0.512768
vt 0.138147 0.481415
vt 0.233308 0.643710
vt 0.321157 0.644056
vt 0.145460 0.643363
vt 0.134765 0.590948
vt 0.409008 0.644403
vt 0.147757 0.423889
vt 0.152191 0.395595
vt 0.156516 0.368002
vt 0.152095 0.452097
s 0
usemtl Snow_Hill_02
f 81/1/1 28/2/1 4/3/1 45/4/1
f 80/5/2 34/6/2 8/7/2 41/8/2
f 79/9/3 35/10/3 9/11/3 48/12/3
f 78/13/1 32/14/1 7/15/1 49/16/1
f 77/17/4 50/18/4 21/19/4 37/20/4
f 76/21/5 51/22/5 22/23/5 52/24/5
f 75/25/1 44/26/1 16/27/1 53/28/1
f 74/29/6 54/30/6 20/31/6 36/32/6
f 73/33/7 55/34/7 23/35/7 56/36/7
f 72/37/8 47/38/8 19/39/8 57/40/8
f 71/41/9 58/42/9 13/43/9 29/44/9
f 70/45/10 59/46/10 24/47/10 60/48/10
f 69/49/11 46/50/11 18/51/11 61/52/11
f 68/53/12 62/54/12 17/55/12 33/56/12
f 67/57/13 63/58/13 25/59/13 64/60/13
f 66/61/1 40/62/1 12/63/1 65/64/1
f 63/58/1 66/61/1 65/64/1 25/59/1
f 21/19/1 49/16/1 66/61/1 63/58/1
f 49/16/1 7/15/1 40/62/1 66/61/1
f 46/50/14 67/57/14 64/60/14 18/51/14
f 9/11/15 37/20/15 67/57/15 46/50/15
f 37/20/16 21/19/16 63/58/16 67/57/16
f 34/6/17 68/53/17 33/56/17 8/7/17
f 18/51/18 64/60/18 68/53/18 34/6/18
f 64/60/19 25/59/19 62/54/19 68/53/19
f 59/46/20 69/49/20 61/52/20 24/47/20
f 20/31/21 48/12/21 69/49/21 59/46/21
f 48/12/22 9/11/22 46/50/22 69/49/22
f 30/65/23 70/45/23 60/48/23 14/66/23
f 5/67/23 36/32/23 70/45/23 30/65/23
f 36/32/24 20/31/24 59/46/24 70/45/24
f 42/68/23 71/41/23 29/44/23 3/69/23
f 14/66/23 60/48/23 71/41/23 42/68/23
f 60/48/25 24/47/25 58/42/25 71/41/25
f 55/34/26 72/37/26 57/40/26 23/35/26
f 15/70/27 31/71/27 72/37/27 55/34/27
f 31/71/28 6/72/28 47/38/28 72/37/28
f 26/73/23 73/33/23 56/36/23 10/74/23
f 1/75/23 43/76/23 73/33/23 26/73/23
f 43/76/29 15/70/29 55/34/29 73/33/29
f 38/77/23 74/29/23 36/32/23 5/67/23
f 10/74/23 56/36/23 74/29/23 38/77/23
f 56/36/30 23/35/30 54/30/30 74/29/30
f 51/22/1 75/25/1 53/28/1 22/23/1
f 11/78/1 27/79/1 75/25/1 51/22/1
f 27/79/1 2/80/1 44/26/1 75/25/1
f 47/38/31 76/21/31 52/24/31 19/39/31
f 6/72/32 39/81/32 76/21/32 47/38/32
f 39/81/33 11/78/33 51/22/33 76/21/33
f 35/10/34 77/17/34 37/20/34 9/11/34
f 19/39/35 52/24/35 77/17/35 35/10/35
f 52/24/36 22/23/36 50/18/36 77/17/36
f 50/18/1 78/13/1 49/16/1 21/19/1
f 22/23/1 53/28/1 78/13/1 50/18/1
f 53/28/1 16/27/1 32/14/1 78/13/1
f 54/30/37 79/9/37 48/12/37 20/31/37
f 23/35/38 57/40/38 79/9/38 54/30/38
f 57/40/39 19/39/39 35/10/39 79/9/39
f 58/42/40 80/5/40 41/8/40 13/43/40
f 24/47/41 61/52/41 80/5/41 58/42/41
f 61/52/42 18/51/42 34/6/42 80/5/42
f 62/54/1 81/1/1 45/4/1 17/55/1
f 25/59/1 65/64/1 81/1/1 62/54/1
f 65/64/1 12/63/1 28/2/1 81/1/1
