# Blender 4.2.1 LTS
# www.blender.org
mtllib Hill_Barrier_01.mtl
o Plane
v -6.823375 2.811840 13.681015
v 6.823375 -0.351301 13.681015
v -6.823375 2.811840 -13.681015
v 6.823375 -0.603210 -13.681015
v -6.823375 2.811840 0.000000
v 0.000000 5.113000 13.681015
v 6.823375 0.000000 0.000000
v 0.000000 4.652120 -13.681015
v 0.000000 5.878305 0.000000
v -6.823375 2.811840 6.840508
v 3.411687 2.236691 13.681015
v 6.823375 0.275625 -6.840508
v -3.411687 5.568807 -13.681015
v -6.823375 2.811840 -6.840508
v -3.411687 6.103714 13.681015
v 6.823375 -0.324271 6.840508
v 3.411687 2.364887 -13.681015
v 0.000000 5.718664 -6.840508
v 0.000000 6.205845 6.840508
v -3.411687 7.321462 0.000000
v 3.411687 3.000009 0.000000
v 3.411687 2.990087 6.840508
v -3.411687 7.401022 6.840508
v -3.411687 6.569859 -6.840508
v 3.411687 3.000009 -6.840508
v -6.823375 2.811840 10.260761
v 5.117531 1.500004 13.681015
v 6.823375 -0.379995 -10.260761
v -5.117531 5.018578 -13.681015
v -6.823375 2.216760 -3.420254
v -1.705844 6.098958 13.681015
v 6.823375 -0.546859 3.420254
v 1.705844 3.511421 -13.681015
v 0.000000 5.113000 -10.260761
v 0.000000 5.708994 3.420254
v -5.117531 5.018578 0.000000
v 1.705844 4.787048 0.000000
v -6.823375 2.811840 3.420254
v 1.705844 4.056504 13.681015
v 6.823375 -0.601704 -3.420254
v -1.705844 5.491828 -13.681015
v -6.823375 2.811840 -10.260761
v -5.117531 5.018578 13.681015
v 6.823375 0.454019 10.260761
v 5.117531 1.500004 -13.681015
v 0.000000 5.624592 -3.420254
v 0.000000 6.460981 10.260761
v -1.705844 7.066530 0.000000
v 5.117531 0.994395 0.000000
v 3.411687 2.850469 3.420254
v 3.411687 3.000009 10.260761
v 1.705844 4.056504 6.840508
v 5.117531 1.500004 6.840508
v -3.411687 7.281081 3.420254
v -3.411687 7.129690 10.260761
v -5.117531 5.018578 6.840508
v -1.705844 7.274155 6.840508
v -3.411687 6.569859 -10.260761
v -3.411687 6.997985 -3.420254
v -5.117531 5.299726 -6.840508
v -1.705844 7.624132 -6.840508
v 3.411687 3.000009 -10.260761
v 3.411687 3.144662 -3.420254
v 1.705844 4.056504 -6.840508
v 5.117531 1.500004 -6.840508
v 5.117531 1.500004 -3.420254
v 1.705844 4.750811 -3.420254
v 1.705844 4.061123 -10.260761
v -1.705844 7.369838 -3.420254
v -5.117531 4.562569 -3.420254
v -5.117531 5.018578 -10.260761
v -1.705844 7.323960 10.260761
v -5.117531 5.018578 10.260761
v -5.117531 5.405792 3.420254
v 5.117531 1.500004 10.260761
v 1.705844 4.056504 10.260761
v 1.705844 4.056504 3.420254
v 5.117531 1.500004 3.420254
v -1.705844 7.021230 3.420254
v -1.705844 6.909586 -10.260761
v 5.117531 1.500004 -10.260761
vn 0.7593 0.6504 -0.0212
vn 0.5975 0.7732 -0.2124
vn 0.5910 0.8063 0.0253
vn 0.6654 0.7465 0.0045
vn 0.6564 0.7482 0.0963
vn 0.5283 0.8490 -0.0012
vn 0.6414 0.7623 -0.0867
vn -0.7742 0.6322 -0.0321
vn -0.7962 0.6045 0.0240
vn 0.4923 0.8696 -0.0388
vn -0.5204 0.8449 -0.1236
vn -0.7353 0.6770 0.0306
vn 0.7302 0.6824 0.0348
vn 0.5376 0.8308 -0.1439
vn 0.6124 0.7847 -0.0962
vn 0.6951 0.7130 0.0914
vn 0.6777 0.7352 -0.0155
vn 0.7290 0.6814 0.0648
vn 0.6720 0.7405 -0.0104
vn 0.5951 0.8006 -0.0702
vn 0.4988 0.8660 -0.0367
vn 0.7051 0.7090 0.0112
vn 0.5365 0.8348 -0.1233
vn 0.6211 0.7807 -0.0686
vn 0.5274 0.8496 0.0006
vn -0.3856 0.9224 -0.0234
vn -0.0343 0.9994 -0.0029
vn 0.6520 0.7582 0.0055
vn -0.8119 0.5730 0.1116
vn -0.7969 0.5972 -0.0918
vn -0.8097 0.5830 -0.0664
vn -0.7912 0.6116 -0.0000
vn -0.8087 0.5877 -0.0242
vn -0.6370 0.7702 -0.0317
vn -0.0197 0.9993 0.0324
vn -0.0527 0.9486 0.3121
vn 0.4524 0.8347 0.3140
vn -0.6796 0.7254 0.1088
vn -0.8147 0.5790 -0.0328
vn -0.8147 0.5790 0.0328
vn -0.7801 0.6251 0.0244
vn 0.6591 0.7520 -0.0011
vn 0.5459 0.8327 0.0929
vn 0.6447 0.7592 0.0894
vn 0.8001 0.5994 -0.0224
vn 0.7054 0.6954 0.1370
vn 0.6422 0.7618 0.0850
vn 0.6234 0.7752 0.1020
vn 0.7434 0.6671 -0.0485
vn 0.5543 0.8322 -0.0170
vn 0.7008 0.7124 -0.0371
vn 0.6398 0.7684 -0.0157
vn 0.7501 0.6610 -0.0215
vn 0.1492 0.9887 0.0124
vn 0.1125 0.9922 -0.0541
vn 0.5699 0.8168 -0.0895
vn -0.0724 0.9403 -0.3325
vn -0.3765 0.9214 -0.0962
vn 0.7291 0.6720 -0.1297
vn 0.5680 0.8195 -0.0761
vn 0.6603 0.7510 -0.0000
vn 0.6713 0.7378 -0.0707
vt 0.875000 0.875000
vt 1.000000 0.875000
vt 1.000000 1.000000
vt 0.875000 1.000000
vt 0.375000 0.875000
vt 0.500000 0.875000
vt 0.500000 1.000000
vt 0.375000 1.000000
vt 0.375000 0.375000
vt 0.500000 0.375000
vt 0.500000 0.500000
vt 0.375000 0.500000
vt 0.875000 0.375000
vt 1.000000 0.375000
vt 1.000000 0.500000
vt 0.875000 0.500000
vt 0.625000 0.375000
vt 0.750000 0.375000
vt 0.750000 0.500000
vt 0.625000 0.500000
vt 0.625000 0.125000
vt 0.750000 0.125000
vt 0.750000 0.250000
vt 0.625000 0.250000
vt 0.875000 0.125000
vt 1.000000 0.125000
vt 1.000000 0.250000
vt 0.875000 0.250000
vt 0.125000 0.375000
vt 0.250000 0.375000
vt 0.250000 0.500000
vt 0.125000 0.500000
vt 0.125000 0.125000
vt 0.250000 0.125000
vt 0.250000 0.250000
vt 0.125000 0.250000
vt 0.375000 0.125000
vt 0.500000 0.125000
vt 0.500000 0.250000
vt 0.375000 0.250000
vt 0.125000 0.875000
vt 0.250000 0.875000
vt 0.250000 1.000000
vt 0.125000 1.000000
vt 0.125000 0.625000
vt 0.250000 0.625000
vt 0.250000 0.750000
vt 0.125000 0.750000
vt 0.375000 0.625000
vt 0.500000 0.625000
vt 0.500000 0.750000
vt 0.375000 0.750000
vt 0.625000 0.875000
vt 0.750000 0.875000
vt 0.750000 1.000000
vt 0.625000 1.000000
vt 0.625000 0.625000
vt 0.750000 0.625000
vt 0.750000 0.750000
vt 0.625000 0.750000
vt 0.875000 0.625000
vt 1.000000 0.625000
vt 1.000000 0.750000
vt 0.875000 0.750000
vt 0.000000 0.625000
vt 0.000000 0.750000
vt 0.000000 0.500000
vt 0.000000 0.875000
vt 0.000000 1.000000
vt 0.250000 0.000000
vt 0.375000 0.000000
vt 0.500000 0.000000
vt 0.000000 0.125000
vt 0.000000 0.250000
vt 0.000000 0.000000
vt 0.125000 0.000000
vt 0.000000 0.375000
vt 0.750000 0.000000
vt 0.875000 0.000000
vt 1.000000 0.000000
vt 0.625000 0.000000
s 0
f 81/1/1 28/2/1 4/3/1 45/4/1
f 80/5/2 34/6/2 8/7/2 41/8/2
f 79/9/3 35/10/3 9/11/3 48/12/3
f 78/13/4 32/14/4 7/15/4 49/16/4
f 77/17/5 50/18/5 21/19/5 37/20/5
f 76/21/6 51/22/6 22/23/6 52/24/6
f 75/25/7 44/26/7 16/27/7 53/28/7
f 74/29/8 54/30/8 20/31/8 36/32/8
f 73/33/9 55/34/9 23/35/9 56/36/9
f 72/37/10 47/38/10 19/39/10 57/40/10
f 71/41/11 58/42/11 13/43/11 29/44/11
f 70/45/12 59/46/12 24/47/12 60/48/12
f 69/49/13 46/50/13 18/51/13 61/52/13
f 68/53/14 62/54/14 17/55/14 33/56/14
f 67/57/15 63/58/15 25/59/15 64/60/15
f 66/61/16 40/62/16 12/63/16 65/64/16
f 63/58/17 66/61/17 65/64/17 25/59/17
f 21/19/18 49/16/18 66/61/18 63/58/18
f 49/16/19 7/15/19 40/62/19 66/61/19
f 46/50/20 67/57/20 64/60/20 18/51/20
f 9/11/21 37/20/21 67/57/21 46/50/21
f 37/20/22 21/19/22 63/58/22 67/57/22
f 34/6/23 68/53/23 33/56/23 8/7/23
f 18/51/24 64/60/24 68/53/24 34/6/24
f 64/60/25 25/59/25 62/54/25 68/53/25
f 59/46/26 69/49/26 61/52/26 24/47/26
f 20/31/27 48/12/27 69/49/27 59/46/27
f 48/12/28 9/11/28 46/50/28 69/49/28
f 30/65/29 70/45/29 60/48/29 14/66/29
f 5/67/30 36/32/30 70/45/30 30/65/30
f 36/32/31 20/31/31 59/46/31 70/45/31
f 42/68/32 71/41/32 29/44/32 3/69/32
f 14/66/33 60/48/33 71/41/33 42/68/33
f 60/48/34 24/47/34 58/42/34 71/41/34
f 55/34/35 72/37/35 57/40/35 23/35/35
f 15/70/36 31/71/36 72/37/36 55/34/36
f 31/71/37 6/72/37 47/38/37 72/37/37
f 26/73/32 73/33/32 56/36/32 10/74/32
f 1/75/32 43/76/32 73/33/32 26/73/32
f 43/76/38 15/70/38 55/34/38 73/33/38
f 38/77/39 74/29/39 36/32/39 5/67/39
f 10/74/40 56/36/40 74/29/40 38/77/40
f 56/36/41 23/35/41 54/30/41 74/29/41
f 51/22/42 75/25/42 53/28/42 22/23/42
f 11/78/43 27/79/43 75/25/43 51/22/43
f 27/79/44 2/80/44 44/26/44 75/25/44
f 47/38/45 76/21/45 52/24/45 19/39/45
f 6/72/46 39/81/46 76/21/46 47/38/46
f 39/81/47 11/78/47 51/22/47 76/21/47
f 35/10/48 77/17/48 37/20/48 9/11/48
f 19/39/49 52/24/49 77/17/49 35/10/49
f 52/24/50 22/23/50 50/18/50 77/17/50
f 50/18/51 78/13/51 49/16/51 21/19/51
f 22/23/52 53/28/52 78/13/52 50/18/52
f 53/28/53 16/27/53 32/14/53 78/13/53
f 54/30/54 79/9/54 48/12/54 20/31/54
f 23/35/55 57/40/55 79/9/55 54/30/55
f 57/40/56 19/39/56 35/10/56 79/9/56
f 58/42/57 80/5/57 41/8/57 13/43/57
f 24/47/58 61/52/58 80/5/58 58/42/58
f 61/52/59 18/51/59 34/6/59 80/5/59
f 62/54/60 81/1/60 45/4/60 17/55/60
f 25/59/61 65/64/61 81/1/61 62/54/61
f 65/64/62 12/63/62 28/2/62 81/1/62
