# Blender 4.2.1 LTS
# www.blender.org
mtllib Massive_Hole_02.mtl
o Massive_Hole
v -9.368707 0.000000 10.192847
v 9.950027 0.000000 10.141624
v -9.678565 0.000000 -11.008754
v 9.844511 0.000000 -10.531264
v -11.887379 0.000000 0.000000
v 0.000000 0.000000 11.897154
v 11.307337 0.000000 0.000000
v 0.000000 0.000000 -11.476784
v 0.000000 -8.240919 0.000000
v -10.511898 0.000000 5.738392
v 5.255949 0.000000 11.476784
v 11.187802 0.000000 -5.738392
v -5.255949 0.000000 -11.776872
v -10.511898 0.000000 -5.738392
v -5.255949 0.000000 12.018390
v 10.511898 0.000000 5.738392
v 5.255949 0.000000 -11.476784
v 0.000000 -4.248829 -6.291973
v 0.000000 -4.248829 5.738392
v -6.004887 -4.248829 0.000000
v 5.255949 -4.248829 0.000000
v 5.255949 -4.248829 5.738392
v -5.255949 -4.248829 5.738392
v -5.255949 -4.248829 -5.738392
v 6.337132 -4.248829 -5.738392
v -9.517088 0.000000 8.607588
v 7.883924 0.000000 11.476784
v 10.511898 0.000000 -8.607588
v -7.883924 0.000000 -11.476784
v -10.511898 0.000000 -2.869196
v -2.627975 0.000000 11.194134
v 10.511898 0.000000 2.869196
v 2.627975 0.000000 -12.100586
v 0.000000 -1.495735 -9.084938
v 0.000000 -6.319755 3.942971
v -8.838676 -1.495735 0.000000
v 2.627975 -6.319755 0.000000
v -10.511898 0.000000 2.869196
v 2.627975 0.000000 11.061529
v 10.511898 0.000000 -2.869196
v -2.627975 0.000000 -10.928914
v -10.511898 0.000000 -8.607588
v -7.883924 0.000000 11.476784
v 10.511898 0.000000 8.607588
v 7.883924 0.000000 -11.476784
v 0.000000 -6.319755 -2.869196
v 0.000000 -1.495735 9.808403
v -2.627975 -6.319755 0.000000
v 8.657840 -1.495735 0.000000
v 6.085736 -4.248829 2.869196
v 5.255949 -1.495735 8.607588
v 2.627975 -4.248829 5.738392
v 7.883924 -1.495735 5.738392
v -5.255949 -4.248829 2.869196
v -5.255949 -1.495735 9.282870
v -7.883924 -1.495735 5.738392
v -2.627975 -4.248829 5.738392
v -5.255949 -1.495735 -9.209269
v -5.255949 -4.248829 -2.869196
v -7.883924 -1.495735 -5.738392
v -2.627975 -4.248829 -5.738392
v 5.255949 -1.495735 -8.607588
v 5.255949 -4.248829 -2.869196
v 2.627975 -4.248829 -5.738392
v 8.794519 -1.495735 -5.738392
v 7.883924 -1.495735 -2.869196
v 2.627975 -6.319755 -2.869196
v 2.627975 -1.495735 -9.349017
v -2.627975 -6.319755 -2.869196
v -7.883924 -1.495735 -2.869196
v -7.883924 -1.495735 -8.607588
v -2.627975 -1.495735 8.800797
v -7.258108 -1.495735 9.691151
v -7.883924 -1.495735 2.869196
v 7.018924 -1.495735 7.580992
v 2.627975 -1.495735 8.661935
v 3.541301 -6.319755 2.869196
v 7.883924 -1.495735 2.869196
v -2.627975 -6.319755 3.791738
v -2.627975 -1.495735 -8.607588
v 7.883924 -1.495735 -8.607588
vn 0.5070 0.8122 -0.2886
vn -0.2646 0.9334 -0.2424
vn 0.3339 0.8916 0.3058
vn -0.3528 0.8781 0.3232
vn 0.4662 0.8847 -0.0000
vn -0.0110 0.8319 -0.5548
vn -0.4931 0.8700 -0.0000
vn 0.0932 0.8520 0.5152
vn 0.0045 0.9994 0.0350
vn 0.5155 0.8550 -0.0576
vn -0.0320 0.8963 -0.4424
vn -0.5118 0.8591 -0.0000
vn -0.0233 0.8653 0.5007
vn 0.4947 0.8691 -0.0000
vn -0.0521 0.8480 -0.5274
vn -0.4615 0.8862 -0.0393
vn -0.0644 0.8828 0.4653
vn 0.0277 0.7838 0.6204
vn -0.0285 0.7474 -0.6637
vn 0.6515 0.7587 0.0021
vn -0.6570 0.7499 0.0777
vn -0.4167 0.7837 -0.4606
vn 0.4038 0.8401 -0.3621
vn 0.3881 0.8493 0.3578
vn -0.4537 0.8479 0.2743
vn 0.5294 0.8286 -0.1821
vn -0.1752 0.9299 -0.3234
vn -0.4453 0.8683 0.2185
vn 0.1969 0.8918 0.4073
vn 0.4765 0.8731 0.1036
vn 0.0256 0.8481 -0.5292
vn -0.4926 0.8673 -0.0716
vn -0.0184 0.8736 0.4863
vn 0.0706 0.7994 0.5967
vn -0.0136 0.8551 -0.5183
vn 0.5747 0.8184 -0.0000
vn -0.4760 0.8778 0.0537
vn 0.4765 0.8731 -0.1036
vn -0.0904 0.8474 -0.5231
vn -0.5024 0.8646 -0.0020
vn -0.0225 0.8486 0.5286
vn 0.4288 0.8925 0.1395
vn 0.2547 0.8581 -0.4459
vn -0.3423 0.9246 -0.1674
vn -0.1537 0.8990 0.4100
vn -0.0000 0.8977 0.4405
vn -0.0121 0.8150 -0.5793
vn 0.4643 0.8854 0.0213
vn -0.5881 0.8085 0.0214
vn -0.6556 0.7507 -0.0814
vn -0.1290 0.8395 -0.5278
vn -0.1422 0.7760 -0.6144
vn -0.5709 0.8060 -0.1559
vn 0.6125 0.7772 -0.1441
vn 0.0852 0.8518 -0.5169
vn 0.5644 0.8174 -0.1153
vn 0.1220 0.7878 -0.6038
vn 0.0718 0.8527 0.5174
vn 0.5923 0.7918 0.1489
vn 0.5556 0.8266 0.0899
vn 0.1174 0.8178 0.5634
vn -0.1390 0.8279 0.5434
vn -0.5789 0.8137 0.0528
vn -0.1201 0.8332 0.5397
vn -0.5564 0.8289 0.0582
vn -0.6220 0.7816 -0.0471
vn -0.3423 0.8925 0.2938
vn -0.0377 0.8250 0.5639
vn 0.3345 0.8862 0.3205
vn 0.6119 0.7846 0.0995
vn 0.3683 0.8838 0.2884
vn 0.0263 0.8110 -0.5844
vn 0.3481 0.8590 -0.3754
vn 0.6119 0.7846 -0.0995
vn -0.3933 0.8494 -0.3517
vn -0.0740 0.8020 -0.5927
vn -0.4072 0.8815 -0.2391
vn -0.6390 0.7672 -0.0563
vn 0.3404 0.8603 -0.3794
vn 0.0083 0.7902 0.6128
vn -0.3223 0.8635 0.3879
vt 0.875000 0.875000
vt 1.000000 0.875000
vt 1.000000 1.000000
vt 0.875000 1.000000
vt 0.375000 0.875000
vt 0.500000 0.875000
vt 0.500000 1.000000
vt 0.375000 1.000000
vt 0.375000 0.375000
vt 0.500000 0.375000
vt 0.500000 0.500000
vt 0.375000 0.500000
vt 0.875000 0.375000
vt 1.000000 0.375000
vt 1.000000 0.500000
vt 0.875000 0.500000
vt 0.625000 0.375000
vt 0.750000 0.375000
vt 0.750000 0.500000
vt 0.625000 0.500000
vt 0.625000 0.125000
vt 0.750000 0.125000
vt 0.750000 0.250000
vt 0.625000 0.250000
vt 0.875000 0.125000
vt 1.000000 0.125000
vt 1.000000 0.250000
vt 0.875000 0.250000
vt 0.125000 0.375000
vt 0.250000 0.375000
vt 0.250000 0.500000
vt 0.125000 0.500000
vt 0.125000 0.125000
vt 0.250000 0.125000
vt 0.250000 0.250000
vt 0.125000 0.250000
vt 0.375000 0.125000
vt 0.500000 0.125000
vt 0.500000 0.250000
vt 0.375000 0.250000
vt 0.125000 0.875000
vt 0.250000 0.875000
vt 0.250000 1.000000
vt 0.125000 1.000000
vt 0.125000 0.625000
vt 0.250000 0.625000
vt 0.250000 0.750000
vt 0.125000 0.750000
vt 0.375000 0.625000
vt 0.500000 0.625000
vt 0.500000 0.750000
vt 0.375000 0.750000
vt 0.625000 0.875000
vt 0.750000 0.875000
vt 0.750000 1.000000
vt 0.625000 1.000000
vt 0.625000 0.625000
vt 0.750000 0.625000
vt 0.750000 0.750000
vt 0.625000 0.750000
vt 0.875000 0.625000
vt 1.000000 0.625000
vt 1.000000 0.750000
vt 0.875000 0.750000
vt 0.000000 0.625000
vt 0.000000 0.750000
vt 0.000000 0.500000
vt 0.000000 0.875000
vt 0.000000 1.000000
vt 0.250000 0.000000
vt 0.375000 0.000000
vt 0.500000 0.000000
vt 0.000000 0.125000
vt 0.000000 0.250000
vt 0.000000 0.000000
vt 0.125000 0.000000
vt 0.000000 0.375000
vt 0.750000 0.000000
vt 0.875000 0.000000
vt 1.000000 0.000000
vt 0.625000 0.000000
s 1
f 81/1/81 28/2/28 4/3/4 45/4/45
f 80/5/80 34/6/34 8/7/8 41/8/41
f 79/9/79 35/10/35 9/11/9 48/12/48
f 78/13/78 32/14/32 7/15/7 49/16/49
f 77/17/77 50/18/50 21/19/21 37/20/37
f 76/21/76 51/22/51 22/23/22 52/24/52
f 75/25/75 44/26/44 16/27/16 53/28/53
f 74/29/74 54/30/54 20/31/20 36/32/36
f 73/33/73 55/34/55 23/35/23 56/36/56
f 72/37/72 47/38/47 19/39/19 57/40/57
f 71/41/71 58/42/58 13/43/13 29/44/29
f 70/45/70 59/46/59 24/47/24 60/48/60
f 69/49/69 46/50/46 18/51/18 61/52/61
f 68/53/68 62/54/62 17/55/17 33/56/33
f 67/57/67 63/58/63 25/59/25 64/60/64
f 66/61/66 40/62/40 12/63/12 65/64/65
f 63/58/63 66/61/66 65/64/65 25/59/25
f 21/19/21 49/16/49 66/61/66 63/58/63
f 49/16/49 7/15/7 40/62/40 66/61/66
f 46/50/46 67/57/67 64/60/64 18/51/18
f 9/11/9 37/20/37 67/57/67 46/50/46
f 37/20/37 21/19/21 63/58/63 67/57/67
f 34/6/34 68/53/68 33/56/33 8/7/8
f 18/51/18 64/60/64 68/53/68 34/6/34
f 64/60/64 25/59/25 62/54/62 68/53/68
f 59/46/59 69/49/69 61/52/61 24/47/24
f 20/31/20 48/12/48 69/49/69 59/46/59
f 48/12/48 9/11/9 46/50/46 69/49/69
f 30/65/30 70/45/70 60/48/60 14/66/14
f 5/67/5 36/32/36 70/45/70 30/65/30
f 36/32/36 20/31/20 59/46/59 70/45/70
f 42/68/42 71/41/71 29/44/29 3/69/3
f 14/66/14 60/48/60 71/41/71 42/68/42
f 60/48/60 24/47/24 58/42/58 71/41/71
f 55/34/55 72/37/72 57/40/57 23/35/23
f 15/70/15 31/71/31 72/37/72 55/34/55
f 31/71/31 6/72/6 47/38/47 72/37/72
f 26/73/26 73/33/73 56/36/56 10/74/10
f 1/75/1 43/76/43 73/33/73 26/73/26
f 43/76/43 15/70/15 55/34/55 73/33/73
f 38/77/38 74/29/74 36/32/36 5/67/5
f 10/74/10 56/36/56 74/29/74 38/77/38
f 56/36/56 23/35/23 54/30/54 74/29/74
f 51/22/51 75/25/75 53/28/53 22/23/22
f 11/78/11 27/79/27 75/25/75 51/22/51
f 27/79/27 2/80/2 44/26/44 75/25/75
f 47/38/47 76/21/76 52/24/52 19/39/19
f 6/72/6 39/81/39 76/21/76 47/38/47
f 39/81/39 11/78/11 51/22/51 76/21/76
f 35/10/35 77/17/77 37/20/37 9/11/9
f 19/39/19 52/24/52 77/17/77 35/10/35
f 52/24/52 22/23/22 50/18/50 77/17/77
f 50/18/50 78/13/78 49/16/49 21/19/21
f 22/23/22 53/28/53 78/13/78 50/18/50
f 53/28/53 16/27/16 32/14/32 78/13/78
f 54/30/54 79/9/79 48/12/48 20/31/20
f 23/35/23 57/40/57 79/9/79 54/30/54
f 57/40/57 19/39/19 35/10/35 79/9/79
f 58/42/58 80/5/80 41/8/41 13/43/13
f 24/47/24 61/52/61 80/5/80 58/42/58
f 61/52/61 18/51/18 34/6/34 80/5/80
f 62/54/62 81/1/81 45/4/45 17/55/17
f 25/59/25 65/64/65 81/1/81 62/54/62
f 65/64/65 12/63/12 28/2/28 81/1/81
