# Blender 4.2.1 LTS
# www.blender.org
mtllib Massive_Hole_01.mtl
o Massive_Hole
v -9.368707 0.000000 10.192847
v 9.950027 0.000000 10.141624
v -9.678565 0.000000 -11.008754
v 9.844511 0.000000 -10.531264
v -11.887379 0.000000 0.000000
v 0.000000 0.000000 11.897154
v 11.307337 0.000000 0.000000
v 0.000000 0.000000 -11.476784
v 0.000000 -8.240919 0.000000
v -10.511898 0.000000 5.738392
v 5.255949 0.000000 11.476784
v 11.187802 0.000000 -5.738392
v -5.255949 0.000000 -11.776872
v -10.511898 0.000000 -5.738392
v -5.255949 0.000000 12.018390
v 10.511898 0.000000 5.738392
v 5.255949 0.000000 -11.476784
v 0.000000 -4.248829 -6.674396
v 0.000000 -4.248829 6.575333
v -6.269556 -3.542010 0.000000
v 5.255949 -4.248829 0.000000
v 5.563880 -2.545108 6.356566
v -6.150255 -2.763751 6.585832
v -6.538590 -2.530876 -6.854815
v 6.127165 -2.842933 -6.439679
v -9.517088 0.000000 8.607588
v 7.883924 0.000000 11.476784
v 10.511898 0.000000 -8.607588
v -7.883924 0.000000 -11.476784
v -10.511898 0.000000 -2.869196
v -2.627975 0.000000 11.194134
v 10.511898 0.000000 2.869196
v 2.627975 0.000000 -12.100586
v 0.000000 -1.495735 -9.084938
v 0.000000 -6.319755 3.942971
v -9.789828 -1.495735 0.000000
v 2.627975 -6.319755 0.000000
v -10.511898 0.000000 2.869196
v 2.627975 0.000000 11.061529
v 10.511898 0.000000 -2.869196
v -2.627975 0.000000 -10.928914
v -10.511898 0.000000 -8.607588
v -7.883924 0.000000 11.476784
v 10.511898 0.000000 8.607588
v 7.883924 0.000000 -11.476784
v 0.000000 -6.319755 -3.142032
v 0.000000 -1.495735 9.808403
v -2.627975 -6.739254 0.000000
v 8.657840 -1.495735 0.000000
v 6.085736 -4.248829 2.869196
v 5.255949 -1.495735 8.607588
v 2.627975 -4.248829 5.738392
v 7.883924 -1.495735 5.738392
v -6.269390 -4.248829 2.869196
v -5.255949 -1.495735 9.282870
v -8.278876 -1.495735 5.738392
v -3.223771 -5.034021 5.965901
v -5.255949 -1.495735 -9.209269
v -5.255949 -4.248829 -2.869196
v -7.883924 -1.495735 -5.738392
v -2.627975 -4.248829 -5.738392
v 5.255949 -1.495735 -8.607588
v 5.255949 -4.248829 -2.869196
v 2.627975 -4.248829 -5.738392
v 8.794519 -1.495735 -5.738392
v 7.883924 -1.495735 -2.869196
v 2.627975 -6.319755 -2.869196
v 2.627975 -1.495735 -9.349017
v -2.627975 -6.257266 -2.869196
v -7.883924 -1.495735 -2.869196
v -7.883924 -1.193864 -8.607588
v -2.627975 -1.495735 8.800797
v -7.258108 -1.059357 9.691151
v -7.883924 -1.495735 2.869196
v 7.018924 -0.863008 7.580992
v 2.627975 -1.495735 8.661935
v 3.541301 -6.319755 2.869196
v 7.883924 -1.495735 2.869196
v -2.627975 -6.319755 3.791738
v -2.627975 -1.495735 -8.607588
v 7.883924 -1.214474 -8.607588
vn 0.3940 0.8913 -0.2243
vn -0.1597 0.9763 -0.1463
vn 0.2770 0.9268 0.2537
vn -0.2984 0.9145 0.2733
vn 0.5349 0.8449 -0.0000
vn -0.0110 0.8319 -0.5548
vn -0.4931 0.8700 -0.0000
vn 0.0932 0.8520 0.5152
vn -0.0247 0.9991 0.0349
vn 0.5264 0.8470 -0.0743
vn -0.0918 0.9134 -0.3966
vn -0.4935 0.8696 0.0161
vn 0.0003 0.8769 0.4807
vn 0.4751 0.8796 0.0234
vn -0.0106 0.8703 -0.4925
vn -0.4139 0.9056 -0.0930
vn -0.0871 0.8897 0.4481
vn 0.0328 0.7715 0.6354
vn -0.0866 0.7506 -0.6550
vn 0.6305 0.7743 0.0539
vn -0.6570 0.7499 0.0777
vn -0.4426 0.7625 -0.4719
vn 0.4545 0.7986 -0.3945
vn 0.4142 0.8409 0.3483
vn -0.3977 0.8493 0.3472
vn 0.4813 0.8503 -0.2130
vn -0.1837 0.9563 -0.2273
vn -0.3994 0.8912 0.2151
vn 0.1947 0.9124 0.3599
vn 0.5097 0.8446 0.1640
vn 0.0256 0.8481 -0.5292
vn -0.4926 0.8673 -0.0716
vn -0.0184 0.8736 0.4863
vn 0.0708 0.7898 0.6092
vn -0.0683 0.8869 -0.4569
vn 0.5766 0.8169 0.0135
vn -0.4791 0.8763 0.0500
vn 0.5241 0.8387 -0.1482
vn -0.0904 0.8474 -0.5231
vn -0.5024 0.8646 -0.0020
vn -0.0225 0.8486 0.5286
vn 0.3791 0.9146 0.1405
vn 0.2381 0.8984 -0.3690
vn -0.2376 0.9573 -0.1645
vn -0.1561 0.9177 0.3653
vn -0.0117 0.8931 0.4498
vn -0.0366 0.7881 -0.6144
vn 0.4546 0.8892 0.0516
vn -0.5881 0.8085 0.0214
vn -0.6386 0.7514 -0.1663
vn -0.1958 0.8637 -0.4644
vn -0.2726 0.7553 -0.5960
vn -0.5112 0.8343 -0.2065
vn 0.6324 0.7640 -0.1279
vn 0.1293 0.8475 -0.5149
vn 0.5718 0.8082 -0.1411
vn 0.2460 0.7971 -0.5514
vn 0.0768 0.8631 0.4992
vn 0.5759 0.7928 0.1994
vn 0.5506 0.8306 0.0831
vn 0.2241 0.8109 0.5405
vn -0.1671 0.8576 0.4863
vn -0.5802 0.8009 0.1480
vn -0.2232 0.8135 0.5371
vn -0.4992 0.8628 0.0805
vn -0.5853 0.8104 0.0263
vn -0.3915 0.8680 0.3054
vn -0.0731 0.8283 0.5554
vn 0.3817 0.8597 0.3395
vn 0.5894 0.7970 0.1317
vn 0.3376 0.9028 0.2665
vn 0.0834 0.7719 -0.6302
vn 0.3166 0.8838 -0.3444
vn 0.6356 0.7628 -0.1189
vn -0.3393 0.8891 -0.3073
vn -0.1513 0.8017 -0.5783
vn -0.4469 0.8566 -0.2578
vn -0.6133 0.7848 -0.0896
vn 0.3306 0.8879 -0.3200
vn 0.0599 0.7963 0.6019
vn -0.2802 0.9007 0.3321
vt 0.875000 0.875000
vt 1.000000 0.875000
vt 1.000000 1.000000
vt 0.875000 1.000000
vt 0.375000 0.875000
vt 0.500000 0.875000
vt 0.500000 1.000000
vt 0.375000 1.000000
vt 0.375000 0.375000
vt 0.500000 0.375000
vt 0.500000 0.500000
vt 0.375000 0.500000
vt 0.875000 0.375000
vt 1.000000 0.375000
vt 1.000000 0.500000
vt 0.875000 0.500000
vt 0.625000 0.375000
vt 0.750000 0.375000
vt 0.750000 0.500000
vt 0.625000 0.500000
vt 0.625000 0.125000
vt 0.750000 0.125000
vt 0.750000 0.250000
vt 0.625000 0.250000
vt 0.875000 0.125000
vt 1.000000 0.125000
vt 1.000000 0.250000
vt 0.875000 0.250000
vt 0.125000 0.375000
vt 0.250000 0.375000
vt 0.250000 0.500000
vt 0.125000 0.500000
vt 0.125000 0.125000
vt 0.250000 0.125000
vt 0.250000 0.250000
vt 0.125000 0.250000
vt 0.375000 0.125000
vt 0.500000 0.125000
vt 0.500000 0.250000
vt 0.375000 0.250000
vt 0.125000 0.875000
vt 0.250000 0.875000
vt 0.250000 1.000000
vt 0.125000 1.000000
vt 0.125000 0.625000
vt 0.250000 0.625000
vt 0.250000 0.750000
vt 0.125000 0.750000
vt 0.375000 0.625000
vt 0.500000 0.625000
vt 0.500000 0.750000
vt 0.375000 0.750000
vt 0.625000 0.875000
vt 0.750000 0.875000
vt 0.750000 1.000000
vt 0.625000 1.000000
vt 0.625000 0.625000
vt 0.750000 0.625000
vt 0.750000 0.750000
vt 0.625000 0.750000
vt 0.875000 0.625000
vt 1.000000 0.625000
vt 1.000000 0.750000
vt 0.875000 0.750000
vt 0.000000 0.625000
vt 0.000000 0.750000
vt 0.000000 0.500000
vt 0.000000 0.875000
vt 0.000000 1.000000
vt 0.250000 0.000000
vt 0.375000 0.000000
vt 0.500000 0.000000
vt 0.000000 0.125000
vt 0.000000 0.250000
vt 0.000000 0.000000
vt 0.125000 0.000000
vt 0.000000 0.375000
vt 0.750000 0.000000
vt 0.875000 0.000000
vt 1.000000 0.000000
vt 0.625000 0.000000
s 1
usemtl Material
f 81/1/81 28/2/28 4/3/4 45/4/45
f 80/5/80 34/6/34 8/7/8 41/8/41
f 79/9/79 35/10/35 9/11/9 48/12/48
f 78/13/78 32/14/32 7/15/7 49/16/49
f 77/17/77 50/18/50 21/19/21 37/20/37
f 76/21/76 51/22/51 22/23/22 52/24/52
f 75/25/75 44/26/44 16/27/16 53/28/53
f 74/29/74 54/30/54 20/31/20 36/32/36
f 73/33/73 55/34/55 23/35/23 56/36/56
f 72/37/72 47/38/47 19/39/19 57/40/57
f 71/41/71 58/42/58 13/43/13 29/44/29
f 70/45/70 59/46/59 24/47/24 60/48/60
f 69/49/69 46/50/46 18/51/18 61/52/61
f 68/53/68 62/54/62 17/55/17 33/56/33
f 67/57/67 63/58/63 25/59/25 64/60/64
f 66/61/66 40/62/40 12/63/12 65/64/65
f 63/58/63 66/61/66 65/64/65 25/59/25
f 21/19/21 49/16/49 66/61/66 63/58/63
f 49/16/49 7/15/7 40/62/40 66/61/66
f 46/50/46 67/57/67 64/60/64 18/51/18
f 9/11/9 37/20/37 67/57/67 46/50/46
f 37/20/37 21/19/21 63/58/63 67/57/67
f 34/6/34 68/53/68 33/56/33 8/7/8
f 18/51/18 64/60/64 68/53/68 34/6/34
f 64/60/64 25/59/25 62/54/62 68/53/68
f 59/46/59 69/49/69 61/52/61 24/47/24
f 20/31/20 48/12/48 69/49/69 59/46/59
f 48/12/48 9/11/9 46/50/46 69/49/69
f 30/65/30 70/45/70 60/48/60 14/66/14
f 5/67/5 36/32/36 70/45/70 30/65/30
f 36/32/36 20/31/20 59/46/59 70/45/70
f 42/68/42 71/41/71 29/44/29 3/69/3
f 14/66/14 60/48/60 71/41/71 42/68/42
f 60/48/60 24/47/24 58/42/58 71/41/71
f 55/34/55 72/37/72 57/40/57 23/35/23
f 15/70/15 31/71/31 72/37/72 55/34/55
f 31/71/31 6/72/6 47/38/47 72/37/72
f 26/73/26 73/33/73 56/36/56 10/74/10
f 1/75/1 43/76/43 73/33/73 26/73/26
f 43/76/43 15/70/15 55/34/55 73/33/73
f 38/77/38 74/29/74 36/32/36 5/67/5
f 10/74/10 56/36/56 74/29/74 38/77/38
f 56/36/56 23/35/23 54/30/54 74/29/74
f 51/22/51 75/25/75 53/28/53 22/23/22
f 11/78/11 27/79/27 75/25/75 51/22/51
f 27/79/27 2/80/2 44/26/44 75/25/75
f 47/38/47 76/21/76 52/24/52 19/39/19
f 6/72/6 39/81/39 76/21/76 47/38/47
f 39/81/39 11/78/11 51/22/51 76/21/76
f 35/10/35 77/17/77 37/20/37 9/11/9
f 19/39/19 52/24/52 77/17/77 35/10/35
f 52/24/52 22/23/22 50/18/50 77/17/77
f 50/18/50 78/13/78 49/16/49 21/19/21
f 22/23/22 53/28/53 78/13/78 50/18/50
f 53/28/53 16/27/16 32/14/32 78/13/78
f 54/30/54 79/9/79 48/12/48 20/31/20
f 23/35/23 57/40/57 79/9/79 54/30/54
f 57/40/57 19/39/19 35/10/35 79/9/79
f 58/42/58 80/5/80 41/8/41 13/43/13
f 24/47/24 61/52/61 80/5/80 58/42/58
f 61/52/61 18/51/18 34/6/34 80/5/80
f 62/54/62 81/1/81 45/4/45 17/55/17
f 25/59/25 65/64/65 81/1/81 62/54/62
f 65/64/65 12/63/12 28/2/28 81/1/81
