# Blender 4.2.1 LTS
# www.blender.org
mtllib Mountain_01.mtl
o Plane
v -5.710739 0.000000 5.835348
v 5.799640 0.000000 5.778129
v -6.131443 0.000000 -5.482391
v 5.442360 0.000000 -5.830820
v -7.340984 0.000000 0.000000
v 0.000000 0.000000 8.028664
v 7.417125 0.000000 0.000000
v 0.000000 0.000000 -7.663734
v -0.432282 8.549326 0.000000
v -6.631725 0.000000 3.315863
v 3.315863 0.000000 6.631725
v 6.631725 0.000000 -3.315863
v -3.315863 0.000000 -6.631725
v -6.631725 0.000000 -3.315863
v -3.315863 0.000000 6.631725
v 6.631725 0.000000 3.315863
v 3.315863 0.000000 -6.631725
v 0.000000 4.513192 -3.315863
v 0.000000 4.513192 3.315863
v -4.295794 4.513192 0.000000
v 3.315863 4.513192 0.000000
v 2.296592 4.435595 2.668247
v -3.089058 4.655383 3.315863
v -2.670776 5.419117 -2.697760
v 2.302204 4.825369 -2.009636
vn 0.4950 0.7141 -0.4950
vn 0.7233 0.6903 0.0184
vn -0.4129 0.7372 0.5349
vn 0.5184 0.6801 0.5184
vn -0.8113 0.5846 -0.0014
vn 0.4866 0.7255 0.4866
vn -0.5573 0.6155 0.5573
vn -0.5481 0.6317 -0.5481
vn -0.4071 0.7457 -0.5274
vn 0.5254 0.6693 -0.5254
vn 0.7080 -0.6777 0.1989
vn -0.0377 -0.6368 0.7701
vn -0.0000 -1.0000 -0.0000
vn 0.6070 -0.5129 0.6070
vn -0.5537 -0.6220 -0.5537
vn -0.7035 0.6734 0.2271
vn 0.0293 0.6364 0.7708
vn 0.7085 0.6580 -0.2552
vn 0.3212 0.6215 -0.7146
vn 0.2300 0.6324 0.7397
vn 0.7019 0.6518 0.2871
vn -0.6630 -0.6798 0.3136
vn -0.2529 -0.6964 0.6716
vn 0.7641 -0.5815 -0.2793
vn 0.2596 -0.5686 -0.7806
vn 0.0662 0.6742 -0.7356
vn 0.0488 0.6846 0.7273
vt 0.750000 0.750000
vt 1.000000 0.750000
vt 1.000000 1.000000
vt 0.750000 1.000000
vt 1.000000 0.500000
vt 0.750000 0.500000
vt 0.750000 0.250000
vt 1.000000 0.250000
vt 0.250000 0.250000
vt 0.500000 0.250000
vt 0.500000 0.500000
vt 0.250000 0.500000
vt 0.250000 0.750000
vt 0.000000 0.750000
vt 0.000000 0.500000
vt 0.000000 0.250000
vt 0.750000 0.000000
vt 1.000000 0.000000
vt 0.000000 0.000000
vt 0.250000 0.000000
vt 0.250000 1.000000
vt 0.000000 1.000000
vt 0.500000 0.750000
vt 0.500000 1.000000
vt 0.500000 0.000000
s 0
f 25/1/1 12/2/1 4/3/1 17/4/1
f 7/5/2 12/2/2 25/1/2 21/6/2 22/7/2 16/8/2
f 23/9/3 19/10/3 9/11/3 20/12/3
f 19/10/4 22/7/4 21/6/4 9/11/4
f 20/12/5 24/13/5 14/14/5 5/15/5 10/16/5 23/9/5
f 11/17/6 2/18/6 16/8/6 22/7/6
f 1/19/7 15/20/7 23/9/7 10/16/7
f 14/14/8 24/13/8 13/21/8 3/22/8
f 20/12/9 9/11/9 18/23/9 24/13/9
f 9/11/10 21/6/10 25/1/10 18/23/10
f 9/19/11 20/19/11 24/19/11
f 9/19/12 24/19/12 18/19/12
f 13/19/13 14/19/13 3/19/13
f 24/19/14 14/19/14 13/19/14
f 11/19/13 16/19/13 2/19/13
f 22/19/15 16/19/15 11/19/15
f 20/19/16 23/19/16 9/19/16
f 9/19/17 23/19/17 19/19/17
f 21/19/18 25/19/18 9/19/18
f 9/19/19 25/19/19 18/19/19
f 19/19/20 22/19/20 9/19/20
f 9/19/21 22/19/21 21/19/21
f 12/19/22 25/19/22 4/19/22
f 25/19/23 17/19/23 4/19/23
f 10/19/24 23/19/24 1/19/24
f 23/19/25 15/19/25 1/19/25
f 18/23/26 25/1/26 17/4/26 8/24/26 13/21/26 24/13/26
f 15/20/27 6/25/27 11/17/27 22/7/27 19/10/27 23/9/27
