# Blender 4.2.1 LTS
# www.blender.org
mtllib Mountain_02.mtl
o Plane
v -11.331939 0.000000 11.373844
v 12.043705 0.000000 11.936757
v -11.957110 0.000000 -11.605686
v 11.702681 0.000000 -11.048766
v -16.148687 0.000000 0.000000
v 0.000000 0.000000 16.138979
v 16.831606 0.000000 0.000000
v 0.000000 0.000000 -16.101173
v 2.365542 18.116123 0.000000
v -13.749438 0.000000 6.874719
v 6.874719 0.000000 13.749438
v 13.749438 0.000000 -6.874719
v -6.874719 0.000000 -13.749438
v -13.749438 0.000000 -6.874719
v -6.874719 0.000000 13.749438
v 13.749438 0.000000 6.874719
v 6.874719 0.000000 -13.749438
v 0.000000 7.939692 -8.167162
v 0.931754 7.939692 8.360065
v -7.623971 7.939692 0.000000
v 11.230439 7.939692 0.000000
v 8.249674 7.939692 6.874719
v -4.736259 7.939692 5.895783
v -5.252238 7.939692 -5.145988
v 7.328569 7.939692 -6.206772
vn 0.5466 0.6344 -0.5466
vn -0.2874 0.7048 -0.6486
vn -0.5189 0.6698 0.5311
vn 0.7708 0.5388 0.3399
vn 0.4710 0.6644 0.5803
vn 0.2005 0.6485 0.7343
vn 0.5552 0.6193 0.5552
vn -0.6391 0.7222 0.2646
vn -0.4815 0.7323 0.4815
vn -0.2567 0.7028 0.6635
vn -0.4589 0.7608 -0.4589
vn -0.6453 0.7197 -0.2561
vn -0.5454 0.6658 -0.5092
vn 0.2133 0.6788 -0.7027
vn 0.4637 0.6151 -0.6377
vn 0.7269 0.5666 -0.3881
vn -0.2102 -0.5817 0.7857
vn -0.6814 -0.5935 0.4283
vn -0.3872 0.6302 -0.6731
vn -0.6779 0.6655 -0.3124
vn -0.6737 0.6613 0.3300
vn -0.3099 0.6292 0.7128
vn -0.7167 -0.6243 -0.3107
vn -0.1571 -0.6136 -0.7738
vn -0.0000 -1.0000 -0.0000
vn 0.5282 -0.6648 -0.5282
vn -0.6050 0.7269 0.3251
vn -0.3326 0.7070 0.6241
vn 0.2643 -0.7331 0.6267
vn 0.6360 -0.7331 0.2409
vn -0.3810 -0.6253 0.6811
vn -0.7138 -0.6067 0.3500
vn -0.2635 -0.6050 -0.7514
vn -0.7922 -0.5488 -0.2669
vt 0.750000 0.750000
vt 1.000000 0.750000
vt 1.000000 1.000000
vt 0.750000 1.000000
vt 0.250000 0.750000
vt 0.500000 0.750000
vt 0.500000 1.000000
vt 0.250000 1.000000
vt 0.250000 0.250000
vt 0.500000 0.250000
vt 0.500000 0.500000
vt 0.250000 0.500000
vt 0.750000 0.250000
vt 1.000000 0.250000
vt 1.000000 0.500000
vt 0.750000 0.500000
vt 0.500000 0.000000
vt 0.750000 0.000000
vt 1.000000 0.000000
vt 0.000000 0.250000
vt 0.000000 0.500000
vt 0.000000 0.000000
vt 0.250000 0.000000
vt 0.000000 0.750000
vt 0.000000 1.000000
s 0
f 25/1/1 12/2/1 4/3/1 17/4/1
f 24/5/2 18/6/2 8/7/2 13/8/2
f 23/9/3 19/10/3 9/11/3 20/12/3
f 22/13/4 16/14/4 7/15/4 21/16/4
f 19/10/5 22/13/5 21/16/5 9/11/5
f 6/17/6 11/18/6 22/13/6 19/10/6
f 11/18/7 2/19/7 16/14/7 22/13/7
f 10/20/8 23/9/8 20/12/8 5/21/8
f 1/22/9 15/23/9 23/9/9 10/20/9
f 15/23/10 6/17/10 19/10/10 23/9/10
f 14/24/11 24/5/11 13/8/11 3/25/11
f 5/21/12 20/12/12 24/5/12 14/24/12
f 20/12/13 9/11/13 18/6/13 24/5/13
f 18/6/14 25/1/14 17/4/14 8/7/14
f 9/11/15 21/16/15 25/1/15 18/6/15
f 21/16/16 7/15/16 12/2/16 25/1/16
f 18/22/17 25/22/17 9/22/17
f 9/22/18 25/22/18 21/22/18
f 18/22/19 24/22/19 9/22/19
f 9/22/20 24/22/20 20/22/20
f 20/22/21 23/22/21 9/22/21
f 9/22/22 23/22/22 19/22/22
f 21/22/23 22/22/23 9/22/23
f 9/22/24 22/22/24 19/22/24
f 15/22/25 1/22/25 10/22/25
f 23/22/26 15/22/26 10/22/26
f 10/22/27 1/22/27 23/22/27
f 23/22/28 1/22/28 15/22/28
f 13/22/29 24/22/29 3/22/29
f 24/22/30 14/22/30 3/22/30
f 17/22/31 4/22/31 25/22/31
f 25/22/32 4/22/32 12/22/32
f 11/22/33 22/22/33 2/22/33
f 22/22/34 16/22/34 2/22/34
