# Blender 4.2.1 LTS
# www.blender.org
mtllib Snow_Bank_01.mtl
o Plane
v -5.588552 0.000000 5.548357
v 5.195351 0.000000 5.549931
v -5.880987 0.000000 -4.872065
v 5.539916 0.000000 -5.575259
v -7.508115 0.000000 0.000000
v 0.000000 0.000000 7.852837
v 8.364563 0.000000 0.000000
v 0.000000 0.000000 -7.954486
v 0.000000 0.893817 0.000000
v -6.228964 0.000000 3.114482
v 3.114482 0.000000 6.228964
v 7.122404 0.000000 -3.114482
v -3.114482 0.000000 -6.228964
v -6.994327 0.000000 -3.114482
v -3.114482 0.000000 6.228964
v 6.844247 0.000000 3.114482
v 3.114482 0.000000 -6.228964
v 0.000000 0.517999 -3.114482
v 0.000000 0.517999 3.114482
v -3.114482 0.879940 0.000000
v 3.114482 0.517999 0.000000
v 3.114482 0.517999 3.114482
v -3.114482 0.517999 3.114482
v -2.711486 0.517999 -2.538889
v 3.114482 0.517999 -3.114482
v -6.228964 0.000000 4.671723
v 4.671723 0.000000 6.228964
v 6.228964 0.000000 -4.671723
v -4.671723 0.000000 -5.455736
v -6.994327 0.000000 -1.557241
v -1.557241 0.000000 7.093910
v 7.466540 0.000000 1.557241
v 1.557241 0.000000 -7.240127
v 0.000000 0.000000 -4.671723
v 0.000000 0.791328 1.557241
v -4.671723 0.000000 0.000000
v 1.557241 0.648832 0.000000
v -7.021256 0.000000 1.557241
v 1.557241 0.000000 7.093910
v 7.953006 0.000000 -1.557241
v -1.557241 0.000000 -7.240127
v -6.228964 0.000000 -4.125000
v -4.671723 0.000000 6.228964
v 6.228964 0.000000 4.671723
v 4.671723 0.000000 -6.228964
v 0.000000 0.982417 -1.557241
v 0.000000 0.000000 4.671723
v -1.557241 1.198339 0.000000
v 4.671723 0.000000 0.000000
v 3.114482 0.323365 1.557241
v 3.114482 0.000000 4.671723
v 1.557241 0.517999 3.114482
v 4.671723 0.000000 3.114482
v -3.990570 0.600215 1.557241
v -3.114482 0.000000 4.671723
v -4.671723 0.000000 3.114482
v -1.557241 0.847887 3.114482
v -3.114482 0.000000 -4.671723
v -3.114482 1.141434 -1.557241
v -4.671723 0.000000 -3.114482
v -1.557241 0.909223 -3.114482
v 3.114482 0.000000 -4.671723
v 3.114482 0.478958 -1.557241
v 1.557241 0.517999 -3.114482
v 4.671723 0.000000 -3.114482
v 4.671723 0.000000 -1.557241
v 1.557241 0.751758 -1.557241
v 1.557241 0.000000 -4.671723
v -1.557241 1.471309 -1.557241
v -4.671723 0.000000 -1.557241
v -4.671723 0.000000 -4.671723
v -1.557241 0.000000 4.671723
v -4.671723 0.000000 4.671723
v -5.433206 0.000000 1.557241
v 4.040666 0.000000 4.150298
v 1.557241 0.000000 4.671723
v 1.557241 0.517999 1.557241
v 4.671723 0.000000 1.557241
v -1.557241 1.057533 1.557241
v -1.557241 0.000000 -4.671723
v 4.671723 0.000000 -4.671723
vn -0.0000 1.0000 -0.0000
vn 0.1849 0.9794 0.0807
vn 0.1104 0.9423 -0.3161
vn 0.0929 0.9656 0.2430
vn -0.3321 0.9413 0.0608
vn 0.1995 0.9789 0.0433
vn 0.1432 0.9834 0.1114
vn -0.1880 0.9554 0.2279
vn -0.2757 0.9054 -0.3227
vn 0.1399 0.9811 -0.1335
vn 0.0289 0.9821 -0.1860
vn 0.1547 0.9831 0.0974
vn -0.2856 0.9579 -0.0308
vn 0.1367 0.9885 0.0645
vn 0.1874 0.9781 -0.0904
vn 0.0246 0.9830 0.1822
vn 0.0089 0.9938 0.1111
vn 0.1428 0.9897 0.0122
vn 0.1739 0.9847 0.0102
vn 0.0432 0.9915 0.1230
vn 0.0379 0.9853 0.1664
vn 0.1075 0.9938 0.0267
vn -0.3285 0.9429 0.0545
vn -0.0657 0.9876 0.1428
vn -0.1524 0.9825 0.1076
vn -0.0015 0.9617 0.2740
vn -0.0808 0.9906 -0.1099
vn -0.3708 0.9217 -0.1142
vn -0.1153 0.9887 -0.0952
vn -0.0289 0.9256 -0.3773
vn 0.0409 0.9918 -0.1208
vn 0.2079 0.9781 -0.0105
vn 0.0400 0.9725 -0.2294
vn 0.1180 0.9923 -0.0379
vn 0.1543 0.9880 -0.0000
vn 0.1103 0.9926 -0.0506
vn -0.0000 0.9871 -0.1599
vn -0.0055 0.9925 -0.1222
vn -0.2385 0.9696 -0.0538
vn -0.0312 0.9990 -0.0312
vn -0.0000 0.9788 0.2047
vn -0.0407 0.9983 0.0407
vn -0.1450 0.9894 0.0100
vn 0.1052 0.9889 0.1052
vn -0.0000 0.9871 0.1599
vn 0.1043 0.9933 0.0507
vn 0.1314 0.9913 -0.0000
vn -0.0041 0.9934 0.1143
vn -0.0231 0.9812 -0.1918
vn 0.0407 0.9983 -0.0407
vt 0.875000 0.875000
vt 1.000000 0.875000
vt 1.000000 1.000000
vt 0.875000 1.000000
vt 0.375000 0.875000
vt 0.500000 0.875000
vt 0.500000 1.000000
vt 0.375000 1.000000
vt 0.375000 0.375000
vt 0.500000 0.375000
vt 0.500000 0.500000
vt 0.375000 0.500000
vt 0.875000 0.375000
vt 1.000000 0.375000
vt 1.000000 0.500000
vt 0.875000 0.500000
vt 0.625000 0.375000
vt 0.750000 0.375000
vt 0.750000 0.500000
vt 0.625000 0.500000
vt 0.625000 0.125000
vt 0.750000 0.125000
vt 0.750000 0.250000
vt 0.625000 0.250000
vt 0.875000 0.125000
vt 1.000000 0.125000
vt 1.000000 0.250000
vt 0.875000 0.250000
vt 0.125000 0.375000
vt 0.250000 0.375000
vt 0.250000 0.500000
vt 0.125000 0.500000
vt 0.125000 0.125000
vt 0.250000 0.125000
vt 0.250000 0.250000
vt 0.125000 0.250000
vt 0.375000 0.125000
vt 0.500000 0.125000
vt 0.500000 0.250000
vt 0.375000 0.250000
vt 0.125000 0.875000
vt 0.250000 0.875000
vt 0.250000 1.000000
vt 0.125000 1.000000
vt 0.125000 0.625000
vt 0.250000 0.625000
vt 0.250000 0.750000
vt 0.125000 0.750000
vt 0.375000 0.625000
vt 0.500000 0.625000
vt 0.500000 0.750000
vt 0.375000 0.750000
vt 0.625000 0.875000
vt 0.750000 0.875000
vt 0.750000 1.000000
vt 0.625000 1.000000
vt 0.625000 0.625000
vt 0.750000 0.625000
vt 0.750000 0.750000
vt 0.625000 0.750000
vt 0.875000 0.625000
vt 1.000000 0.625000
vt 1.000000 0.750000
vt 0.875000 0.750000
vt 0.000000 0.625000
vt 0.000000 0.750000
vt 0.000000 0.500000
vt 0.000000 0.875000
vt 0.000000 1.000000
vt 0.250000 0.000000
vt 0.375000 0.000000
vt 0.500000 0.000000
vt 0.000000 0.125000
vt 0.000000 0.250000
vt 0.000000 0.000000
vt 0.125000 0.000000
vt 0.000000 0.375000
vt 0.750000 0.000000
vt 0.875000 0.000000
vt 1.000000 0.000000
vt 0.625000 0.000000
s 1
f 81/1/50 28/2/1 4/3/1 45/4/1
f 80/5/49 34/6/11 8/7/1 41/8/1
f 79/9/48 35/10/12 9/11/2 48/12/17
f 78/13/47 32/14/1 7/15/1 49/16/18
f 77/17/46 50/18/19 21/19/6 37/20/14
f 76/21/45 51/22/20 22/23/7 52/24/21
f 75/25/44 44/26/1 16/27/1 53/28/22
f 74/29/43 54/30/23 20/31/5 36/32/13
f 73/33/42 55/34/24 23/35/8 56/36/25
f 72/37/41 47/38/16 19/39/4 57/40/26
f 71/41/40 58/42/27 13/43/1 29/44/1
f 70/45/39 59/46/28 24/47/9 60/48/29
f 69/49/38 46/50/15 18/51/3 61/52/30
f 68/53/37 62/54/31 17/55/1 33/56/1
f 67/57/36 63/58/32 25/59/10 64/60/33
f 66/61/35 40/62/1 12/63/1 65/64/34
f 63/58/32 66/61/35 65/64/34 25/59/10
f 21/19/6 49/16/18 66/61/35 63/58/32
f 49/16/18 7/15/1 40/62/1 66/61/35
f 46/50/15 67/57/36 64/60/33 18/51/3
f 9/11/2 37/20/14 67/57/36 46/50/15
f 37/20/14 21/19/6 63/58/32 67/57/36
f 34/6/11 68/53/37 33/56/1 8/7/1
f 18/51/3 64/60/33 68/53/37 34/6/11
f 64/60/33 25/59/10 62/54/31 68/53/37
f 59/46/28 69/49/38 61/52/30 24/47/9
f 20/31/5 48/12/17 69/49/38 59/46/28
f 48/12/17 9/11/2 46/50/15 69/49/38
f 30/65/1 70/45/39 60/48/29 14/66/1
f 5/67/1 36/32/13 70/45/39 30/65/1
f 36/32/13 20/31/5 59/46/28 70/45/39
f 42/68/1 71/41/40 29/44/1 3/69/1
f 14/66/1 60/48/29 71/41/40 42/68/1
f 60/48/29 24/47/9 58/42/27 71/41/40
f 55/34/24 72/37/41 57/40/26 23/35/8
f 15/70/1 31/71/1 72/37/41 55/34/24
f 31/71/1 6/72/1 47/38/16 72/37/41
f 26/73/1 73/33/42 56/36/25 10/74/1
f 1/75/1 43/76/1 73/33/42 26/73/1
f 43/76/1 15/70/1 55/34/24 73/33/42
f 38/77/1 74/29/43 36/32/13 5/67/1
f 10/74/1 56/36/25 74/29/43 38/77/1
f 56/36/25 23/35/8 54/30/23 74/29/43
f 51/22/20 75/25/44 53/28/22 22/23/7
f 11/78/1 27/79/1 75/25/44 51/22/20
f 27/79/1 2/80/1 44/26/1 75/25/44
f 47/38/16 76/21/45 52/24/21 19/39/4
f 6/72/1 39/81/1 76/21/45 47/38/16
f 39/81/1 11/78/1 51/22/20 76/21/45
f 35/10/12 77/17/46 37/20/14 9/11/2
f 19/39/4 52/24/21 77/17/46 35/10/12
f 52/24/21 22/23/7 50/18/19 77/17/46
f 50/18/19 78/13/47 49/16/18 21/19/6
f 22/23/7 53/28/22 78/13/47 50/18/19
f 53/28/22 16/27/1 32/14/1 78/13/47
f 54/30/23 79/9/48 48/12/17 20/31/5
f 23/35/8 57/40/26 79/9/48 54/30/23
f 57/40/26 19/39/4 35/10/12 79/9/48
f 58/42/27 80/5/49 41/8/1 13/43/1
f 24/47/9 61/52/30 80/5/49 58/42/27
f 61/52/30 18/51/3 34/6/11 80/5/49
f 62/54/31 81/1/50 45/4/1 17/55/1
f 25/59/10 65/64/34 81/1/50 62/54/31
f 65/64/34 12/63/1 28/2/1 81/1/50
