# Blender 4.2.1 LTS
# www.blender.org
mtllib Terrain_Bottom_01.mtl
o Terrain_Bottom
v -13.501006 0.000000 14.508267
v 13.501006 0.000000 14.508267
v -13.501006 0.000000 -14.508267
v 13.501006 0.000000 -14.508267
v -13.501006 0.000000 0.000000
v 0.000000 0.000000 14.508267
v 13.501006 0.000000 0.000000
v 0.000000 0.000000 -14.508267
v 0.000000 0.000000 0.000000
v -13.501006 0.000000 7.254134
v 6.750503 0.000000 14.508267
v 13.501006 0.000000 -7.254134
v -6.750503 0.000000 -14.508267
v -13.501006 0.000000 -7.254134
v -6.750503 0.000000 14.508267
v 13.501006 0.000000 7.254134
v 6.750503 0.000000 -14.508267
v 0.000000 0.289605 -7.254134
v 0.000000 0.257081 7.254134
v -6.750503 0.339520 0.000000
v 6.750503 0.000000 0.000000
v 6.750503 0.000000 7.254134
v -6.750503 0.000000 7.254134
v -6.750503 -0.285448 -7.254134
v 6.750503 -0.179082 -7.254134
v -13.501006 0.000000 10.881201
v 10.125754 0.000000 14.508267
v 13.501006 0.000000 -10.881201
v -10.125754 0.000000 -14.508267
v -13.501006 0.000000 -3.627067
v -3.375252 0.000000 14.508267
v 13.501006 0.000000 3.627067
v 3.375252 0.000000 -14.508267
v 0.000000 0.000000 -10.881201
v 0.000000 0.000000 3.627067
v -10.125754 0.000000 0.000000
v 3.375252 0.000000 0.000000
v -13.501006 0.000000 3.627067
v 3.375252 0.000000 14.508267
v 13.501006 0.000000 -3.627067
v -3.375252 0.000000 -14.508267
v -13.501006 0.000000 -10.881201
v -10.125754 0.000000 14.508267
v 13.501006 0.000000 10.881201
v 10.125754 0.000000 -14.508267
v 0.000000 0.000000 -3.627067
v 0.000000 0.312134 10.881201
v -3.375252 0.000000 0.000000
v 10.125754 0.000000 0.000000
v 6.750503 0.320947 3.627067
v 6.750503 0.000000 10.881201
v 3.375252 -0.379357 7.254134
v 10.125754 0.000000 7.254134
v -6.750503 0.000000 3.627067
v -6.750503 0.000000 10.881201
v -10.125754 0.226949 7.254134
v -3.375252 0.000000 7.254134
v -6.750503 0.000000 -10.881201
v -6.750503 0.000000 -3.627067
v -10.125754 0.000000 -7.254134
v -3.375252 0.000000 -7.254134
v 6.750503 0.000000 -10.881201
v 6.750503 0.000000 -3.627067
v 3.375252 0.000000 -7.254134
v 10.125754 0.000000 -7.254134
v 10.125754 0.000000 -3.627067
v 3.375252 0.000000 -3.627067
v 3.375252 0.000000 -10.881201
v -3.375252 0.000000 -3.627067
v -10.125754 0.000000 -3.627067
v -10.125754 0.366013 -10.881201
v -3.375252 0.113405 10.881201
v -10.125754 0.000000 10.881201
v -10.125754 0.000000 3.627067
v 10.125754 0.187207 10.881201
v 3.375252 0.141296 10.881201
v 3.375252 0.000000 3.627067
v 10.125754 0.000000 3.627067
v -3.375252 0.039819 3.627067
v -3.375252 -0.312249 -10.881201
v 10.125754 -0.235340 -10.881201
vn -0.0348 0.9989 0.0324
vn -0.0462 0.9980 0.0430
vn 0.0059 1.0000 -0.0055
vn -0.0000 1.0000 -0.0000
vn -0.0474 0.9979 -0.0442
vn -0.0352 0.9968 -0.0715
vn 0.0277 0.9993 -0.0258
vn -0.0502 0.9976 0.0467
vn 0.0336 0.9989 0.0313
vn -0.0674 0.9975 -0.0232
vn 0.0541 0.9973 -0.0503
vn 0.0422 0.9983 -0.0393
vn -0.0428 0.9983 0.0399
vn 0.0265 0.9993 -0.0247
vn -0.0265 0.9993 -0.0247
vn 0.0428 0.9983 0.0399
vn 0.0428 0.9983 -0.0399
vn 0.0265 0.9993 0.0247
vn -0.0422 0.9983 -0.0393
vn 0.0502 0.9976 -0.0467
vn -0.0502 0.9976 -0.0467
vn -0.0541 0.9973 -0.0503
vn -0.0541 0.9973 0.0503
vn 0.0957 0.9914 0.0890
vn -0.0168 0.9997 -0.0156
vn -0.0168 0.9997 0.0156
vn -0.0294 0.9979 0.0585
vn -0.0336 0.9989 0.0313
vn -0.0336 0.9989 -0.0313
vn 0.0336 0.9989 -0.0313
vn -0.0277 0.9993 -0.0258
vn -0.0277 0.9993 0.0258
vn 0.0277 0.9993 0.0258
vn 0.1184 0.9899 -0.0786
vn 0.0253 0.9977 0.0624
vn 0.0209 0.9996 0.0195
vn 0.0939 0.9954 0.0168
vn -0.1027 0.9901 0.0956
vn 0.0474 0.9979 -0.0442
vn 0.0474 0.9979 0.0442
vn 0.0443 0.9982 0.0412
vn -0.0059 1.0000 0.0055
vn -0.0322 0.9990 -0.0299
vn 0.0462 0.9980 0.0430
vn 0.0040 1.0000 -0.0037
vn -0.0885 0.9927 -0.0824
vn 0.0348 0.9989 0.0324
vn 0.0083 0.9999 -0.0078
vn -0.0348 0.9989 -0.0324
vt 0.875000 0.875000
vt 1.000000 0.875000
vt 1.000000 1.000000
vt 0.875000 1.000000
vt 0.375000 0.875000
vt 0.500000 0.875000
vt 0.500000 1.000000
vt 0.375000 1.000000
vt 0.375000 0.375000
vt 0.500000 0.375000
vt 0.500000 0.500000
vt 0.375000 0.500000
vt 0.875000 0.375000
vt 1.000000 0.375000
vt 1.000000 0.500000
vt 0.875000 0.500000
vt 0.625000 0.375000
vt 0.750000 0.375000
vt 0.750000 0.500000
vt 0.625000 0.500000
vt 0.625000 0.125000
vt 0.750000 0.125000
vt 0.750000 0.250000
vt 0.625000 0.250000
vt 0.875000 0.125000
vt 1.000000 0.125000
vt 1.000000 0.250000
vt 0.875000 0.250000
vt 0.125000 0.375000
vt 0.250000 0.375000
vt 0.250000 0.500000
vt 0.125000 0.500000
vt 0.125000 0.125000
vt 0.250000 0.125000
vt 0.250000 0.250000
vt 0.125000 0.250000
vt 0.375000 0.125000
vt 0.500000 0.125000
vt 0.500000 0.250000
vt 0.375000 0.250000
vt 0.125000 0.875000
vt 0.250000 0.875000
vt 0.250000 1.000000
vt 0.125000 1.000000
vt 0.125000 0.625000
vt 0.250000 0.625000
vt 0.250000 0.750000
vt 0.125000 0.750000
vt 0.375000 0.625000
vt 0.500000 0.625000
vt 0.500000 0.750000
vt 0.375000 0.750000
vt 0.625000 0.875000
vt 0.750000 0.875000
vt 0.750000 1.000000
vt 0.625000 1.000000
vt 0.625000 0.625000
vt 0.750000 0.625000
vt 0.750000 0.750000
vt 0.625000 0.750000
vt 0.875000 0.625000
vt 1.000000 0.625000
vt 1.000000 0.750000
vt 0.875000 0.750000
vt 0.000000 0.625000
vt 0.000000 0.750000
vt 0.000000 0.500000
vt 0.000000 0.875000
vt 0.000000 1.000000
vt 0.250000 0.000000
vt 0.375000 0.000000
vt 0.500000 0.000000
vt 0.000000 0.125000
vt 0.000000 0.250000
vt 0.000000 0.000000
vt 0.125000 0.000000
vt 0.000000 0.375000
vt 0.750000 0.000000
vt 0.875000 0.000000
vt 1.000000 0.000000
vt 0.625000 0.000000
s 0
f 81/1/1 28/2/1 4/3/1 45/4/1
f 80/5/2 34/6/2 8/7/2 41/8/2
f 79/9/3 35/10/3 9/11/3 48/12/3
f 78/13/4 32/14/4 7/15/4 49/16/4
f 77/17/5 50/18/5 21/19/5 37/20/5
f 76/21/6 51/22/6 22/23/6 52/24/6
f 75/25/7 44/26/7 16/27/7 53/28/7
f 74/29/8 54/30/8 20/31/8 36/32/8
f 73/33/9 55/34/9 23/35/9 56/36/9
f 72/37/10 47/38/10 19/39/10 57/40/10
f 71/41/11 58/42/11 13/43/11 29/44/11
f 70/45/12 59/46/12 24/47/12 60/48/12
f 69/49/13 46/50/13 18/51/13 61/52/13
f 68/53/4 62/54/4 17/55/4 33/56/4
f 67/57/14 63/58/14 25/59/14 64/60/14
f 66/61/4 40/62/4 12/63/4 65/64/4
f 63/58/15 66/61/15 65/64/15 25/59/15
f 21/19/4 49/16/4 66/61/4 63/58/4
f 49/16/4 7/15/4 40/62/4 66/61/4
f 46/50/16 67/57/16 64/60/16 18/51/16
f 9/11/4 37/20/4 67/57/4 46/50/4
f 37/20/4 21/19/4 63/58/4 67/57/4
f 34/6/4 68/53/4 33/56/4 8/7/4
f 18/51/17 64/60/17 68/53/17 34/6/17
f 64/60/18 25/59/18 62/54/18 68/53/18
f 59/46/19 69/49/19 61/52/19 24/47/19
f 20/31/20 48/12/20 69/49/20 59/46/20
f 48/12/4 9/11/4 46/50/4 69/49/4
f 30/65/4 70/45/4 60/48/4 14/66/4
f 5/67/4 36/32/4 70/45/4 30/65/4
f 36/32/21 20/31/21 59/46/21 70/45/21
f 42/68/22 71/41/22 29/44/22 3/69/22
f 14/66/23 60/48/23 71/41/23 42/68/23
f 60/48/24 24/47/24 58/42/24 71/41/24
f 55/34/25 72/37/25 57/40/25 23/35/25
f 15/70/26 31/71/26 72/37/26 55/34/26
f 31/71/27 6/72/27 47/38/27 72/37/27
f 26/73/28 73/33/28 56/36/28 10/74/28
f 1/75/4 43/76/4 73/33/4 26/73/4
f 43/76/4 15/70/4 55/34/4 73/33/4
f 38/77/4 74/29/4 36/32/4 5/67/4
f 10/74/29 56/36/29 74/29/29 38/77/29
f 56/36/30 23/35/30 54/30/30 74/29/30
f 51/22/31 75/25/31 53/28/31 22/23/31
f 11/78/32 27/79/32 75/25/32 51/22/32
f 27/79/33 2/80/33 44/26/33 75/25/33
f 47/38/34 76/21/34 52/24/34 19/39/34
f 6/72/35 39/81/35 76/21/35 47/38/35
f 39/81/36 11/78/36 51/22/36 76/21/36
f 35/10/4 77/17/4 37/20/4 9/11/4
f 19/39/37 52/24/37 77/17/37 35/10/37
f 52/24/38 22/23/38 50/18/38 77/17/38
f 50/18/39 78/13/39 49/16/39 21/19/39
f 22/23/40 53/28/40 78/13/40 50/18/40
f 53/28/4 16/27/4 32/14/4 78/13/4
f 54/30/41 79/9/41 48/12/41 20/31/41
f 23/35/42 57/40/42 79/9/42 54/30/42
f 57/40/43 19/39/43 35/10/43 79/9/43
f 58/42/44 80/5/44 41/8/44 13/43/44
f 24/47/45 61/52/45 80/5/45 58/42/45
f 61/52/46 18/51/46 34/6/46 80/5/46
f 62/54/47 81/1/47 45/4/47 17/55/47
f 25/59/48 65/64/48 81/1/48 62/54/48
f 65/64/49 12/63/49 28/2/49 81/1/49
