# Blender 4.2.1 LTS
# www.blender.org
mtllib Mountain_05.mtl
o Plane
v -19.762577 0.000000 19.060946
v 18.021971 0.000000 18.317636
v -17.667566 0.000000 -18.014925
v 18.517698 0.000000 -17.999256
v -25.882032 0.000000 0.000000
v 0.000000 0.000000 26.123610
v 27.359135 0.000000 0.000000
v 0.000000 0.000000 -25.615135
v 0.000000 26.747042 0.000000
v -22.402876 0.000000 11.201438
v 11.201438 0.000000 22.402876
v 22.402876 0.000000 -11.201438
v -11.201438 0.000000 -22.402876
v -22.402876 0.000000 -11.201438
v -11.201438 0.000000 22.402876
v 22.402876 0.000000 11.201438
v 11.201438 0.000000 -22.402876
v 0.000000 12.739687 -11.201438
v -1.049665 16.338671 11.201438
v -11.201438 12.739687 0.000000
v 10.151772 16.338671 0.000000
v 7.793669 13.019657 12.471036
v -11.201438 12.739687 11.201438
v -8.854939 10.570784 -6.494382
v 11.201438 12.739687 -11.201438
vn 0.5566 0.6167 -0.5566
vn -0.3060 0.7661 -0.5652
vn -0.6044 0.7330 0.3122
vn 0.6535 0.6952 0.2994
vn 0.4892 0.7221 0.4892
vn 0.1974 0.6507 0.7332
vn 0.6316 0.6708 0.3888
vn -0.6974 0.7084 0.1083
vn -0.5226 0.6736 0.5226
vn -0.2354 0.6448 0.7272
vn -0.3311 0.8077 -0.4879
vn -0.5817 0.7619 -0.2849
vn -0.5872 0.5572 -0.5872
vn 0.1006 0.7054 -0.7016
vn 0.3613 0.7413 -0.5656
vn 0.6960 0.6800 -0.2306
vn 0.2977 0.9071 0.2977
vn 0.5821 0.5677 0.5821
vn -0.4204 0.8040 -0.4204
vn -0.6155 0.4922 -0.6155
vn -0.7810 0.6245 -0.0000
vn -0.2553 0.7201 0.6452
vn -0.0000 -0.6245 0.7810
vn -0.7072 -0.6898 0.1553
vn -0.6901 -0.6068 0.3944
vn -0.4119 -0.6017 0.6843
vn 0.2813 -0.6336 -0.7207
vn 0.7282 -0.6403 -0.2446
vn -0.4991 0.7941 -0.3469
vn 0.4034 0.6194 0.6735
vt 0.750000 0.750000
vt 1.000000 0.750000
vt 1.000000 1.000000
vt 0.750000 1.000000
vt 0.250000 0.750000
vt 0.500000 0.750000
vt 0.500000 1.000000
vt 0.250000 1.000000
vt 0.250000 0.250000
vt 0.500000 0.250000
vt 0.500000 0.500000
vt 0.250000 0.500000
vt 0.750000 0.250000
vt 1.000000 0.250000
vt 1.000000 0.500000
vt 0.750000 0.500000
vt 0.500000 0.000000
vt 0.750000 0.000000
vt 1.000000 0.000000
vt 0.000000 0.250000
vt 0.000000 0.500000
vt 0.000000 0.000000
vt 0.250000 0.000000
vt 0.000000 1.000000
vt 0.000000 0.750000
s 0
f 25/1/1 12/2/1 4/3/1 17/4/1
f 24/5/2 18/6/2 8/7/2 13/8/2
f 23/9/3 19/10/3 9/11/3 20/12/3
f 22/13/4 16/14/4 7/15/4 21/16/4
f 19/10/5 22/13/5 21/16/5 9/11/5
f 6/17/6 11/18/6 22/13/6 19/10/6
f 2/19/7 16/14/7 22/13/7
f 10/20/8 23/9/8 20/12/8 5/21/8
f 1/22/9 15/23/9 23/9/9 10/20/9
f 15/23/10 6/17/10 19/10/10 23/9/10
f 24/5/11 13/8/11 3/24/11
f 5/21/12 20/12/12 24/5/12 14/25/12
f 20/12/13 9/11/13 18/6/13 24/5/13
f 18/6/14 25/1/14 17/4/14 8/7/14
f 9/11/15 21/16/15 25/1/15 18/6/15
f 21/16/16 7/15/16 12/2/16 25/1/16
f 19/22/17 22/22/17 21/22/17
f 9/22/18 19/22/18 21/22/18
f 18/22/19 24/22/19 20/22/19
f 9/22/20 18/22/20 20/22/20
f 20/22/21 23/22/21 9/22/21
f 9/22/22 23/22/22 19/22/22
f 18/22/23 25/22/23 9/22/23
f 9/22/24 25/22/24 21/22/24
f 12/22/25 25/22/25 4/22/25
f 25/22/26 17/22/26 4/22/26
f 15/22/27 1/22/27 23/22/27
f 23/22/28 1/22/28 10/22/28
f 14/25/29 24/5/29 3/24/29
f 11/18/30 2/19/30 22/13/30
