# Blender 4.2.1 LTS
# www.blender.org
mtllib Mountain_02.mtl
o Mountain
v -3.774850 0.000000 3.727245
v 3.779232 0.000000 3.819885
v -3.815204 0.000000 -3.772315
v 4.115305 0.000000 -3.566307
v -5.518597 0.000000 0.000000
v 0.000000 0.000000 5.757099
v 5.587646 0.000000 0.000000
v 0.000000 0.000000 -5.622170
v -0.840278 6.665054 0.697655
v -4.575197 0.000000 2.287599
v 2.287599 0.000000 4.575197
v 4.575197 0.000000 -2.287599
v -2.287599 0.000000 -4.575197
v -4.575197 0.000000 -2.287599
v -2.287599 0.000000 4.575197
v 4.575197 0.000000 2.287599
v 2.287599 0.000000 -4.575197
v 0.000000 3.508976 -2.287599
v 0.000000 3.508976 3.406228
v -3.130786 3.508976 0.000000
v 2.287599 3.508976 0.000000
v 2.735456 2.834551 2.733045
v -2.788743 3.321328 2.677631
v -1.955717 3.508976 -1.787699
v 2.010449 2.432810 -2.552004
vn 0.6804 0.6907 -0.2447
vn -0.2628 0.6413 -0.7209
vn -0.2405 0.5945 0.7673
vn 0.7716 0.6133 0.1691
vn 0.7152 0.6967 0.0547
vn 0.3586 0.4970 0.7902
vn 0.7926 0.4497 0.4117
vn -0.8353 0.4971 0.2350
vn -0.4564 0.3885 0.8005
vn -0.3241 0.4824 0.8138
vn -0.3727 0.5986 -0.7091
vn -0.7385 0.5543 -0.3839
vn -0.1886 0.6479 -0.7380
vn 0.2905 0.6482 -0.7039
vn 0.6213 0.6955 -0.3608
vn 0.6798 0.6564 -0.3271
vn 0.3290 0.6639 0.6716
vn 0.2870 0.6975 -0.6566
vn -0.6756 0.5885 -0.4441
vn -0.8158 0.5603 0.1435
vn -0.8078 0.3818 0.4491
vn 0.4027 0.4532 0.7953
vn 0.3805 0.6166 -0.6893
vn -0.7192 0.5893 -0.3681
vt 0.750000 0.750000
vt 1.000000 0.750000
vt 1.000000 1.000000
vt 0.250000 0.750000
vt 0.500000 0.750000
vt 0.500000 1.000000
vt 0.250000 1.000000
vt 0.250000 0.250000
vt 0.500000 0.250000
vt 0.500000 0.500000
vt 0.750000 0.250000
vt 1.000000 0.250000
vt 1.000000 0.500000
vt 0.750000 0.500000
vt 0.500000 0.000000
vt 0.750000 0.000000
vt 1.000000 0.000000
vt 0.000000 0.250000
vt 0.250000 0.500000
vt 0.000000 0.500000
vt 0.000000 0.000000
vt 0.250000 0.000000
vt 0.000000 1.000000
vt 0.000000 0.750000
vt 0.750000 1.000000
s 0
usemtl Material.001
f 25/1/1 12/2/1 4/3/1
f 24/4/2 18/5/2 8/6/2 13/7/2
f 23/8/3 19/9/3 9/10/3
f 22/11/4 16/12/4 7/13/4 21/14/4
f 22/11/5 21/14/5 9/10/5
f 6/15/6 11/16/6 22/11/6 19/9/6
f 2/17/7 16/12/7 22/11/7
f 10/18/8 23/8/8 20/19/8 5/20/8
f 1/21/9 15/22/9 23/8/9
f 15/22/10 6/15/10 19/9/10 23/8/10
f 24/4/11 13/7/11 3/23/11
f 5/20/12 20/19/12 24/4/12 14/24/12
f 9/10/13 18/5/13 24/4/13
f 18/5/14 25/1/14 17/25/14 8/6/14
f 9/10/15 21/14/15 25/1/15
f 21/14/16 7/13/16 12/2/16 25/1/16
f 19/9/17 22/11/17 9/10/17
f 18/5/18 9/10/18 25/1/18
f 20/19/19 9/10/19 24/4/19
f 20/19/20 23/8/20 9/10/20
f 10/18/21 1/21/21 23/8/21
f 11/16/22 2/17/22 22/11/22
f 17/25/23 25/1/23 4/3/23
f 14/24/24 24/4/24 3/23/24
