# Blender 4.2.1 LTS
# www.blender.org
mtllib Mountain_04.mtl
o Plane
v -0.863409 0.000000 0.830639
v 0.764897 0.000000 0.866072
v -0.846120 0.000000 -0.830557
v 0.840516 0.000000 -0.839593
v -1.114280 0.023045 0.000000
v 0.000000 0.000000 1.156925
v 1.135116 0.000000 0.000000
v 0.000000 0.017455 -1.145282
v -0.149496 0.877553 -0.048000
v -1.000000 0.003444 0.500000
v 0.500000 0.000000 1.000000
v 1.000000 0.000000 -0.500000
v -0.500000 0.006466 -1.000000
v -1.000000 0.006092 -0.500000
v -0.500000 0.000000 1.000000
v 1.000000 0.000000 0.500000
v 0.500000 0.000468 -1.000000
v -0.094225 0.620932 -0.527317
v -0.086352 0.677432 0.381596
v -0.588055 0.634738 -0.030515
v 0.401861 0.651331 -0.112294
v 0.381562 0.470249 0.444502
v -0.614506 0.444648 0.442463
v -0.567928 0.436999 -0.464244
v 0.380916 0.434193 -0.555163
vn 0.4504 0.7713 -0.4497
vn -0.2808 0.6948 -0.6622
vn -0.3835 0.8419 0.3796
vn 0.6066 0.7640 0.2201
vn 0.3710 0.8715 0.3207
vn 0.2216 0.7551 0.6171
vn 0.4504 0.7709 0.4504
vn -0.7311 0.6503 0.2062
vn -0.4940 0.7121 0.4989
vn -0.2254 0.7283 0.6471
vn -0.4897 0.7218 -0.4891
vn -0.7116 0.6554 -0.2531
vn -0.4130 0.8013 -0.4328
vn 0.2292 0.7192 -0.6559
vn 0.3044 0.8518 -0.4263
vn 0.6226 0.7337 -0.2720
vn -0.3776 0.8358 -0.3986
vn -0.4436 0.7678 -0.4622
vn -0.3104 -0.8525 0.4206
vn -0.2989 -0.8512 0.4315
vn -0.3520 -0.8863 -0.3011
vn -0.3906 -0.8551 -0.3409
vn 0.4508 -0.8367 -0.3110
vn 0.3197 -0.8400 -0.4383
vn -0.0000 -1.0000 -0.0000
vn -0.4967 -0.7118 -0.4967
vn 0.0358 -0.9987 0.0351
vn 0.5610 -0.6091 0.5606
vn 0.2946 -0.7167 -0.6321
vn 0.6999 -0.6501 -0.2959
vn -0.5692 -0.7776 0.2673
vn -0.2955 -0.7224 0.6252
vt 0.750000 0.750000
vt 1.000000 0.750000
vt 1.000000 1.000000
vt 0.750000 1.000000
vt 0.250000 0.750000
vt 0.500000 0.750000
vt 0.500000 1.000000
vt 0.250000 1.000000
vt 0.250000 0.250000
vt 0.500000 0.250000
vt 0.500000 0.500000
vt 0.250000 0.500000
vt 0.750000 0.250000
vt 1.000000 0.250000
vt 1.000000 0.500000
vt 0.750000 0.500000
vt 0.500000 0.000000
vt 0.750000 0.000000
vt 1.000000 0.000000
vt 0.000000 0.250000
vt 0.000000 0.500000
vt 0.000000 0.000000
vt 0.250000 0.000000
vt 0.000000 0.750000
vt 0.000000 1.000000
s 0
f 25/1/1 12/2/1 4/3/1 17/4/1
f 24/5/2 18/6/2 8/7/2 13/8/2
f 23/9/3 19/10/3 9/11/3 20/12/3
f 22/13/4 16/14/4 7/15/4 21/16/4
f 19/10/5 22/13/5 21/16/5 9/11/5
f 6/17/6 11/18/6 22/13/6 19/10/6
f 11/18/7 2/19/7 16/14/7 22/13/7
f 10/20/8 23/9/8 20/12/8 5/21/8
f 1/22/9 15/23/9 23/9/9 10/20/9
f 15/23/10 6/17/10 19/10/10 23/9/10
f 14/24/11 24/5/11 13/8/11 3/25/11
f 5/21/12 20/12/12 24/5/12 14/24/12
f 20/12/13 9/11/13 18/6/13 24/5/13
f 18/6/14 25/1/14 17/4/14 8/7/14
f 9/11/15 21/16/15 25/1/15 18/6/15
f 21/16/16 7/15/16 12/2/16 25/1/16
f 18/22/17 24/22/17 20/22/17
f 9/22/18 18/22/18 20/22/18
f 18/22/19 25/22/19 9/22/19
f 9/22/20 25/22/20 21/22/20
f 21/22/21 22/22/21 19/22/21
f 9/22/22 21/22/22 19/22/22
f 20/22/23 9/22/23 23/22/23
f 9/22/24 19/22/24 23/22/24
f 11/22/25 16/22/25 2/22/25
f 22/22/26 16/22/26 11/22/26
f 14/22/27 3/22/27 13/22/27
f 24/22/28 14/22/28 13/22/28
f 15/22/29 1/22/29 23/22/29
f 23/22/30 1/22/30 10/22/30
f 12/22/31 25/22/31 4/22/31
f 25/22/32 17/22/32 4/22/32
