# Blender 4.2.1 LTS
# www.blender.org
mtllib Mountain_03.mtl
o Plane
v 43.232895 0.000000 -44.915825
v -46.889839 0.000000 -43.992104
v 42.569286 0.000000 46.383537
v -44.941467 0.000000 46.052124
v 59.920341 0.000000 0.000000
v 0.000000 0.000000 -60.368137
v -57.578457 0.000000 0.000000
v 0.000000 0.000000 58.648689
v -5.234627 45.486912 2.267074
v 52.669647 0.000000 -26.334824
v -26.334824 0.000000 -52.669647
v -52.669647 0.000000 26.334824
v 26.334824 0.000000 52.669647
v 52.669647 0.000000 26.334824
v 26.334824 0.000000 -52.669647
v -52.669647 0.000000 -26.334824
v -26.334824 0.000000 52.669647
v -2.961687 17.435995 32.158958
v -2.961687 17.435995 -30.776114
v 27.645174 17.435995 2.267074
v -32.238670 17.435995 2.267074
v -27.051224 17.435995 -20.456678
v 19.260082 17.435995 -21.251291
v 17.517530 17.435995 25.908915
v -25.719193 17.435995 25.861256
vn 0.3750 -0.8478 -0.3750
vn -0.1362 -0.8423 -0.5215
vn -0.4673 -0.7709 0.4328
vn 0.5488 -0.8283 0.1129
vn 0.4987 -0.7457 0.4418
vn 0.1757 -0.8529 0.4917
vn 0.3495 -0.8693 0.3495
vn -0.4518 -0.8808 0.1417
vn -0.3251 -0.8881 0.3251
vn -0.1662 -0.8676 0.4686
vn -0.3368 -0.8793 -0.3368
vn -0.4570 -0.8752 -0.1589
vn -0.4540 -0.7601 -0.4649
vn 0.1367 -0.8262 -0.5466
vn 0.4781 -0.7430 -0.4683
vn 0.5534 -0.8233 -0.1267
vn -0.6253 -0.7330 -0.2679
vn -0.2020 -0.7218 -0.6620
vn -0.7066 0.6802 0.1952
vn -0.1881 0.7090 0.6796
vn -0.2714 0.7244 -0.6337
vn -0.7109 0.6843 -0.1623
vn -0.2631 -0.7443 0.6138
vn -0.6323 -0.7412 0.2254
vn 0.2019 0.8750 -0.4401
vn 0.4257 0.8787 -0.2162
vn 0.1902 0.8500 0.4912
vn 0.4316 0.8755 0.2174
vn -0.1893 0.8251 0.5323
vn -0.5288 0.8230 0.2073
vn -0.5269 0.8323 -0.1725
vn -0.1984 0.8601 -0.4700
vt 0.750000 0.750000
vt 1.000000 0.750000
vt 1.000000 1.000000
vt 0.750000 1.000000
vt 0.250000 0.750000
vt 0.500000 0.750000
vt 0.500000 1.000000
vt 0.250000 1.000000
vt 0.250000 0.250000
vt 0.500000 0.250000
vt 0.500000 0.500000
vt 0.250000 0.500000
vt 0.750000 0.250000
vt 1.000000 0.250000
vt 1.000000 0.500000
vt 0.750000 0.500000
vt 0.500000 0.000000
vt 0.750000 0.000000
vt 1.000000 0.000000
vt 0.000000 0.250000
vt 0.000000 0.500000
vt 0.000000 0.000000
vt 0.250000 0.000000
vt 0.000000 0.750000
vt 0.000000 1.000000
s 0
f 25/1/1 17/4/1 4/3/1 12/2/1
f 24/5/2 13/8/2 8/7/2 18/6/2
f 23/9/3 20/12/3 9/11/3 19/10/3
f 22/13/4 21/16/4 7/15/4 16/14/4
f 19/10/5 9/11/5 21/16/5 22/13/5
f 6/17/6 19/10/6 22/13/6 11/18/6
f 11/18/7 22/13/7 16/14/7 2/19/7
f 10/20/8 5/21/8 20/12/8 23/9/8
f 1/22/9 10/20/9 23/9/9 15/23/9
f 15/23/10 23/9/10 19/10/10 6/17/10
f 14/24/11 3/25/11 13/8/11 24/5/11
f 5/21/12 14/24/12 24/5/12 20/12/12
f 20/12/13 24/5/13 18/6/13 9/11/13
f 18/6/14 8/7/14 17/4/14 25/1/14
f 9/11/15 18/6/15 25/1/15 21/16/15
f 21/16/16 25/1/16 12/2/16 7/15/16
f 20/22/17 24/22/17 9/22/17
f 24/22/18 18/22/18 9/22/18
f 21/22/19 25/22/19 9/22/19
f 25/22/20 18/22/20 9/22/20
f 19/22/21 22/22/21 9/22/21
f 22/22/22 21/22/22 9/22/22
f 19/22/23 23/22/23 9/22/23
f 23/22/24 20/22/24 9/22/24
f 15/22/25 23/22/25 1/22/25
f 1/22/26 23/22/26 10/22/26
f 13/22/27 3/22/27 24/22/27
f 3/22/28 14/22/28 24/22/28
f 17/22/29 25/22/29 4/22/29
f 4/22/30 25/22/30 12/22/30
f 16/22/31 22/22/31 2/22/31
f 2/22/32 22/22/32 11/22/32
