# Blender 4.2.1 LTS
# www.blender.org
mtllib Mountain_01.mtl
o Mountain
v -25.240793 0.000000 24.958223
v 26.068802 0.000000 24.611059
v -25.762423 0.000000 -24.784697
v 25.312191 0.000000 -23.802467
v -33.472298 0.000000 0.000000
v 0.000000 0.000000 33.160358
v 35.793587 0.000000 0.000000
v 0.000000 0.000000 -34.581001
v -3.766868 28.988468 0.000000
v -29.597946 0.000000 14.798973
v 14.798973 0.000000 29.597946
v 29.597946 0.000000 -14.798973
v -14.798973 0.000000 -29.597946
v -29.597946 0.000000 -14.798973
v -14.798973 0.000000 29.597946
v 29.597946 0.000000 14.798973
v 14.798973 0.000000 -29.597946
v 0.000000 13.114376 -17.051376
v -2.368138 13.114376 16.853357
v -18.171814 13.114376 0.000000
v 14.798973 13.114376 0.000000
v 10.149592 16.196915 10.845152
v -14.798973 13.114376 14.798973
v -11.048037 13.114376 -9.443970
v 14.798973 13.114376 -14.798973
vn 0.6325 0.7137 -0.3011
vn -0.2601 0.8045 -0.5340
vn -0.1134 0.7185 0.6862
vn 0.5714 0.8079 0.1445
vn 0.6486 0.7586 0.0624
vn 0.1301 0.7733 0.6205
vn 0.5987 0.7715 0.2153
vn -0.6486 0.7444 0.1588
vn -0.2827 0.7179 0.6362
vn -0.1330 0.7527 0.6448
vn -0.2207 0.8358 -0.5028
vn -0.5662 0.7832 -0.2569
vn -0.4537 0.6001 -0.6589
vn 0.1522 0.7675 -0.6227
vn 0.6499 0.7601 -0.0000
vn 0.5866 0.8005 -0.1228
vn -0.6465 0.5867 -0.4877
vn 0.1013 0.7392 -0.6658
vn 0.1438 0.7263 0.6722
vn -0.7302 0.6626 0.1664
vn -0.5258 0.8263 -0.2020
vn 0.3434 0.7029 -0.6229
vn 0.2623 0.7615 0.5927
vn -0.6379 0.7199 0.2736
vt 0.750000 0.750000
vt 1.000000 0.750000
vt 1.000000 1.000000
vt 0.250000 0.750000
vt 0.500000 0.750000
vt 0.500000 1.000000
vt 0.250000 1.000000
vt 0.250000 0.250000
vt 0.500000 0.250000
vt 0.500000 0.500000
vt 0.750000 0.250000
vt 1.000000 0.250000
vt 1.000000 0.500000
vt 0.750000 0.500000
vt 0.500000 0.000000
vt 0.750000 0.000000
vt 1.000000 0.000000
vt 0.000000 0.250000
vt 0.250000 0.500000
vt 0.000000 0.500000
vt 0.000000 0.000000
vt 0.250000 0.000000
vt 0.000000 1.000000
vt 0.000000 0.750000
vt 0.750000 1.000000
s 0
f 25/1/1 12/2/1 4/3/1
f 24/4/2 18/5/2 8/6/2 13/7/2
f 23/8/3 19/9/3 9/10/3
f 22/11/4 16/12/4 7/13/4 21/14/4
f 22/11/5 21/14/5 9/10/5
f 6/15/6 11/16/6 22/11/6 19/9/6
f 2/17/7 16/12/7 22/11/7
f 10/18/8 23/8/8 20/19/8 5/20/8
f 1/21/9 15/22/9 23/8/9
f 15/22/10 6/15/10 19/9/10 23/8/10
f 24/4/11 13/7/11 3/23/11
f 5/20/12 20/19/12 24/4/12 14/24/12
f 9/10/13 18/5/13 24/4/13
f 18/5/14 25/1/14 17/25/14 8/6/14
f 9/10/15 21/14/15 25/1/15
f 21/14/16 7/13/16 12/2/16 25/1/16
f 20/19/17 9/10/17 24/4/17
f 18/5/18 9/10/18 25/1/18
f 19/9/19 22/11/19 9/10/19
f 20/19/20 23/8/20 9/10/20
f 14/24/21 24/4/21 3/23/21
f 17/25/22 25/1/22 4/3/22
f 11/16/23 2/17/23 22/11/23
f 10/18/24 1/21/24 23/8/24
