# Blender 4.2.1 LTS
# www.blender.org
mtllib Mountains_Distant_01.mtl
o Mountains
v -55.185505 0.000000 44.838047
v 55.185505 0.000000 44.838047
v -55.185505 0.000000 -45.933456
v 55.185505 0.000000 -45.933456
v -55.185505 0.000000 -0.547707
v 0.000000 0.000000 44.838047
v 55.185505 0.000000 -0.547707
v 0.000000 0.000000 -45.933456
v 0.000000 8.636852 -0.547707
v -55.185505 0.000000 22.145168
v 27.592752 0.000000 44.838047
v 55.185505 0.000000 -23.240578
v -27.592752 0.000000 -45.933456
v -55.185505 0.000000 -23.240578
v -27.592752 0.000000 44.838047
v 55.185505 0.000000 22.145168
v 27.592752 0.000000 -45.933456
v 0.000000 16.388502 -23.240578
v 0.000000 -1.697113 22.145168
v -27.592752 8.016432 -0.547707
v 27.592752 4.493178 -0.547707
v 27.592752 0.000000 22.145168
v -27.592752 4.324862 22.145168
v -27.592752 15.672679 -23.240578
v 27.592752 11.989182 -23.240578
v -55.185505 0.000000 33.491611
v 41.389130 0.000000 44.838047
v 55.185505 0.000000 -34.587021
v -41.389130 0.000000 -45.933456
v -55.185505 0.000000 -11.894135
v -13.796376 0.000000 44.838047
v 55.185505 0.000000 10.798729
v 13.796376 0.000000 -45.933456
v 0.000000 19.683084 -34.587021
v 0.000000 4.446999 10.798729
v -41.389130 7.649696 -0.547707
v 13.796376 4.301270 -0.547707
v -55.185505 0.000000 10.798729
v 13.796376 0.000000 44.838047
v 55.185505 0.000000 -11.894135
v -13.796376 0.000000 -45.933456
v -55.185505 0.000000 -34.587021
v -41.389130 0.000000 44.838047
v 55.185505 0.000000 33.491611
v 41.389130 0.000000 -45.933456
v 0.000000 9.049058 -11.894135
v 0.000000 -1.620269 33.491611
v -13.796376 9.928119 -0.547707
v 41.389130 3.973963 -0.547707
v 27.592752 9.060788 10.798729
v 27.592752 0.000000 33.491611
v 13.796376 -1.884736 22.145168
v 41.389130 0.000000 22.145168
v -27.592752 6.565959 10.798729
v -27.592752 0.000000 33.491611
v -41.389130 0.000000 22.145168
v -13.796376 -1.551573 22.145168
v -27.592752 18.470428 -34.587021
v -27.592752 16.818628 -11.894135
v -41.389130 11.870869 -23.240578
v -13.796376 16.273220 -23.240578
v 27.592752 12.631019 -34.587021
v 27.592752 8.952629 -11.894135
v 13.796376 21.860077 -23.240578
v 41.389130 13.180600 -23.240578
v 41.389130 7.920407 -11.894135
v 13.796376 8.311856 -11.894135
v 13.796376 17.093952 -34.587021
v -13.796376 17.035990 -11.894135
v -41.389130 6.490894 -11.894135
v -41.389130 17.235088 -34.587021
v -13.796376 0.000000 33.491611
v -41.389130 0.000000 33.491611
v -41.389130 8.860235 10.798729
v 41.389130 0.000000 33.491611
v 13.796376 0.000000 33.491611
v 13.796376 2.892561 10.798729
v 41.389130 0.000000 10.798729
v -13.796376 3.915899 10.798729
v -13.796376 30.331459 -34.587021
v 41.389130 5.502667 -34.587021
v -55.185505 0.000000 39.164825
v 48.287315 0.000000 44.838047
v 55.185505 0.000000 -40.260239
v -48.287315 0.000000 -45.933456
v -55.185505 0.000000 -6.220924
v -6.898188 0.000000 44.838047
v 55.185505 0.000000 5.125511
v 6.898188 0.000000 -45.933456
v 0.000000 5.017313 -40.260239
v 0.000000 4.318426 5.125511
v -48.287315 0.000000 -0.547707
v 6.898188 6.469061 -0.547707
v -55.185505 0.000000 16.471951
v 20.694565 0.000000 44.838047
v 55.185505 0.000000 -17.567360
v -20.694565 0.000000 -45.933456
v -55.185505 0.000000 -28.913795
v -34.490940 0.000000 44.838047
v 55.185505 0.000000 27.818390
v 34.490940 0.000000 -45.933456
v 0.000000 12.349439 -17.567360
v 0.000000 -2.509314 27.818390
v -20.694565 8.133263 -0.547707
v 34.490940 2.246589 -0.547707
v 27.592752 6.776983 5.125511
v 27.592752 0.000000 27.818390
v 6.898188 -2.075794 22.145168
v 34.490940 0.000000 22.145168
v -27.592752 5.197628 5.125511
v -27.592752 0.000000 27.818390
v -48.287315 0.000000 22.145168
v -20.694565 0.000000 22.145168
v -27.592752 13.112026 -40.260239
v -27.592752 16.365391 -17.567360
v -48.287315 5.935434 -23.240578
v -20.694565 14.269119 -23.240578
v 27.592752 6.315509 -40.260239
v 27.592752 10.264841 -17.567360
v 6.898188 23.678879 -23.240578
v 34.490940 11.802048 -23.240578
v -55.185505 0.000000 27.818390
v 34.490940 0.000000 44.838047
v 55.185505 0.000000 -28.913795
v -34.490940 0.000000 -45.933456
v -55.185505 0.000000 -17.567360
v -20.694565 0.000000 44.838047
v 55.185505 0.000000 16.471951
v 20.694565 0.000000 -45.933456
v 0.000000 21.111586 -28.913795
v 0.000000 0.000000 16.471951
v -34.490940 11.880880 -0.547707
v 20.694565 4.397223 -0.547707
v -55.185505 0.000000 5.125511
v 6.898188 0.000000 44.838047
v 55.185505 0.000000 -6.220924
v -6.898188 0.000000 -45.933456
v -55.185505 0.000000 -40.260239
v -48.287315 0.000000 44.838047
v 55.185505 0.000000 39.164825
v 48.287315 0.000000 -45.933456
v 0.000000 8.842955 -6.220924
v 0.000000 0.000000 39.164825
v -6.898188 9.282486 -0.547707
v 48.287315 3.033724 -0.547707
v 27.592752 4.530394 16.471951
v 27.592752 0.000000 39.164825
v 20.694565 0.000000 22.145168
v 48.287315 0.000000 22.145168
v -27.592752 5.205847 16.471951
v -27.592752 0.000000 39.164825
v -34.490940 2.065592 22.145168
v -6.898188 -2.319751 22.145168
v -27.592752 13.413973 -28.913795
v -27.592752 13.409304 -6.220924
v -34.490940 12.067944 -23.240578
v -6.898188 15.961519 -23.240578
v 27.592752 9.828554 -28.913795
v 27.592752 5.492200 -6.220924
v 20.694565 18.032103 -23.240578
v 48.287315 10.291027 -23.240578
v 41.389130 13.671059 -17.567360
v 41.389130 3.960203 -6.220924
v 34.490940 7.768540 -11.894135
v 48.287315 3.960203 -11.894135
v 13.796376 15.085966 -17.567360
v 13.796376 6.306563 -6.220924
v 6.898188 8.680457 -11.894135
v 20.694565 8.777409 -11.894135
v 13.796376 7.382400 -40.260239
v 13.796376 23.334618 -28.913795
v 6.898188 18.629740 -34.587021
v 20.694565 14.788827 -34.587021
v -13.796376 16.654606 -17.567360
v -13.796376 13.482054 -6.220924
v -20.694565 14.280772 -11.894135
v -6.898188 13.042524 -11.894135
v -41.389130 5.935434 -17.567360
v -41.389130 8.275191 -6.220924
v -48.287315 0.000000 -11.894135
v -34.490940 14.028410 -11.894135
v -41.389130 12.567204 -40.260239
v -41.389130 14.471769 -28.913795
v -48.287315 9.044418 -34.587021
v -34.490940 16.333216 -34.587021
v -13.796376 -1.304459 27.818390
v -13.796376 0.000000 39.164825
v -20.694565 0.000000 33.491611
v -6.898188 -0.908169 33.491611
v -41.389130 0.000000 27.818390
v -41.389130 0.000000 39.164825
v -48.287315 0.000000 33.491611
v -34.490940 0.000000 33.491611
v -41.389130 6.010093 5.125511
v -41.389130 6.010093 16.471951
v -48.287315 2.679283 10.798729
v -34.490940 6.010093 10.798729
v 41.389130 0.000000 27.818390
v 41.389130 0.000000 39.164825
v 34.490940 0.000000 33.491611
v 48.287315 0.000000 33.491611
v 13.796376 -2.523788 27.818390
v 13.796376 0.000000 39.164825
v 6.898188 -0.807523 33.491611
v 20.694565 0.000000 33.491611
v 13.796376 2.150635 5.125511
v 13.796376 0.000000 16.471951
v 6.898188 0.000000 10.798729
v 20.694565 7.052111 10.798729
v 41.389130 0.000000 5.125511
v 41.389130 0.000000 16.471951
v 34.490940 7.531691 10.798729
v 48.287315 0.000000 10.798729
v -13.796376 4.964059 5.125511
v -13.796376 0.000000 16.471951
v -20.694565 5.940997 10.798729
v -6.898188 3.705473 10.798729
v -13.796376 18.937811 -40.260239
v -13.796376 21.495005 -28.913795
v -20.694565 24.059784 -34.587021
v -6.898188 24.592993 -34.587021
v 41.389130 6.244412 -40.260239
v 41.389130 6.698367 -28.913795
v 34.490940 6.315509 -34.587021
v 48.287315 4.951891 -34.587021
v 48.287315 3.262861 -28.913795
v 34.490940 6.638323 -28.913795
v 34.490940 4.672281 -40.260239
v -6.898188 16.505529 -28.913795
v -20.694565 19.729528 -28.913795
v -20.694565 16.220778 -40.260239
v -6.898188 0.000000 16.471951
v -20.694565 0.000000 16.471951
v -20.694565 7.613521 5.125511
v 48.287315 0.000000 16.471951
v 34.490940 2.265197 16.471951
v 34.490940 3.388492 5.125511
v 20.694565 2.265197 16.471951
v 6.898188 0.000000 16.471951
v 6.898188 3.234530 5.125511
v 20.694565 0.000000 39.164825
v 6.898188 0.000000 39.164825
v 6.898188 -2.217220 27.818390
v 48.287315 0.000000 39.164825
v 34.490940 0.000000 39.164825
v 34.490940 0.000000 27.818390
v -34.490940 6.010093 16.471951
v -48.287315 0.000000 16.471951
v -48.287315 5.722281 5.125511
v -34.490940 0.000000 39.164825
v -48.287315 0.000000 39.164825
v -48.287315 0.000000 27.818390
v -6.898188 0.000000 39.164825
v -20.694565 0.000000 39.164825
v -20.694565 0.000000 27.818390
v -34.490940 15.209680 -28.913795
v -48.287315 6.094668 -28.913795
v -48.287315 7.545473 -40.260239
v -34.490940 12.580698 -6.220924
v -48.287315 0.000000 -6.220924
v -48.287315 2.967717 -17.567360
v -6.898188 11.162505 -6.220924
v -20.694565 12.485032 -6.220924
v -20.694565 13.530844 -17.567360
v 20.694565 18.238613 -28.913795
v 6.898188 26.360748 -28.913795
v 6.898188 6.199856 -40.260239
v 20.694565 5.228367 -6.220924
v 6.898188 7.574759 -6.220924
v 6.898188 13.717703 -17.567360
v 48.287315 1.980102 -6.220924
v 34.490940 4.055187 -6.220924
v 34.490940 9.505645 -17.567360
v 48.287315 7.896969 -17.567360
v 20.694565 12.651016 -17.567360
v 20.694565 6.848954 -40.260239
v -6.898188 14.502022 -17.567360
v -34.490940 13.721202 -17.567360
v -34.490940 12.860810 -40.260239
v -6.898188 -1.750116 27.818390
v -34.490940 0.000000 27.818390
v -34.490940 7.560104 5.125511
v 48.287315 0.000000 27.818390
v 20.694565 0.000000 27.818390
v 20.694565 4.463809 5.125511
v 48.287315 0.000000 5.125511
v -6.898188 4.641243 5.125511
v -6.898188 16.596989 -40.260239
v 48.287315 6.379978 -40.260239
vn -0.0000 1.0000 -0.0000
vn -0.4145 0.7578 -0.5039
vn 0.3739 0.8084 -0.4546
vn -0.0187 0.9996 -0.0227
vn 0.2753 0.9569 0.0930
vn 0.1287 0.6098 -0.7821
vn 0.1877 0.9416 0.2797
vn 0.7421 0.6524 -0.1540
vn -0.0439 0.3805 -0.9237
vn -0.5933 0.7958 0.1211
vn 0.0565 0.6865 -0.7250
vn -0.3028 0.7840 0.5419
vn -0.0001 0.9817 0.1907
vn 0.0617 0.9013 0.4288
vn 0.0868 0.9960 0.0199
vn -0.0000 0.9996 0.0289
vn 0.1783 0.9425 0.2827
vn -0.0014 0.9980 -0.0630
vn 0.4818 0.8631 0.1514
vn 0.5650 0.8172 0.1137
vn -0.0945 0.4484 -0.8888
vn -0.0179 0.9996 0.0218
vn -0.0157 0.6323 -0.7746
vn 0.0710 0.6538 -0.7533
vn 0.0298 0.9926 0.1178
vn -0.5360 0.8012 0.2661
vn 0.0205 0.9596 0.2808
vn -0.2992 0.9266 0.2280
vn 0.4880 0.8502 0.1974
vn -0.0044 0.3056 -0.9521
vn -0.7532 0.6561 0.0466
vn -0.0455 0.6951 -0.7175
vn 0.1782 0.9402 0.2902
vn 0.0174 0.9841 -0.1767
vn 0.0299 0.8640 0.5027
vn 0.0353 0.9973 0.0641
vn 0.0144 0.9999 0.0045
vn -0.1017 0.9854 0.1363
vn 0.0062 1.0000 0.0076
vn 0.0322 0.9956 0.0880
vn -0.0334 0.9986 0.0420
vn 0.0906 0.9949 0.0436
vn -0.5766 0.8114 -0.0958
vn -0.0029 1.0000 0.0013
vn -0.5143 0.8073 0.2894
vn 0.0065 0.9710 0.2390
vn 0.4358 0.7997 -0.4131
vn 0.1233 0.9333 0.3373
vn 0.3593 0.8102 0.4630
vn 0.0116 0.9905 0.1367
vn 0.1135 0.8008 0.5881
vn 0.0797 0.9265 0.3678
vn 0.2207 0.6144 -0.7575
vn 0.0014 0.9985 0.0551
vn -0.7242 0.6867 -0.0633
vn -0.0709 0.9974 0.0085
vn 0.0267 0.9991 -0.0335
vn -0.0084 0.9994 0.0328
vn -0.0268 0.9990 -0.0357
vn -0.3909 0.9128 0.1181
vn 0.0255 0.9997 0.0019
vn 0.0618 0.9446 0.3223
vn 0.0144 0.9999 -0.0041
vn 0.1029 0.9907 0.0890
vn 0.5201 0.8293 -0.2044
vn -0.3216 0.6604 -0.6786
vn 0.0179 0.9996 0.0218
vn -0.0581 0.6773 -0.7335
vn 0.1314 0.6014 -0.7881
vn 0.1054 0.9651 0.2398
vn -0.0465 0.9987 -0.0212
vn 0.2214 0.9057 0.3616
vn -0.0177 0.9996 0.0216
vn 0.7089 0.6772 0.1974
vn -0.0708 0.3335 -0.9401
vn -0.6938 0.7149 0.0868
vn 0.0016 0.7195 -0.6945
vn 0.1685 0.8564 0.4881
vn 0.0040 1.0000 -0.0029
vn -0.0079 0.8888 0.4582
vn 0.1051 0.9862 0.1276
vn -0.0126 0.9029 -0.4296
vn 0.0070 0.9955 0.0947
vn 0.0128 0.9996 0.0249
vn 0.0035 0.9965 0.0841
vn 0.0051 0.9997 0.0255
vn -0.0064 0.9999 0.0078
vn 0.2261 0.9679 0.1098
vn -0.1079 0.5930 -0.7980
vn -0.0021 0.9964 -0.0853
vn -0.5865 0.7501 0.3056
vn -0.0095 0.9996 0.0277
vn 0.2407 0.7161 -0.6552
vn 0.1070 0.9253 0.3638
vn -0.0413 0.9050 0.4233
vn -0.0871 0.9917 -0.0947
vn 0.5871 0.8038 -0.0958
vn -0.0080 0.4039 -0.9148
vn -0.3238 0.9153 0.2394
vn 0.0247 0.6383 -0.7694
vn -0.5213 0.8401 -0.1499
vn 0.0509 0.9238 0.3794
vn -0.1579 0.9335 0.3219
vn -0.0634 0.9908 0.1197
vn -0.4513 0.8853 -0.1120
vn 0.3661 0.9303 0.0251
vn 0.2146 0.3760 -0.9014
vn -0.5965 0.7326 -0.3280
vn 0.2100 0.7697 -0.6029
vn 0.1753 0.9749 0.1373
vn -0.0005 0.9996 -0.0266
vn 0.1629 0.9246 0.3444
vn 0.1728 0.9794 0.1044
vn -0.0160 0.7690 0.6391
vn -0.0590 0.9962 0.0637
vn 0.0844 0.9156 0.3931
vn -0.1298 0.8303 0.5419
vn 0.0249 0.9990 0.0369
vn -0.1611 0.9663 0.2010
vn 0.0001 0.9100 0.4146
vn -0.2470 0.8957 0.3697
vn 0.1433 0.9618 0.2333
vn 0.4132 0.8875 -0.2041
vn 0.0537 0.9057 0.4204
vn 0.5426 0.7666 0.3433
vn 0.4826 0.8377 -0.2557
vn 0.0102 0.9784 0.2063
vn 0.1153 0.9748 0.1912
vn 0.0464 0.8466 0.5302
vn 0.4844 0.7992 0.3558
vn 0.1594 0.6209 0.7675
vn 0.1433 0.9318 0.3334
vn 0.0846 0.9625 0.2576
vn 0.0555 0.8276 0.5586
vn 0.0550 0.5108 -0.8579
vn 0.3311 0.9386 -0.0968
vn 0.0955 0.5323 -0.8412
vn 0.4405 0.7750 -0.4531
vn -0.0025 0.9999 0.0126
vn 0.0511 0.8999 0.4330
vn -0.0034 0.9876 0.1568
vn 0.3827 0.8480 0.3667
vn -0.5301 0.7750 0.3441
vn -0.5943 0.8032 0.0405
vn -0.0449 0.9988 0.0176
vn -0.3375 0.9290 0.1519
vn -0.3620 0.6622 -0.6561
vn -0.3074 0.8551 0.4175
vn -0.7309 0.6813 -0.0397
vn -0.0238 0.9997 -0.0023
vn 0.1334 0.9859 -0.1009
vn 0.0057 1.0000 -0.0070
vn 0.0060 1.0000 -0.0073
vn 0.0751 0.9795 -0.1869
vn -0.0062 1.0000 0.0076
vn -0.4095 0.9059 -0.1080
vn -0.1804 0.8993 0.3983
vn -0.5477 0.7909 0.2728
vn 0.0773 0.9891 0.1253
vn -0.0283 0.9996 -0.0037
vn -0.0056 1.0000 -0.0068
vn -0.0511 0.9716 -0.2309
vn -0.0063 1.0000 -0.0076
vn -0.1395 0.9777 0.1570
vn -0.1790 0.9342 0.3086
vn 0.0017 0.9566 0.2914
vn -0.3007 0.9526 0.0453
vn 0.0288 0.9994 0.0184
vn 0.0208 0.9996 0.0187
vn 0.3109 0.9495 0.0430
vn 0.1852 0.9229 0.3375
vn 0.0829 0.9437 0.3202
vn 0.2543 0.9213 0.2942
vn -0.0065 0.9293 0.3693
vn -0.0159 0.5017 -0.8649
vn 0.0101 0.6153 0.7882
vn -0.5232 0.8517 -0.0303
vn 0.5577 0.8289 -0.0442
vn 0.0096 0.9996 -0.0266
vn 0.1045 0.9115 -0.3977
vn 0.1280 0.9733 -0.1903
vn 0.3576 0.9306 0.0782
vn 0.5748 0.8124 -0.0982
vn 0.1689 0.9773 -0.1280
vn 0.0026 0.7892 -0.6141
vn -0.0015 0.8982 0.4395
vn -0.3726 0.6952 0.6147
vn -0.2404 0.4812 -0.8430
vn -0.0019 0.9070 0.4210
vn 0.2072 0.9527 0.2224
vn -0.0706 0.9418 0.3286
vn 0.3169 0.8383 0.4437
vn 0.4484 0.8577 -0.2513
vn -0.2416 0.8221 0.5156
vn 0.0039 0.9507 0.3101
vn 0.2638 0.9051 0.3336
vn -0.0109 0.9997 -0.0214
vn -0.0114 0.9998 -0.0136
vn 0.0433 0.9739 0.2227
vn -0.0351 0.9985 0.0420
vn -0.4532 0.8832 -0.1210
vn 0.0107 0.9997 -0.0220
vn 0.0484 0.9988 -0.0019
vn -0.0109 0.9260 0.3774
vn -0.7127 0.6857 0.1479
vn -0.5507 0.6478 -0.5264
vn -0.2245 0.9323 0.2837
vn -0.0289 0.9996 -0.0014
vn -0.5345 0.8211 0.2002
vn 0.3034 0.9057 0.2960
vn -0.0595 0.8028 0.5933
vn 0.0007 0.9993 -0.0365
vn 0.5209 0.8172 -0.2468
vn -0.0381 0.9945 -0.0972
vn -0.0318 0.5353 -0.8441
vn 0.0135 0.9766 0.2147
vn 0.1769 0.9668 0.1843
vn -0.1924 0.6552 0.7305
vn 0.3586 0.9331 0.0263
vn 0.0844 0.9547 0.2854
vn -0.0005 0.9336 0.3583
vn 0.6457 0.6672 0.3714
vn 0.2863 0.7584 0.5855
vn 0.0715 0.6190 -0.7821
vn 0.2652 0.9290 0.2580
vn -0.5119 0.8498 -0.1253
vn -0.0023 0.6747 -0.7381
vn 0.0772 0.9937 -0.0815
vn -0.0129 0.9996 0.0246
vn 0.0131 0.9136 0.4063
vn -0.0222 0.9997 -0.0084
vn -0.2562 0.9586 -0.1244
vn 0.0107 0.9996 0.0258
vn 0.0234 0.9714 0.2364
vn 0.2737 0.3621 -0.8911
vn 0.0472 0.9989 -0.0057
vt 0.937500 0.937500
vt 1.000000 0.937500
vt 1.000000 1.000000
vt 0.937500 1.000000
vt 0.437500 0.937500
vt 0.500000 0.937500
vt 0.500000 1.000000
vt 0.437500 1.000000
vt 0.437500 0.437500
vt 0.500000 0.437500
vt 0.500000 0.500000
vt 0.437500 0.500000
vt 0.937500 0.437500
vt 1.000000 0.437500
vt 1.000000 0.500000
vt 0.937500 0.500000
vt 0.687500 0.437500
vt 0.750000 0.437500
vt 0.750000 0.500000
vt 0.687500 0.500000
vt 0.687500 0.187500
vt 0.750000 0.187500
vt 0.750000 0.250000
vt 0.687500 0.250000
vt 0.937500 0.187500
vt 1.000000 0.187500
vt 1.000000 0.250000
vt 0.937500 0.250000
vt 0.187500 0.437500
vt 0.250000 0.437500
vt 0.250000 0.500000
vt 0.187500 0.500000
vt 0.187500 0.187500
vt 0.250000 0.187500
vt 0.250000 0.250000
vt 0.187500 0.250000
vt 0.437500 0.187500
vt 0.500000 0.187500
vt 0.500000 0.250000
vt 0.437500 0.250000
vt 0.187500 0.937500
vt 0.250000 0.937500
vt 0.250000 1.000000
vt 0.187500 1.000000
vt 0.187500 0.687500
vt 0.250000 0.687500
vt 0.250000 0.750000
vt 0.187500 0.750000
vt 0.437500 0.687500
vt 0.500000 0.687500
vt 0.500000 0.750000
vt 0.437500 0.750000
vt 0.687500 0.937500
vt 0.750000 0.937500
vt 0.750000 1.000000
vt 0.687500 1.000000
vt 0.687500 0.687500
vt 0.750000 0.687500
vt 0.750000 0.750000
vt 0.687500 0.750000
vt 0.937500 0.687500
vt 1.000000 0.687500
vt 1.000000 0.750000
vt 0.937500 0.750000
vt 0.812500 0.687500
vt 0.875000 0.687500
vt 0.875000 0.750000
vt 0.812500 0.750000
vt 0.812500 0.562500
vt 0.875000 0.562500
vt 0.875000 0.625000
vt 0.812500 0.625000
vt 0.937500 0.562500
vt 1.000000 0.562500
vt 1.000000 0.625000
vt 0.937500 0.625000
vt 0.562500 0.687500
vt 0.625000 0.687500
vt 0.625000 0.750000
vt 0.562500 0.750000
vt 0.562500 0.562500
vt 0.625000 0.562500
vt 0.625000 0.625000
vt 0.562500 0.625000
vt 0.687500 0.562500
vt 0.750000 0.562500
vt 0.750000 0.625000
vt 0.687500 0.625000
vt 0.562500 0.937500
vt 0.625000 0.937500
vt 0.625000 1.000000
vt 0.562500 1.000000
vt 0.562500 0.812500
vt 0.625000 0.812500
vt 0.625000 0.875000
vt 0.562500 0.875000
vt 0.687500 0.812500
vt 0.750000 0.812500
vt 0.750000 0.875000
vt 0.687500 0.875000
vt 0.312500 0.687500
vt 0.375000 0.687500
vt 0.375000 0.750000
vt 0.312500 0.750000
vt 0.312500 0.562500
vt 0.375000 0.562500
vt 0.375000 0.625000
vt 0.312500 0.625000
vt 0.437500 0.562500
vt 0.500000 0.562500
vt 0.500000 0.625000
vt 0.437500 0.625000
vt 0.062500 0.687500
vt 0.125000 0.687500
vt 0.125000 0.750000
vt 0.062500 0.750000
vt 0.062500 0.562500
vt 0.125000 0.562500
vt 0.125000 0.625000
vt 0.062500 0.625000
vt 0.187500 0.562500
vt 0.250000 0.562500
vt 0.250000 0.625000
vt 0.187500 0.625000
vt 0.062500 0.937500
vt 0.125000 0.937500
vt 0.125000 1.000000
vt 0.062500 1.000000
vt 0.062500 0.812500
vt 0.125000 0.812500
vt 0.125000 0.875000
vt 0.062500 0.875000
vt 0.187500 0.812500
vt 0.250000 0.812500
vt 0.250000 0.875000
vt 0.187500 0.875000
vt 0.312500 0.187500
vt 0.375000 0.187500
vt 0.375000 0.250000
vt 0.312500 0.250000
vt 0.312500 0.062500
vt 0.375000 0.062500
vt 0.375000 0.125000
vt 0.312500 0.125000
vt 0.437500 0.062500
vt 0.500000 0.062500
vt 0.500000 0.125000
vt 0.437500 0.125000
vt 0.062500 0.187500
vt 0.125000 0.187500
vt 0.125000 0.250000
vt 0.062500 0.250000
vt 0.062500 0.062500
vt 0.125000 0.062500
vt 0.125000 0.125000
vt 0.062500 0.125000
vt 0.187500 0.062500
vt 0.250000 0.062500
vt 0.250000 0.125000
vt 0.187500 0.125000
vt 0.062500 0.437500
vt 0.125000 0.437500
vt 0.125000 0.500000
vt 0.062500 0.500000
vt 0.062500 0.312500
vt 0.125000 0.312500
vt 0.125000 0.375000
vt 0.062500 0.375000
vt 0.187500 0.312500
vt 0.250000 0.312500
vt 0.250000 0.375000
vt 0.187500 0.375000
vt 0.812500 0.187500
vt 0.875000 0.187500
vt 0.875000 0.250000
vt 0.812500 0.250000
vt 0.812500 0.062500
vt 0.875000 0.062500
vt 0.875000 0.125000
vt 0.812500 0.125000
vt 0.937500 0.062500
vt 1.000000 0.062500
vt 1.000000 0.125000
vt 0.937500 0.125000
vt 0.562500 0.187500
vt 0.625000 0.187500
vt 0.625000 0.250000
vt 0.562500 0.250000
vt 0.562500 0.062500
vt 0.625000 0.062500
vt 0.625000 0.125000
vt 0.562500 0.125000
vt 0.687500 0.062500
vt 0.750000 0.062500
vt 0.750000 0.125000
vt 0.687500 0.125000
vt 0.562500 0.437500
vt 0.625000 0.437500
vt 0.625000 0.500000
vt 0.562500 0.500000
vt 0.562500 0.312500
vt 0.625000 0.312500
vt 0.625000 0.375000
vt 0.562500 0.375000
vt 0.687500 0.312500
vt 0.750000 0.312500
vt 0.750000 0.375000
vt 0.687500 0.375000
vt 0.812500 0.437500
vt 0.875000 0.437500
vt 0.875000 0.500000
vt 0.812500 0.500000
vt 0.812500 0.312500
vt 0.875000 0.312500
vt 0.875000 0.375000
vt 0.812500 0.375000
vt 0.937500 0.312500
vt 1.000000 0.312500
vt 1.000000 0.375000
vt 0.937500 0.375000
vt 0.312500 0.437500
vt 0.375000 0.437500
vt 0.375000 0.500000
vt 0.312500 0.500000
vt 0.312500 0.312500
vt 0.375000 0.312500
vt 0.375000 0.375000
vt 0.312500 0.375000
vt 0.437500 0.312500
vt 0.500000 0.312500
vt 0.500000 0.375000
vt 0.437500 0.375000
vt 0.312500 0.937500
vt 0.375000 0.937500
vt 0.375000 1.000000
vt 0.312500 1.000000
vt 0.312500 0.812500
vt 0.375000 0.812500
vt 0.375000 0.875000
vt 0.312500 0.875000
vt 0.437500 0.812500
vt 0.500000 0.812500
vt 0.500000 0.875000
vt 0.437500 0.875000
vt 0.812500 0.937500
vt 0.875000 0.937500
vt 0.875000 1.000000
vt 0.812500 1.000000
vt 0.812500 0.812500
vt 0.875000 0.812500
vt 0.875000 0.875000
vt 0.812500 0.875000
vt 0.937500 0.812500
vt 1.000000 0.812500
vt 1.000000 0.875000
vt 0.937500 0.875000
vt 0.625000 0.000000
vt 0.687500 0.000000
vt 0.750000 0.000000
vt 0.500000 0.000000
vt 0.562500 0.000000
vt 0.875000 0.000000
vt 0.937500 0.000000
vt 1.000000 0.000000
vt 0.812500 0.000000
vt 0.000000 0.312500
vt 0.000000 0.375000
vt 0.000000 0.250000
vt 0.000000 0.437500
vt 0.000000 0.500000
vt 0.125000 0.000000
vt 0.187500 0.000000
vt 0.250000 0.000000
vt 0.000000 0.062500
vt 0.000000 0.125000
vt 0.000000 0.000000
vt 0.062500 0.000000
vt 0.000000 0.187500
vt 0.375000 0.000000
vt 0.437500 0.000000
vt 0.312500 0.000000
vt 0.000000 0.812500
vt 0.000000 0.875000
vt 0.000000 0.750000
vt 0.000000 0.937500
vt 0.000000 1.000000
vt 0.000000 0.562500
vt 0.000000 0.625000
vt 0.000000 0.687500
s 1
f 289/1/236 84/2/65 4/3/3 141/4/109
f 288/5/235 90/6/69 8/7/6 137/8/107
f 287/9/234 91/10/70 9/11/7 144/12/112
f 286/13/233 88/14/67 7/15/5 145/16/113
f 285/17/232 106/18/82 21/19/15 133/20/104
f 284/21/231 107/22/1 22/23/16 148/24/115
f 283/25/1 100/26/1 16/27/1 149/28/1
f 282/29/230 110/30/85 20/31/14 132/32/103
f 281/33/229 111/34/86 23/35/17 152/36/117
f 280/37/228 103/38/79 19/39/13 153/40/118
f 279/41/227 114/42/89 13/43/9 125/44/98
f 278/45/226 115/46/90 24/47/18 156/48/121
f 277/49/225 102/50/78 18/51/12 157/52/122
f 276/53/224 118/54/93 17/55/11 129/56/100
f 275/57/223 119/58/94 25/59/19 160/60/125
f 274/61/222 96/62/74 12/63/8 161/64/126
f 273/65/221 162/66/127 65/67/50 121/68/96
f 272/69/220 163/70/128 66/71/51 164/72/129
f 271/73/219 136/74/106 40/75/29 165/76/130
f 270/77/218 166/78/131 64/79/49 120/80/95
f 269/81/217 167/82/132 67/83/52 168/84/133
f 268/85/216 159/86/124 63/87/48 169/88/134
f 267/89/215 170/90/135 33/91/23 89/92/68
f 266/93/214 171/94/136 68/95/53 172/96/137
f 265/97/213 158/98/123 62/99/47 173/100/138
f 264/101/212 174/102/139 61/103/46 117/104/92
f 263/105/211 175/106/140 69/107/54 176/108/141
f 262/109/210 142/110/110 46/111/33 177/112/142
f 261/113/209 178/114/143 60/115/45 116/116/91
f 260/117/208 179/118/144 70/119/55 180/120/145
f 259/121/207 155/122/120 59/123/44 181/124/146
f 258/125/206 182/126/147 29/127/21 85/128/66
f 257/129/205 183/130/148 71/131/56 184/132/149
f 256/133/204 154/134/119 58/135/43 185/136/150
f 255/137/203 186/138/151 57/139/42 113/140/88
f 254/141/1 187/142/152 72/143/57 188/144/153
f 253/145/202 143/146/111 47/147/34 189/148/154
f 252/149/1 190/150/155 56/151/41 112/152/87
f 251/153/1 191/154/1 73/155/1 192/156/1
f 250/157/1 151/158/1 55/159/1 193/160/1
f 249/161/201 194/162/156 36/163/26 92/164/71
f 248/165/200 195/166/157 74/167/58 196/168/158
f 247/169/199 150/170/116 54/171/40 197/172/159
f 246/173/1 198/174/1 53/175/39 109/176/84
f 245/177/1 199/178/1 75/179/1 200/180/1
f 244/181/1 140/182/1 44/183/1 201/184/1
f 243/185/198 202/186/160 52/187/38 108/188/83
f 242/189/197 203/190/161 76/191/59 204/192/162
f 241/193/1 147/194/1 51/195/1 205/196/163
f 240/197/196 206/198/164 37/199/27 93/200/72
f 239/201/195 207/202/165 77/203/60 208/204/166
f 238/205/194 146/206/114 50/207/37 209/208/167
f 237/209/193 210/210/168 49/211/36 105/212/81
f 236/213/192 211/214/169 78/215/61 212/216/170
f 235/217/1 128/218/1 32/219/1 213/220/1
f 234/221/191 214/222/171 48/223/35 104/224/80
f 233/225/190 215/226/172 79/227/62 216/228/173
f 232/229/189 131/230/102 35/231/25 217/232/174
f 231/233/188 218/234/175 41/235/30 97/236/75
f 230/237/187 219/238/176 80/239/63 220/240/177
f 229/241/186 130/242/101 34/243/24 221/244/178
f 228/245/185 222/246/179 45/247/32 101/248/77
f 227/249/184 223/250/180 81/251/64 224/252/181
f 226/253/183 124/254/97 28/255/20 225/256/182
f 223/250/180 226/253/183 225/256/182 81/251/64
f 65/67/50 161/64/126 226/253/183 223/250/180
f 161/64/126 12/63/8 124/254/97 226/253/183
f 158/98/123 227/249/184 224/252/181 62/99/47
f 25/59/19 121/68/96 227/249/184 158/98/123
f 121/68/96 65/67/50 223/250/180 227/249/184
f 118/54/93 228/245/185 101/248/77 17/55/11
f 62/99/47 224/252/181 228/245/185 118/54/93
f 224/252/181 81/251/64 222/246/179 228/245/185
f 219/238/176 229/241/186 221/244/178 80/239/63
f 61/103/46 157/52/122 229/241/186 219/238/176
f 157/52/122 18/51/12 130/242/101 229/241/186
f 154/134/119 230/237/187 220/240/177 58/135/43
f 24/47/18 117/104/92 230/237/187 154/134/119
f 117/104/92 61/103/46 219/238/176 230/237/187
f 114/42/89 231/233/188 97/236/75 13/43/9
f 58/135/43 220/240/177 231/233/188 114/42/89
f 220/240/177 80/239/63 218/234/175 231/233/188
f 215/226/172 232/229/189 217/232/174 79/227/62
f 57/139/42 153/40/118 232/229/189 215/226/172
f 153/40/118 19/39/13 131/230/102 232/229/189
f 150/170/116 233/225/190 216/228/173 54/171/40
f 23/35/17 113/140/88 233/225/190 150/170/116
f 113/140/88 57/139/42 215/226/172 233/225/190
f 110/30/85 234/221/191 104/224/80 20/31/14
f 54/171/40 216/228/173 234/221/191 110/30/85
f 216/228/173 79/227/62 214/222/171 234/221/191
f 211/214/169 235/217/1 213/220/1 78/215/61
f 53/175/39 149/28/1 235/217/1 211/214/169
f 149/28/1 16/27/1 128/218/1 235/217/1
f 146/206/114 236/213/192 212/216/170 50/207/37
f 22/23/16 109/176/84 236/213/192 146/206/114
f 109/176/84 53/175/39 211/214/169 236/213/192
f 106/18/82 237/209/193 105/212/81 21/19/15
f 50/207/37 212/216/170 237/209/193 106/18/82
f 212/216/170 78/215/61 210/210/168 237/209/193
f 207/202/165 238/205/194 209/208/167 77/203/60
f 52/187/38 148/24/115 238/205/194 207/202/165
f 148/24/115 22/23/16 146/206/114 238/205/194
f 131/230/102 239/201/195 208/204/166 35/231/25
f 19/39/13 108/188/83 239/201/195 131/230/102
f 108/188/83 52/187/38 207/202/165 239/201/195
f 91/10/70 240/197/196 93/200/72 9/11/7
f 35/231/25 208/204/166 240/197/196 91/10/70
f 208/204/166 77/203/60 206/198/164 240/197/196
f 203/190/161 241/193/1 205/196/163 76/191/59
f 39/257/1 95/258/1 241/193/1 203/190/161
f 95/258/1 11/259/1 147/194/1 241/193/1
f 143/146/111 242/189/197 204/192/162 47/147/34
f 6/260/1 135/261/1 242/189/197 143/146/111
f 135/261/1 39/257/1 203/190/161 242/189/197
f 103/38/79 243/185/198 108/188/83 19/39/13
f 47/147/34 204/192/162 243/185/198 103/38/79
f 204/192/162 76/191/59 202/186/160 243/185/198
f 199/178/1 244/181/1 201/184/1 75/179/1
f 27/262/1 83/263/1 244/181/1 199/178/1
f 83/263/1 2/264/1 140/182/1 244/181/1
f 147/194/1 245/177/1 200/180/1 51/195/1
f 11/259/1 123/265/1 245/177/1 147/194/1
f 123/265/1 27/262/1 199/178/1 245/177/1
f 107/22/1 246/173/1 109/176/84 22/23/16
f 51/195/1 200/180/1 246/173/1 107/22/1
f 200/180/1 75/179/1 198/174/1 246/173/1
f 195/166/157 247/169/199 197/172/159 74/167/58
f 56/151/41 152/36/117 247/169/199 195/166/157
f 152/36/117 23/35/17 150/170/116 247/169/199
f 94/266/73 248/165/200 196/168/158 38/267/28
f 10/268/1 112/152/87 248/165/200 94/266/73
f 112/152/87 56/151/41 195/166/157 248/165/200
f 134/269/105 249/161/201 92/164/71 5/270/4
f 38/267/28 196/168/158 249/161/201 134/269/105
f 196/168/158 74/167/58 194/162/156 249/161/201
f 191/154/1 250/157/1 193/160/1 73/155/1
f 43/271/1 99/272/1 250/157/1 191/154/1
f 99/272/1 15/273/1 151/158/1 250/157/1
f 82/274/1 251/153/1 192/156/1 26/275/1
f 1/276/1 139/277/1 251/153/1 82/274/1
f 139/277/1 43/271/1 191/154/1 251/153/1
f 122/278/1 252/149/1 112/152/87 10/268/1
f 26/275/1 192/156/1 252/149/1 122/278/1
f 192/156/1 73/155/1 190/150/155 252/149/1
f 187/142/152 253/145/202 189/148/154 72/143/57
f 31/279/1 87/280/1 253/145/202 187/142/152
f 87/280/1 6/260/1 143/146/111 253/145/202
f 151/158/1 254/141/1 188/144/153 55/159/1
f 15/273/1 127/281/1 254/141/1 151/158/1
f 127/281/1 31/279/1 187/142/152 254/141/1
f 111/34/86 255/137/203 113/140/88 23/35/17
f 55/159/1 188/144/153 255/137/203 111/34/86
f 188/144/153 72/143/57 186/138/151 255/137/203
f 183/130/148 256/133/204 185/136/150 71/131/56
f 60/115/45 156/48/121 256/133/204 183/130/148
f 156/48/121 24/47/18 154/134/119 256/133/204
f 98/282/76 257/129/205 184/132/149 42/283/31
f 14/284/10 116/116/91 257/129/205 98/282/76
f 116/116/91 60/115/45 183/130/148 257/129/205
f 138/285/108 258/125/206 85/128/66 3/286/2
f 42/283/31 184/132/149 258/125/206 138/285/108
f 184/132/149 71/131/56 182/126/147 258/125/206
f 179/118/144 259/121/207 181/124/146 70/119/55
f 36/163/26 132/32/103 259/121/207 179/118/144
f 132/32/103 20/31/14 155/122/120 259/121/207
f 86/287/1 260/117/208 180/120/145 30/288/22
f 5/270/4 92/164/71 260/117/208 86/287/1
f 92/164/71 36/163/26 179/118/144 260/117/208
f 126/289/99 261/113/209 116/116/91 14/284/10
f 30/288/22 180/120/145 261/113/209 126/289/99
f 180/120/145 70/119/55 178/114/143 261/113/209
f 175/106/140 262/109/210 177/112/142 69/107/54
f 48/223/35 144/12/112 262/109/210 175/106/140
f 144/12/112 9/11/7 142/110/110 262/109/210
f 155/122/120 263/105/211 176/108/141 59/123/44
f 20/31/14 104/224/80 263/105/211 155/122/120
f 104/224/80 48/223/35 175/106/140 263/105/211
f 115/46/90 264/101/212 117/104/92 24/47/18
f 59/123/44 176/108/141 264/101/212 115/46/90
f 176/108/141 69/107/54 174/102/139 264/101/212
f 171/94/136 265/97/213 173/100/138 68/95/53
f 64/79/49 160/60/125 265/97/213 171/94/136
f 160/60/125 25/59/19 158/98/123 265/97/213
f 130/242/101 266/93/214 172/96/137 34/243/24
f 18/51/12 120/80/95 266/93/214 130/242/101
f 120/80/95 64/79/49 171/94/136 266/93/214
f 90/6/69 267/89/215 89/92/68 8/7/6
f 34/243/24 172/96/137 267/89/215 90/6/69
f 172/96/137 68/95/53 170/90/135 267/89/215
f 167/82/132 268/85/216 169/88/134 67/83/52
f 37/199/27 133/20/104 268/85/216 167/82/132
f 133/20/104 21/19/15 159/86/124 268/85/216
f 142/110/110 269/81/217 168/84/133 46/111/33
f 9/11/7 93/200/72 269/81/217 142/110/110
f 93/200/72 37/199/27 167/82/132 269/81/217
f 102/50/78 270/77/218 120/80/95 18/51/12
f 46/111/33 168/84/133 270/77/218 102/50/78
f 168/84/133 67/83/52 166/78/131 270/77/218
f 163/70/128 271/73/219 165/76/130 66/71/51
f 49/211/36 145/16/113 271/73/219 163/70/128
f 145/16/113 7/15/5 136/74/106 271/73/219
f 159/86/124 272/69/220 164/72/129 63/87/48
f 21/19/15 105/212/81 272/69/220 159/86/124
f 105/212/81 49/211/36 163/70/128 272/69/220
f 119/58/94 273/65/221 121/68/96 25/59/19
f 63/87/48 164/72/129 273/65/221 119/58/94
f 164/72/129 66/71/51 162/66/127 273/65/221
f 162/66/127 274/61/222 161/64/126 65/67/50
f 66/71/51 165/76/130 274/61/222 162/66/127
f 165/76/130 40/75/29 96/62/74 274/61/222
f 166/78/131 275/57/223 160/60/125 64/79/49
f 67/83/52 169/88/134 275/57/223 166/78/131
f 169/88/134 63/87/48 119/58/94 275/57/223
f 170/90/135 276/53/224 129/56/100 33/91/23
f 68/95/53 173/100/138 276/53/224 170/90/135
f 173/100/138 62/99/47 118/54/93 276/53/224
f 174/102/139 277/49/225 157/52/122 61/103/46
f 69/107/54 177/112/142 277/49/225 174/102/139
f 177/112/142 46/111/33 102/50/78 277/49/225
f 178/114/143 278/45/226 156/48/121 60/115/45
f 70/119/55 181/124/146 278/45/226 178/114/143
f 181/124/146 59/123/44 115/46/90 278/45/226
f 182/126/147 279/41/227 125/44/98 29/127/21
f 71/131/56 185/136/150 279/41/227 182/126/147
f 185/136/150 58/135/43 114/42/89 279/41/227
f 186/138/151 280/37/228 153/40/118 57/139/42
f 72/143/57 189/148/154 280/37/228 186/138/151
f 189/148/154 47/147/34 103/38/79 280/37/228
f 190/150/155 281/33/229 152/36/117 56/151/41
f 73/155/1 193/160/1 281/33/229 190/150/155
f 193/160/1 55/159/1 111/34/86 281/33/229
f 194/162/156 282/29/230 132/32/103 36/163/26
f 74/167/58 197/172/159 282/29/230 194/162/156
f 197/172/159 54/171/40 110/30/85 282/29/230
f 198/174/1 283/25/1 149/28/1 53/175/39
f 75/179/1 201/184/1 283/25/1 198/174/1
f 201/184/1 44/183/1 100/26/1 283/25/1
f 202/186/160 284/21/231 148/24/115 52/187/38
f 76/191/59 205/196/163 284/21/231 202/186/160
f 205/196/163 51/195/1 107/22/1 284/21/231
f 206/198/164 285/17/232 133/20/104 37/199/27
f 77/203/60 209/208/167 285/17/232 206/198/164
f 209/208/167 50/207/37 106/18/82 285/17/232
f 210/210/168 286/13/233 145/16/113 49/211/36
f 78/215/61 213/220/1 286/13/233 210/210/168
f 213/220/1 32/219/1 88/14/67 286/13/233
f 214/222/171 287/9/234 144/12/112 48/223/35
f 79/227/62 217/232/174 287/9/234 214/222/171
f 217/232/174 35/231/25 91/10/70 287/9/234
f 218/234/175 288/5/235 137/8/107 41/235/30
f 80/239/63 221/244/178 288/5/235 218/234/175
f 221/244/178 34/243/24 90/6/69 288/5/235
f 222/246/179 289/1/236 141/4/109 45/247/32
f 81/251/64 225/256/182 289/1/236 222/246/179
f 225/256/182 28/255/20 84/2/65 289/1/236
f 266/276/214 172/276/137 34/276/24
f 266/276/214 34/276/24 130/276/101
