# Blender 4.2.1 LTS
# www.blender.org
mtllib Mountain_01.mtl
o Plane
v -6.631725 0.000000 6.631725
v 6.631725 0.000000 6.631725
v -6.631725 0.000000 -6.631725
v 6.631725 0.000000 -6.631725
v -6.631725 0.000000 0.000000
v 0.000000 0.000000 8.028664
v 6.631725 0.000000 0.000000
v 0.000000 0.000000 -7.663734
v -0.432282 8.549326 0.000000
v -6.631725 0.000000 3.315863
v 3.315863 0.000000 6.631725
v 6.631725 0.000000 -3.315863
v -3.315863 0.000000 -6.631725
v -6.631725 0.000000 -3.315863
v -3.315863 0.000000 6.631725
v 6.631725 0.000000 3.315863
v 3.315863 0.000000 -6.631725
v 0.000000 4.513192 -3.315863
v 0.000000 4.513192 3.315863
v -4.295794 4.513192 0.000000
v 3.315863 4.513192 0.000000
v 3.218318 2.295238 3.934316
v -3.315863 4.513192 3.315863
v -2.670776 5.419117 -2.697760
v 3.050189 3.563530 -3.396241
vn 0.4203 0.8041 -0.4203
vn -0.1124 0.6406 -0.7596
vn -0.4137 0.7359 0.5360
vn 0.7041 0.6763 0.2164
vn 0.5368 0.6510 0.5368
vn 0.3142 0.7011 0.6401
vn 0.3317 0.8831 0.3317
vn -0.8410 0.5266 0.1243
vn -0.4903 0.7205 0.4903
vn -0.1555 0.6565 0.7381
vn -0.4925 0.7175 -0.4925
vn -0.8317 0.5362 -0.1440
vn -0.4071 0.7457 -0.5274
vn 0.2066 0.6733 -0.7099
vn 0.5061 0.6983 -0.5061
vn 0.7554 0.6439 -0.1210
vn 0.7080 -0.6777 0.1989
vn -0.0377 -0.6368 0.7701
vn 0.2788 0.9190 -0.2788
vn 0.5911 0.5489 -0.5911
vn 0.4476 0.7742 0.4476
vn 0.5911 0.5489 0.5911
vn -0.0000 -1.0000 -0.0000
vn 0.5274 -0.5049 -0.6833
vn 0.6070 -0.5129 0.6070
vn -0.5358 -0.6525 -0.5358
vn -0.7065 0.6763 0.2088
vn -0.0000 0.6348 0.7727
vn 0.7113 0.6605 -0.2403
vn 0.1782 0.6360 -0.7509
vt 0.750000 0.750000
vt 1.000000 0.750000
vt 1.000000 1.000000
vt 0.750000 1.000000
vt 0.250000 0.750000
vt 0.500000 0.750000
vt 0.500000 1.000000
vt 0.250000 1.000000
vt 0.250000 0.250000
vt 0.500000 0.250000
vt 0.500000 0.500000
vt 0.250000 0.500000
vt 0.750000 0.250000
vt 1.000000 0.250000
vt 1.000000 0.500000
vt 0.750000 0.500000
vt 0.500000 0.000000
vt 0.750000 0.000000
vt 1.000000 0.000000
vt 0.000000 0.250000
vt 0.000000 0.500000
vt 0.000000 0.000000
vt 0.250000 0.000000
vt 0.000000 0.750000
vt 0.000000 1.000000
s 0
f 25/1/1 12/2/1 4/3/1 17/4/1
f 24/5/2 18/6/2 8/7/2 13/8/2
f 23/9/3 19/10/3 9/11/3 20/12/3
f 22/13/4 16/14/4 7/15/4 21/16/4
f 19/10/5 22/13/5 21/16/5 9/11/5
f 6/17/6 11/18/6 22/13/6 19/10/6
f 11/18/7 2/19/7 16/14/7 22/13/7
f 10/20/8 23/9/8 20/12/8 5/21/8
f 1/22/9 15/23/9 23/9/9 10/20/9
f 15/23/10 6/17/10 19/10/10 23/9/10
f 14/24/11 24/5/11 13/8/11 3/25/11
f 5/21/12 20/12/12 24/5/12 14/24/12
f 20/12/13 9/11/13 18/6/13 24/5/13
f 18/6/14 25/1/14 17/4/14 8/7/14
f 9/11/15 21/16/15 25/1/15 18/6/15
f 21/16/16 7/15/16 12/2/16 25/1/16
f 9/22/17 20/22/17 24/22/17
f 9/22/18 24/22/18 18/22/18
f 21/22/19 25/22/19 18/22/19
f 9/22/20 21/22/20 18/22/20
f 19/22/21 22/22/21 21/22/21
f 19/22/22 21/22/22 9/22/22
f 19/22/23 23/22/23 20/22/23
f 9/22/24 19/22/24 20/22/24
f 13/22/23 14/22/23 3/22/23
f 24/22/25 14/22/25 13/22/25
f 11/22/23 16/22/23 2/22/23
f 22/22/26 16/22/26 11/22/26
f 20/22/27 23/22/27 9/22/27
f 9/22/28 23/22/28 19/22/28
f 21/22/29 25/22/29 9/22/29
f 9/22/30 25/22/30 18/22/30
