# Blender 4.2.1 LTS
# www.blender.org
mtllib Mushroom_01_Steam.mtl
o Stem
v -0.000000 -2.431133 -1.370948
v 0.000000 3.796312 -0.519594
v 0.269682 -2.431133 -1.344605
v 0.108192 3.796312 -0.509610
v 0.529000 -2.431133 -1.266591
v 0.212226 3.796312 -0.480042
v 0.767990 -2.431133 -1.139902
v 0.308104 3.796312 -0.432026
v 0.977465 -2.431133 -0.969407
v 0.392142 3.796312 -0.367408
v 1.149377 -2.431133 -0.761658
v 0.461110 3.796312 -0.288671
v 1.277120 -2.431133 -0.524639
v 0.512358 3.796312 -0.198840
v 1.355783 -2.431133 -0.267459
v 0.543917 3.796312 -0.101368
v 1.382344 -2.431133 0.000000
v 0.554573 3.796312 -0.000000
v 1.355783 -2.431133 0.267459
v 0.543917 3.796312 0.101368
v 1.277120 -2.431133 0.524639
v 0.512358 3.796312 0.198840
v 1.149377 -2.431133 0.761658
v 0.461110 3.796312 0.288671
v 0.977465 -2.431133 0.969407
v 0.392142 3.796312 0.367408
v 0.767990 -2.431133 1.139902
v 0.308104 3.796312 0.432026
v 0.529000 -2.431133 1.266591
v 0.212226 3.796312 0.480042
v 0.269682 -2.431133 1.344605
v 0.108192 3.796312 0.509610
v -0.000000 -2.431133 1.370948
v 0.000000 3.796312 0.519594
v -0.269682 -2.431133 1.344605
v -0.108192 3.796312 0.509610
v -0.529000 -2.431133 1.266591
v -0.212226 3.796312 0.480042
v -0.767990 -2.431133 1.139902
v -0.308104 3.796312 0.432026
v -0.977465 -2.431133 0.969407
v -0.392142 3.796312 0.367408
v -1.149377 -2.431133 0.761658
v -0.461110 3.796312 0.288671
v -1.277120 -2.431133 0.524639
v -0.512358 3.796312 0.198840
v -1.355783 -2.431133 0.267459
v -0.543917 3.796312 0.101368
v -1.382344 -2.431133 0.000000
v -0.554573 3.796312 -0.000000
v -1.355783 -2.431133 -0.267459
v -0.543917 3.796312 -0.101368
v -1.277120 -2.431133 -0.524639
v -0.512358 3.796312 -0.198840
v -1.149377 -2.431133 -0.761658
v -0.461110 3.796312 -0.288671
v -0.977465 -2.431133 -0.969407
v -0.392142 3.796312 -0.367408
v -0.767990 -2.431133 -1.139902
v -0.308104 3.796312 -0.432026
v -0.529000 -2.431133 -1.266591
v -0.212226 3.796312 -0.480042
v -0.269682 -2.431133 -1.344605
v -0.108192 3.796312 -0.509610
v 0.134841 -2.431133 -1.357777
v 0.054096 3.796312 -0.514602
v -0.000000 0.682589 -1.007292
v 0.211578 0.682589 -0.987937
v 0.399341 -2.431133 -1.305598
v 0.160209 3.796312 -0.494826
v 0.415025 0.682589 -0.930617
v 0.648495 -2.431133 -1.203246
v 0.260165 3.796312 -0.456034
v 0.602523 0.682589 -0.837533
v 0.872727 -2.431133 -1.054654
v 0.350123 3.796312 -0.399717
v 0.766866 0.682589 -0.712263
v 1.063421 -2.431133 -0.865532
v 0.426626 3.796312 -0.328040
v 0.901739 0.682589 -0.559622
v 1.213248 -2.431133 -0.643148
v 0.486734 3.796312 -0.243755
v 1.001959 0.682589 -0.385474
v 1.316451 -2.431133 -0.396049
v 0.528137 3.796312 -0.150104
v 1.063674 0.682589 -0.196513
v 1.369064 -2.431133 -0.133729
v 0.549245 3.796312 -0.050684
v 1.084513 0.682589 -0.000000
v 1.369064 -2.431133 0.133729
v 0.549245 3.796312 0.050684
v 1.063674 0.682589 0.196513
v 1.316451 -2.431133 0.396049
v 0.528137 3.796312 0.150104
v 1.001959 0.682589 0.385474
v 1.213248 -2.431133 0.643148
v 0.486734 3.796312 0.243755
v 0.901739 0.682589 0.559622
v 1.063421 -2.431133 0.865532
v 0.426626 3.796312 0.328039
v 0.766866 0.682589 0.712263
v 0.872727 -2.431133 1.054654
v 0.350123 3.796312 0.399717
v 0.602523 0.682589 0.837533
v 0.648495 -2.431133 1.203246
v 0.260165 3.796312 0.456034
v 0.415025 0.682589 0.930617
v 0.399341 -2.431133 1.305598
v 0.160209 3.796312 0.494826
v 0.211578 0.682589 0.987937
v 0.134841 -2.431133 1.357777
v 0.054096 3.796312 0.514602
v -0.000000 0.682589 1.007292
v -0.134841 -2.431133 1.357777
v -0.054096 3.796312 0.514602
v -0.211578 0.682589 0.987937
v -0.399341 -2.431133 1.305598
v -0.160209 3.796312 0.494826
v -0.415025 0.682589 0.930617
v -0.648495 -2.431133 1.203246
v -0.260165 3.796312 0.456034
v -0.602523 0.682589 0.837533
v -0.872727 -2.431133 1.054654
v -0.350123 3.796312 0.399717
v -0.766866 0.682589 0.712263
v -1.063421 -2.431133 0.865532
v -0.426626 3.796312 0.328039
v -0.901739 0.682589 0.559622
v -1.213248 -2.431133 0.643148
v -0.486734 3.796312 0.243755
v -1.001959 0.682589 0.385474
v -1.316451 -2.431133 0.396049
v -0.528137 3.796312 0.150104
v -1.063674 0.682589 0.196513
v -1.369064 -2.431133 0.133729
v -0.549245 3.796312 0.050684
v -1.084513 0.682589 -0.000000
v -1.369064 -2.431133 -0.133729
v -0.549245 3.796312 -0.050684
v -1.063674 0.682589 -0.196513
v -1.316451 -2.431133 -0.396049
v -0.528137 3.796312 -0.150104
v -1.001959 0.682589 -0.385474
v -1.213248 -2.431133 -0.643148
v -0.486734 3.796312 -0.243755
v -0.901739 0.682589 -0.559622
v -1.063421 -2.431133 -0.865532
v -0.426626 3.796312 -0.328040
v -0.766866 0.682589 -0.712263
v -0.872727 -2.431133 -1.054654
v -0.350123 3.796312 -0.399717
v -0.602523 0.682589 -0.837533
v -0.648495 -2.431133 -1.203246
v -0.260165 3.796312 -0.456034
v -0.415025 0.682589 -0.930617
v -0.399341 -2.431133 -1.305598
v -0.160209 3.796312 -0.494826
v -0.211578 0.682589 -0.987937
v -0.134841 -2.431133 -1.357777
v -0.054096 3.796312 -0.514602
v -0.105789 0.682589 -0.997615
v -0.313302 0.682589 -0.959277
v -0.508774 0.682589 -0.884075
v -0.684695 0.682589 -0.774898
v -0.834303 0.682589 -0.635942
v -0.951849 0.682589 -0.472548
v -1.032817 0.682589 -0.290994
v -1.074093 0.682589 -0.098256
v -1.074093 0.682589 0.098256
v -1.032817 0.682589 0.290994
v -0.951849 0.682589 0.472548
v -0.834303 0.682589 0.635942
v -0.684695 0.682589 0.774898
v -0.508774 0.682589 0.884075
v -0.313302 0.682589 0.959277
v -0.105789 0.682589 0.997615
v 0.105789 0.682589 0.997615
v 0.313302 0.682589 0.959277
v 0.508774 0.682589 0.884075
v 0.684695 0.682589 0.774898
v 0.834303 0.682589 0.635942
v 0.951849 0.682589 0.472548
v 1.032817 0.682589 0.290994
v 1.074093 0.682589 0.098256
v 1.074093 0.682589 -0.098256
v 1.032817 0.682589 -0.290994
v 0.951849 0.682589 -0.472548
v 0.834303 0.682589 -0.635942
v 0.684695 0.682589 -0.774898
v 0.508774 0.682589 -0.884075
v 0.313302 0.682589 -0.959277
v 0.105789 0.682589 -0.997615
vn -0.0000 -0.2075 -0.9782
vn -0.0000 0.4369 -0.8995
vn 0.1837 -0.2079 -0.9607
vn 0.1634 0.4373 -0.8844
vn 0.3618 -0.2092 -0.9085
vn 0.3227 0.4384 -0.8389
vn 0.5283 -0.2111 -0.8224
vn 0.4735 0.4400 -0.7630
vn 0.6771 -0.2135 -0.7043
vn 0.6104 0.4420 -0.6573
vn 0.8018 -0.2159 -0.5573
vn 0.7273 0.4441 -0.5233
vn 0.8963 -0.2180 -0.3862
vn 0.8175 0.4459 -0.3646
vn 0.9554 -0.2195 -0.1977
vn 0.8746 0.4472 -0.1873
vn 0.9755 -0.2200 -0.0000
vn 0.8942 0.4476 -0.0000
vn 0.9554 -0.2195 0.1977
vn 0.8746 0.4472 0.1873
vn 0.8963 -0.2180 0.3862
vn 0.8175 0.4459 0.3646
vn 0.8018 -0.2159 0.5573
vn 0.7273 0.4441 0.5233
vn 0.6771 -0.2135 0.7043
vn 0.6104 0.4420 0.6573
vn 0.5283 -0.2111 0.8224
vn 0.4735 0.4400 0.7630
vn 0.3618 -0.2092 0.9085
vn 0.3227 0.4384 0.8389
vn 0.1837 -0.2079 0.9607
vn 0.1634 0.4373 0.8844
vn -0.0000 -0.2075 0.9782
vn -0.0000 0.4369 0.8995
vn -0.1837 -0.2079 0.9607
vn -0.1634 0.4373 0.8844
vn -0.3618 -0.2092 0.9085
vn -0.3227 0.4384 0.8389
vn -0.5283 -0.2111 0.8224
vn -0.4735 0.4400 0.7630
vn -0.6771 -0.2135 0.7043
vn -0.6104 0.4420 0.6573
vn -0.8018 -0.2159 0.5573
vn -0.7273 0.4441 0.5233
vn -0.8963 -0.2180 0.3862
vn -0.8175 0.4459 0.3646
vn -0.9554 -0.2195 0.1977
vn -0.8746 0.4472 0.1873
vn -0.9755 -0.2200 -0.0000
vn -0.8942 0.4476 -0.0000
vn -0.9554 -0.2195 -0.1977
vn -0.8746 0.4472 -0.1873
vn -0.8963 -0.2180 -0.3862
vn -0.8175 0.4459 -0.3646
vn -0.8018 -0.2159 -0.5573
vn -0.7273 0.4441 -0.5233
vn -0.6771 -0.2135 -0.7043
vn -0.6104 0.4420 -0.6573
vn -0.5283 -0.2111 -0.8224
vn -0.4735 0.4400 -0.7630
vn -0.3618 -0.2092 -0.9085
vn -0.3227 0.4384 -0.8389
vn -0.1837 -0.2079 -0.9607
vn -0.1634 0.4373 -0.8844
vn 0.0922 -0.2199 -0.9711
vn 0.0813 0.4565 -0.8860
vn -0.0000 0.1345 -0.9909
vn 0.1845 0.1343 -0.9736
vn 0.2738 -0.2209 -0.9361
vn 0.2418 0.4574 -0.8558
vn 0.3638 0.1338 -0.9218
vn 0.4466 -0.2226 -0.8666
vn 0.3960 0.4591 -0.7952
vn 0.5322 0.1330 -0.8361
vn 0.6046 -0.2249 -0.7641
vn 0.5388 0.4615 -0.7048
vn 0.6838 0.1320 -0.7177
vn 0.7415 -0.2276 -0.6312
vn 0.6646 0.4642 -0.5855
vn 0.8117 0.1310 -0.5692
vn 0.8511 -0.2300 -0.4719
vn 0.7671 0.4667 -0.4402
vn 0.9093 0.1302 -0.3953
vn 0.9279 -0.2319 -0.2920
vn 0.8399 0.4687 -0.2735
vn 0.9706 0.1296 -0.2026
vn 0.9674 -0.2330 -0.0988
vn 0.8779 0.4698 -0.0928
vn 0.9916 0.1294 -0.0000
vn 0.9674 -0.2330 0.0988
vn 0.8779 0.4698 0.0928
vn 0.9706 0.1296 0.2026
vn 0.9279 -0.2320 0.2920
vn 0.8399 0.4687 0.2735
vn 0.9093 0.1302 0.3953
vn 0.8511 -0.2300 0.4719
vn 0.7671 0.4667 0.4402
vn 0.8117 0.1310 0.5692
vn 0.7415 -0.2276 0.6312
vn 0.6646 0.4642 0.5855
vn 0.6838 0.1320 0.7177
vn 0.6046 -0.2249 0.7641
vn 0.5388 0.4615 0.7048
vn 0.5322 0.1330 0.8361
vn 0.4466 -0.2226 0.8666
vn 0.3960 0.4591 0.7952
vn 0.3638 0.1338 0.9218
vn 0.2738 -0.2209 0.9361
vn 0.2418 0.4574 0.8558
vn 0.1845 0.1343 0.9736
vn 0.0922 -0.2199 0.9711
vn 0.0813 0.4565 0.8860
vn -0.0000 0.1345 0.9909
vn -0.0922 -0.2199 0.9712
vn -0.0813 0.4565 0.8860
vn -0.1845 0.1343 0.9736
vn -0.2738 -0.2208 0.9361
vn -0.2418 0.4574 0.8558
vn -0.3638 0.1338 0.9218
vn -0.4466 -0.2226 0.8666
vn -0.3960 0.4591 0.7952
vn -0.5322 0.1330 0.8361
vn -0.6046 -0.2249 0.7641
vn -0.5388 0.4615 0.7048
vn -0.6838 0.1320 0.7177
vn -0.7415 -0.2276 0.6312
vn -0.6646 0.4642 0.5855
vn -0.8117 0.1310 0.5692
vn -0.8511 -0.2300 0.4719
vn -0.7671 0.4667 0.4402
vn -0.9093 0.1302 0.3953
vn -0.9279 -0.2320 0.2920
vn -0.8399 0.4687 0.2735
vn -0.9706 0.1296 0.2026
vn -0.9674 -0.2330 0.0988
vn -0.8779 0.4698 0.0928
vn -0.9916 0.1294 -0.0000
vn -0.9674 -0.2330 -0.0988
vn -0.8779 0.4698 -0.0928
vn -0.9706 0.1296 -0.2026
vn -0.9279 -0.2319 -0.2920
vn -0.8399 0.4687 -0.2735
vn -0.9093 0.1302 -0.3953
vn -0.8511 -0.2300 -0.4719
vn -0.7671 0.4667 -0.4402
vn -0.8117 0.1310 -0.5692
vn -0.7415 -0.2276 -0.6312
vn -0.6646 0.4642 -0.5855
vn -0.6838 0.1320 -0.7177
vn -0.6046 -0.2249 -0.7641
vn -0.5388 0.4615 -0.7048
vn -0.5322 0.1330 -0.8361
vn -0.4466 -0.2226 -0.8666
vn -0.3960 0.4591 -0.7952
vn -0.3638 0.1338 -0.9218
vn -0.2738 -0.2208 -0.9361
vn -0.2418 0.4574 -0.8558
vn -0.1845 0.1343 -0.9736
vn -0.0922 -0.2199 -0.9712
vn -0.0813 0.4565 -0.8860
vn -0.0921 0.1343 -0.9866
vn -0.2739 0.1340 -0.9524
vn -0.4480 0.1333 -0.8840
vn -0.6087 0.1325 -0.7822
vn -0.7495 0.1316 -0.6487
vn -0.8636 0.1307 -0.4869
vn -0.9444 0.1301 -0.3021
vn -0.9862 0.1297 -0.1024
vn -0.9862 0.1297 0.1024
vn -0.9444 0.1301 0.3021
vn -0.8636 0.1307 0.4869
vn -0.7495 0.1316 0.6487
vn -0.6087 0.1325 0.7822
vn -0.4480 0.1333 0.8840
vn -0.2739 0.1340 0.9524
vn -0.0921 0.1343 0.9866
vn 0.0921 0.1343 0.9866
vn 0.2739 0.1340 0.9524
vn 0.4480 0.1333 0.8840
vn 0.6087 0.1325 0.7822
vn 0.7495 0.1316 0.6487
vn 0.8636 0.1307 0.4869
vn 0.9444 0.1301 0.3021
vn 0.9862 0.1297 0.1024
vn 0.9862 0.1297 -0.1024
vn 0.9444 0.1301 -0.3021
vn 0.8636 0.1307 -0.4869
vn 0.7495 0.1316 -0.6487
vn 0.6087 0.1325 -0.7822
vn 0.4480 0.1333 -0.8840
vn 0.2739 0.1340 -0.9524
vn 0.0921 0.1343 -0.9866
vt 0.368833 0.206334
vt 0.371936 0.389805
vt 0.368751 0.389729
vt 0.362430 0.206330
vt 0.356311 0.206319
vt 0.365697 0.389497
vt 0.362651 0.389266
vt 0.350221 0.206308
vt 0.344683 0.206290
vt 0.359860 0.388890
vt 0.357081 0.388515
vt 0.339188 0.206273
vt 0.334479 0.206249
vt 0.354671 0.388012
vt 0.352273 0.387511
vt 0.329819 0.206226
vt 0.326129 0.206198
vt 0.350339 0.386904
vt 0.348417 0.386301
vt 0.322486 0.206170
vt 0.319942 0.206139
vt 0.347030 0.385616
vt 0.345653 0.384936
vt 0.317434 0.206108
vt 0.316097 0.206075
vt 0.344858 0.384204
vt 0.344069 0.383478
vt 0.314780 0.206042
vt 0.314650 0.206009
vt 0.343883 0.382728
vt 0.343699 0.381984
vt 0.314523 0.205976
vt 0.685278 0.204161
vt 0.655912 0.379500
vt 0.655742 0.380305
vt 0.685178 0.204319
vt 0.683892 0.204474
vt 0.654972 0.381085
vt 0.654197 0.381871
vt 0.682586 0.204631
vt 0.680111 0.204779
vt 0.652843 0.382602
vt 0.651479 0.383338
vt 0.677599 0.204928
vt 0.673988 0.205061
vt 0.649583 0.383988
vt 0.647675 0.384642
vt 0.670330 0.205195
vt 0.665700 0.205307
vt 0.645305 0.385182
vt 0.642922 0.385725
vt 0.661020 0.205420
vt 0.655551 0.205504
vt 0.640170 0.386131
vt 0.637408 0.386539
vt 0.650038 0.205590
vt 0.643967 0.205643
vt 0.634388 0.386791
vt 0.631360 0.387044
vt 0.637866 0.205696
vt 0.631476 0.205714
vt 0.628200 0.387130
vt 0.625037 0.387217
vt 0.625075 0.205733
vt 0.618672 0.205715
vt 0.621874 0.387133
vt 0.618713 0.387049
vt 0.612280 0.205697
vt 0.606174 0.205644
vt 0.615683 0.386798
vt 0.612660 0.386548
vt 0.600098 0.205592
vt 0.594576 0.205507
vt 0.609894 0.386142
vt 0.607138 0.385738
vt 0.589098 0.205422
vt 0.584407 0.205310
vt 0.604750 0.385197
vt 0.602375 0.384658
vt 0.579766 0.205198
vt 0.576095 0.205064
vt 0.600461 0.384005
vt 0.598559 0.383356
vt 0.572471 0.204932
vt 0.569946 0.204783
vt 0.597189 0.382621
vt 0.595828 0.381892
vt 0.567456 0.204636
vt 0.566137 0.204478
vt 0.595046 0.381106
vt 0.594269 0.380326
vt 0.564837 0.204324
vt 0.564723 0.204165
vt 0.594092 0.379521
vt 0.593916 0.378723
vt 0.564611 0.204009
vt 0.435352 0.206006
vt 0.406129 0.382662
vt 0.405967 0.383413
vt 0.435268 0.206039
vt 0.433996 0.206072
vt 0.405201 0.384141
vt 0.404429 0.384874
vt 0.432705 0.206105
vt 0.430243 0.206136
vt 0.403074 0.385556
vt 0.401709 0.386244
vt 0.427744 0.206167
vt 0.424143 0.206195
vt 0.399807 0.386851
vt 0.397893 0.387462
vt 0.420495 0.206224
vt 0.415872 0.206247
vt 0.395512 0.387968
vt 0.393119 0.388477
vt 0.411199 0.206271
vt 0.405733 0.206289
vt 0.390352 0.388857
vt 0.387574 0.389239
vt 0.400223 0.206307
vt 0.106969 0.218275
vt 0.111301 0.217917
vt 0.115634 0.217559
vt 0.119959 0.218000
vt 0.124283 0.218442
vt 0.128433 0.219665
vt 0.132583 0.220889
vt 0.136398 0.222848
vt 0.140212 0.224807
vt 0.143544 0.227424
vt 0.146875 0.230042
vt 0.149597 0.233217
vt 0.152318 0.236391
vt 0.154324 0.240000
vt 0.156330 0.243608
vt 0.157545 0.247512
vt 0.158759 0.251415
vt 0.159137 0.255463
vt 0.159514 0.259510
vt 0.159040 0.263547
vt 0.158567 0.267582
vt 0.157262 0.271452
vt 0.155957 0.275321
vt 0.153871 0.278876
vt 0.151786 0.282430
vt 0.149001 0.285535
vt 0.146216 0.288639
vt 0.142837 0.291175
vt 0.139460 0.293711
vt 0.135619 0.295582
vt 0.131778 0.297452
vt 0.127621 0.298587
vt 0.123465 0.299721
vt 0.119151 0.300076
vt 0.114837 0.300431
vt 0.110531 0.299994
vt 0.106224 0.299556
vt 0.102090 0.298342
vt 0.097956 0.297128
vt 0.094152 0.295185
vt 0.090347 0.293241
vt 0.087019 0.290641
vt 0.083690 0.288040
vt 0.080965 0.284884
vt 0.078239 0.281726
vt 0.076223 0.278132
vt 0.074205 0.274537
vt 0.072975 0.270644
vt 0.071745 0.266749
vt 0.071349 0.262706
vt 0.070953 0.258660
vt 0.071408 0.254621
vt 0.071863 0.250581
vt 0.073153 0.246702
vt 0.074442 0.242822
vt 0.076517 0.239253
vt 0.078593 0.235683
vt 0.081374 0.232561
vt 0.084157 0.229439
vt 0.087538 0.226886
vt 0.090921 0.224333
vt 0.094772 0.222448
vt 0.098624 0.220563
vt 0.102796 0.219419
vt 0.394151 0.206318
vt 0.384536 0.389477
vt 0.381489 0.389715
vt 0.388048 0.206329
vt 0.381653 0.206333
vt 0.378308 0.389798
vt 0.375123 0.389881
vt 0.375246 0.206337
vt 0.114558 0.546692
vt 0.105264 0.545718
vt 0.095969 0.544743
vt 0.087044 0.541991
vt 0.078118 0.539238
vt 0.069905 0.534813
vt 0.061691 0.530387
vt 0.054504 0.524458
vt 0.047317 0.518528
vt 0.041434 0.511323
vt 0.035549 0.504117
vt 0.031195 0.495911
vt 0.026840 0.487704
vt 0.024182 0.478813
vt 0.021524 0.469920
vt 0.020667 0.460684
vt 0.019809 0.451447
vt 0.020784 0.442221
vt 0.021760 0.432994
vt 0.024533 0.424134
vt 0.027305 0.415272
vt 0.031769 0.407117
vt 0.036233 0.398961
vt 0.042216 0.391827
vt 0.048200 0.384691
vt 0.055474 0.378852
vt 0.062748 0.373012
vt 0.071032 0.368692
vt 0.079316 0.364372
vt 0.088292 0.361740
vt 0.097268 0.359107
vt 0.106590 0.358263
vt 0.115912 0.357419
vt 0.125221 0.358397
vt 0.134529 0.359374
vt 0.143467 0.362135
vt 0.152404 0.364895
vt 0.160626 0.369333
vt 0.168847 0.373771
vt 0.176037 0.379714
vt 0.183226 0.385657
vt 0.189107 0.392878
vt 0.194988 0.400097
vt 0.199335 0.408316
vt 0.203681 0.416533
vt 0.206327 0.425434
vt 0.208972 0.434333
vt 0.209816 0.443573
vt 0.210659 0.452812
vt 0.209669 0.462035
vt 0.208679 0.471258
vt 0.205895 0.480112
vt 0.203110 0.488964
vt 0.198638 0.497108
vt 0.194167 0.505250
vt 0.188181 0.512372
vt 0.182195 0.519492
vt 0.174924 0.525318
vt 0.167653 0.531144
vt 0.159377 0.535452
vt 0.151101 0.539760
vt 0.142137 0.542384
vt 0.133174 0.545009
vt 0.123866 0.545851
vt 0.383658 0.014043
vt 0.375340 0.013814
vt 0.391955 0.014271
vt 0.399849 0.014926
vt 0.407689 0.015577
vt 0.414763 0.016617
vt 0.421759 0.017646
vt 0.427685 0.019010
vt 0.433523 0.020353
vt 0.438061 0.021962
vt 0.442519 0.023541
vt 0.445527 0.025308
vt 0.448476 0.027040
vt 0.449909 0.028880
vt 0.451312 0.030681
vt 0.451204 0.032514
vt 0.451098 0.034308
vt 0.435435 0.205973
vt 0.406290 0.381918
vt 0.548457 0.029925
vt 0.548528 0.031569
vt 0.548384 0.028245
vt 0.549830 0.026594
vt 0.551307 0.024909
vt 0.554307 0.023324
vt 0.557367 0.021708
vt 0.561882 0.020264
vt 0.566477 0.018795
vt 0.572375 0.017570
vt 0.578361 0.016326
vt 0.585417 0.015391
vt 0.592551 0.014445
vt 0.600447 0.013859
vt 0.608396 0.013268
vt 0.616741 0.013069
vt 0.625104 0.012870
vt 0.633466 0.013075
vt 0.641807 0.013278
vt 0.649749 0.013874
vt 0.657636 0.014465
vt 0.664758 0.015415
vt 0.671801 0.016354
vt 0.677771 0.017601
vt 0.683654 0.018829
vt 0.688231 0.020301
vt 0.692727 0.021746
vt 0.695767 0.023364
vt 0.698748 0.024951
vt 0.700205 0.026636
vt 0.701632 0.028287
vt 0.701541 0.029967
vt 0.701451 0.031610
vt 0.685376 0.204005
vt 0.656080 0.378702
vt 0.298789 0.032365
vt 0.298835 0.034160
vt 0.298742 0.030530
vt 0.300207 0.028730
vt 0.301704 0.026892
vt 0.304716 0.025164
vt 0.307788 0.023402
vt 0.312305 0.021831
vt 0.316902 0.020231
vt 0.322793 0.018899
vt 0.328770 0.017547
vt 0.335807 0.016533
vt 0.342922 0.015507
vt 0.350789 0.014873
vt 0.358708 0.014235
vt 0.367015 0.014025
s 1
usemtl Material.001
f 192/1/192 66/2/66 4/3/4 68/4/68
f 191/5/191 70/6/70 6/7/6 71/8/71
f 190/9/190 73/10/73 8/11/8 74/12/74
f 189/13/189 76/14/76 10/15/10 77/16/77
f 188/17/188 79/18/79 12/19/12 80/20/80
f 187/21/187 82/22/82 14/23/14 83/24/83
f 186/25/186 85/26/85 16/27/16 86/28/86
f 185/29/185 88/30/88 18/31/18 89/32/89
f 184/33/184 91/34/91 20/35/20 92/36/92
f 183/37/183 94/38/94 22/39/22 95/40/95
f 182/41/182 97/42/97 24/43/24 98/44/98
f 181/45/181 100/46/100 26/47/26 101/48/101
f 180/49/180 103/50/103 28/51/28 104/52/104
f 179/53/179 106/54/106 30/55/30 107/56/107
f 178/57/178 109/58/109 32/59/32 110/60/110
f 177/61/177 112/62/112 34/63/34 113/64/113
f 176/65/176 115/66/115 36/67/36 116/68/116
f 175/69/175 118/70/118 38/71/38 119/72/119
f 174/73/174 121/74/121 40/75/40 122/76/122
f 173/77/173 124/78/124 42/79/42 125/80/125
f 172/81/172 127/82/127 44/83/44 128/84/128
f 171/85/171 130/86/130 46/87/46 131/88/131
f 170/89/170 133/90/133 48/91/48 134/92/134
f 169/93/169 136/94/136 50/95/50 137/96/137
f 168/97/168 139/98/139 52/99/52 140/100/140
f 167/101/167 142/102/142 54/103/54 143/104/143
f 166/105/166 145/106/145 56/107/56 146/108/146
f 165/109/165 148/110/148 58/111/58 149/112/149
f 164/113/164 151/114/151 60/115/60 152/116/152
f 163/117/163 154/118/154 62/119/62 155/120/155
f 4/121/4 66/122/66 2/123/2 160/124/160 64/125/64 157/126/157 62/127/62 154/128/154 60/129/60 151/130/151 58/131/58 148/132/148 56/133/56 145/134/145 54/135/54 142/136/142 52/137/52 139/138/139 50/139/50 136/140/136 48/141/48 133/142/133 46/143/46 130/144/130 44/145/44 127/146/127 42/147/42 124/148/124 40/149/40 121/150/121 38/151/38 118/152/118 36/153/36 115/154/115 34/155/34 112/156/112 32/157/32 109/158/109 30/159/30 106/160/106 28/161/28 103/162/103 26/163/26 100/164/100 24/165/24 97/166/97 22/167/22 94/168/94 20/169/20 91/170/91 18/171/18 88/172/88 16/173/16 85/174/85 14/175/14 82/176/82 12/177/12 79/178/79 10/179/10 76/180/76 8/181/8 73/182/73 6/183/6 70/184/70
f 162/185/162 157/186/157 64/187/64 158/188/158
f 161/189/161 160/190/160 2/191/2 67/192/67
f 1/193/1 65/194/65 3/195/3 69/196/69 5/197/5 72/198/72 7/199/7 75/200/75 9/201/9 78/202/78 11/203/11 81/204/81 13/205/13 84/206/84 15/207/15 87/208/87 17/209/17 90/210/90 19/211/19 93/212/93 21/213/21 96/214/96 23/215/23 99/216/99 25/217/25 102/218/102 27/219/27 105/220/105 29/221/29 108/222/108 31/223/31 111/224/111 33/225/33 114/226/114 35/227/35 117/228/117 37/229/37 120/230/120 39/231/39 123/232/123 41/233/41 126/234/126 43/235/43 129/236/129 45/237/45 132/238/132 47/239/47 135/240/135 49/241/49 138/242/138 51/243/51 141/244/141 53/245/53 144/246/144 55/247/55 147/248/147 57/249/57 150/250/150 59/251/59 153/252/153 61/253/61 156/254/156 63/255/63 159/256/159
f 159/257/159 161/189/161 67/192/67 1/258/1
f 63/259/63 158/188/158 161/189/161 159/257/159
f 158/188/158 64/187/64 160/190/160 161/189/161
f 156/260/156 162/185/162 158/188/158 63/259/63
f 61/261/61 155/120/155 162/185/162 156/260/156
f 155/120/155 62/119/62 157/186/157 162/185/162
f 153/262/153 163/117/163 155/120/155 61/261/61
f 59/263/59 152/116/152 163/117/163 153/262/153
f 152/116/152 60/115/60 154/118/154 163/117/163
f 150/264/150 164/113/164 152/116/152 59/263/59
f 57/265/57 149/112/149 164/113/164 150/264/150
f 149/112/149 58/111/58 151/114/151 164/113/164
f 147/266/147 165/109/165 149/112/149 57/265/57
f 55/267/55 146/108/146 165/109/165 147/266/147
f 146/108/146 56/107/56 148/110/148 165/109/165
f 144/268/144 166/105/166 146/108/146 55/267/55
f 53/269/53 143/104/143 166/105/166 144/268/144
f 143/104/143 54/103/54 145/106/145 166/105/166
f 141/270/141 167/101/167 143/104/143 53/269/53
f 51/271/51 140/100/140 167/101/167 141/270/141
f 140/100/140 52/99/52 142/102/142 167/101/167
f 138/272/138 168/97/168 140/100/140 51/271/51
f 49/273/49 137/274/137 168/97/168 138/272/138
f 137/274/137 50/275/50 139/98/139 168/97/168
f 135/276/135 169/93/169 137/96/137 49/277/49
f 47/278/47 134/92/134 169/93/169 135/276/135
f 134/92/134 48/91/48 136/94/136 169/93/169
f 132/279/132 170/89/170 134/92/134 47/278/47
f 45/280/45 131/88/131 170/89/170 132/279/132
f 131/88/131 46/87/46 133/90/133 170/89/170
f 129/281/129 171/85/171 131/88/131 45/280/45
f 43/282/43 128/84/128 171/85/171 129/281/129
f 128/84/128 44/83/44 130/86/130 171/85/171
f 126/283/126 172/81/172 128/84/128 43/282/43
f 41/284/41 125/80/125 172/81/172 126/283/126
f 125/80/125 42/79/42 127/82/127 172/81/172
f 123/285/123 173/77/173 125/80/125 41/284/41
f 39/286/39 122/76/122 173/77/173 123/285/123
f 122/76/122 40/75/40 124/78/124 173/77/173
f 120/287/120 174/73/174 122/76/122 39/286/39
f 37/288/37 119/72/119 174/73/174 120/287/120
f 119/72/119 38/71/38 121/74/121 174/73/174
f 117/289/117 175/69/175 119/72/119 37/288/37
f 35/290/35 116/68/116 175/69/175 117/289/117
f 116/68/116 36/67/36 118/70/118 175/69/175
f 114/291/114 176/65/176 116/68/116 35/290/35
f 33/292/33 113/64/113 176/65/176 114/291/114
f 113/64/113 34/63/34 115/66/115 176/65/176
f 111/293/111 177/61/177 113/64/113 33/292/33
f 31/294/31 110/60/110 177/61/177 111/293/111
f 110/60/110 32/59/32 112/62/112 177/61/177
f 108/295/108 178/57/178 110/60/110 31/294/31
f 29/296/29 107/56/107 178/57/178 108/295/108
f 107/56/107 30/55/30 109/58/109 178/57/178
f 105/297/105 179/53/179 107/56/107 29/296/29
f 27/298/27 104/52/104 179/53/179 105/297/105
f 104/52/104 28/51/28 106/54/106 179/53/179
f 102/299/102 180/49/180 104/52/104 27/298/27
f 25/300/25 101/48/101 180/49/180 102/299/102
f 101/48/101 26/47/26 103/50/103 180/49/180
f 99/301/99 181/45/181 101/48/101 25/300/25
f 23/302/23 98/44/98 181/45/181 99/301/99
f 98/44/98 24/43/24 100/46/100 181/45/181
f 96/303/96 182/41/182 98/44/98 23/302/23
f 21/304/21 95/40/95 182/41/182 96/303/96
f 95/40/95 22/39/22 97/42/97 182/41/182
f 93/305/93 183/37/183 95/40/95 21/304/21
f 19/306/19 92/36/92 183/37/183 93/305/93
f 92/36/92 20/35/20 94/38/94 183/37/183
f 90/307/90 184/33/184 92/36/92 19/306/19
f 17/308/17 89/309/89 184/33/184 90/307/90
f 89/309/89 18/310/18 91/34/91 184/33/184
f 87/311/87 185/29/185 89/32/89 17/312/17
f 15/313/15 86/28/86 185/29/185 87/311/87
f 86/28/86 16/27/16 88/30/88 185/29/185
f 84/314/84 186/25/186 86/28/86 15/313/15
f 13/315/13 83/24/83 186/25/186 84/314/84
f 83/24/83 14/23/14 85/26/85 186/25/186
f 81/316/81 187/21/187 83/24/83 13/315/13
f 11/317/11 80/20/80 187/21/187 81/316/81
f 80/20/80 12/19/12 82/22/82 187/21/187
f 78/318/78 188/17/188 80/20/80 11/317/11
f 9/319/9 77/16/77 188/17/188 78/318/78
f 77/16/77 10/15/10 79/18/79 188/17/188
f 75/320/75 189/13/189 77/16/77 9/319/9
f 7/321/7 74/12/74 189/13/189 75/320/75
f 74/12/74 8/11/8 76/14/76 189/13/189
f 72/322/72 190/9/190 74/12/74 7/321/7
f 5/323/5 71/8/71 190/9/190 72/322/72
f 71/8/71 6/7/6 73/10/73 190/9/190
f 69/324/69 191/5/191 71/8/71 5/323/5
f 3/325/3 68/4/68 191/5/191 69/324/69
f 68/4/68 4/3/4 70/6/70 191/5/191
f 65/326/65 192/1/192 68/4/68 3/325/3
f 1/258/1 67/192/67 192/1/192 65/326/65
f 67/192/67 2/191/2 66/2/66 192/1/192
