# Blender 4.2.1 LTS
# www.blender.org
mtllib Mushroom_01_Top.mtl
o Top
v 0.000000 5.284751 -1.551763
v 0.000000 5.008852 -2.322377
v 0.000000 4.648372 -2.739430
v 0.000000 4.453282 -2.793099
v 0.000000 4.258192 -2.739430
v 0.000000 3.897712 -2.322377
v 0.118272 5.434067 -0.534436
v 0.231998 5.377162 -1.048335
v 0.336809 5.284751 -1.521946
v 0.428677 5.160388 -1.937070
v 0.504071 5.008852 -2.277753
v 0.560094 4.835965 -2.530904
v 0.594592 4.648372 -2.686793
v 0.606241 4.453282 -2.739430
v 0.594592 4.258192 -2.686793
v 0.560094 4.070599 -2.530904
v 0.504071 3.897712 -2.277753
v 0.428677 3.746175 -1.937070
v 0.336809 3.621812 -1.521946
v 0.231998 3.529402 -1.048335
v 0.118272 3.472497 -0.534436
v 0.231998 5.434067 -0.503428
v 0.455081 5.377162 -0.987510
v 0.660676 5.284751 -1.433642
v 0.840880 5.160388 -1.824680
v 0.988771 5.008852 -2.145596
v 1.098663 4.835965 -2.384059
v 1.166335 4.648372 -2.530904
v 1.189185 4.453282 -2.580487
v 1.166335 4.258192 -2.530904
v 1.098663 4.070599 -2.384059
v 0.988771 3.897712 -2.145596
v 0.840880 3.746175 -1.824680
v 0.660676 3.621812 -1.433642
v 0.455081 3.529402 -0.987510
v 0.231998 3.472497 -0.503428
v 0.336809 5.434067 -0.453073
v 0.660676 5.377162 -0.888735
v 0.959152 5.284751 -1.290243
v 1.220769 5.160388 -1.642169
v 1.435472 5.008852 -1.930986
v 1.595012 4.835965 -2.145597
v 1.693256 4.648372 -2.277753
v 1.726428 4.453282 -2.322377
v 1.693256 4.258192 -2.277753
v 1.595012 4.070599 -2.145597
v 1.435472 3.897712 -1.930986
v 1.220769 3.746175 -1.642169
v 0.959152 3.621812 -1.290243
v 0.660676 3.529402 -0.888735
v 0.336809 3.472497 -0.453073
v 0.428677 5.434067 -0.385307
v 0.840880 5.377162 -0.755807
v 1.220769 5.284751 -1.097262
v 1.553744 5.160388 -1.396550
v 1.827010 5.008852 -1.642168
v 2.030065 4.835965 -1.824680
v 2.155105 4.648372 -1.937070
v 2.197326 4.453282 -1.975019
v 2.155105 4.258192 -1.937070
v 2.030065 4.070599 -1.824680
v 1.827010 3.897712 -1.642168
v 1.553744 3.746175 -1.396550
v 1.220769 3.621812 -1.097262
v 0.840880 3.529402 -0.755807
v 0.428677 3.472497 -0.385307
v 0.504071 5.434067 -0.302734
v 0.988771 5.377162 -0.593834
v 1.435472 5.284751 -0.862113
v 1.827010 5.160388 -1.097262
v 2.148336 5.008852 -1.290243
v 2.387103 4.835965 -1.433642
v 2.534136 4.648372 -1.521946
v 2.583782 4.453282 -1.551762
v 2.534136 4.258192 -1.521946
v 2.387103 4.070599 -1.433642
v 2.148336 3.897712 -1.290243
v 1.827010 3.746175 -1.097262
v 1.435472 3.621812 -0.862113
v 0.988771 3.529402 -0.593834
v 0.504071 3.472497 -0.302734
v 0.000000 5.453282 0.000000
v 0.560094 5.434067 -0.208527
v 1.098663 5.377162 -0.409040
v 1.595012 5.284751 -0.593834
v 2.030065 5.160388 -0.755807
v 2.387103 5.008852 -0.888735
v 2.652407 4.835965 -0.987510
v 2.815781 4.648372 -1.048334
v 2.870945 4.453282 -1.068872
v 2.815781 4.258192 -1.048334
v 2.652407 4.070599 -0.987510
v 2.387103 3.897712 -0.888735
v 2.030065 3.746175 -0.755807
v 1.595012 3.621812 -0.593834
v 1.098663 3.529402 -0.409040
v 0.560094 3.472497 -0.208527
v 0.594592 5.434067 -0.106306
v 1.166335 5.377162 -0.208527
v 1.693255 5.284751 -0.302734
v 2.155105 5.160388 -0.385307
v 2.534135 5.008852 -0.453073
v 2.815781 4.835965 -0.503428
v 2.989217 4.648372 -0.534436
v 3.047779 4.453282 -0.544906
v 2.989217 4.258192 -0.534436
v 2.815781 4.070599 -0.503428
v 2.534135 3.897712 -0.453073
v 2.155105 3.746175 -0.385307
v 1.693255 3.621812 -0.302734
v 1.166335 3.529402 -0.208527
v 0.594592 3.472497 -0.106306
v 0.606241 5.434067 0.000000
v 1.189184 5.377162 0.000000
v 1.726428 5.284751 0.000000
v 2.197326 5.160388 -0.000000
v 2.583782 5.008852 0.000000
v 2.870945 4.835965 -0.000000
v 3.047779 4.648372 0.000000
v 3.107488 4.453282 0.000000
v 3.047779 4.258192 0.000000
v 2.870945 4.070599 -0.000000
v 2.583782 3.897712 0.000000
v 2.197326 3.746175 -0.000000
v 1.726428 3.621812 0.000000
v 1.189184 3.529402 0.000000
v 0.606241 3.472497 0.000000
v 0.594592 5.434067 0.106306
v 1.166335 5.377162 0.208527
v 1.693255 5.284751 0.302734
v 2.155105 5.160388 0.385307
v 2.534135 5.008852 0.453073
v 2.815781 4.835965 0.503428
v 2.989217 4.648372 0.534437
v 3.047778 4.453282 0.544907
v 2.989217 4.258192 0.534437
v 2.815781 4.070599 0.503428
v 2.534135 3.897712 0.453073
v 2.155105 3.746175 0.385307
v 1.693255 3.621812 0.302734
v 1.166335 3.529402 0.208527
v 0.594592 3.472497 0.106306
v 0.560093 5.434067 0.208527
v 1.098663 5.377162 0.409040
v 1.595011 5.284751 0.593834
v 2.030065 5.160388 0.755807
v 2.387103 5.008852 0.888735
v 2.652407 4.835965 0.987509
v 2.815780 4.648372 1.048335
v 2.870944 4.453282 1.068873
v 2.815780 4.258192 1.048335
v 2.652407 4.070599 0.987509
v 2.387103 3.897712 0.888735
v 2.030065 3.746175 0.755807
v 1.595011 3.621812 0.593834
v 1.098663 3.529402 0.409040
v 0.560093 3.472497 0.208527
v 0.504071 5.434067 0.302734
v 0.988771 5.377162 0.593834
v 1.435472 5.284751 0.862113
v 1.827010 5.160388 1.097262
v 2.148336 5.008852 1.290243
v 2.387103 4.835965 1.433642
v 2.534135 4.648372 1.521946
v 2.583781 4.453282 1.551763
v 2.534135 4.258192 1.521946
v 2.387103 4.070599 1.433642
v 2.148336 3.897712 1.290243
v 1.827010 3.746175 1.097262
v 1.435472 3.621812 0.862113
v 0.988771 3.529402 0.593834
v 0.504071 3.472497 0.302734
v 0.428677 5.434067 0.385307
v 0.840880 5.377162 0.755807
v 1.220769 5.284751 1.097262
v 1.553744 5.160388 1.396549
v 1.827009 5.008852 1.642168
v 2.030065 4.835965 1.824679
v 2.155105 4.648372 1.937070
v 2.197325 4.453282 1.975019
v 2.155105 4.258192 1.937070
v 2.030065 4.070599 1.824679
v 1.827009 3.897712 1.642168
v 1.553744 3.746175 1.396549
v 1.220769 3.621812 1.097262
v 0.840880 3.529402 0.755807
v 0.428677 3.472497 0.385307
v 0.336809 5.434067 0.453073
v 0.660675 5.377162 0.888735
v 0.959152 5.284751 1.290243
v 1.220769 5.160388 1.642168
v 1.435472 5.008852 1.930985
v 1.595012 4.835965 2.145596
v 1.693255 4.648372 2.277753
v 1.726427 4.453282 2.322376
v 1.693255 4.258192 2.277753
v 1.595012 4.070599 2.145596
v 1.435472 3.897712 1.930985
v 1.220769 3.746175 1.642168
v 0.959152 3.621812 1.290243
v 0.660675 3.529402 0.888735
v 0.336809 3.472497 0.453073
v 0.231998 5.434067 0.503428
v 0.455081 5.377162 0.987509
v 0.660675 5.284751 1.433641
v 0.840880 5.160388 1.824680
v 0.988770 5.008852 2.145596
v 1.098663 4.835965 2.384059
v 1.166334 4.648372 2.530903
v 1.189183 4.453282 2.580486
v 1.166334 4.258192 2.530903
v 1.098663 4.070599 2.384059
v 0.988770 3.897712 2.145596
v 0.840880 3.746175 1.824680
v 0.660675 3.621812 1.433641
v 0.455081 3.529402 0.987509
v 0.231998 3.472497 0.503428
v 0.118272 5.434067 0.534436
v 0.231998 5.377162 1.048334
v 0.336809 5.284751 1.521945
v 0.428677 5.160388 1.937070
v 0.504071 5.008852 2.277752
v 0.560094 4.835965 2.530903
v 0.594592 4.648372 2.686792
v 0.606240 4.453282 2.739429
v 0.594592 4.258192 2.686792
v 0.560094 4.070599 2.530903
v 0.504071 3.897712 2.277752
v 0.428677 3.746175 1.937070
v 0.336809 3.621812 1.521945
v 0.231998 3.529402 1.048334
v 0.118272 3.472497 0.534436
v -0.000000 5.434067 0.544906
v -0.000000 5.377162 1.068872
v -0.000000 5.284751 1.551762
v -0.000000 5.160388 1.975019
v -0.000000 5.008852 2.322376
v 0.000000 4.835965 2.580486
v -0.000000 4.648372 2.739430
v -0.000001 4.453282 2.793097
v -0.000000 4.258192 2.739430
v 0.000000 4.070599 2.580486
v -0.000000 3.897712 2.322376
v -0.000000 3.746175 1.975019
v -0.000000 3.621812 1.551762
v -0.000000 3.529402 1.068872
v -0.000000 3.472497 0.544906
v -0.118272 5.434067 0.534436
v -0.231998 5.377162 1.048334
v -0.336810 5.284751 1.521945
v -0.428677 5.160388 1.937070
v -0.504071 5.008852 2.277752
v -0.560093 4.835965 2.530903
v -0.594592 4.648372 2.686792
v -0.606242 4.453282 2.739429
v -0.594592 4.258192 2.686792
v -0.560093 4.070599 2.530903
v -0.504071 3.897712 2.277752
v -0.428677 3.746175 1.937070
v -0.336810 3.621812 1.521945
v -0.231998 3.529402 1.048334
v -0.118272 3.472497 0.534436
v -0.231998 5.434067 0.503428
v -0.455081 5.377162 0.987509
v -0.660675 5.284751 1.433641
v -0.840880 5.160388 1.824679
v -0.988771 5.008852 2.145596
v -1.098663 4.835965 2.384058
v -1.166335 4.648372 2.530903
v -1.189185 4.453282 2.580485
v -1.166335 4.258192 2.530903
v -1.098663 4.070599 2.384058
v -0.988771 3.897712 2.145596
v -0.840880 3.746175 1.824679
v -0.660675 3.621812 1.433641
v -0.455081 3.529402 0.987509
v -0.231998 3.472497 0.503428
v -0.336809 5.434067 0.453073
v -0.660675 5.377162 0.888735
v -0.959152 5.284751 1.290243
v -1.220769 5.160388 1.642168
v -1.435472 5.008852 1.930985
v -1.595011 4.835965 2.145596
v -1.693255 4.648372 2.277752
v -1.726428 4.453282 2.322375
v -1.693255 4.258192 2.277752
v -1.595011 4.070599 2.145596
v -1.435472 3.897712 1.930985
v -1.220769 3.746175 1.642168
v -0.959152 3.621812 1.290243
v -0.660675 3.529402 0.888735
v -0.336809 3.472497 0.453073
v -0.428677 5.434067 0.385307
v -0.840880 5.377162 0.755807
v -1.220769 5.284751 1.097261
v -1.553744 5.160388 1.396549
v -1.827010 5.008852 1.642167
v -2.030064 4.835965 1.824679
v -2.155105 4.648372 1.937069
v -2.197325 4.453282 1.975017
v -2.155105 4.258192 1.937069
v -2.030064 4.070599 1.824679
v -1.827010 3.897712 1.642167
v -1.553744 3.746175 1.396549
v -1.220769 3.621812 1.097261
v -0.840880 3.529402 0.755807
v -0.428677 3.472497 0.385307
v 0.000000 3.453282 0.000000
v -0.504071 5.434067 0.302734
v -0.988771 5.377162 0.593834
v -1.435472 5.284751 0.862112
v -1.827010 5.160388 1.097262
v -2.148336 5.008852 1.290243
v -2.387103 4.835965 1.433641
v -2.534135 4.648372 1.521945
v -2.583781 4.453282 1.551760
v -2.534135 4.258192 1.521945
v -2.387103 4.070599 1.433641
v -2.148336 3.897712 1.290243
v -1.827010 3.746175 1.097262
v -1.435472 3.621812 0.862112
v -0.988771 3.529402 0.593834
v -0.504071 3.472497 0.302734
v -0.560093 5.434067 0.208527
v -1.098663 5.377162 0.409040
v -1.595011 5.284751 0.593833
v -2.030065 5.160388 0.755807
v -2.387103 5.008852 0.888734
v -2.652407 4.835965 0.987509
v -2.815780 4.648372 1.048334
v -2.870943 4.453282 1.068871
v -2.815780 4.258192 1.048334
v -2.652407 4.070599 0.987509
v -2.387103 3.897712 0.888734
v -2.030065 3.746175 0.755807
v -1.595011 3.621812 0.593833
v -1.098663 3.529402 0.409040
v -0.560093 3.472497 0.208527
v -0.594592 5.434067 0.106306
v -1.166334 5.377162 0.208527
v -1.693254 5.284751 0.302733
v -2.155105 5.160388 0.385307
v -2.534135 5.008852 0.453073
v -2.815780 4.835965 0.503428
v -2.989216 4.648372 0.534435
v -3.047777 4.453282 0.544905
v -2.989216 4.258192 0.534435
v -2.815780 4.070599 0.503428
v -2.534135 3.897712 0.453073
v -2.155105 3.746175 0.385307
v -1.693254 3.621812 0.302733
v -1.166334 3.529402 0.208527
v -0.594592 3.472497 0.106306
v -0.606240 5.434067 -0.000000
v -1.189184 5.377162 -0.000000
v -1.726427 5.284751 -0.000000
v -2.197326 5.160388 -0.000000
v -2.583781 5.008852 -0.000000
v -2.870944 4.835965 -0.000000
v -3.047778 4.648372 -0.000001
v -3.107486 4.453282 -0.000001
v -3.047778 4.258192 -0.000001
v -2.870944 4.070599 -0.000000
v -2.583781 3.897712 -0.000000
v -2.197326 3.746175 -0.000000
v -1.726427 3.621812 -0.000000
v -1.189184 3.529402 -0.000000
v -0.606240 3.472497 -0.000000
v -0.594592 5.434067 -0.106306
v -1.166334 5.377162 -0.208527
v -1.693254 5.284751 -0.302734
v -2.155105 5.160388 -0.385307
v -2.534134 5.008852 -0.453074
v -2.815780 4.835965 -0.503428
v -2.989215 4.648372 -0.534437
v -3.047776 4.453282 -0.544907
v -2.989215 4.258192 -0.534437
v -2.815780 4.070599 -0.503428
v -2.534134 3.897712 -0.453074
v -2.155105 3.746175 -0.385307
v -1.693254 3.621812 -0.302734
v -1.166334 3.529402 -0.208527
v -0.594592 3.472497 -0.106306
v -0.560093 5.434067 -0.208527
v -1.098663 5.377162 -0.409040
v -1.595010 5.284751 -0.593834
v -2.030064 5.160388 -0.755807
v -2.387102 5.008852 -0.888735
v -2.652406 4.835965 -0.987509
v -2.815779 4.648372 -1.048335
v -2.870942 4.453282 -1.068873
v -2.815779 4.258192 -1.048335
v -2.652406 4.070599 -0.987509
v -2.387102 3.897712 -0.888735
v -2.030064 3.746175 -0.755807
v -1.595010 3.621812 -0.593834
v -1.098663 3.529402 -0.409040
v -0.560093 3.472497 -0.208527
v -0.504070 5.434067 -0.302734
v -0.988770 5.377162 -0.593834
v -1.435471 5.284751 -0.862113
v -1.827010 5.160388 -1.097262
v -2.148335 5.008852 -1.290243
v -2.387103 4.835965 -1.433641
v -2.534134 4.648372 -1.521946
v -2.583779 4.453282 -1.551762
v -2.534134 4.258192 -1.521946
v -2.387103 4.070599 -1.433641
v -2.148335 3.897712 -1.290243
v -1.827010 3.746175 -1.097262
v -1.435471 3.621812 -0.862113
v -0.988770 3.529402 -0.593834
v -0.504070 3.472497 -0.302734
v -0.428677 5.434067 -0.385307
v -0.840880 5.377162 -0.755807
v -1.220767 5.284751 -1.097261
v -1.553744 5.160388 -1.396549
v -1.827008 5.008852 -1.642168
v -2.030064 4.835965 -1.824679
v -2.155104 4.648372 -1.937069
v -2.197323 4.453282 -1.975018
v -2.155104 4.258192 -1.937069
v -2.030064 4.070599 -1.824679
v -1.827008 3.897712 -1.642168
v -1.553744 3.746175 -1.396549
v -1.220767 3.621812 -1.097261
v -0.840880 3.529402 -0.755807
v -0.428677 3.472497 -0.385307
v -0.336809 5.434067 -0.453073
v -0.660675 5.377162 -0.888735
v -0.959151 5.284751 -1.290243
v -1.220769 5.160388 -1.642168
v -1.435471 5.008852 -1.930985
v -1.595011 4.835965 -2.145596
v -1.693254 4.648372 -2.277752
v -1.726425 4.453282 -2.322375
v -1.693254 4.258192 -2.277752
v -1.595011 4.070599 -2.145596
v -1.435471 3.897712 -1.930985
v -1.220769 3.746175 -1.642168
v -0.959151 3.621812 -1.290243
v -0.660675 3.529402 -0.888735
v -0.336809 3.472497 -0.453073
v -0.231998 5.434067 -0.503428
v -0.455081 5.377162 -0.987509
v -0.660674 5.284751 -1.433640
v -0.840880 5.160388 -1.824679
v -0.988769 5.008852 -2.145595
v -1.098663 4.835965 -2.384058
v -1.166333 4.648372 -2.530902
v -1.189182 4.453282 -2.580485
v -1.166333 4.258192 -2.530902
v -1.098663 4.070599 -2.384058
v -0.988769 3.897712 -2.145595
v -0.840880 3.746175 -1.824679
v -0.660674 3.621812 -1.433640
v -0.455081 3.529402 -0.987509
v -0.231998 3.472497 -0.503428
v -0.118272 5.434067 -0.534436
v -0.231998 5.377162 -1.048334
v -0.336808 5.284751 -1.521944
v -0.428677 5.160388 -1.937070
v -0.504070 5.008852 -2.277752
v -0.560093 4.835965 -2.530902
v -0.594591 4.648372 -2.686792
v -0.606239 4.453282 -2.739428
v -0.594591 4.258192 -2.686792
v -0.560093 4.070599 -2.530902
v -0.504070 3.897712 -2.277752
v -0.428677 3.746175 -1.937070
v -0.336808 3.621812 -1.521944
v -0.231998 3.529402 -1.048334
v -0.118272 3.472497 -0.534436
v 0.000000 5.434067 -0.544906
v 0.000000 5.377162 -1.068872
v 0.000000 5.160388 -1.975019
v 0.000000 4.835965 -2.580486
v 0.000000 4.070599 -2.580486
v 0.000000 3.746175 -1.975019
v 0.000001 3.621812 -1.551761
v 0.000000 3.529402 -1.068872
v 0.000000 3.472497 -0.544906
vn -0.0000 0.9720 -0.2351
vn -0.0000 0.8800 -0.4750
vn -0.0000 0.4834 -0.8754
vn -0.0000 -0.0000 -1.0000
vn -0.0000 -0.4834 -0.8754
vn -0.0000 -0.8800 -0.4750
vn 0.0128 0.9973 -0.0718
vn 0.0261 0.9889 -0.1461
vn 0.0412 0.9722 -0.2306
vn 0.0596 0.9409 -0.3333
vn 0.0834 0.8807 -0.4662
vn 0.1153 0.7556 -0.6448
vn 0.1539 0.4847 -0.8610
vn 0.1760 -0.0000 -0.9844
vn 0.1539 -0.4847 -0.8610
vn 0.1153 -0.7556 -0.6448
vn 0.0834 -0.8807 -0.4662
vn 0.0596 -0.9409 -0.3333
vn 0.0412 -0.9722 -0.2306
vn 0.0261 -0.9889 -0.1461
vn 0.0128 -0.9973 -0.0718
vn 0.0252 0.9974 -0.0677
vn 0.0513 0.9891 -0.1377
vn 0.0809 0.9727 -0.2174
vn 0.1170 0.9421 -0.3143
vn 0.1639 0.8828 -0.4402
vn 0.2272 0.7590 -0.6101
vn 0.3044 0.4887 -0.8176
vn 0.3489 -0.0000 -0.9372
vn 0.3044 -0.4887 -0.8176
vn 0.2272 -0.7590 -0.6101
vn 0.1639 -0.8828 -0.4402
vn 0.1170 -0.9421 -0.3143
vn 0.0809 -0.9727 -0.2174
vn 0.0513 -0.9891 -0.1377
vn 0.0252 -0.9974 -0.0677
vn 0.0366 0.9975 -0.0609
vn 0.0744 0.9895 -0.1240
vn 0.1176 0.9736 -0.1958
vn 0.1702 0.9438 -0.2834
vn 0.2388 0.8859 -0.3976
vn 0.3320 0.7642 -0.5529
vn 0.4474 0.4947 -0.7450
vn 0.5149 -0.0000 -0.8573
vn 0.4474 -0.4947 -0.7450
vn 0.3320 -0.7642 -0.5529
vn 0.2388 -0.8859 -0.3976
vn 0.1702 -0.9438 -0.2834
vn 0.1176 -0.9736 -0.1958
vn 0.0744 -0.9895 -0.1240
vn 0.0366 -0.9975 -0.0609
vn 0.0466 0.9976 -0.0518
vn 0.0948 0.9899 -0.1055
vn 0.1498 0.9746 -0.1667
vn 0.2171 0.9458 -0.2415
vn 0.3052 0.8897 -0.3396
vn 0.4261 0.7705 -0.4740
vn 0.5781 0.5022 -0.6431
vn 0.6685 -0.0000 -0.7437
vn 0.5781 -0.5022 -0.6431
vn 0.4261 -0.7705 -0.4740
vn 0.3052 -0.8897 -0.3396
vn 0.2171 -0.9458 -0.2415
vn 0.1498 -0.9746 -0.1667
vn 0.0948 -0.9899 -0.1055
vn 0.0466 -0.9976 -0.0518
vn 0.0548 0.9977 -0.0407
vn 0.1115 0.9903 -0.0829
vn 0.1763 0.9756 -0.1311
vn 0.2558 0.9478 -0.1902
vn 0.3604 0.8935 -0.2679
vn 0.5052 0.7770 -0.3756
vn 0.6903 0.5100 -0.5132
vn 0.8025 -0.0000 -0.5966
vn 0.6903 -0.5100 -0.5132
vn 0.5052 -0.7770 -0.3756
vn 0.3604 -0.8935 -0.2679
vn 0.2558 -0.9478 -0.1902
vn 0.1763 -0.9756 -0.1311
vn 0.1115 -0.9903 -0.0829
vn 0.0548 -0.9977 -0.0407
vn -0.0000 1.0000 -0.0000
vn 0.0609 0.9978 -0.0280
vn 0.1239 0.9906 -0.0571
vn 0.1961 0.9764 -0.0904
vn 0.2848 0.9496 -0.1312
vn 0.4019 0.8967 -0.1852
vn 0.5654 0.7826 -0.2606
vn 0.7774 0.5169 -0.3583
vn 0.9082 -0.0000 -0.4185
vn 0.7774 -0.5169 -0.3583
vn 0.5654 -0.7826 -0.2606
vn 0.4019 -0.8967 -0.1852
vn 0.2848 -0.9496 -0.1312
vn 0.1961 -0.9764 -0.0904
vn 0.1239 -0.9906 -0.0571
vn 0.0609 -0.9978 -0.0280
vn 0.0646 0.9978 -0.0143
vn 0.1316 0.9909 -0.0291
vn 0.2083 0.9770 -0.0461
vn 0.3027 0.9507 -0.0670
vn 0.4277 0.8989 -0.0947
vn 0.6032 0.7864 -0.1335
vn 0.8330 0.5217 -0.1843
vn 0.9764 -0.0000 -0.2161
vn 0.8330 -0.5217 -0.1843
vn 0.6032 -0.7864 -0.1335
vn 0.4277 -0.8989 -0.0947
vn 0.3027 -0.9507 -0.0670
vn 0.2083 -0.9770 -0.0461
vn 0.1316 -0.9909 -0.0291
vn 0.0646 -0.9978 -0.0143
vn 0.0659 0.9978 -0.0000
vn 0.1342 0.9910 -0.0000
vn 0.2124 0.9772 -0.0000
vn 0.3087 0.9512 -0.0000
vn 0.4365 0.8997 -0.0000
vn 0.6160 0.7877 -0.0000
vn 0.8521 0.5234 -0.0000
vn 1.0000 -0.0000 -0.0000
vn 0.8521 -0.5234 -0.0000
vn 0.6160 -0.7877 -0.0000
vn 0.4365 -0.8997 -0.0000
vn 0.3087 -0.9512 -0.0000
vn 0.2124 -0.9772 -0.0000
vn 0.1342 -0.9910 -0.0000
vn 0.0659 -0.9978 -0.0000
vn 0.0646 0.9978 0.0143
vn 0.1316 0.9909 0.0291
vn 0.2083 0.9770 0.0461
vn 0.3027 0.9507 0.0670
vn 0.4277 0.8989 0.0947
vn 0.6032 0.7864 0.1335
vn 0.8330 0.5217 0.1843
vn 0.9764 -0.0000 0.2161
vn 0.8330 -0.5217 0.1843
vn 0.6032 -0.7864 0.1335
vn 0.4277 -0.8989 0.0947
vn 0.3027 -0.9507 0.0670
vn 0.2083 -0.9770 0.0461
vn 0.1316 -0.9909 0.0291
vn 0.0646 -0.9978 0.0143
vn 0.0609 0.9978 0.0280
vn 0.1239 0.9906 0.0571
vn 0.1961 0.9764 0.0904
vn 0.2848 0.9496 0.1312
vn 0.4019 0.8967 0.1852
vn 0.5654 0.7826 0.2606
vn 0.7774 0.5169 0.3583
vn 0.9082 -0.0000 0.4185
vn 0.7774 -0.5169 0.3583
vn 0.5654 -0.7826 0.2606
vn 0.4019 -0.8967 0.1852
vn 0.2848 -0.9496 0.1312
vn 0.1961 -0.9764 0.0904
vn 0.1239 -0.9906 0.0571
vn 0.0609 -0.9978 0.0280
vn 0.0548 0.9977 0.0407
vn 0.1115 0.9903 0.0829
vn 0.1763 0.9756 0.1311
vn 0.2558 0.9478 0.1902
vn 0.3604 0.8935 0.2679
vn 0.5052 0.7770 0.3756
vn 0.6903 0.5100 0.5132
vn 0.8025 -0.0000 0.5966
vn 0.6903 -0.5100 0.5132
vn 0.5052 -0.7770 0.3756
vn 0.3604 -0.8935 0.2679
vn 0.2558 -0.9478 0.1902
vn 0.1763 -0.9756 0.1311
vn 0.1115 -0.9903 0.0829
vn 0.0548 -0.9977 0.0407
vn 0.0466 0.9976 0.0518
vn 0.0948 0.9899 0.1055
vn 0.1498 0.9746 0.1667
vn 0.2171 0.9458 0.2415
vn 0.3052 0.8897 0.3396
vn 0.4261 0.7705 0.4740
vn 0.5781 0.5022 0.6431
vn 0.6685 -0.0000 0.7437
vn 0.5781 -0.5022 0.6431
vn 0.4261 -0.7705 0.4740
vn 0.3052 -0.8897 0.3396
vn 0.2171 -0.9458 0.2415
vn 0.1498 -0.9746 0.1667
vn 0.0948 -0.9899 0.1055
vn 0.0466 -0.9976 0.0518
vn 0.0366 0.9975 0.0609
vn 0.0744 0.9895 0.1240
vn 0.1176 0.9736 0.1958
vn 0.1702 0.9438 0.2834
vn 0.2388 0.8859 0.3976
vn 0.3320 0.7642 0.5529
vn 0.4474 0.4947 0.7450
vn 0.5149 -0.0000 0.8573
vn 0.4474 -0.4947 0.7450
vn 0.3320 -0.7642 0.5529
vn 0.2388 -0.8859 0.3976
vn 0.1702 -0.9438 0.2834
vn 0.1176 -0.9736 0.1958
vn 0.0744 -0.9895 0.1240
vn 0.0366 -0.9975 0.0609
vn 0.0252 0.9974 0.0677
vn 0.0513 0.9891 0.1377
vn 0.0809 0.9727 0.2174
vn 0.1170 0.9421 0.3143
vn 0.1639 0.8828 0.4402
vn 0.2272 0.7590 0.6101
vn 0.3044 0.4887 0.8176
vn 0.3489 -0.0000 0.9372
vn 0.3044 -0.4887 0.8176
vn 0.2272 -0.7590 0.6101
vn 0.1639 -0.8828 0.4402
vn 0.1170 -0.9421 0.3143
vn 0.0809 -0.9727 0.2174
vn 0.0513 -0.9891 0.1377
vn 0.0252 -0.9974 0.0677
vn 0.0128 0.9973 0.0718
vn 0.0261 0.9889 0.1461
vn 0.0412 0.9722 0.2306
vn 0.0596 0.9409 0.3333
vn 0.0834 0.8807 0.4662
vn 0.1153 0.7556 0.6448
vn 0.1539 0.4847 0.8610
vn 0.1760 -0.0000 0.9844
vn 0.1539 -0.4847 0.8610
vn 0.1153 -0.7556 0.6448
vn 0.0834 -0.8807 0.4662
vn 0.0596 -0.9409 0.3333
vn 0.0412 -0.9722 0.2306
vn 0.0261 -0.9889 0.1461
vn 0.0128 -0.9973 0.0718
vn -0.0000 0.9973 0.0733
vn -0.0000 0.9888 0.1490
vn -0.0000 0.9720 0.2351
vn -0.0000 0.9406 0.3396
vn -0.0000 0.8800 0.4750
vn -0.0000 0.7544 0.6564
vn -0.0000 0.4834 0.8754
vn -0.0000 -0.0000 1.0000
vn -0.0000 -0.4834 0.8754
vn -0.0000 -0.7544 0.6564
vn -0.0000 -0.8800 0.4750
vn -0.0000 -0.9406 0.3396
vn -0.0000 -0.9720 0.2351
vn -0.0000 -0.9888 0.1490
vn -0.0000 -0.9973 0.0733
vn -0.0128 0.9973 0.0718
vn -0.0261 0.9889 0.1461
vn -0.0412 0.9722 0.2306
vn -0.0596 0.9409 0.3333
vn -0.0834 0.8807 0.4662
vn -0.1153 0.7556 0.6448
vn -0.1539 0.4847 0.8610
vn -0.1760 -0.0000 0.9844
vn -0.1539 -0.4847 0.8610
vn -0.1153 -0.7556 0.6448
vn -0.0834 -0.8807 0.4662
vn -0.0596 -0.9409 0.3333
vn -0.0412 -0.9722 0.2306
vn -0.0261 -0.9889 0.1461
vn -0.0128 -0.9973 0.0718
vn -0.0252 0.9974 0.0677
vn -0.0513 0.9891 0.1377
vn -0.0809 0.9727 0.2174
vn -0.1170 0.9421 0.3143
vn -0.1639 0.8828 0.4402
vn -0.2272 0.7590 0.6101
vn -0.3044 0.4887 0.8176
vn -0.3489 -0.0000 0.9372
vn -0.3044 -0.4887 0.8176
vn -0.2272 -0.7590 0.6101
vn -0.1639 -0.8828 0.4402
vn -0.1170 -0.9421 0.3143
vn -0.0809 -0.9727 0.2174
vn -0.0513 -0.9891 0.1377
vn -0.0252 -0.9974 0.0677
vn -0.0366 0.9975 0.0609
vn -0.0744 0.9895 0.1240
vn -0.1176 0.9736 0.1958
vn -0.1702 0.9438 0.2834
vn -0.2388 0.8859 0.3976
vn -0.3320 0.7642 0.5529
vn -0.4474 0.4947 0.7450
vn -0.5149 -0.0000 0.8573
vn -0.4474 -0.4947 0.7450
vn -0.3320 -0.7642 0.5529
vn -0.2388 -0.8859 0.3976
vn -0.1702 -0.9438 0.2834
vn -0.1176 -0.9736 0.1958
vn -0.0744 -0.9895 0.1240
vn -0.0366 -0.9975 0.0609
vn -0.0466 0.9976 0.0518
vn -0.0948 0.9899 0.1055
vn -0.1498 0.9746 0.1667
vn -0.2171 0.9458 0.2415
vn -0.3052 0.8897 0.3396
vn -0.4261 0.7705 0.4740
vn -0.5781 0.5022 0.6431
vn -0.6685 -0.0000 0.7437
vn -0.5781 -0.5022 0.6431
vn -0.4261 -0.7705 0.4740
vn -0.3052 -0.8897 0.3396
vn -0.2171 -0.9458 0.2415
vn -0.1498 -0.9746 0.1667
vn -0.0948 -0.9899 0.1055
vn -0.0466 -0.9976 0.0518
vn -0.0000 -1.0000 -0.0000
vn -0.0548 0.9977 0.0407
vn -0.1115 0.9903 0.0829
vn -0.1763 0.9756 0.1311
vn -0.2558 0.9478 0.1902
vn -0.3604 0.8935 0.2679
vn -0.5052 0.7770 0.3756
vn -0.6903 0.5100 0.5132
vn -0.8025 -0.0000 0.5966
vn -0.6903 -0.5100 0.5132
vn -0.5052 -0.7770 0.3756
vn -0.3604 -0.8935 0.2679
vn -0.2558 -0.9478 0.1902
vn -0.1763 -0.9756 0.1311
vn -0.1115 -0.9903 0.0829
vn -0.0548 -0.9977 0.0407
vn -0.0609 0.9978 0.0280
vn -0.1239 0.9906 0.0571
vn -0.1961 0.9764 0.0904
vn -0.2848 0.9496 0.1312
vn -0.4019 0.8967 0.1852
vn -0.5654 0.7826 0.2606
vn -0.7774 0.5169 0.3583
vn -0.9082 -0.0000 0.4185
vn -0.7774 -0.5169 0.3583
vn -0.5654 -0.7826 0.2606
vn -0.4019 -0.8967 0.1852
vn -0.2848 -0.9496 0.1312
vn -0.1961 -0.9764 0.0904
vn -0.1239 -0.9906 0.0571
vn -0.0609 -0.9978 0.0280
vn -0.0646 0.9978 0.0143
vn -0.1316 0.9909 0.0291
vn -0.2083 0.9770 0.0461
vn -0.3027 0.9507 0.0670
vn -0.4277 0.8989 0.0947
vn -0.6032 0.7864 0.1335
vn -0.8330 0.5217 0.1843
vn -0.9764 -0.0000 0.2161
vn -0.8330 -0.5217 0.1843
vn -0.6032 -0.7864 0.1335
vn -0.4277 -0.8989 0.0947
vn -0.3027 -0.9507 0.0670
vn -0.2083 -0.9770 0.0461
vn -0.1316 -0.9909 0.0291
vn -0.0646 -0.9978 0.0143
vn -0.0659 0.9978 -0.0000
vn -0.1342 0.9910 -0.0000
vn -0.2124 0.9772 -0.0000
vn -0.3087 0.9512 -0.0000
vn -0.4365 0.8997 -0.0000
vn -0.6160 0.7877 -0.0000
vn -0.8521 0.5234 -0.0000
vn -1.0000 -0.0000 -0.0000
vn -0.8521 -0.5234 -0.0000
vn -0.6160 -0.7877 -0.0000
vn -0.4365 -0.8997 -0.0000
vn -0.3087 -0.9512 -0.0000
vn -0.2124 -0.9772 -0.0000
vn -0.1342 -0.9910 -0.0000
vn -0.0659 -0.9978 -0.0000
vn -0.0646 0.9978 -0.0143
vn -0.1316 0.9909 -0.0291
vn -0.2083 0.9770 -0.0461
vn -0.3027 0.9507 -0.0670
vn -0.4277 0.8989 -0.0947
vn -0.6032 0.7864 -0.1335
vn -0.8330 0.5217 -0.1843
vn -0.9764 -0.0000 -0.2161
vn -0.8330 -0.5217 -0.1843
vn -0.6032 -0.7864 -0.1335
vn -0.4277 -0.8989 -0.0947
vn -0.3027 -0.9507 -0.0670
vn -0.2083 -0.9770 -0.0461
vn -0.1316 -0.9909 -0.0291
vn -0.0646 -0.9978 -0.0143
vn -0.0609 0.9978 -0.0280
vn -0.1239 0.9906 -0.0571
vn -0.1961 0.9764 -0.0904
vn -0.2848 0.9496 -0.1312
vn -0.4019 0.8967 -0.1852
vn -0.5654 0.7826 -0.2606
vn -0.7774 0.5169 -0.3583
vn -0.9082 -0.0000 -0.4185
vn -0.7774 -0.5169 -0.3583
vn -0.5654 -0.7826 -0.2606
vn -0.4019 -0.8967 -0.1852
vn -0.2848 -0.9496 -0.1312
vn -0.1961 -0.9764 -0.0904
vn -0.1239 -0.9906 -0.0571
vn -0.0609 -0.9978 -0.0280
vn -0.0548 0.9977 -0.0407
vn -0.1115 0.9903 -0.0829
vn -0.1763 0.9756 -0.1311
vn -0.2558 0.9478 -0.1902
vn -0.3604 0.8935 -0.2679
vn -0.5052 0.7770 -0.3756
vn -0.6903 0.5100 -0.5132
vn -0.8025 -0.0000 -0.5966
vn -0.6903 -0.5100 -0.5132
vn -0.5052 -0.7770 -0.3756
vn -0.3604 -0.8935 -0.2679
vn -0.2558 -0.9478 -0.1902
vn -0.1763 -0.9756 -0.1311
vn -0.1115 -0.9903 -0.0829
vn -0.0548 -0.9977 -0.0407
vn -0.0466 0.9976 -0.0518
vn -0.0948 0.9899 -0.1055
vn -0.1498 0.9746 -0.1667
vn -0.2171 0.9458 -0.2415
vn -0.3052 0.8897 -0.3396
vn -0.4261 0.7705 -0.4740
vn -0.5781 0.5022 -0.6431
vn -0.6685 -0.0000 -0.7437
vn -0.5781 -0.5022 -0.6431
vn -0.4261 -0.7705 -0.4740
vn -0.3052 -0.8897 -0.3396
vn -0.2171 -0.9458 -0.2415
vn -0.1498 -0.9746 -0.1667
vn -0.0948 -0.9899 -0.1055
vn -0.0466 -0.9976 -0.0518
vn -0.0366 0.9975 -0.0609
vn -0.0744 0.9895 -0.1240
vn -0.1176 0.9736 -0.1958
vn -0.1702 0.9438 -0.2834
vn -0.2388 0.8859 -0.3976
vn -0.3320 0.7642 -0.5529
vn -0.4474 0.4947 -0.7450
vn -0.5149 -0.0000 -0.8573
vn -0.4474 -0.4947 -0.7450
vn -0.3320 -0.7642 -0.5529
vn -0.2388 -0.8859 -0.3976
vn -0.1702 -0.9438 -0.2834
vn -0.1176 -0.9736 -0.1958
vn -0.0744 -0.9895 -0.1240
vn -0.0366 -0.9975 -0.0609
vn -0.0252 0.9974 -0.0677
vn -0.0513 0.9891 -0.1377
vn -0.0809 0.9727 -0.2174
vn -0.1170 0.9421 -0.3143
vn -0.1639 0.8828 -0.4402
vn -0.2272 0.7590 -0.6101
vn -0.3044 0.4887 -0.8176
vn -0.3489 -0.0000 -0.9372
vn -0.3044 -0.4887 -0.8176
vn -0.2272 -0.7590 -0.6101
vn -0.1639 -0.8828 -0.4402
vn -0.1170 -0.9421 -0.3143
vn -0.0809 -0.9727 -0.2174
vn -0.0513 -0.9891 -0.1377
vn -0.0252 -0.9974 -0.0677
vn -0.0128 0.9973 -0.0718
vn -0.0261 0.9889 -0.1461
vn -0.0412 0.9722 -0.2306
vn -0.0596 0.9409 -0.3333
vn -0.0834 0.8807 -0.4662
vn -0.1153 0.7556 -0.6448
vn -0.1539 0.4847 -0.8610
vn -0.1760 -0.0000 -0.9844
vn -0.1539 -0.4847 -0.8610
vn -0.1153 -0.7556 -0.6448
vn -0.0834 -0.8807 -0.4662
vn -0.0596 -0.9409 -0.3333
vn -0.0412 -0.9722 -0.2306
vn -0.0261 -0.9889 -0.1461
vn -0.0128 -0.9973 -0.0718
vn -0.0000 0.9973 -0.0733
vn -0.0000 0.9888 -0.1490
vn -0.0000 0.9406 -0.3396
vn -0.0000 0.7544 -0.6564
vn -0.0000 -0.7544 -0.6564
vn -0.0000 -0.9406 -0.3396
vn -0.0000 -0.9720 -0.2351
vn -0.0000 -0.9888 -0.1490
vn -0.0000 -0.9973 -0.0733
vt 0.211092 0.757479
vt 0.211238 0.723968
vt 0.226185 0.725354
vt 0.218758 0.758190
vt 0.722800 0.984699
vt 0.722481 0.985738
vt 0.772840 0.981392
vt 0.772942 0.980372
vt 0.721103 0.805434
vt 0.721085 0.753831
vt 0.732299 0.804458
vt 0.210938 0.792796
vt 0.211657 0.628380
vt 0.211659 0.628079
vt 0.247546 0.631401
vt 0.247453 0.631693
vt 0.721199 0.854007
vt 0.742936 0.852118
vt 0.211626 0.635225
vt 0.245911 0.638398
vt 0.721365 0.897125
vt 0.752464 0.894429
vt 0.211567 0.648657
vt 0.242912 0.651560
vt 0.721591 0.932866
vt 0.760452 0.929504
vt 0.211481 0.668404
vt 0.238518 0.670909
vt 0.721862 0.959918
vt 0.766601 0.956052
vt 0.211370 0.693837
vt 0.232869 0.695830
vt 0.722164 0.977585
vt 0.770745 0.973392
vt 0.253531 0.701546
vt 0.240548 0.729331
vt 0.817527 0.960843
vt 0.821336 0.968390
vt 0.226124 0.760231
vt 0.821228 0.967425
vt 0.743069 0.801542
vt 0.282043 0.640928
vt 0.281861 0.641196
vt 0.763853 0.846469
vt 0.278866 0.647502
vt 0.782396 0.886364
vt 0.273040 0.659885
vt 0.797863 0.919444
vt 0.264504 0.678093
vt 0.809678 0.944486
vt 0.783156 0.837271
vt 0.810033 0.873228
vt 0.309238 0.662193
vt 0.300804 0.673320
vt 0.832421 0.903052
vt 0.288449 0.689686
vt 0.849483 0.925636
vt 0.272567 0.710769
vt 0.860765 0.940390
vt 0.253779 0.735746
vt 0.866164 0.947195
vt 0.232909 0.763524
vt 0.865862 0.946321
vt 0.753002 0.796795
vt 0.313836 0.656304
vt 0.313574 0.656533
vt 0.898837 0.912769
vt 0.905641 0.918571
vt 0.265370 0.744356
vt 0.238850 0.767942
vt 0.905168 0.917819
vt 0.761718 0.790397
vt 0.341714 0.676950
vt 0.341381 0.677126
vt 0.800111 0.824866
vt 0.335867 0.681919
vt 0.834328 0.855504
vt 0.325144 0.691357
vt 0.862822 0.880929
vt 0.309436 0.705249
vt 0.884519 0.900187
vt 0.289248 0.723148
vt 0.357733 0.705933
vt 0.345127 0.713315
vt 0.854353 0.833852
vt 0.887907 0.853886
vt 0.326662 0.724191
vt 0.913451 0.869067
vt 0.302935 0.738213
vt 0.930291 0.878986
vt 0.274876 0.754831
vt 0.938264 0.883556
vt 0.243721 0.773316
vt 0.937649 0.882954
vt 0.768883 0.782591
vt 0.364608 0.702086
vt 0.364216 0.702199
vt 0.814067 0.809721
vt 0.281933 0.766773
vt 0.247334 0.779441
vt 0.962769 0.843433
vt 0.962046 0.843005
vt 0.774221 0.773674
vt 0.381635 0.730762
vt 0.381199 0.730801
vt 0.824488 0.792406
vt 0.373993 0.733327
vt 0.869334 0.809079
vt 0.359982 0.738359
vt 0.906703 0.822928
vt 0.339463 0.745793
vt 0.935156 0.833423
vt 0.313100 0.755390
vt 0.953908 0.840280
vt 0.878681 0.782116
vt 0.918465 0.789210
vt 0.369132 0.765538
vt 0.347341 0.769232
vt 0.948771 0.794584
vt 0.319350 0.774023
vt 0.968745 0.798089
vt 0.286265 0.779723
vt 0.978174 0.799691
vt 0.249549 0.786081
vt 0.977382 0.799452
vt 0.777524 0.763985
vt 0.392132 0.761886
vt 0.391669 0.761845
vt 0.830965 0.773577
vt 0.384014 0.763059
vt 0.983830 0.753973
vt 0.983012 0.753934
vt 0.778664 0.753897
vt 0.250282 0.792982
vt 0.395681 0.794271
vt 0.395208 0.794147
vt 0.833239 0.753950
vt 0.387398 0.793993
vt 0.882011 0.753987
vt 0.372215 0.793812
vt 0.922708 0.754008
vt 0.349986 0.793611
vt 0.953727 0.754012
vt 0.321439 0.793399
vt 0.974177 0.754000
vt 0.287706 0.793186
vt 0.369100 0.822097
vt 0.347288 0.817996
vt 0.919226 0.718666
vt 0.949778 0.713256
vt 0.319282 0.812775
vt 0.969932 0.709694
vt 0.286196 0.806645
vt 0.979451 0.708023
vt 0.249502 0.799879
vt 0.978650 0.708185
vt 0.777593 0.743795
vt 0.392130 0.826675
vt 0.391667 0.826469
vt 0.831208 0.734277
vt 0.384001 0.824943
vt 0.879171 0.725767
vt 0.247240 0.806506
vt 0.381601 0.857851
vt 0.381163 0.857564
vt 0.774348 0.734068
vt 0.824940 0.715316
vt 0.373938 0.854718
vt 0.870243 0.698546
vt 0.359895 0.849305
vt 0.908113 0.684549
vt 0.339340 0.841446
vt 0.937022 0.673890
vt 0.312955 0.831405
vt 0.956107 0.666885
vt 0.281792 0.819582
vt 0.965134 0.663617
vt 0.964394 0.663974
vt 0.326441 0.863058
vt 0.302697 0.848570
vt 0.915899 0.637456
vt 0.933177 0.627249
vt 0.274659 0.831499
vt 0.941368 0.622497
vt 0.243581 0.812608
vt 0.940731 0.623035
vt 0.769052 0.725092
vt 0.364482 0.886591
vt 0.364089 0.886231
vt 0.814662 0.697803
vt 0.357584 0.882165
vt 0.855548 0.673381
vt 0.344942 0.874382
vt 0.889758 0.652989
vt 0.761905 0.717215
vt 0.800763 0.682421
vt 0.341090 0.911355
vt 0.335559 0.906219
vt 0.835634 0.651262
vt 0.324810 0.896357
vt 0.864844 0.625230
vt 0.309082 0.881993
vt 0.887190 0.605394
vt 0.288899 0.863605
vt 0.901984 0.592360
vt 0.265071 0.841935
vt 0.909025 0.586295
vt 0.238666 0.817951
vt 0.908529 0.586994
vt 0.341425 0.911780
vt 0.851986 0.578987
vt 0.863713 0.563616
vt 0.272090 0.875929
vt 0.253396 0.850487
vt 0.869333 0.556466
vt 0.232683 0.822329
vt 0.869011 0.557298
vt 0.753183 0.710742
vt 0.313311 0.932434
vt 0.313048 0.931956
vt 0.783775 0.669771
vt 0.308707 0.925941
vt 0.811262 0.633060
vt 0.300270 0.914374
vt 0.834319 0.602376
vt 0.287927 0.897514
vt 0.281044 0.947228
vt 0.278062 0.940562
vt 0.764352 0.660353
vt 0.783374 0.619501
vt 0.272268 0.927729
vt 0.799363 0.585343
vt 0.263791 0.909019
vt 0.811650 0.559300
vt 0.252917 0.885061
vt 0.819846 0.542183
vt 0.240082 0.856823
vt 0.823830 0.534222
vt 0.225863 0.825572
vt 0.823709 0.535153
vt 0.743220 0.705925
vt 0.281224 0.947746
vt 0.232120 0.890648
vt 0.225643 0.860699
vt 0.772107 0.528935
vt 0.774304 0.520472
vt 0.218468 0.827555
vt 0.774402 0.521464
vt 0.732402 0.702951
vt 0.246407 0.957115
vt 0.246316 0.956573
vt 0.743249 0.654537
vt 0.244811 0.949508
vt 0.753055 0.611125
vt 0.241886 0.935900
vt 0.761343 0.574819
vt 0.237608 0.916057
vt 0.767763 0.547134
vt 0.721286 0.652554
vt 0.721493 0.608269
vt 0.210243 0.952427
vt 0.210303 0.938566
vt 0.721756 0.571230
vt 0.210391 0.918354
vt 0.722059 0.542984
vt 0.210503 0.892471
vt 0.722385 0.524416
vt 0.210636 0.861964
vt 0.722718 0.515781
vt 0.210783 0.828202
vt 0.723044 0.516795
vt 0.721147 0.701938
vt 0.210211 0.960172
vt 0.210213 0.959622
vt 0.672659 0.528812
vt 0.671128 0.520344
vt 0.195641 0.860568
vt 0.203104 0.827488
vt 0.671682 0.521337
vt 0.709891 0.702924
vt 0.174043 0.956798
vt 0.174138 0.956257
vt 0.699322 0.654483
vt 0.175703 0.949205
vt 0.689929 0.611047
vt 0.178745 0.935623
vt 0.682166 0.574721
vt 0.183195 0.915819
vt 0.676351 0.547020
vt 0.188904 0.890459
vt 0.142532 0.939969
vt 0.148436 0.927187
vt 0.659603 0.619348
vt 0.644136 0.585151
vt 0.157075 0.908552
vt 0.632451 0.559078
vt 0.168157 0.884691
vt 0.624905 0.541941
vt 0.181237 0.856566
vt 0.621587 0.533971
vt 0.195727 0.825440
vt 0.622360 0.534903
vt 0.699071 0.705870
vt 0.139309 0.947125
vt 0.139493 0.946609
vt 0.678213 0.660247
vt 0.167979 0.850114
vt 0.188936 0.822138
vt 0.576060 0.556103
vt 0.577033 0.556936
vt 0.689104 0.710663
vt 0.107358 0.931533
vt 0.107624 0.931057
vt 0.658782 0.669617
vt 0.112017 0.925081
vt 0.631701 0.632839
vt 0.120552 0.913588
vt 0.609164 0.602098
vt 0.133041 0.896837
vt 0.592095 0.578665
vt 0.149065 0.875391
vt 0.581016 0.563266
vt 0.096172 0.895358
vt 0.112023 0.881132
vt 0.578616 0.624876
vt 0.556865 0.604986
vt 0.132364 0.862921
vt 0.542716 0.591915
vt 0.156378 0.841460
vt 0.536336 0.585834
vt 0.182992 0.817708
vt 0.537482 0.586535
vt 0.680376 0.717115
vt 0.079427 0.910634
vt 0.079764 0.910212
vt 0.641782 0.682225
vt 0.085339 0.905125
vt 0.607313 0.650980
vt 0.673223 0.724975
vt 0.178123 0.812323
vt 0.056591 0.885246
vt 0.056987 0.884889
vt 0.627870 0.697574
vt 0.063526 0.880880
vt 0.587379 0.673051
vt 0.076233 0.873209
vt 0.553676 0.652575
vt 0.094830 0.862047
vt 0.528125 0.636977
vt 0.118698 0.847766
vt 0.511487 0.626729
vt 0.146882 0.830941
vt 0.503955 0.621957
vt 0.505242 0.622498
vt 0.535292 0.684091
vt 0.506967 0.673361
vt 0.082121 0.840324
vt 0.108591 0.830513
vt 0.488517 0.666309
vt 0.139854 0.818963
vt 0.480146 0.663020
vt 0.174518 0.806189
vt 0.481534 0.663379
vt 0.667918 0.733937
vt 0.039726 0.856358
vt 0.040164 0.856075
vt 0.617577 0.715062
vt 0.047413 0.853292
vt 0.572661 0.698180
vt 0.061501 0.848002
vt 0.029469 0.825093
vt 0.029934 0.824890
vt 0.664665 0.743656
vt 0.611291 0.734007
vt 0.037611 0.823432
vt 0.563709 0.725380
vt 0.052534 0.820716
vt 0.524146 0.718181
vt 0.074378 0.816805
vt 0.494172 0.712696
vt 0.102427 0.811829
vt 0.474649 0.709086
vt 0.135562 0.805988
vt 0.465783 0.707392
vt 0.172313 0.799542
vt 0.467231 0.707556
vt 0.071893 0.792399
vt 0.100439 0.792436
vt 0.490185 0.753444
vt 0.470361 0.753382
vt 0.134170 0.792517
vt 0.461357 0.753332
vt 0.171594 0.792639
vt 0.462821 0.753296
vt 0.663585 0.753756
vt 0.026201 0.792660
vt 0.026674 0.792541
vt 0.609244 0.753675
vt 0.034483 0.792454
vt 0.560844 0.753593
vt 0.049665 0.792405
vt 0.520632 0.753515
vt 0.664716 0.763847
vt 0.611501 0.773308
vt 0.030495 0.760272
vt 0.038137 0.761552
vt 0.564149 0.781731
vt 0.052994 0.764160
vt 0.524843 0.788728
vt 0.074750 0.768044
vt 0.495103 0.794029
vt 0.102696 0.773079
vt 0.475751 0.797486
vt 0.135728 0.779067
vt 0.466968 0.799065
vt 0.172386 0.785745
vt 0.468404 0.798830
vt 0.030033 0.760308
vt 0.508682 0.832903
vt 0.490547 0.839714
vt 0.109108 0.754501
vt 0.140174 0.766155
vt 0.482330 0.842847
vt 0.174659 0.779124
vt 0.483696 0.842421
vt 0.668012 0.773543
vt 0.040799 0.729278
vt 0.041234 0.729321
vt 0.617961 0.792153
vt 0.048416 0.731910
vt 0.573472 0.808717
vt 0.062380 0.737063
vt 0.536576 0.822475
vt 0.082832 0.744676
vt 0.058465 0.700868
vt 0.064913 0.704659
vt 0.628367 0.809494
vt 0.588431 0.833527
vt 0.077453 0.712150
vt 0.555344 0.853481
vt 0.095820 0.723186
vt 0.530355 0.868600
vt 0.119422 0.737414
vt 0.514128 0.878479
vt 0.147333 0.754276
vt 0.506795 0.883030
vt 0.178325 0.773031
vt 0.508052 0.882431
vt 0.673342 0.782474
vt 0.058075 0.700753
vt 0.133240 0.722469
vt 0.156931 0.743884
vt 0.545551 0.912339
vt 0.539385 0.918126
vt 0.183243 0.767700
vt 0.540499 0.917376
vt 0.680501 0.790297
vt 0.081185 0.675818
vt 0.081516 0.675997
vt 0.642311 0.824673
vt 0.086987 0.680836
vt 0.608438 0.855229
vt 0.097625 0.690368
vt 0.580405 0.880585
vt 0.113210 0.704395
vt 0.559258 0.899791
vt 0.113786 0.661344
vt 0.122121 0.672543
vt 0.632718 0.873012
vt 0.610786 0.902783
vt 0.134332 0.689016
vt 0.594271 0.925326
vt 0.150028 0.710236
vt 0.583596 0.940053
vt 0.168596 0.735375
vt 0.578835 0.946846
vt 0.189223 0.763334
vt 0.579776 0.945974
vt 0.689211 0.796717
vt 0.109241 0.655415
vt 0.109500 0.655646
vt 0.659255 0.837119
vt 0.181882 0.729075
vt 0.196035 0.760100
vt 0.623643 0.968150
vt 0.624389 0.967186
vt 0.699140 0.801488
vt 0.141167 0.640316
vt 0.141344 0.640586
vt 0.678550 0.846365
vt 0.144283 0.646917
vt 0.660344 0.886216
vt 0.150000 0.659351
vt 0.645331 0.919258
vt 0.158376 0.677632
vt 0.634060 0.944272
vt 0.169143 0.701179
vt 0.626816 0.960612
vt 0.690269 0.894353
vt 0.682733 0.929409
vt 0.180199 0.651287
vt 0.184423 0.670674
vt 0.677127 0.955943
vt 0.189854 0.695643
vt 0.673587 0.973274
vt 0.196280 0.725224
vt 0.672127 0.981270
vt 0.203419 0.758123
vt 0.672663 0.980250
vt 0.709908 0.804431
vt 0.175744 0.631089
vt 0.175834 0.631382
vt 0.699462 0.852065
vt 0.177316 0.638100
s 1
usemtl Material.001
f 482/1/482 481/2/481 20/3/20 21/4/21
f 4/5/4 3/6/3 13/7/13 14/8/14
f 474/9/474 82/10/82 7/11/7
f 308/12/308 482/1/482 21/4/21
f 5/13/5 4/14/4 14/15/14 15/16/15
f 475/17/475 474/9/474 7/11/7 8/18/8
f 478/19/478 5/13/5 15/16/15 16/20/16
f 1/21/1 475/17/475 8/18/8 9/22/9
f 6/23/6 478/19/478 16/20/16 17/24/17
f 476/25/476 1/21/1 9/22/9 10/26/10
f 479/27/479 6/23/6 17/24/17 18/28/18
f 2/29/2 476/25/476 10/26/10 11/30/11
f 480/31/480 479/27/479 18/28/18 19/32/19
f 477/33/477 2/29/2 11/30/11 12/34/12
f 481/2/481 480/31/480 19/32/19 20/3/20
f 3/6/3 477/33/477 12/34/12 13/7/13
f 20/3/20 19/32/19 34/35/34 35/36/35
f 13/7/13 12/34/12 27/37/27 28/38/28
f 21/4/21 20/3/20 35/36/35 36/39/36
f 14/8/14 13/7/13 28/38/28 29/40/29
f 7/11/7 82/10/82 22/41/22
f 308/12/308 21/4/21 36/39/36
f 15/16/15 14/15/14 29/42/29 30/43/30
f 8/18/8 7/11/7 22/41/22 23/44/23
f 16/20/16 15/16/15 30/43/30 31/45/31
f 9/22/9 8/18/8 23/44/23 24/46/24
f 17/24/17 16/20/16 31/45/31 32/47/32
f 10/26/10 9/22/9 24/46/24 25/48/25
f 18/28/18 17/24/17 32/47/32 33/49/33
f 11/30/11 10/26/10 25/48/25 26/50/26
f 19/32/19 18/28/18 33/49/33 34/35/34
f 12/34/12 11/30/11 26/50/26 27/37/27
f 24/46/24 23/44/23 38/51/38 39/52/39
f 32/47/32 31/45/31 46/53/46 47/54/47
f 25/48/25 24/46/24 39/52/39 40/55/40
f 33/49/33 32/47/32 47/54/47 48/56/48
f 26/50/26 25/48/25 40/55/40 41/57/41
f 34/35/34 33/49/33 48/56/48 49/58/49
f 27/37/27 26/50/26 41/57/41 42/59/42
f 35/36/35 34/35/34 49/58/49 50/60/50
f 28/38/28 27/37/27 42/59/42 43/61/43
f 36/39/36 35/36/35 50/60/50 51/62/51
f 29/40/29 28/38/28 43/61/43 44/63/44
f 22/41/22 82/10/82 37/64/37
f 308/12/308 36/39/36 51/62/51
f 30/43/30 29/42/29 44/65/44 45/66/45
f 23/44/23 22/41/22 37/64/37 38/51/38
f 31/45/31 30/43/30 45/66/45 46/53/46
f 43/61/43 42/59/42 57/67/57 58/68/58
f 51/62/51 50/60/50 65/69/65 66/70/66
f 44/63/44 43/61/43 58/68/58 59/71/59
f 37/64/37 82/10/82 52/72/52
f 308/12/308 51/62/51 66/70/66
f 45/66/45 44/65/44 59/73/59 60/74/60
f 38/51/38 37/64/37 52/72/52 53/75/53
f 46/53/46 45/66/45 60/74/60 61/76/61
f 39/52/39 38/51/38 53/75/53 54/77/54
f 47/54/47 46/53/46 61/76/61 62/78/62
f 40/55/40 39/52/39 54/77/54 55/79/55
f 48/56/48 47/54/47 62/78/62 63/80/63
f 41/57/41 40/55/40 55/79/55 56/81/56
f 49/58/49 48/56/48 63/80/63 64/82/64
f 42/59/42 41/57/41 56/81/56 57/67/57
f 50/60/50 49/58/49 64/82/64 65/69/65
f 62/78/62 61/76/61 76/83/76 77/84/77
f 55/79/55 54/77/54 69/85/69 70/86/70
f 63/80/63 62/78/62 77/84/77 78/87/78
f 56/81/56 55/79/55 70/86/70 71/88/71
f 64/82/64 63/80/63 78/87/78 79/89/79
f 57/67/57 56/81/56 71/88/71 72/90/72
f 65/69/65 64/82/64 79/89/79 80/91/80
f 58/68/58 57/67/57 72/90/72 73/92/73
f 66/70/66 65/69/65 80/91/80 81/93/81
f 59/71/59 58/68/58 73/92/73 74/94/74
f 52/72/52 82/10/82 67/95/67
f 308/12/308 66/70/66 81/93/81
f 60/74/60 59/73/59 74/96/74 75/97/75
f 53/75/53 52/72/52 67/95/67 68/98/68
f 61/76/61 60/74/60 75/97/75 76/83/76
f 54/77/54 53/75/53 68/98/68 69/85/69
f 81/93/81 80/91/80 96/99/96 97/100/97
f 74/94/74 73/92/73 89/101/89 90/102/90
f 67/95/67 82/10/82 83/103/83
f 308/12/308 81/93/81 97/100/97
f 75/97/75 74/96/74 90/104/90 91/105/91
f 68/98/68 67/95/67 83/103/83 84/106/84
f 76/83/76 75/97/75 91/105/91 92/107/92
f 69/85/69 68/98/68 84/106/84 85/108/85
f 77/84/77 76/83/76 92/107/92 93/109/93
f 70/86/70 69/85/69 85/108/85 86/110/86
f 78/87/78 77/84/77 93/109/93 94/111/94
f 71/88/71 70/86/70 86/110/86 87/112/87
f 79/89/79 78/87/78 94/111/94 95/113/95
f 72/90/72 71/88/71 87/112/87 88/114/88
f 80/91/80 79/89/79 95/113/95 96/99/96
f 73/92/73 72/90/72 88/114/88 89/101/89
f 86/110/86 85/108/85 100/115/100 101/116/101
f 94/111/94 93/109/93 108/117/108 109/118/109
f 87/112/87 86/110/86 101/116/101 102/119/102
f 95/113/95 94/111/94 109/118/109 110/120/110
f 88/114/88 87/112/87 102/119/102 103/121/103
f 96/99/96 95/113/95 110/120/110 111/122/111
f 89/101/89 88/114/88 103/121/103 104/123/104
f 97/100/97 96/99/96 111/122/111 112/124/112
f 90/102/90 89/101/89 104/123/104 105/125/105
f 83/103/83 82/10/82 98/126/98
f 308/12/308 97/100/97 112/124/112
f 91/105/91 90/104/90 105/127/105 106/128/106
f 84/106/84 83/103/83 98/126/98 99/129/99
f 92/107/92 91/105/91 106/128/106 107/130/107
f 85/108/85 84/106/84 99/129/99 100/115/100
f 93/109/93 92/107/92 107/130/107 108/117/108
f 105/125/105 104/123/104 119/131/119 120/132/120
f 98/126/98 82/10/82 113/133/113
f 308/12/308 112/124/112 127/134/127
f 106/128/106 105/127/105 120/135/120 121/136/121
f 99/129/99 98/126/98 113/133/113 114/137/114
f 107/130/107 106/128/106 121/136/121 122/138/122
f 100/115/100 99/129/99 114/137/114 115/139/115
f 108/117/108 107/130/107 122/138/122 123/140/123
f 101/116/101 100/115/100 115/139/115 116/141/116
f 109/118/109 108/117/108 123/140/123 124/142/124
f 102/119/102 101/116/101 116/141/116 117/143/117
f 110/120/110 109/118/109 124/142/124 125/144/125
f 103/121/103 102/119/102 117/143/117 118/145/118
f 111/122/111 110/120/110 125/144/125 126/146/126
f 104/123/104 103/121/103 118/145/118 119/131/119
f 112/124/112 111/122/111 126/146/126 127/134/127
f 124/142/124 123/140/123 138/147/138 139/148/139
f 117/143/117 116/141/116 131/149/131 132/150/132
f 125/144/125 124/142/124 139/148/139 140/151/140
f 118/145/118 117/143/117 132/150/132 133/152/133
f 126/146/126 125/144/125 140/151/140 141/153/141
f 119/131/119 118/145/118 133/152/133 134/154/134
f 127/134/127 126/146/126 141/153/141 142/155/142
f 120/132/120 119/131/119 134/154/134 135/156/135
f 113/133/113 82/10/82 128/157/128
f 308/12/308 127/134/127 142/155/142
f 121/136/121 120/135/120 135/158/135 136/159/136
f 114/137/114 113/133/113 128/157/128 129/160/129
f 122/138/122 121/136/121 136/159/136 137/161/137
f 115/139/115 114/137/114 129/160/129 130/162/130
f 123/140/123 122/138/122 137/161/137 138/147/138
f 116/141/116 115/139/115 130/162/130 131/149/131
f 308/12/308 142/155/142 157/163/157
f 136/159/136 135/158/135 150/164/150 151/165/151
f 129/160/129 128/157/128 143/166/143 144/167/144
f 137/161/137 136/159/136 151/165/151 152/168/152
f 130/162/130 129/160/129 144/167/144 145/169/145
f 138/147/138 137/161/137 152/168/152 153/170/153
f 131/149/131 130/162/130 145/169/145 146/171/146
f 139/148/139 138/147/138 153/170/153 154/172/154
f 132/150/132 131/149/131 146/171/146 147/173/147
f 140/151/140 139/148/139 154/172/154 155/174/155
f 133/152/133 132/150/132 147/173/147 148/175/148
f 141/153/141 140/151/140 155/174/155 156/176/156
f 134/154/134 133/152/133 148/175/148 149/177/149
f 142/155/142 141/153/141 156/176/156 157/163/157
f 135/156/135 134/154/134 149/177/149 150/178/150
f 128/157/128 82/10/82 143/166/143
f 155/174/155 154/172/154 169/179/169 170/180/170
f 148/175/148 147/173/147 162/181/162 163/182/163
f 156/176/156 155/174/155 170/180/170 171/183/171
f 149/177/149 148/175/148 163/182/163 164/184/164
f 157/163/157 156/176/156 171/183/171 172/185/172
f 150/178/150 149/177/149 164/184/164 165/186/165
f 143/166/143 82/10/82 158/187/158
f 308/12/308 157/163/157 172/185/172
f 151/165/151 150/164/150 165/188/165 166/189/166
f 144/167/144 143/166/143 158/187/158 159/190/159
f 152/168/152 151/165/151 166/189/166 167/191/167
f 145/169/145 144/167/144 159/190/159 160/192/160
f 153/170/153 152/168/152 167/191/167 168/193/168
f 146/171/146 145/169/145 160/192/160 161/194/161
f 154/172/154 153/170/153 168/193/168 169/179/169
f 147/173/147 146/171/146 161/194/161 162/181/162
f 159/190/159 158/187/158 173/195/173 174/196/174
f 167/191/167 166/189/166 181/197/181 182/198/182
f 160/192/160 159/190/159 174/196/174 175/199/175
f 168/193/168 167/191/167 182/198/182 183/200/183
f 161/194/161 160/192/160 175/199/175 176/201/176
f 169/179/169 168/193/168 183/200/183 184/202/184
f 162/181/162 161/194/161 176/201/176 177/203/177
f 170/180/170 169/179/169 184/202/184 185/204/185
f 163/182/163 162/181/162 177/203/177 178/205/178
f 171/183/171 170/180/170 185/204/185 186/206/186
f 164/184/164 163/182/163 178/205/178 179/207/179
f 172/185/172 171/183/171 186/206/186 187/208/187
f 165/186/165 164/184/164 179/207/179 180/209/180
f 158/187/158 82/10/82 173/195/173
f 308/12/308 172/185/172 187/208/187
f 166/189/166 165/188/165 180/210/180 181/197/181
f 178/205/178 177/203/177 192/211/192 193/212/193
f 186/206/186 185/204/185 200/213/200 201/214/201
f 179/207/179 178/205/178 193/212/193 194/215/194
f 187/208/187 186/206/186 201/214/201 202/216/202
f 180/209/180 179/207/179 194/215/194 195/217/195
f 173/195/173 82/10/82 188/218/188
f 308/12/308 187/208/187 202/216/202
f 181/197/181 180/210/180 195/219/195 196/220/196
f 174/196/174 173/195/173 188/218/188 189/221/189
f 182/198/182 181/197/181 196/220/196 197/222/197
f 175/199/175 174/196/174 189/221/189 190/223/190
f 183/200/183 182/198/182 197/222/197 198/224/198
f 176/201/176 175/199/175 190/223/190 191/225/191
f 184/202/184 183/200/183 198/224/198 199/226/199
f 177/203/177 176/201/176 191/225/191 192/211/192
f 185/204/185 184/202/184 199/226/199 200/213/200
f 197/222/197 196/220/196 211/227/211 212/228/212
f 190/223/190 189/221/189 204/229/204 205/230/205
f 198/224/198 197/222/197 212/228/212 213/231/213
f 191/225/191 190/223/190 205/230/205 206/232/206
f 199/226/199 198/224/198 213/231/213 214/233/214
f 192/211/192 191/225/191 206/232/206 207/234/207
f 200/213/200 199/226/199 214/233/214 215/235/215
f 193/212/193 192/211/192 207/234/207 208/236/208
f 201/214/201 200/213/200 215/235/215 216/237/216
f 194/215/194 193/212/193 208/236/208 209/238/209
f 202/216/202 201/214/201 216/237/216 217/239/217
f 195/217/195 194/215/194 209/238/209 210/240/210
f 188/218/188 82/10/82 203/241/203
f 308/12/308 202/216/202 217/239/217
f 196/220/196 195/219/195 210/242/210 211/227/211
f 189/221/189 188/218/188 203/241/203 204/229/204
f 216/237/216 215/235/215 230/243/230 231/244/231
f 209/238/209 208/236/208 223/245/223 224/246/224
f 217/239/217 216/237/216 231/244/231 232/247/232
f 210/240/210 209/238/209 224/246/224 225/248/225
f 203/241/203 82/10/82 218/249/218
f 308/12/308 217/239/217 232/247/232
f 211/227/211 210/242/210 225/250/225 226/251/226
f 204/229/204 203/241/203 218/249/218 219/252/219
f 212/228/212 211/227/211 226/251/226 227/253/227
f 205/230/205 204/229/204 219/252/219 220/254/220
f 213/231/213 212/228/212 227/253/227 228/255/228
f 206/232/206 205/230/205 220/254/220 221/256/221
f 214/233/214 213/231/213 228/255/228 229/257/229
f 207/234/207 206/232/206 221/256/221 222/258/222
f 215/235/215 214/233/214 229/257/229 230/243/230
f 208/236/208 207/234/207 222/258/222 223/245/223
f 220/254/220 219/252/219 234/259/234 235/260/235
f 228/255/228 227/253/227 242/261/242 243/262/243
f 221/256/221 220/254/220 235/260/235 236/263/236
f 229/257/229 228/255/228 243/262/243 244/264/244
f 222/258/222 221/256/221 236/263/236 237/265/237
f 230/243/230 229/257/229 244/264/244 245/266/245
f 223/245/223 222/258/222 237/265/237 238/267/238
f 231/244/231 230/243/230 245/266/245 246/268/246
f 224/246/224 223/245/223 238/267/238 239/269/239
f 232/247/232 231/244/231 246/268/246 247/270/247
f 225/248/225 224/246/224 239/269/239 240/271/240
f 218/249/218 82/10/82 233/272/233
f 308/12/308 232/247/232 247/270/247
f 226/251/226 225/250/225 240/273/240 241/274/241
f 219/252/219 218/249/218 233/272/233 234/259/234
f 227/253/227 226/251/226 241/274/241 242/261/242
f 239/269/239 238/267/238 253/275/253 254/276/254
f 247/270/247 246/268/246 261/277/261 262/278/262
f 240/271/240 239/269/239 254/276/254 255/279/255
f 233/272/233 82/10/82 248/280/248
f 308/12/308 247/270/247 262/278/262
f 241/274/241 240/273/240 255/281/255 256/282/256
f 234/259/234 233/272/233 248/280/248 249/283/249
f 242/261/242 241/274/241 256/282/256 257/284/257
f 235/260/235 234/259/234 249/283/249 250/285/250
f 243/262/243 242/261/242 257/284/257 258/286/258
f 236/263/236 235/260/235 250/285/250 251/287/251
f 244/264/244 243/262/243 258/286/258 259/288/259
f 237/265/237 236/263/236 251/287/251 252/289/252
f 245/266/245 244/264/244 259/288/259 260/290/260
f 238/267/238 237/265/237 252/289/252 253/275/253
f 246/268/246 245/266/245 260/290/260 261/277/261
f 258/286/258 257/284/257 272/291/272 273/292/273
f 251/287/251 250/285/250 265/293/265 266/294/266
f 259/288/259 258/286/258 273/292/273 274/295/274
f 252/289/252 251/287/251 266/294/266 267/296/267
f 260/290/260 259/288/259 274/295/274 275/297/275
f 253/275/253 252/289/252 267/296/267 268/298/268
f 261/277/261 260/290/260 275/297/275 276/299/276
f 254/276/254 253/275/253 268/298/268 269/300/269
f 262/278/262 261/277/261 276/299/276 277/301/277
f 255/279/255 254/276/254 269/300/269 270/302/270
f 248/280/248 82/10/82 263/303/263
f 308/12/308 262/278/262 277/301/277
f 256/282/256 255/281/255 270/304/270 271/305/271
f 249/283/249 248/280/248 263/303/263 264/306/264
f 257/284/257 256/282/256 271/305/271 272/291/272
f 250/285/250 249/283/249 264/306/264 265/293/265
f 277/301/277 276/299/276 291/307/291 292/308/292
f 270/302/270 269/300/269 284/309/284 285/310/285
f 263/303/263 82/10/82 278/311/278
f 308/12/308 277/301/277 292/308/292
f 271/305/271 270/304/270 285/312/285 286/313/286
f 264/306/264 263/303/263 278/311/278 279/314/279
f 272/291/272 271/305/271 286/313/286 287/315/287
f 265/293/265 264/306/264 279/314/279 280/316/280
f 273/292/273 272/291/272 287/315/287 288/317/288
f 266/294/266 265/293/265 280/316/280 281/318/281
f 274/295/274 273/292/273 288/317/288 289/319/289
f 267/296/267 266/294/266 281/318/281 282/320/282
f 275/297/275 274/295/274 289/319/289 290/321/290
f 268/298/268 267/296/267 282/320/282 283/322/283
f 276/299/276 275/297/275 290/321/290 291/307/291
f 269/300/269 268/298/268 283/322/283 284/309/284
f 289/319/289 288/317/288 303/323/303 304/324/304
f 282/320/282 281/318/281 296/325/296 297/326/297
f 290/321/290 289/319/289 304/324/304 305/327/305
f 283/322/283 282/320/282 297/326/297 298/328/298
f 291/307/291 290/321/290 305/327/305 306/329/306
f 284/309/284 283/322/283 298/328/298 299/330/299
f 292/308/292 291/307/291 306/329/306 307/331/307
f 285/310/285 284/309/284 299/330/299 300/332/300
f 278/311/278 82/10/82 293/333/293
f 308/12/308 292/308/292 307/331/307
f 286/313/286 285/312/285 300/334/300 301/335/301
f 279/314/279 278/311/278 293/333/293 294/336/294
f 287/315/287 286/313/286 301/335/301 302/337/302
f 280/316/280 279/314/279 294/336/294 295/338/295
f 288/317/288 287/315/287 302/337/302 303/323/303
f 281/318/281 280/316/280 295/338/295 296/325/296
f 293/333/293 82/10/82 309/339/309
f 308/12/308 307/331/307 323/340/323
f 301/335/301 300/334/300 316/341/316 317/342/317
f 294/336/294 293/333/293 309/339/309 310/343/310
f 302/337/302 301/335/301 317/342/317 318/344/318
f 295/338/295 294/336/294 310/343/310 311/345/311
f 303/323/303 302/337/302 318/344/318 319/346/319
f 296/325/296 295/338/295 311/345/311 312/347/312
f 304/324/304 303/323/303 319/346/319 320/348/320
f 297/326/297 296/325/296 312/347/312 313/349/313
f 305/327/305 304/324/304 320/348/320 321/350/321
f 298/328/298 297/326/297 313/349/313 314/351/314
f 306/329/306 305/327/305 321/350/321 322/352/322
f 299/330/299 298/328/298 314/351/314 315/353/315
f 307/331/307 306/329/306 322/352/322 323/340/323
f 300/332/300 299/330/299 315/353/315 316/354/316
f 313/349/313 312/347/312 327/355/327 328/356/328
f 321/350/321 320/348/320 335/357/335 336/358/336
f 314/351/314 313/349/313 328/356/328 329/359/329
f 322/352/322 321/350/321 336/358/336 337/360/337
f 315/353/315 314/351/314 329/359/329 330/361/330
f 323/340/323 322/352/322 337/360/337 338/362/338
f 316/354/316 315/353/315 330/361/330 331/363/331
f 309/339/309 82/10/82 324/364/324
f 308/12/308 323/340/323 338/362/338
f 317/342/317 316/341/316 331/365/331 332/366/332
f 310/343/310 309/339/309 324/364/324 325/367/325
f 318/344/318 317/342/317 332/366/332 333/368/333
f 311/345/311 310/343/310 325/367/325 326/369/326
f 319/346/319 318/344/318 333/368/333 334/370/334
f 312/347/312 311/345/311 326/369/326 327/355/327
f 320/348/320 319/346/319 334/370/334 335/357/335
f 332/366/332 331/365/331 346/371/346 347/372/347
f 325/367/325 324/364/324 339/373/339 340/374/340
f 333/368/333 332/366/332 347/372/347 348/375/348
f 326/369/326 325/367/325 340/374/340 341/376/341
f 334/370/334 333/368/333 348/375/348 349/377/349
f 327/355/327 326/369/326 341/376/341 342/378/342
f 335/357/335 334/370/334 349/377/349 350/379/350
f 328/356/328 327/355/327 342/378/342 343/380/343
f 336/358/336 335/357/335 350/379/350 351/381/351
f 329/359/329 328/356/328 343/380/343 344/382/344
f 337/360/337 336/358/336 351/381/351 352/383/352
f 330/361/330 329/359/329 344/382/344 345/384/345
f 338/362/338 337/360/337 352/383/352 353/385/353
f 331/363/331 330/361/330 345/384/345 346/386/346
f 324/364/324 82/10/82 339/373/339
f 308/12/308 338/362/338 353/385/353
f 351/381/351 350/379/350 365/387/365 366/388/366
f 344/382/344 343/380/343 358/389/358 359/390/359
f 352/383/352 351/381/351 366/388/366 367/391/367
f 345/384/345 344/382/344 359/390/359 360/392/360
f 353/385/353 352/383/352 367/391/367 368/393/368
f 346/386/346 345/384/345 360/392/360 361/394/361
f 339/373/339 82/10/82 354/395/354
f 308/12/308 353/385/353 368/393/368
f 347/372/347 346/371/346 361/396/361 362/397/362
f 340/374/340 339/373/339 354/395/354 355/398/355
f 348/375/348 347/372/347 362/397/362 363/399/363
f 341/376/341 340/374/340 355/398/355 356/400/356
f 349/377/349 348/375/348 363/399/363 364/401/364
f 342/378/342 341/376/341 356/400/356 357/402/357
f 350/379/350 349/377/349 364/401/364 365/387/365
f 343/380/343 342/378/342 357/402/357 358/389/358
f 355/398/355 354/395/354 369/403/369 370/404/370
f 363/399/363 362/397/362 377/405/377 378/406/378
f 356/400/356 355/398/355 370/404/370 371/407/371
f 364/401/364 363/399/363 378/406/378 379/408/379
f 357/402/357 356/400/356 371/407/371 372/409/372
f 365/387/365 364/401/364 379/408/379 380/410/380
f 358/389/358 357/402/357 372/409/372 373/411/373
f 366/388/366 365/387/365 380/410/380 381/412/381
f 359/390/359 358/389/358 373/411/373 374/413/374
f 367/391/367 366/388/366 381/412/381 382/414/382
f 360/392/360 359/390/359 374/413/374 375/415/375
f 368/393/368 367/391/367 382/414/382 383/416/383
f 361/394/361 360/392/360 375/415/375 376/417/376
f 354/395/354 82/10/82 369/403/369
f 308/12/308 368/393/368 383/416/383
f 362/397/362 361/396/361 376/418/376 377/405/377
f 374/413/374 373/411/373 388/419/388 389/420/389
f 382/414/382 381/412/381 396/421/396 397/422/397
f 375/415/375 374/413/374 389/420/389 390/423/390
f 383/416/383 382/414/382 397/422/397 398/424/398
f 376/417/376 375/415/375 390/423/390 391/425/391
f 369/403/369 82/10/82 384/426/384
f 308/12/308 383/416/383 398/424/398
f 377/405/377 376/418/376 391/427/391 392/428/392
f 370/404/370 369/403/369 384/426/384 385/429/385
f 378/406/378 377/405/377 392/428/392 393/430/393
f 371/407/371 370/404/370 385/429/385 386/431/386
f 379/408/379 378/406/378 393/430/393 394/432/394
f 372/409/372 371/407/371 386/431/386 387/433/387
f 380/410/380 379/408/379 394/432/394 395/434/395
f 373/411/373 372/409/372 387/433/387 388/419/388
f 381/412/381 380/410/380 395/434/395 396/421/396
f 393/430/393 392/428/392 407/435/407 408/436/408
f 386/431/386 385/429/385 400/437/400 401/438/401
f 394/432/394 393/430/393 408/436/408 409/439/409
f 387/433/387 386/431/386 401/438/401 402/440/402
f 395/434/395 394/432/394 409/439/409 410/441/410
f 388/419/388 387/433/387 402/440/402 403/442/403
f 396/421/396 395/434/395 410/441/410 411/443/411
f 389/420/389 388/419/388 403/442/403 404/444/404
f 397/422/397 396/421/396 411/443/411 412/445/412
f 390/423/390 389/420/389 404/444/404 405/446/405
f 398/424/398 397/422/397 412/445/412 413/447/413
f 391/425/391 390/423/390 405/446/405 406/448/406
f 384/426/384 82/10/82 399/449/399
f 308/12/308 398/424/398 413/447/413
f 392/428/392 391/427/391 406/450/406 407/435/407
f 385/429/385 384/426/384 399/449/399 400/437/400
f 412/445/412 411/443/411 426/451/426 427/452/427
f 405/446/405 404/444/404 419/453/419 420/454/420
f 413/447/413 412/445/412 427/452/427 428/455/428
f 406/448/406 405/446/405 420/454/420 421/456/421
f 399/449/399 82/10/82 414/457/414
f 308/12/308 413/447/413 428/455/428
f 407/435/407 406/450/406 421/458/421 422/459/422
f 400/437/400 399/449/399 414/457/414 415/460/415
f 408/436/408 407/435/407 422/459/422 423/461/423
f 401/438/401 400/437/400 415/460/415 416/462/416
f 409/439/409 408/436/408 423/461/423 424/463/424
f 402/440/402 401/438/401 416/462/416 417/464/417
f 410/441/410 409/439/409 424/463/424 425/465/425
f 403/442/403 402/440/402 417/464/417 418/466/418
f 411/443/411 410/441/410 425/465/425 426/451/426
f 404/444/404 403/442/403 418/466/418 419/453/419
f 424/463/424 423/461/423 438/467/438 439/468/439
f 417/464/417 416/462/416 431/469/431 432/470/432
f 425/465/425 424/463/424 439/468/439 440/471/440
f 418/466/418 417/464/417 432/470/432 433/472/433
f 426/451/426 425/465/425 440/471/440 441/473/441
f 419/453/419 418/466/418 433/472/433 434/474/434
f 427/452/427 426/451/426 441/473/441 442/475/442
f 420/454/420 419/453/419 434/474/434 435/476/435
f 428/455/428 427/452/427 442/475/442 443/477/443
f 421/456/421 420/454/420 435/476/435 436/478/436
f 414/457/414 82/10/82 429/479/429
f 308/12/308 428/455/428 443/477/443
f 422/459/422 421/458/421 436/480/436 437/481/437
f 415/460/415 414/457/414 429/479/429 430/482/430
f 423/461/423 422/459/422 437/481/437 438/467/438
f 416/462/416 415/460/415 430/482/430 431/469/431
f 443/477/443 442/475/442 457/483/457 458/484/458
f 436/478/436 435/476/435 450/485/450 451/486/451
f 429/479/429 82/10/82 444/487/444
f 308/12/308 443/477/443 458/484/458
f 437/481/437 436/480/436 451/488/451 452/489/452
f 430/482/430 429/479/429 444/487/444 445/490/445
f 438/467/438 437/481/437 452/489/452 453/491/453
f 431/469/431 430/482/430 445/490/445 446/492/446
f 439/468/439 438/467/438 453/491/453 454/493/454
f 432/470/432 431/469/431 446/492/446 447/494/447
f 440/471/440 439/468/439 454/493/454 455/495/455
f 433/472/433 432/470/432 447/494/447 448/496/448
f 441/473/441 440/471/440 455/495/455 456/497/456
f 434/474/434 433/472/433 448/496/448 449/498/449
f 442/475/442 441/473/441 456/497/456 457/483/457
f 435/476/435 434/474/434 449/498/449 450/485/450
f 447/494/447 446/492/446 461/499/461 462/500/462
f 455/495/455 454/493/454 469/501/469 470/502/470
f 448/496/448 447/494/447 462/500/462 463/503/463
f 456/497/456 455/495/455 470/502/470 471/504/471
f 449/498/449 448/496/448 463/503/463 464/505/464
f 457/483/457 456/497/456 471/504/471 472/506/472
f 450/485/450 449/498/449 464/505/464 465/507/465
f 458/484/458 457/483/457 472/506/472 473/508/473
f 451/486/451 450/485/450 465/507/465 466/509/466
f 444/487/444 82/10/82 459/510/459
f 308/12/308 458/484/458 473/508/473
f 452/489/452 451/488/451 466/511/466 467/512/467
f 445/490/445 444/487/444 459/510/459 460/513/460
f 453/491/453 452/489/452 467/512/467 468/514/468
f 446/492/446 445/490/445 460/513/460 461/499/461
f 454/493/454 453/491/453 468/514/468 469/501/469
f 466/509/466 465/507/465 3/6/3 4/5/4
f 459/510/459 82/10/82 474/9/474
f 308/12/308 473/508/473 482/1/482
f 467/512/467 466/511/466 4/14/4 5/13/5
f 460/513/460 459/510/459 474/9/474 475/17/475
f 468/514/468 467/512/467 5/13/5 478/19/478
f 461/499/461 460/513/460 475/17/475 1/21/1
f 469/501/469 468/514/468 478/19/478 6/23/6
f 462/500/462 461/499/461 1/21/1 476/25/476
f 470/502/470 469/501/469 6/23/6 479/27/479
f 463/503/463 462/500/462 476/25/476 2/29/2
f 471/504/471 470/502/470 479/27/479 480/31/480
f 464/505/464 463/503/463 2/29/2 477/33/477
f 472/506/472 471/504/471 480/31/480 481/2/481
f 465/507/465 464/505/464 477/33/477 3/6/3
f 473/508/473 472/506/472 481/2/481 482/1/482
