# Blender 4.2.1 LTS
# www.blender.org
mtllib Mushroom_01.mtl
o Stem
v -0.000000 -2.431133 -1.370948
v 0.000000 3.796312 -0.519594
v 0.269682 -2.431133 -1.344605
v 0.108192 3.796312 -0.509610
v 0.529000 -2.431133 -1.266591
v 0.212226 3.796312 -0.480042
v 0.767990 -2.431133 -1.139902
v 0.308104 3.796312 -0.432026
v 0.977465 -2.431133 -0.969407
v 0.392142 3.796312 -0.367408
v 1.149377 -2.431133 -0.761658
v 0.461110 3.796312 -0.288671
v 1.277120 -2.431133 -0.524639
v 0.512358 3.796312 -0.198840
v 1.355783 -2.431133 -0.267459
v 0.543917 3.796312 -0.101368
v 1.382344 -2.431133 0.000000
v 0.554573 3.796312 -0.000000
v 1.355783 -2.431133 0.267459
v 0.543917 3.796312 0.101368
v 1.277120 -2.431133 0.524639
v 0.512358 3.796312 0.198840
v 1.149377 -2.431133 0.761658
v 0.461110 3.796312 0.288671
v 0.977465 -2.431133 0.969407
v 0.392142 3.796312 0.367408
v 0.767990 -2.431133 1.139902
v 0.308104 3.796312 0.432026
v 0.529000 -2.431133 1.266591
v 0.212226 3.796312 0.480042
v 0.269682 -2.431133 1.344605
v 0.108192 3.796312 0.509610
v -0.000000 -2.431133 1.370948
v 0.000000 3.796312 0.519594
v -0.269682 -2.431133 1.344605
v -0.108192 3.796312 0.509610
v -0.529000 -2.431133 1.266591
v -0.212226 3.796312 0.480042
v -0.767990 -2.431133 1.139902
v -0.308104 3.796312 0.432026
v -0.977465 -2.431133 0.969407
v -0.392142 3.796312 0.367408
v -1.149377 -2.431133 0.761658
v -0.461110 3.796312 0.288671
v -1.277120 -2.431133 0.524639
v -0.512358 3.796312 0.198840
v -1.355783 -2.431133 0.267459
v -0.543917 3.796312 0.101368
v -1.382344 -2.431133 0.000000
v -0.554573 3.796312 -0.000000
v -1.355783 -2.431133 -0.267459
v -0.543917 3.796312 -0.101368
v -1.277120 -2.431133 -0.524639
v -0.512358 3.796312 -0.198840
v -1.149377 -2.431133 -0.761658
v -0.461110 3.796312 -0.288671
v -0.977465 -2.431133 -0.969407
v -0.392142 3.796312 -0.367408
v -0.767990 -2.431133 -1.139902
v -0.308104 3.796312 -0.432026
v -0.529000 -2.431133 -1.266591
v -0.212226 3.796312 -0.480042
v -0.269682 -2.431133 -1.344605
v -0.108192 3.796312 -0.509610
v 0.134841 -2.431133 -1.357777
v 0.054096 3.796312 -0.514602
v -0.000000 0.682589 -1.007292
v 0.211578 0.682589 -0.987937
v 0.399341 -2.431133 -1.305598
v 0.160209 3.796312 -0.494826
v 0.415025 0.682589 -0.930617
v 0.648495 -2.431133 -1.203246
v 0.260165 3.796312 -0.456034
v 0.602523 0.682589 -0.837533
v 0.872727 -2.431133 -1.054654
v 0.350123 3.796312 -0.399717
v 0.766866 0.682589 -0.712263
v 1.063421 -2.431133 -0.865532
v 0.426626 3.796312 -0.328040
v 0.901739 0.682589 -0.559622
v 1.213248 -2.431133 -0.643148
v 0.486734 3.796312 -0.243755
v 1.001959 0.682589 -0.385474
v 1.316451 -2.431133 -0.396049
v 0.528137 3.796312 -0.150104
v 1.063674 0.682589 -0.196513
v 1.369064 -2.431133 -0.133729
v 0.549245 3.796312 -0.050684
v 1.084513 0.682589 -0.000000
v 1.369064 -2.431133 0.133729
v 0.549245 3.796312 0.050684
v 1.063674 0.682589 0.196513
v 1.316451 -2.431133 0.396049
v 0.528137 3.796312 0.150104
v 1.001959 0.682589 0.385474
v 1.213248 -2.431133 0.643148
v 0.486734 3.796312 0.243755
v 0.901739 0.682589 0.559622
v 1.063421 -2.431133 0.865532
v 0.426626 3.796312 0.328039
v 0.766866 0.682589 0.712263
v 0.872727 -2.431133 1.054654
v 0.350123 3.796312 0.399717
v 0.602523 0.682589 0.837533
v 0.648495 -2.431133 1.203246
v 0.260165 3.796312 0.456034
v 0.415025 0.682589 0.930617
v 0.399341 -2.431133 1.305598
v 0.160209 3.796312 0.494826
v 0.211578 0.682589 0.987937
v 0.134841 -2.431133 1.357777
v 0.054096 3.796312 0.514602
v -0.000000 0.682589 1.007292
v -0.134841 -2.431133 1.357777
v -0.054096 3.796312 0.514602
v -0.211578 0.682589 0.987937
v -0.399341 -2.431133 1.305598
v -0.160209 3.796312 0.494826
v -0.415025 0.682589 0.930617
v -0.648495 -2.431133 1.203246
v -0.260165 3.796312 0.456034
v -0.602523 0.682589 0.837533
v -0.872727 -2.431133 1.054654
v -0.350123 3.796312 0.399717
v -0.766866 0.682589 0.712263
v -1.063421 -2.431133 0.865532
v -0.426626 3.796312 0.328039
v -0.901739 0.682589 0.559622
v -1.213248 -2.431133 0.643148
v -0.486734 3.796312 0.243755
v -1.001959 0.682589 0.385474
v -1.316451 -2.431133 0.396049
v -0.528137 3.796312 0.150104
v -1.063674 0.682589 0.196513
v -1.369064 -2.431133 0.133729
v -0.549245 3.796312 0.050684
v -1.084513 0.682589 -0.000000
v -1.369064 -2.431133 -0.133729
v -0.549245 3.796312 -0.050684
v -1.063674 0.682589 -0.196513
v -1.316451 -2.431133 -0.396049
v -0.528137 3.796312 -0.150104
v -1.001959 0.682589 -0.385474
v -1.213248 -2.431133 -0.643148
v -0.486734 3.796312 -0.243755
v -0.901739 0.682589 -0.559622
v -1.063421 -2.431133 -0.865532
v -0.426626 3.796312 -0.328040
v -0.766866 0.682589 -0.712263
v -0.872727 -2.431133 -1.054654
v -0.350123 3.796312 -0.399717
v -0.602523 0.682589 -0.837533
v -0.648495 -2.431133 -1.203246
v -0.260165 3.796312 -0.456034
v -0.415025 0.682589 -0.930617
v -0.399341 -2.431133 -1.305598
v -0.160209 3.796312 -0.494826
v -0.211578 0.682589 -0.987937
v -0.134841 -2.431133 -1.357777
v -0.054096 3.796312 -0.514602
v -0.105789 0.682589 -0.997615
v -0.313302 0.682589 -0.959277
v -0.508774 0.682589 -0.884075
v -0.684695 0.682589 -0.774898
v -0.834303 0.682589 -0.635942
v -0.951849 0.682589 -0.472548
v -1.032817 0.682589 -0.290994
v -1.074093 0.682589 -0.098256
v -1.074093 0.682589 0.098256
v -1.032817 0.682589 0.290994
v -0.951849 0.682589 0.472548
v -0.834303 0.682589 0.635942
v -0.684695 0.682589 0.774898
v -0.508774 0.682589 0.884075
v -0.313302 0.682589 0.959277
v -0.105789 0.682589 0.997615
v 0.105789 0.682589 0.997615
v 0.313302 0.682589 0.959277
v 0.508774 0.682589 0.884075
v 0.684695 0.682589 0.774898
v 0.834303 0.682589 0.635942
v 0.951849 0.682589 0.472548
v 1.032817 0.682589 0.290994
v 1.074093 0.682589 0.098256
v 1.074093 0.682589 -0.098256
v 1.032817 0.682589 -0.290994
v 0.951849 0.682589 -0.472548
v 0.834303 0.682589 -0.635942
v 0.684695 0.682589 -0.774898
v 0.508774 0.682589 -0.884075
v 0.313302 0.682589 -0.959277
v 0.105789 0.682589 -0.997615
vn -0.0000 -0.2075 -0.9782
vn -0.0000 0.4369 -0.8995
vn 0.1837 -0.2079 -0.9607
vn 0.1634 0.4373 -0.8844
vn 0.3618 -0.2092 -0.9085
vn 0.3227 0.4384 -0.8389
vn 0.5283 -0.2111 -0.8224
vn 0.4735 0.4400 -0.7630
vn 0.6771 -0.2135 -0.7043
vn 0.6104 0.4420 -0.6573
vn 0.8018 -0.2159 -0.5573
vn 0.7273 0.4441 -0.5233
vn 0.8963 -0.2180 -0.3862
vn 0.8175 0.4459 -0.3646
vn 0.9554 -0.2195 -0.1977
vn 0.8746 0.4472 -0.1873
vn 0.9755 -0.2200 -0.0000
vn 0.8942 0.4476 -0.0000
vn 0.9554 -0.2195 0.1977
vn 0.8746 0.4472 0.1873
vn 0.8963 -0.2180 0.3862
vn 0.8175 0.4459 0.3646
vn 0.8018 -0.2159 0.5573
vn 0.7273 0.4441 0.5233
vn 0.6771 -0.2135 0.7043
vn 0.6104 0.4420 0.6573
vn 0.5283 -0.2111 0.8224
vn 0.4735 0.4400 0.7630
vn 0.3618 -0.2092 0.9085
vn 0.3227 0.4384 0.8389
vn 0.1837 -0.2079 0.9607
vn 0.1634 0.4373 0.8844
vn -0.0000 -0.2075 0.9782
vn -0.0000 0.4369 0.8995
vn -0.1837 -0.2079 0.9607
vn -0.1634 0.4373 0.8844
vn -0.3618 -0.2092 0.9085
vn -0.3227 0.4384 0.8389
vn -0.5283 -0.2111 0.8224
vn -0.4735 0.4400 0.7630
vn -0.6771 -0.2135 0.7043
vn -0.6104 0.4420 0.6573
vn -0.8018 -0.2159 0.5573
vn -0.7273 0.4441 0.5233
vn -0.8963 -0.2180 0.3862
vn -0.8175 0.4459 0.3646
vn -0.9554 -0.2195 0.1977
vn -0.8746 0.4472 0.1873
vn -0.9755 -0.2200 -0.0000
vn -0.8942 0.4476 -0.0000
vn -0.9554 -0.2195 -0.1977
vn -0.8746 0.4472 -0.1873
vn -0.8963 -0.2180 -0.3862
vn -0.8175 0.4459 -0.3646
vn -0.8018 -0.2159 -0.5573
vn -0.7273 0.4441 -0.5233
vn -0.6771 -0.2135 -0.7043
vn -0.6104 0.4420 -0.6573
vn -0.5283 -0.2111 -0.8224
vn -0.4735 0.4400 -0.7630
vn -0.3618 -0.2092 -0.9085
vn -0.3227 0.4384 -0.8389
vn -0.1837 -0.2079 -0.9607
vn -0.1634 0.4373 -0.8844
vn 0.0922 -0.2199 -0.9711
vn 0.0813 0.4565 -0.8860
vn -0.0000 0.1345 -0.9909
vn 0.1845 0.1343 -0.9736
vn 0.2738 -0.2209 -0.9361
vn 0.2418 0.4574 -0.8558
vn 0.3638 0.1338 -0.9218
vn 0.4466 -0.2226 -0.8666
vn 0.3960 0.4591 -0.7952
vn 0.5322 0.1330 -0.8361
vn 0.6046 -0.2249 -0.7641
vn 0.5388 0.4615 -0.7048
vn 0.6838 0.1320 -0.7177
vn 0.7415 -0.2276 -0.6312
vn 0.6646 0.4642 -0.5855
vn 0.8117 0.1310 -0.5692
vn 0.8511 -0.2300 -0.4719
vn 0.7671 0.4667 -0.4402
vn 0.9093 0.1302 -0.3953
vn 0.9279 -0.2319 -0.2920
vn 0.8399 0.4687 -0.2735
vn 0.9706 0.1296 -0.2026
vn 0.9674 -0.2330 -0.0988
vn 0.8779 0.4698 -0.0928
vn 0.9916 0.1294 -0.0000
vn 0.9674 -0.2330 0.0988
vn 0.8779 0.4698 0.0928
vn 0.9706 0.1296 0.2026
vn 0.9279 -0.2320 0.2920
vn 0.8399 0.4687 0.2735
vn 0.9093 0.1302 0.3953
vn 0.8511 -0.2300 0.4719
vn 0.7671 0.4667 0.4402
vn 0.8117 0.1310 0.5692
vn 0.7415 -0.2276 0.6312
vn 0.6646 0.4642 0.5855
vn 0.6838 0.1320 0.7177
vn 0.6046 -0.2249 0.7641
vn 0.5388 0.4615 0.7048
vn 0.5322 0.1330 0.8361
vn 0.4466 -0.2226 0.8666
vn 0.3960 0.4591 0.7952
vn 0.3638 0.1338 0.9218
vn 0.2738 -0.2209 0.9361
vn 0.2418 0.4574 0.8558
vn 0.1845 0.1343 0.9736
vn 0.0922 -0.2199 0.9711
vn 0.0813 0.4565 0.8860
vn -0.0000 0.1345 0.9909
vn -0.0922 -0.2199 0.9712
vn -0.0813 0.4565 0.8860
vn -0.1845 0.1343 0.9736
vn -0.2738 -0.2208 0.9361
vn -0.2418 0.4574 0.8558
vn -0.3638 0.1338 0.9218
vn -0.4466 -0.2226 0.8666
vn -0.3960 0.4591 0.7952
vn -0.5322 0.1330 0.8361
vn -0.6046 -0.2249 0.7641
vn -0.5388 0.4615 0.7048
vn -0.6838 0.1320 0.7177
vn -0.7415 -0.2276 0.6312
vn -0.6646 0.4642 0.5855
vn -0.8117 0.1310 0.5692
vn -0.8511 -0.2300 0.4719
vn -0.7671 0.4667 0.4402
vn -0.9093 0.1302 0.3953
vn -0.9279 -0.2320 0.2920
vn -0.8399 0.4687 0.2735
vn -0.9706 0.1296 0.2026
vn -0.9674 -0.2330 0.0988
vn -0.8779 0.4698 0.0928
vn -0.9916 0.1294 -0.0000
vn -0.9674 -0.2330 -0.0988
vn -0.8779 0.4698 -0.0928
vn -0.9706 0.1296 -0.2026
vn -0.9279 -0.2319 -0.2920
vn -0.8399 0.4687 -0.2735
vn -0.9093 0.1302 -0.3953
vn -0.8511 -0.2300 -0.4719
vn -0.7671 0.4667 -0.4402
vn -0.8117 0.1310 -0.5692
vn -0.7415 -0.2276 -0.6312
vn -0.6646 0.4642 -0.5855
vn -0.6838 0.1320 -0.7177
vn -0.6046 -0.2249 -0.7641
vn -0.5388 0.4615 -0.7048
vn -0.5322 0.1330 -0.8361
vn -0.4466 -0.2226 -0.8666
vn -0.3960 0.4591 -0.7952
vn -0.3638 0.1338 -0.9218
vn -0.2738 -0.2208 -0.9361
vn -0.2418 0.4574 -0.8558
vn -0.1845 0.1343 -0.9736
vn -0.0922 -0.2199 -0.9712
vn -0.0813 0.4565 -0.8860
vn -0.0921 0.1343 -0.9866
vn -0.2739 0.1340 -0.9524
vn -0.4480 0.1333 -0.8840
vn -0.6087 0.1325 -0.7822
vn -0.7495 0.1316 -0.6487
vn -0.8636 0.1307 -0.4869
vn -0.9444 0.1301 -0.3021
vn -0.9862 0.1297 -0.1024
vn -0.9862 0.1297 0.1024
vn -0.9444 0.1301 0.3021
vn -0.8636 0.1307 0.4869
vn -0.7495 0.1316 0.6487
vn -0.6087 0.1325 0.7822
vn -0.4480 0.1333 0.8840
vn -0.2739 0.1340 0.9524
vn -0.0921 0.1343 0.9866
vn 0.0921 0.1343 0.9866
vn 0.2739 0.1340 0.9524
vn 0.4480 0.1333 0.8840
vn 0.6087 0.1325 0.7822
vn 0.7495 0.1316 0.6487
vn 0.8636 0.1307 0.4869
vn 0.9444 0.1301 0.3021
vn 0.9862 0.1297 0.1024
vn 0.9862 0.1297 -0.1024
vn 0.9444 0.1301 -0.3021
vn 0.8636 0.1307 -0.4869
vn 0.7495 0.1316 -0.6487
vn 0.6087 0.1325 -0.7822
vn 0.4480 0.1333 -0.8840
vn 0.2739 0.1340 -0.9524
vn 0.0921 0.1343 -0.9866
vt 0.368833 0.206334
vt 0.371936 0.389805
vt 0.368751 0.389729
vt 0.362430 0.206330
vt 0.356311 0.206319
vt 0.365697 0.389497
vt 0.362651 0.389266
vt 0.350221 0.206308
vt 0.344683 0.206290
vt 0.359860 0.388890
vt 0.357081 0.388515
vt 0.339188 0.206273
vt 0.334479 0.206249
vt 0.354671 0.388012
vt 0.352273 0.387511
vt 0.329819 0.206226
vt 0.326129 0.206198
vt 0.350339 0.386904
vt 0.348417 0.386301
vt 0.322486 0.206170
vt 0.319942 0.206139
vt 0.347030 0.385616
vt 0.345653 0.384936
vt 0.317434 0.206108
vt 0.316097 0.206075
vt 0.344858 0.384204
vt 0.344069 0.383478
vt 0.314780 0.206042
vt 0.314650 0.206009
vt 0.343883 0.382728
vt 0.343699 0.381984
vt 0.314523 0.205976
vt 0.685278 0.204161
vt 0.655912 0.379500
vt 0.655742 0.380305
vt 0.685178 0.204319
vt 0.683892 0.204474
vt 0.654972 0.381085
vt 0.654197 0.381871
vt 0.682586 0.204631
vt 0.680111 0.204779
vt 0.652843 0.382602
vt 0.651479 0.383338
vt 0.677599 0.204928
vt 0.673988 0.205061
vt 0.649583 0.383988
vt 0.647675 0.384642
vt 0.670330 0.205195
vt 0.665700 0.205307
vt 0.645305 0.385182
vt 0.642922 0.385725
vt 0.661020 0.205420
vt 0.655551 0.205504
vt 0.640170 0.386131
vt 0.637408 0.386539
vt 0.650038 0.205590
vt 0.643967 0.205643
vt 0.634388 0.386791
vt 0.631360 0.387044
vt 0.637866 0.205696
vt 0.631476 0.205714
vt 0.628200 0.387130
vt 0.625037 0.387217
vt 0.625075 0.205733
vt 0.618672 0.205715
vt 0.621874 0.387133
vt 0.618713 0.387049
vt 0.612280 0.205697
vt 0.606174 0.205644
vt 0.615683 0.386798
vt 0.612660 0.386548
vt 0.600098 0.205592
vt 0.594576 0.205507
vt 0.609894 0.386142
vt 0.607138 0.385738
vt 0.589098 0.205422
vt 0.584407 0.205310
vt 0.604750 0.385197
vt 0.602375 0.384658
vt 0.579766 0.205198
vt 0.576095 0.205064
vt 0.600461 0.384005
vt 0.598559 0.383356
vt 0.572471 0.204932
vt 0.569946 0.204783
vt 0.597189 0.382621
vt 0.595828 0.381892
vt 0.567456 0.204636
vt 0.566137 0.204478
vt 0.595046 0.381106
vt 0.594269 0.380326
vt 0.564837 0.204324
vt 0.564723 0.204165
vt 0.594092 0.379521
vt 0.593916 0.378723
vt 0.564611 0.204009
vt 0.435352 0.206006
vt 0.406129 0.382662
vt 0.405967 0.383413
vt 0.435268 0.206039
vt 0.433996 0.206072
vt 0.405201 0.384141
vt 0.404429 0.384874
vt 0.432705 0.206105
vt 0.430243 0.206136
vt 0.403074 0.385556
vt 0.401709 0.386244
vt 0.427744 0.206167
vt 0.424143 0.206195
vt 0.399807 0.386851
vt 0.397893 0.387462
vt 0.420495 0.206224
vt 0.415872 0.206247
vt 0.395512 0.387968
vt 0.393119 0.388477
vt 0.411199 0.206271
vt 0.405733 0.206289
vt 0.390352 0.388857
vt 0.387574 0.389239
vt 0.400223 0.206307
vt 0.106969 0.218275
vt 0.111301 0.217917
vt 0.115634 0.217559
vt 0.119959 0.218000
vt 0.124283 0.218442
vt 0.128433 0.219665
vt 0.132583 0.220889
vt 0.136398 0.222848
vt 0.140212 0.224807
vt 0.143544 0.227424
vt 0.146875 0.230042
vt 0.149597 0.233217
vt 0.152318 0.236391
vt 0.154324 0.240000
vt 0.156330 0.243608
vt 0.157545 0.247512
vt 0.158759 0.251415
vt 0.159137 0.255463
vt 0.159514 0.259510
vt 0.159040 0.263547
vt 0.158567 0.267582
vt 0.157262 0.271452
vt 0.155957 0.275321
vt 0.153871 0.278876
vt 0.151786 0.282430
vt 0.149001 0.285535
vt 0.146216 0.288639
vt 0.142837 0.291175
vt 0.139460 0.293711
vt 0.135619 0.295582
vt 0.131778 0.297452
vt 0.127621 0.298587
vt 0.123465 0.299721
vt 0.119151 0.300076
vt 0.114837 0.300431
vt 0.110531 0.299994
vt 0.106224 0.299556
vt 0.102090 0.298342
vt 0.097956 0.297128
vt 0.094152 0.295185
vt 0.090347 0.293241
vt 0.087019 0.290641
vt 0.083690 0.288040
vt 0.080965 0.284884
vt 0.078239 0.281726
vt 0.076223 0.278132
vt 0.074205 0.274537
vt 0.072975 0.270644
vt 0.071745 0.266749
vt 0.071349 0.262706
vt 0.070953 0.258660
vt 0.071408 0.254621
vt 0.071863 0.250581
vt 0.073153 0.246702
vt 0.074442 0.242822
vt 0.076517 0.239253
vt 0.078593 0.235683
vt 0.081374 0.232561
vt 0.084157 0.229439
vt 0.087538 0.226886
vt 0.090921 0.224333
vt 0.094772 0.222448
vt 0.098624 0.220563
vt 0.102796 0.219419
vt 0.394151 0.206318
vt 0.384536 0.389477
vt 0.381489 0.389715
vt 0.388048 0.206329
vt 0.381653 0.206333
vt 0.378308 0.389798
vt 0.375123 0.389881
vt 0.375246 0.206337
vt 0.114558 0.546692
vt 0.105264 0.545718
vt 0.095969 0.544743
vt 0.087044 0.541991
vt 0.078118 0.539238
vt 0.069905 0.534813
vt 0.061691 0.530387
vt 0.054504 0.524458
vt 0.047317 0.518528
vt 0.041434 0.511323
vt 0.035549 0.504117
vt 0.031195 0.495911
vt 0.026840 0.487704
vt 0.024182 0.478813
vt 0.021524 0.469920
vt 0.020667 0.460684
vt 0.019809 0.451447
vt 0.020784 0.442221
vt 0.021760 0.432994
vt 0.024533 0.424134
vt 0.027305 0.415272
vt 0.031769 0.407117
vt 0.036233 0.398961
vt 0.042216 0.391827
vt 0.048200 0.384691
vt 0.055474 0.378852
vt 0.062748 0.373012
vt 0.071032 0.368692
vt 0.079316 0.364372
vt 0.088292 0.361740
vt 0.097268 0.359107
vt 0.106590 0.358263
vt 0.115912 0.357419
vt 0.125221 0.358397
vt 0.134529 0.359374
vt 0.143467 0.362135
vt 0.152404 0.364895
vt 0.160626 0.369333
vt 0.168847 0.373771
vt 0.176037 0.379714
vt 0.183226 0.385657
vt 0.189107 0.392878
vt 0.194988 0.400097
vt 0.199335 0.408316
vt 0.203681 0.416533
vt 0.206327 0.425434
vt 0.208972 0.434333
vt 0.209816 0.443573
vt 0.210659 0.452812
vt 0.209669 0.462035
vt 0.208679 0.471258
vt 0.205895 0.480112
vt 0.203110 0.488964
vt 0.198638 0.497108
vt 0.194167 0.505250
vt 0.188181 0.512372
vt 0.182195 0.519492
vt 0.174924 0.525318
vt 0.167653 0.531144
vt 0.159377 0.535452
vt 0.151101 0.539760
vt 0.142137 0.542384
vt 0.133174 0.545009
vt 0.123866 0.545851
vt 0.383658 0.014043
vt 0.375340 0.013814
vt 0.391955 0.014271
vt 0.399849 0.014926
vt 0.407689 0.015577
vt 0.414763 0.016617
vt 0.421759 0.017646
vt 0.427685 0.019010
vt 0.433523 0.020353
vt 0.438061 0.021962
vt 0.442519 0.023541
vt 0.445527 0.025308
vt 0.448476 0.027040
vt 0.449909 0.028880
vt 0.451312 0.030681
vt 0.451204 0.032514
vt 0.451098 0.034308
vt 0.435435 0.205973
vt 0.406290 0.381918
vt 0.548457 0.029925
vt 0.548528 0.031569
vt 0.548384 0.028245
vt 0.549830 0.026594
vt 0.551307 0.024909
vt 0.554307 0.023324
vt 0.557367 0.021708
vt 0.561882 0.020264
vt 0.566477 0.018795
vt 0.572375 0.017570
vt 0.578361 0.016326
vt 0.585417 0.015391
vt 0.592551 0.014445
vt 0.600447 0.013859
vt 0.608396 0.013268
vt 0.616741 0.013069
vt 0.625104 0.012870
vt 0.633466 0.013075
vt 0.641807 0.013278
vt 0.649749 0.013874
vt 0.657636 0.014465
vt 0.664758 0.015415
vt 0.671801 0.016354
vt 0.677771 0.017601
vt 0.683654 0.018829
vt 0.688231 0.020301
vt 0.692727 0.021746
vt 0.695767 0.023364
vt 0.698748 0.024951
vt 0.700205 0.026636
vt 0.701632 0.028287
vt 0.701541 0.029967
vt 0.701451 0.031610
vt 0.685376 0.204005
vt 0.656080 0.378702
vt 0.298789 0.032365
vt 0.298835 0.034160
vt 0.298742 0.030530
vt 0.300207 0.028730
vt 0.301704 0.026892
vt 0.304716 0.025164
vt 0.307788 0.023402
vt 0.312305 0.021831
vt 0.316902 0.020231
vt 0.322793 0.018899
vt 0.328770 0.017547
vt 0.335807 0.016533
vt 0.342922 0.015507
vt 0.350789 0.014873
vt 0.358708 0.014235
vt 0.367015 0.014025
s 1
usemtl Material.001
f 192/1/192 66/2/66 4/3/4 68/4/68
f 191/5/191 70/6/70 6/7/6 71/8/71
f 190/9/190 73/10/73 8/11/8 74/12/74
f 189/13/189 76/14/76 10/15/10 77/16/77
f 188/17/188 79/18/79 12/19/12 80/20/80
f 187/21/187 82/22/82 14/23/14 83/24/83
f 186/25/186 85/26/85 16/27/16 86/28/86
f 185/29/185 88/30/88 18/31/18 89/32/89
f 184/33/184 91/34/91 20/35/20 92/36/92
f 183/37/183 94/38/94 22/39/22 95/40/95
f 182/41/182 97/42/97 24/43/24 98/44/98
f 181/45/181 100/46/100 26/47/26 101/48/101
f 180/49/180 103/50/103 28/51/28 104/52/104
f 179/53/179 106/54/106 30/55/30 107/56/107
f 178/57/178 109/58/109 32/59/32 110/60/110
f 177/61/177 112/62/112 34/63/34 113/64/113
f 176/65/176 115/66/115 36/67/36 116/68/116
f 175/69/175 118/70/118 38/71/38 119/72/119
f 174/73/174 121/74/121 40/75/40 122/76/122
f 173/77/173 124/78/124 42/79/42 125/80/125
f 172/81/172 127/82/127 44/83/44 128/84/128
f 171/85/171 130/86/130 46/87/46 131/88/131
f 170/89/170 133/90/133 48/91/48 134/92/134
f 169/93/169 136/94/136 50/95/50 137/96/137
f 168/97/168 139/98/139 52/99/52 140/100/140
f 167/101/167 142/102/142 54/103/54 143/104/143
f 166/105/166 145/106/145 56/107/56 146/108/146
f 165/109/165 148/110/148 58/111/58 149/112/149
f 164/113/164 151/114/151 60/115/60 152/116/152
f 163/117/163 154/118/154 62/119/62 155/120/155
f 4/121/4 66/122/66 2/123/2 160/124/160 64/125/64 157/126/157 62/127/62 154/128/154 60/129/60 151/130/151 58/131/58 148/132/148 56/133/56 145/134/145 54/135/54 142/136/142 52/137/52 139/138/139 50/139/50 136/140/136 48/141/48 133/142/133 46/143/46 130/144/130 44/145/44 127/146/127 42/147/42 124/148/124 40/149/40 121/150/121 38/151/38 118/152/118 36/153/36 115/154/115 34/155/34 112/156/112 32/157/32 109/158/109 30/159/30 106/160/106 28/161/28 103/162/103 26/163/26 100/164/100 24/165/24 97/166/97 22/167/22 94/168/94 20/169/20 91/170/91 18/171/18 88/172/88 16/173/16 85/174/85 14/175/14 82/176/82 12/177/12 79/178/79 10/179/10 76/180/76 8/181/8 73/182/73 6/183/6 70/184/70
f 162/185/162 157/186/157 64/187/64 158/188/158
f 161/189/161 160/190/160 2/191/2 67/192/67
f 1/193/1 65/194/65 3/195/3 69/196/69 5/197/5 72/198/72 7/199/7 75/200/75 9/201/9 78/202/78 11/203/11 81/204/81 13/205/13 84/206/84 15/207/15 87/208/87 17/209/17 90/210/90 19/211/19 93/212/93 21/213/21 96/214/96 23/215/23 99/216/99 25/217/25 102/218/102 27/219/27 105/220/105 29/221/29 108/222/108 31/223/31 111/224/111 33/225/33 114/226/114 35/227/35 117/228/117 37/229/37 120/230/120 39/231/39 123/232/123 41/233/41 126/234/126 43/235/43 129/236/129 45/237/45 132/238/132 47/239/47 135/240/135 49/241/49 138/242/138 51/243/51 141/244/141 53/245/53 144/246/144 55/247/55 147/248/147 57/249/57 150/250/150 59/251/59 153/252/153 61/253/61 156/254/156 63/255/63 159/256/159
f 159/257/159 161/189/161 67/192/67 1/258/1
f 63/259/63 158/188/158 161/189/161 159/257/159
f 158/188/158 64/187/64 160/190/160 161/189/161
f 156/260/156 162/185/162 158/188/158 63/259/63
f 61/261/61 155/120/155 162/185/162 156/260/156
f 155/120/155 62/119/62 157/186/157 162/185/162
f 153/262/153 163/117/163 155/120/155 61/261/61
f 59/263/59 152/116/152 163/117/163 153/262/153
f 152/116/152 60/115/60 154/118/154 163/117/163
f 150/264/150 164/113/164 152/116/152 59/263/59
f 57/265/57 149/112/149 164/113/164 150/264/150
f 149/112/149 58/111/58 151/114/151 164/113/164
f 147/266/147 165/109/165 149/112/149 57/265/57
f 55/267/55 146/108/146 165/109/165 147/266/147
f 146/108/146 56/107/56 148/110/148 165/109/165
f 144/268/144 166/105/166 146/108/146 55/267/55
f 53/269/53 143/104/143 166/105/166 144/268/144
f 143/104/143 54/103/54 145/106/145 166/105/166
f 141/270/141 167/101/167 143/104/143 53/269/53
f 51/271/51 140/100/140 167/101/167 141/270/141
f 140/100/140 52/99/52 142/102/142 167/101/167
f 138/272/138 168/97/168 140/100/140 51/271/51
f 49/273/49 137/274/137 168/97/168 138/272/138
f 137/274/137 50/275/50 139/98/139 168/97/168
f 135/276/135 169/93/169 137/96/137 49/277/49
f 47/278/47 134/92/134 169/93/169 135/276/135
f 134/92/134 48/91/48 136/94/136 169/93/169
f 132/279/132 170/89/170 134/92/134 47/278/47
f 45/280/45 131/88/131 170/89/170 132/279/132
f 131/88/131 46/87/46 133/90/133 170/89/170
f 129/281/129 171/85/171 131/88/131 45/280/45
f 43/282/43 128/84/128 171/85/171 129/281/129
f 128/84/128 44/83/44 130/86/130 171/85/171
f 126/283/126 172/81/172 128/84/128 43/282/43
f 41/284/41 125/80/125 172/81/172 126/283/126
f 125/80/125 42/79/42 127/82/127 172/81/172
f 123/285/123 173/77/173 125/80/125 41/284/41
f 39/286/39 122/76/122 173/77/173 123/285/123
f 122/76/122 40/75/40 124/78/124 173/77/173
f 120/287/120 174/73/174 122/76/122 39/286/39
f 37/288/37 119/72/119 174/73/174 120/287/120
f 119/72/119 38/71/38 121/74/121 174/73/174
f 117/289/117 175/69/175 119/72/119 37/288/37
f 35/290/35 116/68/116 175/69/175 117/289/117
f 116/68/116 36/67/36 118/70/118 175/69/175
f 114/291/114 176/65/176 116/68/116 35/290/35
f 33/292/33 113/64/113 176/65/176 114/291/114
f 113/64/113 34/63/34 115/66/115 176/65/176
f 111/293/111 177/61/177 113/64/113 33/292/33
f 31/294/31 110/60/110 177/61/177 111/293/111
f 110/60/110 32/59/32 112/62/112 177/61/177
f 108/295/108 178/57/178 110/60/110 31/294/31
f 29/296/29 107/56/107 178/57/178 108/295/108
f 107/56/107 30/55/30 109/58/109 178/57/178
f 105/297/105 179/53/179 107/56/107 29/296/29
f 27/298/27 104/52/104 179/53/179 105/297/105
f 104/52/104 28/51/28 106/54/106 179/53/179
f 102/299/102 180/49/180 104/52/104 27/298/27
f 25/300/25 101/48/101 180/49/180 102/299/102
f 101/48/101 26/47/26 103/50/103 180/49/180
f 99/301/99 181/45/181 101/48/101 25/300/25
f 23/302/23 98/44/98 181/45/181 99/301/99
f 98/44/98 24/43/24 100/46/100 181/45/181
f 96/303/96 182/41/182 98/44/98 23/302/23
f 21/304/21 95/40/95 182/41/182 96/303/96
f 95/40/95 22/39/22 97/42/97 182/41/182
f 93/305/93 183/37/183 95/40/95 21/304/21
f 19/306/19 92/36/92 183/37/183 93/305/93
f 92/36/92 20/35/20 94/38/94 183/37/183
f 90/307/90 184/33/184 92/36/92 19/306/19
f 17/308/17 89/309/89 184/33/184 90/307/90
f 89/309/89 18/310/18 91/34/91 184/33/184
f 87/311/87 185/29/185 89/32/89 17/312/17
f 15/313/15 86/28/86 185/29/185 87/311/87
f 86/28/86 16/27/16 88/30/88 185/29/185
f 84/314/84 186/25/186 86/28/86 15/313/15
f 13/315/13 83/24/83 186/25/186 84/314/84
f 83/24/83 14/23/14 85/26/85 186/25/186
f 81/316/81 187/21/187 83/24/83 13/315/13
f 11/317/11 80/20/80 187/21/187 81/316/81
f 80/20/80 12/19/12 82/22/82 187/21/187
f 78/318/78 188/17/188 80/20/80 11/317/11
f 9/319/9 77/16/77 188/17/188 78/318/78
f 77/16/77 10/15/10 79/18/79 188/17/188
f 75/320/75 189/13/189 77/16/77 9/319/9
f 7/321/7 74/12/74 189/13/189 75/320/75
f 74/12/74 8/11/8 76/14/76 189/13/189
f 72/322/72 190/9/190 74/12/74 7/321/7
f 5/323/5 71/8/71 190/9/190 72/322/72
f 71/8/71 6/7/6 73/10/73 190/9/190
f 69/324/69 191/5/191 71/8/71 5/323/5
f 3/325/3 68/4/68 191/5/191 69/324/69
f 68/4/68 4/3/4 70/6/70 191/5/191
f 65/326/65 192/1/192 68/4/68 3/325/3
f 1/258/1 67/192/67 192/1/192 65/326/65
f 67/192/67 2/191/2 66/2/66 192/1/192
o Top
v 0.000000 5.284751 -1.551763
v 0.000000 5.008852 -2.322377
v 0.000000 4.648372 -2.739430
v 0.000000 4.453282 -2.793099
v 0.000000 4.258192 -2.739430
v 0.000000 3.897712 -2.322377
v 0.118272 5.434067 -0.534436
v 0.231998 5.377162 -1.048335
v 0.336809 5.284751 -1.521946
v 0.428677 5.160388 -1.937070
v 0.504071 5.008852 -2.277753
v 0.560094 4.835965 -2.530904
v 0.594592 4.648372 -2.686793
v 0.606241 4.453282 -2.739430
v 0.594592 4.258192 -2.686793
v 0.560094 4.070599 -2.530904
v 0.504071 3.897712 -2.277753
v 0.428677 3.746175 -1.937070
v 0.336809 3.621812 -1.521946
v 0.231998 3.529402 -1.048335
v 0.118272 3.472497 -0.534436
v 0.231998 5.434067 -0.503428
v 0.455081 5.377162 -0.987510
v 0.660676 5.284751 -1.433642
v 0.840880 5.160388 -1.824680
v 0.988771 5.008852 -2.145596
v 1.098663 4.835965 -2.384059
v 1.166335 4.648372 -2.530904
v 1.189185 4.453282 -2.580487
v 1.166335 4.258192 -2.530904
v 1.098663 4.070599 -2.384059
v 0.988771 3.897712 -2.145596
v 0.840880 3.746175 -1.824680
v 0.660676 3.621812 -1.433642
v 0.455081 3.529402 -0.987510
v 0.231998 3.472497 -0.503428
v 0.336809 5.434067 -0.453073
v 0.660676 5.377162 -0.888735
v 0.959152 5.284751 -1.290243
v 1.220769 5.160388 -1.642169
v 1.435472 5.008852 -1.930986
v 1.595012 4.835965 -2.145597
v 1.693256 4.648372 -2.277753
v 1.726428 4.453282 -2.322377
v 1.693256 4.258192 -2.277753
v 1.595012 4.070599 -2.145597
v 1.435472 3.897712 -1.930986
v 1.220769 3.746175 -1.642169
v 0.959152 3.621812 -1.290243
v 0.660676 3.529402 -0.888735
v 0.336809 3.472497 -0.453073
v 0.428677 5.434067 -0.385307
v 0.840880 5.377162 -0.755807
v 1.220769 5.284751 -1.097262
v 1.553744 5.160388 -1.396550
v 1.827010 5.008852 -1.642168
v 2.030065 4.835965 -1.824680
v 2.155105 4.648372 -1.937070
v 2.197326 4.453282 -1.975019
v 2.155105 4.258192 -1.937070
v 2.030065 4.070599 -1.824680
v 1.827010 3.897712 -1.642168
v 1.553744 3.746175 -1.396550
v 1.220769 3.621812 -1.097262
v 0.840880 3.529402 -0.755807
v 0.428677 3.472497 -0.385307
v 0.504071 5.434067 -0.302734
v 0.988771 5.377162 -0.593834
v 1.435472 5.284751 -0.862113
v 1.827010 5.160388 -1.097262
v 2.148336 5.008852 -1.290243
v 2.387103 4.835965 -1.433642
v 2.534136 4.648372 -1.521946
v 2.583782 4.453282 -1.551762
v 2.534136 4.258192 -1.521946
v 2.387103 4.070599 -1.433642
v 2.148336 3.897712 -1.290243
v 1.827010 3.746175 -1.097262
v 1.435472 3.621812 -0.862113
v 0.988771 3.529402 -0.593834
v 0.504071 3.472497 -0.302734
v 0.000000 5.453282 0.000000
v 0.560094 5.434067 -0.208527
v 1.098663 5.377162 -0.409040
v 1.595012 5.284751 -0.593834
v 2.030065 5.160388 -0.755807
v 2.387103 5.008852 -0.888735
v 2.652407 4.835965 -0.987510
v 2.815781 4.648372 -1.048334
v 2.870945 4.453282 -1.068872
v 2.815781 4.258192 -1.048334
v 2.652407 4.070599 -0.987510
v 2.387103 3.897712 -0.888735
v 2.030065 3.746175 -0.755807
v 1.595012 3.621812 -0.593834
v 1.098663 3.529402 -0.409040
v 0.560094 3.472497 -0.208527
v 0.594592 5.434067 -0.106306
v 1.166335 5.377162 -0.208527
v 1.693255 5.284751 -0.302734
v 2.155105 5.160388 -0.385307
v 2.534135 5.008852 -0.453073
v 2.815781 4.835965 -0.503428
v 2.989217 4.648372 -0.534436
v 3.047779 4.453282 -0.544906
v 2.989217 4.258192 -0.534436
v 2.815781 4.070599 -0.503428
v 2.534135 3.897712 -0.453073
v 2.155105 3.746175 -0.385307
v 1.693255 3.621812 -0.302734
v 1.166335 3.529402 -0.208527
v 0.594592 3.472497 -0.106306
v 0.606241 5.434067 0.000000
v 1.189184 5.377162 0.000000
v 1.726428 5.284751 0.000000
v 2.197326 5.160388 -0.000000
v 2.583782 5.008852 0.000000
v 2.870945 4.835965 -0.000000
v 3.047779 4.648372 0.000000
v 3.107488 4.453282 0.000000
v 3.047779 4.258192 0.000000
v 2.870945 4.070599 -0.000000
v 2.583782 3.897712 0.000000
v 2.197326 3.746175 -0.000000
v 1.726428 3.621812 0.000000
v 1.189184 3.529402 0.000000
v 0.606241 3.472497 0.000000
v 0.594592 5.434067 0.106306
v 1.166335 5.377162 0.208527
v 1.693255 5.284751 0.302734
v 2.155105 5.160388 0.385307
v 2.534135 5.008852 0.453073
v 2.815781 4.835965 0.503428
v 2.989217 4.648372 0.534437
v 3.047778 4.453282 0.544907
v 2.989217 4.258192 0.534437
v 2.815781 4.070599 0.503428
v 2.534135 3.897712 0.453073
v 2.155105 3.746175 0.385307
v 1.693255 3.621812 0.302734
v 1.166335 3.529402 0.208527
v 0.594592 3.472497 0.106306
v 0.560093 5.434067 0.208527
v 1.098663 5.377162 0.409040
v 1.595011 5.284751 0.593834
v 2.030065 5.160388 0.755807
v 2.387103 5.008852 0.888735
v 2.652407 4.835965 0.987509
v 2.815780 4.648372 1.048335
v 2.870944 4.453282 1.068873
v 2.815780 4.258192 1.048335
v 2.652407 4.070599 0.987509
v 2.387103 3.897712 0.888735
v 2.030065 3.746175 0.755807
v 1.595011 3.621812 0.593834
v 1.098663 3.529402 0.409040
v 0.560093 3.472497 0.208527
v 0.504071 5.434067 0.302734
v 0.988771 5.377162 0.593834
v 1.435472 5.284751 0.862113
v 1.827010 5.160388 1.097262
v 2.148336 5.008852 1.290243
v 2.387103 4.835965 1.433642
v 2.534135 4.648372 1.521946
v 2.583781 4.453282 1.551763
v 2.534135 4.258192 1.521946
v 2.387103 4.070599 1.433642
v 2.148336 3.897712 1.290243
v 1.827010 3.746175 1.097262
v 1.435472 3.621812 0.862113
v 0.988771 3.529402 0.593834
v 0.504071 3.472497 0.302734
v 0.428677 5.434067 0.385307
v 0.840880 5.377162 0.755807
v 1.220769 5.284751 1.097262
v 1.553744 5.160388 1.396549
v 1.827009 5.008852 1.642168
v 2.030065 4.835965 1.824679
v 2.155105 4.648372 1.937070
v 2.197325 4.453282 1.975019
v 2.155105 4.258192 1.937070
v 2.030065 4.070599 1.824679
v 1.827009 3.897712 1.642168
v 1.553744 3.746175 1.396549
v 1.220769 3.621812 1.097262
v 0.840880 3.529402 0.755807
v 0.428677 3.472497 0.385307
v 0.336809 5.434067 0.453073
v 0.660675 5.377162 0.888735
v 0.959152 5.284751 1.290243
v 1.220769 5.160388 1.642168
v 1.435472 5.008852 1.930985
v 1.595012 4.835965 2.145596
v 1.693255 4.648372 2.277753
v 1.726427 4.453282 2.322376
v 1.693255 4.258192 2.277753
v 1.595012 4.070599 2.145596
v 1.435472 3.897712 1.930985
v 1.220769 3.746175 1.642168
v 0.959152 3.621812 1.290243
v 0.660675 3.529402 0.888735
v 0.336809 3.472497 0.453073
v 0.231998 5.434067 0.503428
v 0.455081 5.377162 0.987509
v 0.660675 5.284751 1.433641
v 0.840880 5.160388 1.824680
v 0.988770 5.008852 2.145596
v 1.098663 4.835965 2.384059
v 1.166334 4.648372 2.530903
v 1.189183 4.453282 2.580486
v 1.166334 4.258192 2.530903
v 1.098663 4.070599 2.384059
v 0.988770 3.897712 2.145596
v 0.840880 3.746175 1.824680
v 0.660675 3.621812 1.433641
v 0.455081 3.529402 0.987509
v 0.231998 3.472497 0.503428
v 0.118272 5.434067 0.534436
v 0.231998 5.377162 1.048334
v 0.336809 5.284751 1.521945
v 0.428677 5.160388 1.937070
v 0.504071 5.008852 2.277752
v 0.560094 4.835965 2.530903
v 0.594592 4.648372 2.686792
v 0.606240 4.453282 2.739429
v 0.594592 4.258192 2.686792
v 0.560094 4.070599 2.530903
v 0.504071 3.897712 2.277752
v 0.428677 3.746175 1.937070
v 0.336809 3.621812 1.521945
v 0.231998 3.529402 1.048334
v 0.118272 3.472497 0.534436
v -0.000000 5.434067 0.544906
v -0.000000 5.377162 1.068872
v -0.000000 5.284751 1.551762
v -0.000000 5.160388 1.975019
v -0.000000 5.008852 2.322376
v 0.000000 4.835965 2.580486
v -0.000000 4.648372 2.739430
v -0.000001 4.453282 2.793097
v -0.000000 4.258192 2.739430
v 0.000000 4.070599 2.580486
v -0.000000 3.897712 2.322376
v -0.000000 3.746175 1.975019
v -0.000000 3.621812 1.551762
v -0.000000 3.529402 1.068872
v -0.000000 3.472497 0.544906
v -0.118272 5.434067 0.534436
v -0.231998 5.377162 1.048334
v -0.336810 5.284751 1.521945
v -0.428677 5.160388 1.937070
v -0.504071 5.008852 2.277752
v -0.560093 4.835965 2.530903
v -0.594592 4.648372 2.686792
v -0.606242 4.453282 2.739429
v -0.594592 4.258192 2.686792
v -0.560093 4.070599 2.530903
v -0.504071 3.897712 2.277752
v -0.428677 3.746175 1.937070
v -0.336810 3.621812 1.521945
v -0.231998 3.529402 1.048334
v -0.118272 3.472497 0.534436
v -0.231998 5.434067 0.503428
v -0.455081 5.377162 0.987509
v -0.660675 5.284751 1.433641
v -0.840880 5.160388 1.824679
v -0.988771 5.008852 2.145596
v -1.098663 4.835965 2.384058
v -1.166335 4.648372 2.530903
v -1.189185 4.453282 2.580485
v -1.166335 4.258192 2.530903
v -1.098663 4.070599 2.384058
v -0.988771 3.897712 2.145596
v -0.840880 3.746175 1.824679
v -0.660675 3.621812 1.433641
v -0.455081 3.529402 0.987509
v -0.231998 3.472497 0.503428
v -0.336809 5.434067 0.453073
v -0.660675 5.377162 0.888735
v -0.959152 5.284751 1.290243
v -1.220769 5.160388 1.642168
v -1.435472 5.008852 1.930985
v -1.595011 4.835965 2.145596
v -1.693255 4.648372 2.277752
v -1.726428 4.453282 2.322375
v -1.693255 4.258192 2.277752
v -1.595011 4.070599 2.145596
v -1.435472 3.897712 1.930985
v -1.220769 3.746175 1.642168
v -0.959152 3.621812 1.290243
v -0.660675 3.529402 0.888735
v -0.336809 3.472497 0.453073
v -0.428677 5.434067 0.385307
v -0.840880 5.377162 0.755807
v -1.220769 5.284751 1.097261
v -1.553744 5.160388 1.396549
v -1.827010 5.008852 1.642167
v -2.030064 4.835965 1.824679
v -2.155105 4.648372 1.937069
v -2.197325 4.453282 1.975017
v -2.155105 4.258192 1.937069
v -2.030064 4.070599 1.824679
v -1.827010 3.897712 1.642167
v -1.553744 3.746175 1.396549
v -1.220769 3.621812 1.097261
v -0.840880 3.529402 0.755807
v -0.428677 3.472497 0.385307
v 0.000000 3.453282 0.000000
v -0.504071 5.434067 0.302734
v -0.988771 5.377162 0.593834
v -1.435472 5.284751 0.862112
v -1.827010 5.160388 1.097262
v -2.148336 5.008852 1.290243
v -2.387103 4.835965 1.433641
v -2.534135 4.648372 1.521945
v -2.583781 4.453282 1.551760
v -2.534135 4.258192 1.521945
v -2.387103 4.070599 1.433641
v -2.148336 3.897712 1.290243
v -1.827010 3.746175 1.097262
v -1.435472 3.621812 0.862112
v -0.988771 3.529402 0.593834
v -0.504071 3.472497 0.302734
v -0.560093 5.434067 0.208527
v -1.098663 5.377162 0.409040
v -1.595011 5.284751 0.593833
v -2.030065 5.160388 0.755807
v -2.387103 5.008852 0.888734
v -2.652407 4.835965 0.987509
v -2.815780 4.648372 1.048334
v -2.870943 4.453282 1.068871
v -2.815780 4.258192 1.048334
v -2.652407 4.070599 0.987509
v -2.387103 3.897712 0.888734
v -2.030065 3.746175 0.755807
v -1.595011 3.621812 0.593833
v -1.098663 3.529402 0.409040
v -0.560093 3.472497 0.208527
v -0.594592 5.434067 0.106306
v -1.166334 5.377162 0.208527
v -1.693254 5.284751 0.302733
v -2.155105 5.160388 0.385307
v -2.534135 5.008852 0.453073
v -2.815780 4.835965 0.503428
v -2.989216 4.648372 0.534435
v -3.047777 4.453282 0.544905
v -2.989216 4.258192 0.534435
v -2.815780 4.070599 0.503428
v -2.534135 3.897712 0.453073
v -2.155105 3.746175 0.385307
v -1.693254 3.621812 0.302733
v -1.166334 3.529402 0.208527
v -0.594592 3.472497 0.106306
v -0.606240 5.434067 -0.000000
v -1.189184 5.377162 -0.000000
v -1.726427 5.284751 -0.000000
v -2.197326 5.160388 -0.000000
v -2.583781 5.008852 -0.000000
v -2.870944 4.835965 -0.000000
v -3.047778 4.648372 -0.000001
v -3.107486 4.453282 -0.000001
v -3.047778 4.258192 -0.000001
v -2.870944 4.070599 -0.000000
v -2.583781 3.897712 -0.000000
v -2.197326 3.746175 -0.000000
v -1.726427 3.621812 -0.000000
v -1.189184 3.529402 -0.000000
v -0.606240 3.472497 -0.000000
v -0.594592 5.434067 -0.106306
v -1.166334 5.377162 -0.208527
v -1.693254 5.284751 -0.302734
v -2.155105 5.160388 -0.385307
v -2.534134 5.008852 -0.453074
v -2.815780 4.835965 -0.503428
v -2.989215 4.648372 -0.534437
v -3.047776 4.453282 -0.544907
v -2.989215 4.258192 -0.534437
v -2.815780 4.070599 -0.503428
v -2.534134 3.897712 -0.453074
v -2.155105 3.746175 -0.385307
v -1.693254 3.621812 -0.302734
v -1.166334 3.529402 -0.208527
v -0.594592 3.472497 -0.106306
v -0.560093 5.434067 -0.208527
v -1.098663 5.377162 -0.409040
v -1.595010 5.284751 -0.593834
v -2.030064 5.160388 -0.755807
v -2.387102 5.008852 -0.888735
v -2.652406 4.835965 -0.987509
v -2.815779 4.648372 -1.048335
v -2.870942 4.453282 -1.068873
v -2.815779 4.258192 -1.048335
v -2.652406 4.070599 -0.987509
v -2.387102 3.897712 -0.888735
v -2.030064 3.746175 -0.755807
v -1.595010 3.621812 -0.593834
v -1.098663 3.529402 -0.409040
v -0.560093 3.472497 -0.208527
v -0.504070 5.434067 -0.302734
v -0.988770 5.377162 -0.593834
v -1.435471 5.284751 -0.862113
v -1.827010 5.160388 -1.097262
v -2.148335 5.008852 -1.290243
v -2.387103 4.835965 -1.433641
v -2.534134 4.648372 -1.521946
v -2.583779 4.453282 -1.551762
v -2.534134 4.258192 -1.521946
v -2.387103 4.070599 -1.433641
v -2.148335 3.897712 -1.290243
v -1.827010 3.746175 -1.097262
v -1.435471 3.621812 -0.862113
v -0.988770 3.529402 -0.593834
v -0.504070 3.472497 -0.302734
v -0.428677 5.434067 -0.385307
v -0.840880 5.377162 -0.755807
v -1.220767 5.284751 -1.097261
v -1.553744 5.160388 -1.396549
v -1.827008 5.008852 -1.642168
v -2.030064 4.835965 -1.824679
v -2.155104 4.648372 -1.937069
v -2.197323 4.453282 -1.975018
v -2.155104 4.258192 -1.937069
v -2.030064 4.070599 -1.824679
v -1.827008 3.897712 -1.642168
v -1.553744 3.746175 -1.396549
v -1.220767 3.621812 -1.097261
v -0.840880 3.529402 -0.755807
v -0.428677 3.472497 -0.385307
v -0.336809 5.434067 -0.453073
v -0.660675 5.377162 -0.888735
v -0.959151 5.284751 -1.290243
v -1.220769 5.160388 -1.642168
v -1.435471 5.008852 -1.930985
v -1.595011 4.835965 -2.145596
v -1.693254 4.648372 -2.277752
v -1.726425 4.453282 -2.322375
v -1.693254 4.258192 -2.277752
v -1.595011 4.070599 -2.145596
v -1.435471 3.897712 -1.930985
v -1.220769 3.746175 -1.642168
v -0.959151 3.621812 -1.290243
v -0.660675 3.529402 -0.888735
v -0.336809 3.472497 -0.453073
v -0.231998 5.434067 -0.503428
v -0.455081 5.377162 -0.987509
v -0.660674 5.284751 -1.433640
v -0.840880 5.160388 -1.824679
v -0.988769 5.008852 -2.145595
v -1.098663 4.835965 -2.384058
v -1.166333 4.648372 -2.530902
v -1.189182 4.453282 -2.580485
v -1.166333 4.258192 -2.530902
v -1.098663 4.070599 -2.384058
v -0.988769 3.897712 -2.145595
v -0.840880 3.746175 -1.824679
v -0.660674 3.621812 -1.433640
v -0.455081 3.529402 -0.987509
v -0.231998 3.472497 -0.503428
v -0.118272 5.434067 -0.534436
v -0.231998 5.377162 -1.048334
v -0.336808 5.284751 -1.521944
v -0.428677 5.160388 -1.937070
v -0.504070 5.008852 -2.277752
v -0.560093 4.835965 -2.530902
v -0.594591 4.648372 -2.686792
v -0.606239 4.453282 -2.739428
v -0.594591 4.258192 -2.686792
v -0.560093 4.070599 -2.530902
v -0.504070 3.897712 -2.277752
v -0.428677 3.746175 -1.937070
v -0.336808 3.621812 -1.521944
v -0.231998 3.529402 -1.048334
v -0.118272 3.472497 -0.534436
v 0.000000 5.434067 -0.544906
v 0.000000 5.377162 -1.068872
v 0.000000 5.160388 -1.975019
v 0.000000 4.835965 -2.580486
v 0.000000 4.070599 -2.580486
v 0.000000 3.746175 -1.975019
v 0.000001 3.621812 -1.551761
v 0.000000 3.529402 -1.068872
v 0.000000 3.472497 -0.544906
vn -0.0000 0.9720 -0.2351
vn -0.0000 0.8800 -0.4750
vn -0.0000 0.4834 -0.8754
vn -0.0000 -0.0000 -1.0000
vn -0.0000 -0.4834 -0.8754
vn -0.0000 -0.8800 -0.4750
vn 0.0128 0.9973 -0.0718
vn 0.0261 0.9889 -0.1461
vn 0.0412 0.9722 -0.2306
vn 0.0596 0.9409 -0.3333
vn 0.0834 0.8807 -0.4662
vn 0.1153 0.7556 -0.6448
vn 0.1539 0.4847 -0.8610
vn 0.1760 -0.0000 -0.9844
vn 0.1539 -0.4847 -0.8610
vn 0.1153 -0.7556 -0.6448
vn 0.0834 -0.8807 -0.4662
vn 0.0596 -0.9409 -0.3333
vn 0.0412 -0.9722 -0.2306
vn 0.0261 -0.9889 -0.1461
vn 0.0128 -0.9973 -0.0718
vn 0.0252 0.9974 -0.0677
vn 0.0513 0.9891 -0.1377
vn 0.0809 0.9727 -0.2174
vn 0.1170 0.9421 -0.3143
vn 0.1639 0.8828 -0.4402
vn 0.2272 0.7590 -0.6101
vn 0.3044 0.4887 -0.8176
vn 0.3489 -0.0000 -0.9372
vn 0.3044 -0.4887 -0.8176
vn 0.2272 -0.7590 -0.6101
vn 0.1639 -0.8828 -0.4402
vn 0.1170 -0.9421 -0.3143
vn 0.0809 -0.9727 -0.2174
vn 0.0513 -0.9891 -0.1377
vn 0.0252 -0.9974 -0.0677
vn 0.0366 0.9975 -0.0609
vn 0.0744 0.9895 -0.1240
vn 0.1176 0.9736 -0.1958
vn 0.1702 0.9438 -0.2834
vn 0.2388 0.8859 -0.3976
vn 0.3320 0.7642 -0.5529
vn 0.4474 0.4947 -0.7450
vn 0.5149 -0.0000 -0.8573
vn 0.4474 -0.4947 -0.7450
vn 0.3320 -0.7642 -0.5529
vn 0.2388 -0.8859 -0.3976
vn 0.1702 -0.9438 -0.2834
vn 0.1176 -0.9736 -0.1958
vn 0.0744 -0.9895 -0.1240
vn 0.0366 -0.9975 -0.0609
vn 0.0466 0.9976 -0.0518
vn 0.0948 0.9899 -0.1055
vn 0.1498 0.9746 -0.1667
vn 0.2171 0.9458 -0.2415
vn 0.3052 0.8897 -0.3396
vn 0.4261 0.7705 -0.4740
vn 0.5781 0.5022 -0.6431
vn 0.6685 -0.0000 -0.7437
vn 0.5781 -0.5022 -0.6431
vn 0.4261 -0.7705 -0.4740
vn 0.3052 -0.8897 -0.3396
vn 0.2171 -0.9458 -0.2415
vn 0.1498 -0.9746 -0.1667
vn 0.0948 -0.9899 -0.1055
vn 0.0466 -0.9976 -0.0518
vn 0.0548 0.9977 -0.0407
vn 0.1115 0.9903 -0.0829
vn 0.1763 0.9756 -0.1311
vn 0.2558 0.9478 -0.1902
vn 0.3604 0.8935 -0.2679
vn 0.5052 0.7770 -0.3756
vn 0.6903 0.5100 -0.5132
vn 0.8025 -0.0000 -0.5966
vn 0.6903 -0.5100 -0.5132
vn 0.5052 -0.7770 -0.3756
vn 0.3604 -0.8935 -0.2679
vn 0.2558 -0.9478 -0.1902
vn 0.1763 -0.9756 -0.1311
vn 0.1115 -0.9903 -0.0829
vn 0.0548 -0.9977 -0.0407
vn -0.0000 1.0000 -0.0000
vn 0.0609 0.9978 -0.0280
vn 0.1239 0.9906 -0.0571
vn 0.1961 0.9764 -0.0904
vn 0.2848 0.9496 -0.1312
vn 0.4019 0.8967 -0.1852
vn 0.5654 0.7826 -0.2606
vn 0.7774 0.5169 -0.3583
vn 0.9082 -0.0000 -0.4185
vn 0.7774 -0.5169 -0.3583
vn 0.5654 -0.7826 -0.2606
vn 0.4019 -0.8967 -0.1852
vn 0.2848 -0.9496 -0.1312
vn 0.1961 -0.9764 -0.0904
vn 0.1239 -0.9906 -0.0571
vn 0.0609 -0.9978 -0.0280
vn 0.0646 0.9978 -0.0143
vn 0.1316 0.9909 -0.0291
vn 0.2083 0.9770 -0.0461
vn 0.3027 0.9507 -0.0670
vn 0.4277 0.8989 -0.0947
vn 0.6032 0.7864 -0.1335
vn 0.8330 0.5217 -0.1843
vn 0.9764 -0.0000 -0.2161
vn 0.8330 -0.5217 -0.1843
vn 0.6032 -0.7864 -0.1335
vn 0.4277 -0.8989 -0.0947
vn 0.3027 -0.9507 -0.0670
vn 0.2083 -0.9770 -0.0461
vn 0.1316 -0.9909 -0.0291
vn 0.0646 -0.9978 -0.0143
vn 0.0659 0.9978 -0.0000
vn 0.1342 0.9910 -0.0000
vn 0.2124 0.9772 -0.0000
vn 0.3087 0.9512 -0.0000
vn 0.4365 0.8997 -0.0000
vn 0.6160 0.7877 -0.0000
vn 0.8521 0.5234 -0.0000
vn 1.0000 -0.0000 -0.0000
vn 0.8521 -0.5234 -0.0000
vn 0.6160 -0.7877 -0.0000
vn 0.4365 -0.8997 -0.0000
vn 0.3087 -0.9512 -0.0000
vn 0.2124 -0.9772 -0.0000
vn 0.1342 -0.9910 -0.0000
vn 0.0659 -0.9978 -0.0000
vn 0.0646 0.9978 0.0143
vn 0.1316 0.9909 0.0291
vn 0.2083 0.9770 0.0461
vn 0.3027 0.9507 0.0670
vn 0.4277 0.8989 0.0947
vn 0.6032 0.7864 0.1335
vn 0.8330 0.5217 0.1843
vn 0.9764 -0.0000 0.2161
vn 0.8330 -0.5217 0.1843
vn 0.6032 -0.7864 0.1335
vn 0.4277 -0.8989 0.0947
vn 0.3027 -0.9507 0.0670
vn 0.2083 -0.9770 0.0461
vn 0.1316 -0.9909 0.0291
vn 0.0646 -0.9978 0.0143
vn 0.0609 0.9978 0.0280
vn 0.1239 0.9906 0.0571
vn 0.1961 0.9764 0.0904
vn 0.2848 0.9496 0.1312
vn 0.4019 0.8967 0.1852
vn 0.5654 0.7826 0.2606
vn 0.7774 0.5169 0.3583
vn 0.9082 -0.0000 0.4185
vn 0.7774 -0.5169 0.3583
vn 0.5654 -0.7826 0.2606
vn 0.4019 -0.8967 0.1852
vn 0.2848 -0.9496 0.1312
vn 0.1961 -0.9764 0.0904
vn 0.1239 -0.9906 0.0571
vn 0.0609 -0.9978 0.0280
vn 0.0548 0.9977 0.0407
vn 0.1115 0.9903 0.0829
vn 0.1763 0.9756 0.1311
vn 0.2558 0.9478 0.1902
vn 0.3604 0.8935 0.2679
vn 0.5052 0.7770 0.3756
vn 0.6903 0.5100 0.5132
vn 0.8025 -0.0000 0.5966
vn 0.6903 -0.5100 0.5132
vn 0.5052 -0.7770 0.3756
vn 0.3604 -0.8935 0.2679
vn 0.2558 -0.9478 0.1902
vn 0.1763 -0.9756 0.1311
vn 0.1115 -0.9903 0.0829
vn 0.0548 -0.9977 0.0407
vn 0.0466 0.9976 0.0518
vn 0.0948 0.9899 0.1055
vn 0.1498 0.9746 0.1667
vn 0.2171 0.9458 0.2415
vn 0.3052 0.8897 0.3396
vn 0.4261 0.7705 0.4740
vn 0.5781 0.5022 0.6431
vn 0.6685 -0.0000 0.7437
vn 0.5781 -0.5022 0.6431
vn 0.4261 -0.7705 0.4740
vn 0.3052 -0.8897 0.3396
vn 0.2171 -0.9458 0.2415
vn 0.1498 -0.9746 0.1667
vn 0.0948 -0.9899 0.1055
vn 0.0466 -0.9976 0.0518
vn 0.0366 0.9975 0.0609
vn 0.0744 0.9895 0.1240
vn 0.1176 0.9736 0.1958
vn 0.1702 0.9438 0.2834
vn 0.2388 0.8859 0.3976
vn 0.3320 0.7642 0.5529
vn 0.4474 0.4947 0.7450
vn 0.5149 -0.0000 0.8573
vn 0.4474 -0.4947 0.7450
vn 0.3320 -0.7642 0.5529
vn 0.2388 -0.8859 0.3976
vn 0.1702 -0.9438 0.2834
vn 0.1176 -0.9736 0.1958
vn 0.0744 -0.9895 0.1240
vn 0.0366 -0.9975 0.0609
vn 0.0252 0.9974 0.0677
vn 0.0513 0.9891 0.1377
vn 0.0809 0.9727 0.2174
vn 0.1170 0.9421 0.3143
vn 0.1639 0.8828 0.4402
vn 0.2272 0.7590 0.6101
vn 0.3044 0.4887 0.8176
vn 0.3489 -0.0000 0.9372
vn 0.3044 -0.4887 0.8176
vn 0.2272 -0.7590 0.6101
vn 0.1639 -0.8828 0.4402
vn 0.1170 -0.9421 0.3143
vn 0.0809 -0.9727 0.2174
vn 0.0513 -0.9891 0.1377
vn 0.0252 -0.9974 0.0677
vn 0.0128 0.9973 0.0718
vn 0.0261 0.9889 0.1461
vn 0.0412 0.9722 0.2306
vn 0.0596 0.9409 0.3333
vn 0.0834 0.8807 0.4662
vn 0.1153 0.7556 0.6448
vn 0.1539 0.4847 0.8610
vn 0.1760 -0.0000 0.9844
vn 0.1539 -0.4847 0.8610
vn 0.1153 -0.7556 0.6448
vn 0.0834 -0.8807 0.4662
vn 0.0596 -0.9409 0.3333
vn 0.0412 -0.9722 0.2306
vn 0.0261 -0.9889 0.1461
vn 0.0128 -0.9973 0.0718
vn -0.0000 0.9973 0.0733
vn -0.0000 0.9888 0.1490
vn -0.0000 0.9720 0.2351
vn -0.0000 0.9406 0.3396
vn -0.0000 0.8800 0.4750
vn -0.0000 0.7544 0.6564
vn -0.0000 0.4834 0.8754
vn -0.0000 -0.0000 1.0000
vn -0.0000 -0.4834 0.8754
vn -0.0000 -0.7544 0.6564
vn -0.0000 -0.8800 0.4750
vn -0.0000 -0.9406 0.3396
vn -0.0000 -0.9720 0.2351
vn -0.0000 -0.9888 0.1490
vn -0.0000 -0.9973 0.0733
vn -0.0128 0.9973 0.0718
vn -0.0261 0.9889 0.1461
vn -0.0412 0.9722 0.2306
vn -0.0596 0.9409 0.3333
vn -0.0834 0.8807 0.4662
vn -0.1153 0.7556 0.6448
vn -0.1539 0.4847 0.8610
vn -0.1760 -0.0000 0.9844
vn -0.1539 -0.4847 0.8610
vn -0.1153 -0.7556 0.6448
vn -0.0834 -0.8807 0.4662
vn -0.0596 -0.9409 0.3333
vn -0.0412 -0.9722 0.2306
vn -0.0261 -0.9889 0.1461
vn -0.0128 -0.9973 0.0718
vn -0.0252 0.9974 0.0677
vn -0.0513 0.9891 0.1377
vn -0.0809 0.9727 0.2174
vn -0.1170 0.9421 0.3143
vn -0.1639 0.8828 0.4402
vn -0.2272 0.7590 0.6101
vn -0.3044 0.4887 0.8176
vn -0.3489 -0.0000 0.9372
vn -0.3044 -0.4887 0.8176
vn -0.2272 -0.7590 0.6101
vn -0.1639 -0.8828 0.4402
vn -0.1170 -0.9421 0.3143
vn -0.0809 -0.9727 0.2174
vn -0.0513 -0.9891 0.1377
vn -0.0252 -0.9974 0.0677
vn -0.0366 0.9975 0.0609
vn -0.0744 0.9895 0.1240
vn -0.1176 0.9736 0.1958
vn -0.1702 0.9438 0.2834
vn -0.2388 0.8859 0.3976
vn -0.3320 0.7642 0.5529
vn -0.4474 0.4947 0.7450
vn -0.5149 -0.0000 0.8573
vn -0.4474 -0.4947 0.7450
vn -0.3320 -0.7642 0.5529
vn -0.2388 -0.8859 0.3976
vn -0.1702 -0.9438 0.2834
vn -0.1176 -0.9736 0.1958
vn -0.0744 -0.9895 0.1240
vn -0.0366 -0.9975 0.0609
vn -0.0466 0.9976 0.0518
vn -0.0948 0.9899 0.1055
vn -0.1498 0.9746 0.1667
vn -0.2171 0.9458 0.2415
vn -0.3052 0.8897 0.3396
vn -0.4261 0.7705 0.4740
vn -0.5781 0.5022 0.6431
vn -0.6685 -0.0000 0.7437
vn -0.5781 -0.5022 0.6431
vn -0.4261 -0.7705 0.4740
vn -0.3052 -0.8897 0.3396
vn -0.2171 -0.9458 0.2415
vn -0.1498 -0.9746 0.1667
vn -0.0948 -0.9899 0.1055
vn -0.0466 -0.9976 0.0518
vn -0.0000 -1.0000 -0.0000
vn -0.0548 0.9977 0.0407
vn -0.1115 0.9903 0.0829
vn -0.1763 0.9756 0.1311
vn -0.2558 0.9478 0.1902
vn -0.3604 0.8935 0.2679
vn -0.5052 0.7770 0.3756
vn -0.6903 0.5100 0.5132
vn -0.8025 -0.0000 0.5966
vn -0.6903 -0.5100 0.5132
vn -0.5052 -0.7770 0.3756
vn -0.3604 -0.8935 0.2679
vn -0.2558 -0.9478 0.1902
vn -0.1763 -0.9756 0.1311
vn -0.1115 -0.9903 0.0829
vn -0.0548 -0.9977 0.0407
vn -0.0609 0.9978 0.0280
vn -0.1239 0.9906 0.0571
vn -0.1961 0.9764 0.0904
vn -0.2848 0.9496 0.1312
vn -0.4019 0.8967 0.1852
vn -0.5654 0.7826 0.2606
vn -0.7774 0.5169 0.3583
vn -0.9082 -0.0000 0.4185
vn -0.7774 -0.5169 0.3583
vn -0.5654 -0.7826 0.2606
vn -0.4019 -0.8967 0.1852
vn -0.2848 -0.9496 0.1312
vn -0.1961 -0.9764 0.0904
vn -0.1239 -0.9906 0.0571
vn -0.0609 -0.9978 0.0280
vn -0.0646 0.9978 0.0143
vn -0.1316 0.9909 0.0291
vn -0.2083 0.9770 0.0461
vn -0.3027 0.9507 0.0670
vn -0.4277 0.8989 0.0947
vn -0.6032 0.7864 0.1335
vn -0.8330 0.5217 0.1843
vn -0.9764 -0.0000 0.2161
vn -0.8330 -0.5217 0.1843
vn -0.6032 -0.7864 0.1335
vn -0.4277 -0.8989 0.0947
vn -0.3027 -0.9507 0.0670
vn -0.2083 -0.9770 0.0461
vn -0.1316 -0.9909 0.0291
vn -0.0646 -0.9978 0.0143
vn -0.0659 0.9978 -0.0000
vn -0.1342 0.9910 -0.0000
vn -0.2124 0.9772 -0.0000
vn -0.3087 0.9512 -0.0000
vn -0.4365 0.8997 -0.0000
vn -0.6160 0.7877 -0.0000
vn -0.8521 0.5234 -0.0000
vn -1.0000 -0.0000 -0.0000
vn -0.8521 -0.5234 -0.0000
vn -0.6160 -0.7877 -0.0000
vn -0.4365 -0.8997 -0.0000
vn -0.3087 -0.9512 -0.0000
vn -0.2124 -0.9772 -0.0000
vn -0.1342 -0.9910 -0.0000
vn -0.0659 -0.9978 -0.0000
vn -0.0646 0.9978 -0.0143
vn -0.1316 0.9909 -0.0291
vn -0.2083 0.9770 -0.0461
vn -0.3027 0.9507 -0.0670
vn -0.4277 0.8989 -0.0947
vn -0.6032 0.7864 -0.1335
vn -0.8330 0.5217 -0.1843
vn -0.9764 -0.0000 -0.2161
vn -0.8330 -0.5217 -0.1843
vn -0.6032 -0.7864 -0.1335
vn -0.4277 -0.8989 -0.0947
vn -0.3027 -0.9507 -0.0670
vn -0.2083 -0.9770 -0.0461
vn -0.1316 -0.9909 -0.0291
vn -0.0646 -0.9978 -0.0143
vn -0.0609 0.9978 -0.0280
vn -0.1239 0.9906 -0.0571
vn -0.1961 0.9764 -0.0904
vn -0.2848 0.9496 -0.1312
vn -0.4019 0.8967 -0.1852
vn -0.5654 0.7826 -0.2606
vn -0.7774 0.5169 -0.3583
vn -0.9082 -0.0000 -0.4185
vn -0.7774 -0.5169 -0.3583
vn -0.5654 -0.7826 -0.2606
vn -0.4019 -0.8967 -0.1852
vn -0.2848 -0.9496 -0.1312
vn -0.1961 -0.9764 -0.0904
vn -0.1239 -0.9906 -0.0571
vn -0.0609 -0.9978 -0.0280
vn -0.0548 0.9977 -0.0407
vn -0.1115 0.9903 -0.0829
vn -0.1763 0.9756 -0.1311
vn -0.2558 0.9478 -0.1902
vn -0.3604 0.8935 -0.2679
vn -0.5052 0.7770 -0.3756
vn -0.6903 0.5100 -0.5132
vn -0.8025 -0.0000 -0.5966
vn -0.6903 -0.5100 -0.5132
vn -0.5052 -0.7770 -0.3756
vn -0.3604 -0.8935 -0.2679
vn -0.2558 -0.9478 -0.1902
vn -0.1763 -0.9756 -0.1311
vn -0.1115 -0.9903 -0.0829
vn -0.0548 -0.9977 -0.0407
vn -0.0466 0.9976 -0.0518
vn -0.0948 0.9899 -0.1055
vn -0.1498 0.9746 -0.1667
vn -0.2171 0.9458 -0.2415
vn -0.3052 0.8897 -0.3396
vn -0.4261 0.7705 -0.4740
vn -0.5781 0.5022 -0.6431
vn -0.6685 -0.0000 -0.7437
vn -0.5781 -0.5022 -0.6431
vn -0.4261 -0.7705 -0.4740
vn -0.3052 -0.8897 -0.3396
vn -0.2171 -0.9458 -0.2415
vn -0.1498 -0.9746 -0.1667
vn -0.0948 -0.9899 -0.1055
vn -0.0466 -0.9976 -0.0518
vn -0.0366 0.9975 -0.0609
vn -0.0744 0.9895 -0.1240
vn -0.1176 0.9736 -0.1958
vn -0.1702 0.9438 -0.2834
vn -0.2388 0.8859 -0.3976
vn -0.3320 0.7642 -0.5529
vn -0.4474 0.4947 -0.7450
vn -0.5149 -0.0000 -0.8573
vn -0.4474 -0.4947 -0.7450
vn -0.3320 -0.7642 -0.5529
vn -0.2388 -0.8859 -0.3976
vn -0.1702 -0.9438 -0.2834
vn -0.1176 -0.9736 -0.1958
vn -0.0744 -0.9895 -0.1240
vn -0.0366 -0.9975 -0.0609
vn -0.0252 0.9974 -0.0677
vn -0.0513 0.9891 -0.1377
vn -0.0809 0.9727 -0.2174
vn -0.1170 0.9421 -0.3143
vn -0.1639 0.8828 -0.4402
vn -0.2272 0.7590 -0.6101
vn -0.3044 0.4887 -0.8176
vn -0.3489 -0.0000 -0.9372
vn -0.3044 -0.4887 -0.8176
vn -0.2272 -0.7590 -0.6101
vn -0.1639 -0.8828 -0.4402
vn -0.1170 -0.9421 -0.3143
vn -0.0809 -0.9727 -0.2174
vn -0.0513 -0.9891 -0.1377
vn -0.0252 -0.9974 -0.0677
vn -0.0128 0.9973 -0.0718
vn -0.0261 0.9889 -0.1461
vn -0.0412 0.9722 -0.2306
vn -0.0596 0.9409 -0.3333
vn -0.0834 0.8807 -0.4662
vn -0.1153 0.7556 -0.6448
vn -0.1539 0.4847 -0.8610
vn -0.1760 -0.0000 -0.9844
vn -0.1539 -0.4847 -0.8610
vn -0.1153 -0.7556 -0.6448
vn -0.0834 -0.8807 -0.4662
vn -0.0596 -0.9409 -0.3333
vn -0.0412 -0.9722 -0.2306
vn -0.0261 -0.9889 -0.1461
vn -0.0128 -0.9973 -0.0718
vn -0.0000 0.9973 -0.0733
vn -0.0000 0.9888 -0.1490
vn -0.0000 0.9406 -0.3396
vn -0.0000 0.7544 -0.6564
vn -0.0000 -0.7544 -0.6564
vn -0.0000 -0.9406 -0.3396
vn -0.0000 -0.9720 -0.2351
vn -0.0000 -0.9888 -0.1490
vn -0.0000 -0.9973 -0.0733
vt 0.211092 0.757479
vt 0.211238 0.723968
vt 0.226185 0.725354
vt 0.218758 0.758190
vt 0.722800 0.984699
vt 0.722481 0.985738
vt 0.772840 0.981392
vt 0.772942 0.980372
vt 0.721103 0.805434
vt 0.721085 0.753831
vt 0.732299 0.804458
vt 0.210938 0.792796
vt 0.211657 0.628380
vt 0.211659 0.628079
vt 0.247546 0.631401
vt 0.247453 0.631693
vt 0.721199 0.854007
vt 0.742936 0.852118
vt 0.211626 0.635225
vt 0.245911 0.638398
vt 0.721365 0.897125
vt 0.752464 0.894429
vt 0.211567 0.648657
vt 0.242912 0.651560
vt 0.721591 0.932866
vt 0.760452 0.929504
vt 0.211481 0.668404
vt 0.238518 0.670909
vt 0.721862 0.959918
vt 0.766601 0.956052
vt 0.211370 0.693837
vt 0.232869 0.695830
vt 0.722164 0.977585
vt 0.770745 0.973392
vt 0.253531 0.701546
vt 0.240548 0.729331
vt 0.817527 0.960843
vt 0.821336 0.968390
vt 0.226124 0.760231
vt 0.821228 0.967425
vt 0.743069 0.801542
vt 0.282043 0.640928
vt 0.281861 0.641196
vt 0.763853 0.846469
vt 0.278866 0.647502
vt 0.782396 0.886364
vt 0.273040 0.659885
vt 0.797863 0.919444
vt 0.264504 0.678093
vt 0.809678 0.944486
vt 0.783156 0.837271
vt 0.810033 0.873228
vt 0.309238 0.662193
vt 0.300804 0.673320
vt 0.832421 0.903052
vt 0.288449 0.689686
vt 0.849483 0.925636
vt 0.272567 0.710769
vt 0.860765 0.940390
vt 0.253779 0.735746
vt 0.866164 0.947195
vt 0.232909 0.763524
vt 0.865862 0.946321
vt 0.753002 0.796795
vt 0.313836 0.656304
vt 0.313574 0.656533
vt 0.898837 0.912769
vt 0.905641 0.918571
vt 0.265370 0.744356
vt 0.238850 0.767942
vt 0.905168 0.917819
vt 0.761718 0.790397
vt 0.341714 0.676950
vt 0.341381 0.677126
vt 0.800111 0.824866
vt 0.335867 0.681919
vt 0.834328 0.855504
vt 0.325144 0.691357
vt 0.862822 0.880929
vt 0.309436 0.705249
vt 0.884519 0.900187
vt 0.289248 0.723148
vt 0.357733 0.705933
vt 0.345127 0.713315
vt 0.854353 0.833852
vt 0.887907 0.853886
vt 0.326662 0.724191
vt 0.913451 0.869067
vt 0.302935 0.738213
vt 0.930291 0.878986
vt 0.274876 0.754831
vt 0.938264 0.883556
vt 0.243721 0.773316
vt 0.937649 0.882954
vt 0.768883 0.782591
vt 0.364608 0.702086
vt 0.364216 0.702199
vt 0.814067 0.809721
vt 0.281933 0.766773
vt 0.247334 0.779441
vt 0.962769 0.843433
vt 0.962046 0.843005
vt 0.774221 0.773674
vt 0.381635 0.730762
vt 0.381199 0.730801
vt 0.824488 0.792406
vt 0.373993 0.733327
vt 0.869334 0.809079
vt 0.359982 0.738359
vt 0.906703 0.822928
vt 0.339463 0.745793
vt 0.935156 0.833423
vt 0.313100 0.755390
vt 0.953908 0.840280
vt 0.878681 0.782116
vt 0.918465 0.789210
vt 0.369132 0.765538
vt 0.347341 0.769232
vt 0.948771 0.794584
vt 0.319350 0.774023
vt 0.968745 0.798089
vt 0.286265 0.779723
vt 0.978174 0.799691
vt 0.249549 0.786081
vt 0.977382 0.799452
vt 0.777524 0.763985
vt 0.392132 0.761886
vt 0.391669 0.761845
vt 0.830965 0.773577
vt 0.384014 0.763059
vt 0.983830 0.753973
vt 0.983012 0.753934
vt 0.778664 0.753897
vt 0.250282 0.792982
vt 0.395681 0.794271
vt 0.395208 0.794147
vt 0.833239 0.753950
vt 0.387398 0.793993
vt 0.882011 0.753987
vt 0.372215 0.793812
vt 0.922708 0.754008
vt 0.349986 0.793611
vt 0.953727 0.754012
vt 0.321439 0.793399
vt 0.974177 0.754000
vt 0.287706 0.793186
vt 0.369100 0.822097
vt 0.347288 0.817996
vt 0.919226 0.718666
vt 0.949778 0.713256
vt 0.319282 0.812775
vt 0.969932 0.709694
vt 0.286196 0.806645
vt 0.979451 0.708023
vt 0.249502 0.799879
vt 0.978650 0.708185
vt 0.777593 0.743795
vt 0.392130 0.826675
vt 0.391667 0.826469
vt 0.831208 0.734277
vt 0.384001 0.824943
vt 0.879171 0.725767
vt 0.247240 0.806506
vt 0.381601 0.857851
vt 0.381163 0.857564
vt 0.774348 0.734068
vt 0.824940 0.715316
vt 0.373938 0.854718
vt 0.870243 0.698546
vt 0.359895 0.849305
vt 0.908113 0.684549
vt 0.339340 0.841446
vt 0.937022 0.673890
vt 0.312955 0.831405
vt 0.956107 0.666885
vt 0.281792 0.819582
vt 0.965134 0.663617
vt 0.964394 0.663974
vt 0.326441 0.863058
vt 0.302697 0.848570
vt 0.915899 0.637456
vt 0.933177 0.627249
vt 0.274659 0.831499
vt 0.941368 0.622497
vt 0.243581 0.812608
vt 0.940731 0.623035
vt 0.769052 0.725092
vt 0.364482 0.886591
vt 0.364089 0.886231
vt 0.814662 0.697803
vt 0.357584 0.882165
vt 0.855548 0.673381
vt 0.344942 0.874382
vt 0.889758 0.652989
vt 0.761905 0.717215
vt 0.800763 0.682421
vt 0.341090 0.911355
vt 0.335559 0.906219
vt 0.835634 0.651262
vt 0.324810 0.896357
vt 0.864844 0.625230
vt 0.309082 0.881993
vt 0.887190 0.605394
vt 0.288899 0.863605
vt 0.901984 0.592360
vt 0.265071 0.841935
vt 0.909025 0.586295
vt 0.238666 0.817951
vt 0.908529 0.586994
vt 0.341425 0.911780
vt 0.851986 0.578987
vt 0.863713 0.563616
vt 0.272090 0.875929
vt 0.253396 0.850487
vt 0.869333 0.556466
vt 0.232683 0.822329
vt 0.869011 0.557298
vt 0.753183 0.710742
vt 0.313311 0.932434
vt 0.313048 0.931956
vt 0.783775 0.669771
vt 0.308707 0.925941
vt 0.811262 0.633060
vt 0.300270 0.914374
vt 0.834319 0.602376
vt 0.287927 0.897514
vt 0.281044 0.947228
vt 0.278062 0.940562
vt 0.764352 0.660353
vt 0.783374 0.619501
vt 0.272268 0.927729
vt 0.799363 0.585343
vt 0.263791 0.909019
vt 0.811650 0.559300
vt 0.252917 0.885061
vt 0.819846 0.542183
vt 0.240082 0.856823
vt 0.823830 0.534222
vt 0.225863 0.825572
vt 0.823709 0.535153
vt 0.743220 0.705925
vt 0.281224 0.947746
vt 0.232120 0.890648
vt 0.225643 0.860699
vt 0.772107 0.528935
vt 0.774304 0.520472
vt 0.218468 0.827555
vt 0.774402 0.521464
vt 0.732402 0.702951
vt 0.246407 0.957115
vt 0.246316 0.956573
vt 0.743249 0.654537
vt 0.244811 0.949508
vt 0.753055 0.611125
vt 0.241886 0.935900
vt 0.761343 0.574819
vt 0.237608 0.916057
vt 0.767763 0.547134
vt 0.721286 0.652554
vt 0.721493 0.608269
vt 0.210243 0.952427
vt 0.210303 0.938566
vt 0.721756 0.571230
vt 0.210391 0.918354
vt 0.722059 0.542984
vt 0.210503 0.892471
vt 0.722385 0.524416
vt 0.210636 0.861964
vt 0.722718 0.515781
vt 0.210783 0.828202
vt 0.723044 0.516795
vt 0.721147 0.701938
vt 0.210211 0.960172
vt 0.210213 0.959622
vt 0.672659 0.528812
vt 0.671128 0.520344
vt 0.195641 0.860568
vt 0.203104 0.827488
vt 0.671682 0.521337
vt 0.709891 0.702924
vt 0.174043 0.956798
vt 0.174138 0.956257
vt 0.699322 0.654483
vt 0.175703 0.949205
vt 0.689929 0.611047
vt 0.178745 0.935623
vt 0.682166 0.574721
vt 0.183195 0.915819
vt 0.676351 0.547020
vt 0.188904 0.890459
vt 0.142532 0.939969
vt 0.148436 0.927187
vt 0.659603 0.619348
vt 0.644136 0.585151
vt 0.157075 0.908552
vt 0.632451 0.559078
vt 0.168157 0.884691
vt 0.624905 0.541941
vt 0.181237 0.856566
vt 0.621587 0.533971
vt 0.195727 0.825440
vt 0.622360 0.534903
vt 0.699071 0.705870
vt 0.139309 0.947125
vt 0.139493 0.946609
vt 0.678213 0.660247
vt 0.167979 0.850114
vt 0.188936 0.822138
vt 0.576060 0.556103
vt 0.577033 0.556936
vt 0.689104 0.710663
vt 0.107358 0.931533
vt 0.107624 0.931057
vt 0.658782 0.669617
vt 0.112017 0.925081
vt 0.631701 0.632839
vt 0.120552 0.913588
vt 0.609164 0.602098
vt 0.133041 0.896837
vt 0.592095 0.578665
vt 0.149065 0.875391
vt 0.581016 0.563266
vt 0.096172 0.895358
vt 0.112023 0.881132
vt 0.578616 0.624876
vt 0.556865 0.604986
vt 0.132364 0.862921
vt 0.542716 0.591915
vt 0.156378 0.841460
vt 0.536336 0.585834
vt 0.182992 0.817708
vt 0.537482 0.586535
vt 0.680376 0.717115
vt 0.079427 0.910634
vt 0.079764 0.910212
vt 0.641782 0.682225
vt 0.085339 0.905125
vt 0.607313 0.650980
vt 0.673223 0.724975
vt 0.178123 0.812323
vt 0.056591 0.885246
vt 0.056987 0.884889
vt 0.627870 0.697574
vt 0.063526 0.880880
vt 0.587379 0.673051
vt 0.076233 0.873209
vt 0.553676 0.652575
vt 0.094830 0.862047
vt 0.528125 0.636977
vt 0.118698 0.847766
vt 0.511487 0.626729
vt 0.146882 0.830941
vt 0.503955 0.621957
vt 0.505242 0.622498
vt 0.535292 0.684091
vt 0.506967 0.673361
vt 0.082121 0.840324
vt 0.108591 0.830513
vt 0.488517 0.666309
vt 0.139854 0.818963
vt 0.480146 0.663020
vt 0.174518 0.806189
vt 0.481534 0.663379
vt 0.667918 0.733937
vt 0.039726 0.856358
vt 0.040164 0.856075
vt 0.617577 0.715062
vt 0.047413 0.853292
vt 0.572661 0.698180
vt 0.061501 0.848002
vt 0.029469 0.825093
vt 0.029934 0.824890
vt 0.664665 0.743656
vt 0.611291 0.734007
vt 0.037611 0.823432
vt 0.563709 0.725380
vt 0.052534 0.820716
vt 0.524146 0.718181
vt 0.074378 0.816805
vt 0.494172 0.712696
vt 0.102427 0.811829
vt 0.474649 0.709086
vt 0.135562 0.805988
vt 0.465783 0.707392
vt 0.172313 0.799542
vt 0.467231 0.707556
vt 0.071893 0.792399
vt 0.100439 0.792436
vt 0.490185 0.753444
vt 0.470361 0.753382
vt 0.134170 0.792517
vt 0.461357 0.753332
vt 0.171594 0.792639
vt 0.462821 0.753296
vt 0.663585 0.753756
vt 0.026201 0.792660
vt 0.026674 0.792541
vt 0.609244 0.753675
vt 0.034483 0.792454
vt 0.560844 0.753593
vt 0.049665 0.792405
vt 0.520632 0.753515
vt 0.664716 0.763847
vt 0.611501 0.773308
vt 0.030495 0.760272
vt 0.038137 0.761552
vt 0.564149 0.781731
vt 0.052994 0.764160
vt 0.524843 0.788728
vt 0.074750 0.768044
vt 0.495103 0.794029
vt 0.102696 0.773079
vt 0.475751 0.797486
vt 0.135728 0.779067
vt 0.466968 0.799065
vt 0.172386 0.785745
vt 0.468404 0.798830
vt 0.030033 0.760308
vt 0.508682 0.832903
vt 0.490547 0.839714
vt 0.109108 0.754501
vt 0.140174 0.766155
vt 0.482330 0.842847
vt 0.174659 0.779124
vt 0.483696 0.842421
vt 0.668012 0.773543
vt 0.040799 0.729278
vt 0.041234 0.729321
vt 0.617961 0.792153
vt 0.048416 0.731910
vt 0.573472 0.808717
vt 0.062380 0.737063
vt 0.536576 0.822475
vt 0.082832 0.744676
vt 0.058465 0.700868
vt 0.064913 0.704659
vt 0.628367 0.809494
vt 0.588431 0.833527
vt 0.077453 0.712150
vt 0.555344 0.853481
vt 0.095820 0.723186
vt 0.530355 0.868600
vt 0.119422 0.737414
vt 0.514128 0.878479
vt 0.147333 0.754276
vt 0.506795 0.883030
vt 0.178325 0.773031
vt 0.508052 0.882431
vt 0.673342 0.782474
vt 0.058075 0.700753
vt 0.133240 0.722469
vt 0.156931 0.743884
vt 0.545551 0.912339
vt 0.539385 0.918126
vt 0.183243 0.767700
vt 0.540499 0.917376
vt 0.680501 0.790297
vt 0.081185 0.675818
vt 0.081516 0.675997
vt 0.642311 0.824673
vt 0.086987 0.680836
vt 0.608438 0.855229
vt 0.097625 0.690368
vt 0.580405 0.880585
vt 0.113210 0.704395
vt 0.559258 0.899791
vt 0.113786 0.661344
vt 0.122121 0.672543
vt 0.632718 0.873012
vt 0.610786 0.902783
vt 0.134332 0.689016
vt 0.594271 0.925326
vt 0.150028 0.710236
vt 0.583596 0.940053
vt 0.168596 0.735375
vt 0.578835 0.946846
vt 0.189223 0.763334
vt 0.579776 0.945974
vt 0.689211 0.796717
vt 0.109241 0.655415
vt 0.109500 0.655646
vt 0.659255 0.837119
vt 0.181882 0.729075
vt 0.196035 0.760100
vt 0.623643 0.968150
vt 0.624389 0.967186
vt 0.699140 0.801488
vt 0.141167 0.640316
vt 0.141344 0.640586
vt 0.678550 0.846365
vt 0.144283 0.646917
vt 0.660344 0.886216
vt 0.150000 0.659351
vt 0.645331 0.919258
vt 0.158376 0.677632
vt 0.634060 0.944272
vt 0.169143 0.701179
vt 0.626816 0.960612
vt 0.690269 0.894353
vt 0.682733 0.929409
vt 0.180199 0.651287
vt 0.184423 0.670674
vt 0.677127 0.955943
vt 0.189854 0.695643
vt 0.673587 0.973274
vt 0.196280 0.725224
vt 0.672127 0.981270
vt 0.203419 0.758123
vt 0.672663 0.980250
vt 0.709908 0.804431
vt 0.175744 0.631089
vt 0.175834 0.631382
vt 0.699462 0.852065
vt 0.177316 0.638100
s 1
usemtl Material.001
f 674/327/674 673/328/673 212/329/212 213/330/213
f 196/331/196 195/332/195 205/333/205 206/334/206
f 666/335/666 274/336/274 199/337/199
f 500/338/500 674/327/674 213/330/213
f 197/339/197 196/340/196 206/341/206 207/342/207
f 667/343/667 666/335/666 199/337/199 200/344/200
f 670/345/670 197/339/197 207/342/207 208/346/208
f 193/347/193 667/343/667 200/344/200 201/348/201
f 198/349/198 670/345/670 208/346/208 209/350/209
f 668/351/668 193/347/193 201/348/201 202/352/202
f 671/353/671 198/349/198 209/350/209 210/354/210
f 194/355/194 668/351/668 202/352/202 203/356/203
f 672/357/672 671/353/671 210/354/210 211/358/211
f 669/359/669 194/355/194 203/356/203 204/360/204
f 673/328/673 672/357/672 211/358/211 212/329/212
f 195/332/195 669/359/669 204/360/204 205/333/205
f 212/329/212 211/358/211 226/361/226 227/362/227
f 205/333/205 204/360/204 219/363/219 220/364/220
f 213/330/213 212/329/212 227/362/227 228/365/228
f 206/334/206 205/333/205 220/364/220 221/366/221
f 199/337/199 274/336/274 214/367/214
f 500/338/500 213/330/213 228/365/228
f 207/342/207 206/341/206 221/368/221 222/369/222
f 200/344/200 199/337/199 214/367/214 215/370/215
f 208/346/208 207/342/207 222/369/222 223/371/223
f 201/348/201 200/344/200 215/370/215 216/372/216
f 209/350/209 208/346/208 223/371/223 224/373/224
f 202/352/202 201/348/201 216/372/216 217/374/217
f 210/354/210 209/350/209 224/373/224 225/375/225
f 203/356/203 202/352/202 217/374/217 218/376/218
f 211/358/211 210/354/210 225/375/225 226/361/226
f 204/360/204 203/356/203 218/376/218 219/363/219
f 216/372/216 215/370/215 230/377/230 231/378/231
f 224/373/224 223/371/223 238/379/238 239/380/239
f 217/374/217 216/372/216 231/378/231 232/381/232
f 225/375/225 224/373/224 239/380/239 240/382/240
f 218/376/218 217/374/217 232/381/232 233/383/233
f 226/361/226 225/375/225 240/382/240 241/384/241
f 219/363/219 218/376/218 233/383/233 234/385/234
f 227/362/227 226/361/226 241/384/241 242/386/242
f 220/364/220 219/363/219 234/385/234 235/387/235
f 228/365/228 227/362/227 242/386/242 243/388/243
f 221/366/221 220/364/220 235/387/235 236/389/236
f 214/367/214 274/336/274 229/390/229
f 500/338/500 228/365/228 243/388/243
f 222/369/222 221/368/221 236/391/236 237/392/237
f 215/370/215 214/367/214 229/390/229 230/377/230
f 223/371/223 222/369/222 237/392/237 238/379/238
f 235/387/235 234/385/234 249/393/249 250/394/250
f 243/388/243 242/386/242 257/395/257 258/396/258
f 236/389/236 235/387/235 250/394/250 251/397/251
f 229/390/229 274/336/274 244/398/244
f 500/338/500 243/388/243 258/396/258
f 237/392/237 236/391/236 251/399/251 252/400/252
f 230/377/230 229/390/229 244/398/244 245/401/245
f 238/379/238 237/392/237 252/400/252 253/402/253
f 231/378/231 230/377/230 245/401/245 246/403/246
f 239/380/239 238/379/238 253/402/253 254/404/254
f 232/381/232 231/378/231 246/403/246 247/405/247
f 240/382/240 239/380/239 254/404/254 255/406/255
f 233/383/233 232/381/232 247/405/247 248/407/248
f 241/384/241 240/382/240 255/406/255 256/408/256
f 234/385/234 233/383/233 248/407/248 249/393/249
f 242/386/242 241/384/241 256/408/256 257/395/257
f 254/404/254 253/402/253 268/409/268 269/410/269
f 247/405/247 246/403/246 261/411/261 262/412/262
f 255/406/255 254/404/254 269/410/269 270/413/270
f 248/407/248 247/405/247 262/412/262 263/414/263
f 256/408/256 255/406/255 270/413/270 271/415/271
f 249/393/249 248/407/248 263/414/263 264/416/264
f 257/395/257 256/408/256 271/415/271 272/417/272
f 250/394/250 249/393/249 264/416/264 265/418/265
f 258/396/258 257/395/257 272/417/272 273/419/273
f 251/397/251 250/394/250 265/418/265 266/420/266
f 244/398/244 274/336/274 259/421/259
f 500/338/500 258/396/258 273/419/273
f 252/400/252 251/399/251 266/422/266 267/423/267
f 245/401/245 244/398/244 259/421/259 260/424/260
f 253/402/253 252/400/252 267/423/267 268/409/268
f 246/403/246 245/401/245 260/424/260 261/411/261
f 273/419/273 272/417/272 288/425/288 289/426/289
f 266/420/266 265/418/265 281/427/281 282/428/282
f 259/421/259 274/336/274 275/429/275
f 500/338/500 273/419/273 289/426/289
f 267/423/267 266/422/266 282/430/282 283/431/283
f 260/424/260 259/421/259 275/429/275 276/432/276
f 268/409/268 267/423/267 283/431/283 284/433/284
f 261/411/261 260/424/260 276/432/276 277/434/277
f 269/410/269 268/409/268 284/433/284 285/435/285
f 262/412/262 261/411/261 277/434/277 278/436/278
f 270/413/270 269/410/269 285/435/285 286/437/286
f 263/414/263 262/412/262 278/436/278 279/438/279
f 271/415/271 270/413/270 286/437/286 287/439/287
f 264/416/264 263/414/263 279/438/279 280/440/280
f 272/417/272 271/415/271 287/439/287 288/425/288
f 265/418/265 264/416/264 280/440/280 281/427/281
f 278/436/278 277/434/277 292/441/292 293/442/293
f 286/437/286 285/435/285 300/443/300 301/444/301
f 279/438/279 278/436/278 293/442/293 294/445/294
f 287/439/287 286/437/286 301/444/301 302/446/302
f 280/440/280 279/438/279 294/445/294 295/447/295
f 288/425/288 287/439/287 302/446/302 303/448/303
f 281/427/281 280/440/280 295/447/295 296/449/296
f 289/426/289 288/425/288 303/448/303 304/450/304
f 282/428/282 281/427/281 296/449/296 297/451/297
f 275/429/275 274/336/274 290/452/290
f 500/338/500 289/426/289 304/450/304
f 283/431/283 282/430/282 297/453/297 298/454/298
f 276/432/276 275/429/275 290/452/290 291/455/291
f 284/433/284 283/431/283 298/454/298 299/456/299
f 277/434/277 276/432/276 291/455/291 292/441/292
f 285/435/285 284/433/284 299/456/299 300/443/300
f 297/451/297 296/449/296 311/457/311 312/458/312
f 290/452/290 274/336/274 305/459/305
f 500/338/500 304/450/304 319/460/319
f 298/454/298 297/453/297 312/461/312 313/462/313
f 291/455/291 290/452/290 305/459/305 306/463/306
f 299/456/299 298/454/298 313/462/313 314/464/314
f 292/441/292 291/455/291 306/463/306 307/465/307
f 300/443/300 299/456/299 314/464/314 315/466/315
f 293/442/293 292/441/292 307/465/307 308/467/308
f 301/444/301 300/443/300 315/466/315 316/468/316
f 294/445/294 293/442/293 308/467/308 309/469/309
f 302/446/302 301/444/301 316/468/316 317/470/317
f 295/447/295 294/445/294 309/469/309 310/471/310
f 303/448/303 302/446/302 317/470/317 318/472/318
f 296/449/296 295/447/295 310/471/310 311/457/311
f 304/450/304 303/448/303 318/472/318 319/460/319
f 316/468/316 315/466/315 330/473/330 331/474/331
f 309/469/309 308/467/308 323/475/323 324/476/324
f 317/470/317 316/468/316 331/474/331 332/477/332
f 310/471/310 309/469/309 324/476/324 325/478/325
f 318/472/318 317/470/317 332/477/332 333/479/333
f 311/457/311 310/471/310 325/478/325 326/480/326
f 319/460/319 318/472/318 333/479/333 334/481/334
f 312/458/312 311/457/311 326/480/326 327/482/327
f 305/459/305 274/336/274 320/483/320
f 500/338/500 319/460/319 334/481/334
f 313/462/313 312/461/312 327/484/327 328/485/328
f 306/463/306 305/459/305 320/483/320 321/486/321
f 314/464/314 313/462/313 328/485/328 329/487/329
f 307/465/307 306/463/306 321/486/321 322/488/322
f 315/466/315 314/464/314 329/487/329 330/473/330
f 308/467/308 307/465/307 322/488/322 323/475/323
f 500/338/500 334/481/334 349/489/349
f 328/485/328 327/484/327 342/490/342 343/491/343
f 321/486/321 320/483/320 335/492/335 336/493/336
f 329/487/329 328/485/328 343/491/343 344/494/344
f 322/488/322 321/486/321 336/493/336 337/495/337
f 330/473/330 329/487/329 344/494/344 345/496/345
f 323/475/323 322/488/322 337/495/337 338/497/338
f 331/474/331 330/473/330 345/496/345 346/498/346
f 324/476/324 323/475/323 338/497/338 339/499/339
f 332/477/332 331/474/331 346/498/346 347/500/347
f 325/478/325 324/476/324 339/499/339 340/501/340
f 333/479/333 332/477/332 347/500/347 348/502/348
f 326/480/326 325/478/325 340/501/340 341/503/341
f 334/481/334 333/479/333 348/502/348 349/489/349
f 327/482/327 326/480/326 341/503/341 342/504/342
f 320/483/320 274/336/274 335/492/335
f 347/500/347 346/498/346 361/505/361 362/506/362
f 340/501/340 339/499/339 354/507/354 355/508/355
f 348/502/348 347/500/347 362/506/362 363/509/363
f 341/503/341 340/501/340 355/508/355 356/510/356
f 349/489/349 348/502/348 363/509/363 364/511/364
f 342/504/342 341/503/341 356/510/356 357/512/357
f 335/492/335 274/336/274 350/513/350
f 500/338/500 349/489/349 364/511/364
f 343/491/343 342/490/342 357/514/357 358/515/358
f 336/493/336 335/492/335 350/513/350 351/516/351
f 344/494/344 343/491/343 358/515/358 359/517/359
f 337/495/337 336/493/336 351/516/351 352/518/352
f 345/496/345 344/494/344 359/517/359 360/519/360
f 338/497/338 337/495/337 352/518/352 353/520/353
f 346/498/346 345/496/345 360/519/360 361/505/361
f 339/499/339 338/497/338 353/520/353 354/507/354
f 351/516/351 350/513/350 365/521/365 366/522/366
f 359/517/359 358/515/358 373/523/373 374/524/374
f 352/518/352 351/516/351 366/522/366 367/525/367
f 360/519/360 359/517/359 374/524/374 375/526/375
f 353/520/353 352/518/352 367/525/367 368/527/368
f 361/505/361 360/519/360 375/526/375 376/528/376
f 354/507/354 353/520/353 368/527/368 369/529/369
f 362/506/362 361/505/361 376/528/376 377/530/377
f 355/508/355 354/507/354 369/529/369 370/531/370
f 363/509/363 362/506/362 377/530/377 378/532/378
f 356/510/356 355/508/355 370/531/370 371/533/371
f 364/511/364 363/509/363 378/532/378 379/534/379
f 357/512/357 356/510/356 371/533/371 372/535/372
f 350/513/350 274/336/274 365/521/365
f 500/338/500 364/511/364 379/534/379
f 358/515/358 357/514/357 372/536/372 373/523/373
f 370/531/370 369/529/369 384/537/384 385/538/385
f 378/532/378 377/530/377 392/539/392 393/540/393
f 371/533/371 370/531/370 385/538/385 386/541/386
f 379/534/379 378/532/378 393/540/393 394/542/394
f 372/535/372 371/533/371 386/541/386 387/543/387
f 365/521/365 274/336/274 380/544/380
f 500/338/500 379/534/379 394/542/394
f 373/523/373 372/536/372 387/545/387 388/546/388
f 366/522/366 365/521/365 380/544/380 381/547/381
f 374/524/374 373/523/373 388/546/388 389/548/389
f 367/525/367 366/522/366 381/547/381 382/549/382
f 375/526/375 374/524/374 389/548/389 390/550/390
f 368/527/368 367/525/367 382/549/382 383/551/383
f 376/528/376 375/526/375 390/550/390 391/552/391
f 369/529/369 368/527/368 383/551/383 384/537/384
f 377/530/377 376/528/376 391/552/391 392/539/392
f 389/548/389 388/546/388 403/553/403 404/554/404
f 382/549/382 381/547/381 396/555/396 397/556/397
f 390/550/390 389/548/389 404/554/404 405/557/405
f 383/551/383 382/549/382 397/556/397 398/558/398
f 391/552/391 390/550/390 405/557/405 406/559/406
f 384/537/384 383/551/383 398/558/398 399/560/399
f 392/539/392 391/552/391 406/559/406 407/561/407
f 385/538/385 384/537/384 399/560/399 400/562/400
f 393/540/393 392/539/392 407/561/407 408/563/408
f 386/541/386 385/538/385 400/562/400 401/564/401
f 394/542/394 393/540/393 408/563/408 409/565/409
f 387/543/387 386/541/386 401/564/401 402/566/402
f 380/544/380 274/336/274 395/567/395
f 500/338/500 394/542/394 409/565/409
f 388/546/388 387/545/387 402/568/402 403/553/403
f 381/547/381 380/544/380 395/567/395 396/555/396
f 408/563/408 407/561/407 422/569/422 423/570/423
f 401/564/401 400/562/400 415/571/415 416/572/416
f 409/565/409 408/563/408 423/570/423 424/573/424
f 402/566/402 401/564/401 416/572/416 417/574/417
f 395/567/395 274/336/274 410/575/410
f 500/338/500 409/565/409 424/573/424
f 403/553/403 402/568/402 417/576/417 418/577/418
f 396/555/396 395/567/395 410/575/410 411/578/411
f 404/554/404 403/553/403 418/577/418 419/579/419
f 397/556/397 396/555/396 411/578/411 412/580/412
f 405/557/405 404/554/404 419/579/419 420/581/420
f 398/558/398 397/556/397 412/580/412 413/582/413
f 406/559/406 405/557/405 420/581/420 421/583/421
f 399/560/399 398/558/398 413/582/413 414/584/414
f 407/561/407 406/559/406 421/583/421 422/569/422
f 400/562/400 399/560/399 414/584/414 415/571/415
f 412/580/412 411/578/411 426/585/426 427/586/427
f 420/581/420 419/579/419 434/587/434 435/588/435
f 413/582/413 412/580/412 427/586/427 428/589/428
f 421/583/421 420/581/420 435/588/435 436/590/436
f 414/584/414 413/582/413 428/589/428 429/591/429
f 422/569/422 421/583/421 436/590/436 437/592/437
f 415/571/415 414/584/414 429/591/429 430/593/430
f 423/570/423 422/569/422 437/592/437 438/594/438
f 416/572/416 415/571/415 430/593/430 431/595/431
f 424/573/424 423/570/423 438/594/438 439/596/439
f 417/574/417 416/572/416 431/595/431 432/597/432
f 410/575/410 274/336/274 425/598/425
f 500/338/500 424/573/424 439/596/439
f 418/577/418 417/576/417 432/599/432 433/600/433
f 411/578/411 410/575/410 425/598/425 426/585/426
f 419/579/419 418/577/418 433/600/433 434/587/434
f 431/595/431 430/593/430 445/601/445 446/602/446
f 439/596/439 438/594/438 453/603/453 454/604/454
f 432/597/432 431/595/431 446/602/446 447/605/447
f 425/598/425 274/336/274 440/606/440
f 500/338/500 439/596/439 454/604/454
f 433/600/433 432/599/432 447/607/447 448/608/448
f 426/585/426 425/598/425 440/606/440 441/609/441
f 434/587/434 433/600/433 448/608/448 449/610/449
f 427/586/427 426/585/426 441/609/441 442/611/442
f 435/588/435 434/587/434 449/610/449 450/612/450
f 428/589/428 427/586/427 442/611/442 443/613/443
f 436/590/436 435/588/435 450/612/450 451/614/451
f 429/591/429 428/589/428 443/613/443 444/615/444
f 437/592/437 436/590/436 451/614/451 452/616/452
f 430/593/430 429/591/429 444/615/444 445/601/445
f 438/594/438 437/592/437 452/616/452 453/603/453
f 450/612/450 449/610/449 464/617/464 465/618/465
f 443/613/443 442/611/442 457/619/457 458/620/458
f 451/614/451 450/612/450 465/618/465 466/621/466
f 444/615/444 443/613/443 458/620/458 459/622/459
f 452/616/452 451/614/451 466/621/466 467/623/467
f 445/601/445 444/615/444 459/622/459 460/624/460
f 453/603/453 452/616/452 467/623/467 468/625/468
f 446/602/446 445/601/445 460/624/460 461/626/461
f 454/604/454 453/603/453 468/625/468 469/627/469
f 447/605/447 446/602/446 461/626/461 462/628/462
f 440/606/440 274/336/274 455/629/455
f 500/338/500 454/604/454 469/627/469
f 448/608/448 447/607/447 462/630/462 463/631/463
f 441/609/441 440/606/440 455/629/455 456/632/456
f 449/610/449 448/608/448 463/631/463 464/617/464
f 442/611/442 441/609/441 456/632/456 457/619/457
f 469/627/469 468/625/468 483/633/483 484/634/484
f 462/628/462 461/626/461 476/635/476 477/636/477
f 455/629/455 274/336/274 470/637/470
f 500/338/500 469/627/469 484/634/484
f 463/631/463 462/630/462 477/638/477 478/639/478
f 456/632/456 455/629/455 470/637/470 471/640/471
f 464/617/464 463/631/463 478/639/478 479/641/479
f 457/619/457 456/632/456 471/640/471 472/642/472
f 465/618/465 464/617/464 479/641/479 480/643/480
f 458/620/458 457/619/457 472/642/472 473/644/473
f 466/621/466 465/618/465 480/643/480 481/645/481
f 459/622/459 458/620/458 473/644/473 474/646/474
f 467/623/467 466/621/466 481/645/481 482/647/482
f 460/624/460 459/622/459 474/646/474 475/648/475
f 468/625/468 467/623/467 482/647/482 483/633/483
f 461/626/461 460/624/460 475/648/475 476/635/476
f 481/645/481 480/643/480 495/649/495 496/650/496
f 474/646/474 473/644/473 488/651/488 489/652/489
f 482/647/482 481/645/481 496/650/496 497/653/497
f 475/648/475 474/646/474 489/652/489 490/654/490
f 483/633/483 482/647/482 497/653/497 498/655/498
f 476/635/476 475/648/475 490/654/490 491/656/491
f 484/634/484 483/633/483 498/655/498 499/657/499
f 477/636/477 476/635/476 491/656/491 492/658/492
f 470/637/470 274/336/274 485/659/485
f 500/338/500 484/634/484 499/657/499
f 478/639/478 477/638/477 492/660/492 493/661/493
f 471/640/471 470/637/470 485/659/485 486/662/486
f 479/641/479 478/639/478 493/661/493 494/663/494
f 472/642/472 471/640/471 486/662/486 487/664/487
f 480/643/480 479/641/479 494/663/494 495/649/495
f 473/644/473 472/642/472 487/664/487 488/651/488
f 485/659/485 274/336/274 501/665/501
f 500/338/500 499/657/499 515/666/515
f 493/661/493 492/660/492 508/667/508 509/668/509
f 486/662/486 485/659/485 501/665/501 502/669/502
f 494/663/494 493/661/493 509/668/509 510/670/510
f 487/664/487 486/662/486 502/669/502 503/671/503
f 495/649/495 494/663/494 510/670/510 511/672/511
f 488/651/488 487/664/487 503/671/503 504/673/504
f 496/650/496 495/649/495 511/672/511 512/674/512
f 489/652/489 488/651/488 504/673/504 505/675/505
f 497/653/497 496/650/496 512/674/512 513/676/513
f 490/654/490 489/652/489 505/675/505 506/677/506
f 498/655/498 497/653/497 513/676/513 514/678/514
f 491/656/491 490/654/490 506/677/506 507/679/507
f 499/657/499 498/655/498 514/678/514 515/666/515
f 492/658/492 491/656/491 507/679/507 508/680/508
f 505/675/505 504/673/504 519/681/519 520/682/520
f 513/676/513 512/674/512 527/683/527 528/684/528
f 506/677/506 505/675/505 520/682/520 521/685/521
f 514/678/514 513/676/513 528/684/528 529/686/529
f 507/679/507 506/677/506 521/685/521 522/687/522
f 515/666/515 514/678/514 529/686/529 530/688/530
f 508/680/508 507/679/507 522/687/522 523/689/523
f 501/665/501 274/336/274 516/690/516
f 500/338/500 515/666/515 530/688/530
f 509/668/509 508/667/508 523/691/523 524/692/524
f 502/669/502 501/665/501 516/690/516 517/693/517
f 510/670/510 509/668/509 524/692/524 525/694/525
f 503/671/503 502/669/502 517/693/517 518/695/518
f 511/672/511 510/670/510 525/694/525 526/696/526
f 504/673/504 503/671/503 518/695/518 519/681/519
f 512/674/512 511/672/511 526/696/526 527/683/527
f 524/692/524 523/691/523 538/697/538 539/698/539
f 517/693/517 516/690/516 531/699/531 532/700/532
f 525/694/525 524/692/524 539/698/539 540/701/540
f 518/695/518 517/693/517 532/700/532 533/702/533
f 526/696/526 525/694/525 540/701/540 541/703/541
f 519/681/519 518/695/518 533/702/533 534/704/534
f 527/683/527 526/696/526 541/703/541 542/705/542
f 520/682/520 519/681/519 534/704/534 535/706/535
f 528/684/528 527/683/527 542/705/542 543/707/543
f 521/685/521 520/682/520 535/706/535 536/708/536
f 529/686/529 528/684/528 543/707/543 544/709/544
f 522/687/522 521/685/521 536/708/536 537/710/537
f 530/688/530 529/686/529 544/709/544 545/711/545
f 523/689/523 522/687/522 537/710/537 538/712/538
f 516/690/516 274/336/274 531/699/531
f 500/338/500 530/688/530 545/711/545
f 543/707/543 542/705/542 557/713/557 558/714/558
f 536/708/536 535/706/535 550/715/550 551/716/551
f 544/709/544 543/707/543 558/714/558 559/717/559
f 537/710/537 536/708/536 551/716/551 552/718/552
f 545/711/545 544/709/544 559/717/559 560/719/560
f 538/712/538 537/710/537 552/718/552 553/720/553
f 531/699/531 274/336/274 546/721/546
f 500/338/500 545/711/545 560/719/560
f 539/698/539 538/697/538 553/722/553 554/723/554
f 532/700/532 531/699/531 546/721/546 547/724/547
f 540/701/540 539/698/539 554/723/554 555/725/555
f 533/702/533 532/700/532 547/724/547 548/726/548
f 541/703/541 540/701/540 555/725/555 556/727/556
f 534/704/534 533/702/533 548/726/548 549/728/549
f 542/705/542 541/703/541 556/727/556 557/713/557
f 535/706/535 534/704/534 549/728/549 550/715/550
f 547/724/547 546/721/546 561/729/561 562/730/562
f 555/725/555 554/723/554 569/731/569 570/732/570
f 548/726/548 547/724/547 562/730/562 563/733/563
f 556/727/556 555/725/555 570/732/570 571/734/571
f 549/728/549 548/726/548 563/733/563 564/735/564
f 557/713/557 556/727/556 571/734/571 572/736/572
f 550/715/550 549/728/549 564/735/564 565/737/565
f 558/714/558 557/713/557 572/736/572 573/738/573
f 551/716/551 550/715/550 565/737/565 566/739/566
f 559/717/559 558/714/558 573/738/573 574/740/574
f 552/718/552 551/716/551 566/739/566 567/741/567
f 560/719/560 559/717/559 574/740/574 575/742/575
f 553/720/553 552/718/552 567/741/567 568/743/568
f 546/721/546 274/336/274 561/729/561
f 500/338/500 560/719/560 575/742/575
f 554/723/554 553/722/553 568/744/568 569/731/569
f 566/739/566 565/737/565 580/745/580 581/746/581
f 574/740/574 573/738/573 588/747/588 589/748/589
f 567/741/567 566/739/566 581/746/581 582/749/582
f 575/742/575 574/740/574 589/748/589 590/750/590
f 568/743/568 567/741/567 582/749/582 583/751/583
f 561/729/561 274/336/274 576/752/576
f 500/338/500 575/742/575 590/750/590
f 569/731/569 568/744/568 583/753/583 584/754/584
f 562/730/562 561/729/561 576/752/576 577/755/577
f 570/732/570 569/731/569 584/754/584 585/756/585
f 563/733/563 562/730/562 577/755/577 578/757/578
f 571/734/571 570/732/570 585/756/585 586/758/586
f 564/735/564 563/733/563 578/757/578 579/759/579
f 572/736/572 571/734/571 586/758/586 587/760/587
f 565/737/565 564/735/564 579/759/579 580/745/580
f 573/738/573 572/736/572 587/760/587 588/747/588
f 585/756/585 584/754/584 599/761/599 600/762/600
f 578/757/578 577/755/577 592/763/592 593/764/593
f 586/758/586 585/756/585 600/762/600 601/765/601
f 579/759/579 578/757/578 593/764/593 594/766/594
f 587/760/587 586/758/586 601/765/601 602/767/602
f 580/745/580 579/759/579 594/766/594 595/768/595
f 588/747/588 587/760/587 602/767/602 603/769/603
f 581/746/581 580/745/580 595/768/595 596/770/596
f 589/748/589 588/747/588 603/769/603 604/771/604
f 582/749/582 581/746/581 596/770/596 597/772/597
f 590/750/590 589/748/589 604/771/604 605/773/605
f 583/751/583 582/749/582 597/772/597 598/774/598
f 576/752/576 274/336/274 591/775/591
f 500/338/500 590/750/590 605/773/605
f 584/754/584 583/753/583 598/776/598 599/761/599
f 577/755/577 576/752/576 591/775/591 592/763/592
f 604/771/604 603/769/603 618/777/618 619/778/619
f 597/772/597 596/770/596 611/779/611 612/780/612
f 605/773/605 604/771/604 619/778/619 620/781/620
f 598/774/598 597/772/597 612/780/612 613/782/613
f 591/775/591 274/336/274 606/783/606
f 500/338/500 605/773/605 620/781/620
f 599/761/599 598/776/598 613/784/613 614/785/614
f 592/763/592 591/775/591 606/783/606 607/786/607
f 600/762/600 599/761/599 614/785/614 615/787/615
f 593/764/593 592/763/592 607/786/607 608/788/608
f 601/765/601 600/762/600 615/787/615 616/789/616
f 594/766/594 593/764/593 608/788/608 609/790/609
f 602/767/602 601/765/601 616/789/616 617/791/617
f 595/768/595 594/766/594 609/790/609 610/792/610
f 603/769/603 602/767/602 617/791/617 618/777/618
f 596/770/596 595/768/595 610/792/610 611/779/611
f 616/789/616 615/787/615 630/793/630 631/794/631
f 609/790/609 608/788/608 623/795/623 624/796/624
f 617/791/617 616/789/616 631/794/631 632/797/632
f 610/792/610 609/790/609 624/796/624 625/798/625
f 618/777/618 617/791/617 632/797/632 633/799/633
f 611/779/611 610/792/610 625/798/625 626/800/626
f 619/778/619 618/777/618 633/799/633 634/801/634
f 612/780/612 611/779/611 626/800/626 627/802/627
f 620/781/620 619/778/619 634/801/634 635/803/635
f 613/782/613 612/780/612 627/802/627 628/804/628
f 606/783/606 274/336/274 621/805/621
f 500/338/500 620/781/620 635/803/635
f 614/785/614 613/784/613 628/806/628 629/807/629
f 607/786/607 606/783/606 621/805/621 622/808/622
f 615/787/615 614/785/614 629/807/629 630/793/630
f 608/788/608 607/786/607 622/808/622 623/795/623
f 635/803/635 634/801/634 649/809/649 650/810/650
f 628/804/628 627/802/627 642/811/642 643/812/643
f 621/805/621 274/336/274 636/813/636
f 500/338/500 635/803/635 650/810/650
f 629/807/629 628/806/628 643/814/643 644/815/644
f 622/808/622 621/805/621 636/813/636 637/816/637
f 630/793/630 629/807/629 644/815/644 645/817/645
f 623/795/623 622/808/622 637/816/637 638/818/638
f 631/794/631 630/793/630 645/817/645 646/819/646
f 624/796/624 623/795/623 638/818/638 639/820/639
f 632/797/632 631/794/631 646/819/646 647/821/647
f 625/798/625 624/796/624 639/820/639 640/822/640
f 633/799/633 632/797/632 647/821/647 648/823/648
f 626/800/626 625/798/625 640/822/640 641/824/641
f 634/801/634 633/799/633 648/823/648 649/809/649
f 627/802/627 626/800/626 641/824/641 642/811/642
f 639/820/639 638/818/638 653/825/653 654/826/654
f 647/821/647 646/819/646 661/827/661 662/828/662
f 640/822/640 639/820/639 654/826/654 655/829/655
f 648/823/648 647/821/647 662/828/662 663/830/663
f 641/824/641 640/822/640 655/829/655 656/831/656
f 649/809/649 648/823/648 663/830/663 664/832/664
f 642/811/642 641/824/641 656/831/656 657/833/657
f 650/810/650 649/809/649 664/832/664 665/834/665
f 643/812/643 642/811/642 657/833/657 658/835/658
f 636/813/636 274/336/274 651/836/651
f 500/338/500 650/810/650 665/834/665
f 644/815/644 643/814/643 658/837/658 659/838/659
f 637/816/637 636/813/636 651/836/651 652/839/652
f 645/817/645 644/815/644 659/838/659 660/840/660
f 638/818/638 637/816/637 652/839/652 653/825/653
f 646/819/646 645/817/645 660/840/660 661/827/661
f 658/835/658 657/833/657 195/332/195 196/331/196
f 651/836/651 274/336/274 666/335/666
f 500/338/500 665/834/665 674/327/674
f 659/838/659 658/837/658 196/340/196 197/339/197
f 652/839/652 651/836/651 666/335/666 667/343/667
f 660/840/660 659/838/659 197/339/197 670/345/670
f 653/825/653 652/839/652 667/343/667 193/347/193
f 661/827/661 660/840/660 670/345/670 198/349/198
f 654/826/654 653/825/653 193/347/193 668/351/668
f 662/828/662 661/827/661 198/349/198 671/353/671
f 655/829/655 654/826/654 668/351/668 194/355/194
f 663/830/663 662/828/662 671/353/671 672/357/672
f 656/831/656 655/829/655 194/355/194 669/359/669
f 664/832/664 663/830/663 672/357/672 673/328/673
f 657/833/657 656/831/656 669/359/669 195/332/195
f 665/834/665 664/832/664 673/328/673 674/327/674
