# Blender 4.2.1 LTS
# www.blender.org
mtllib Cliffs_04.mtl
o Cube
v 0.793712 1.000000 -1.082927
v 0.577995 -1.000000 -1.086216
v 0.875091 1.000000 1.081449
v 0.875091 -1.000000 1.081449
v -0.939110 1.000000 -1.265717
v -0.939110 -1.000000 -1.265717
v -0.939110 1.000000 1.268180
v -0.939110 -1.000000 1.268180
v -0.984805 -1.000000 0.013350
v 0.000000 -1.000000 -1.187447
v 0.707239 0.000000 -1.159841
v -0.939110 0.000000 1.268180
v 0.939528 0.000000 1.177935
v -0.939110 0.000000 -1.265717
v 0.000000 1.000000 1.223776
v 1.129135 1.000000 0.000000
v 0.000000 -1.000000 1.223776
v -0.939110 1.000000 0.000000
v 0.000000 1.000000 -1.187447
v 1.129135 -1.000000 0.000000
v 0.000000 0.000000 -1.306725
v 1.290491 0.000000 0.000000
v 0.000000 -1.000000 0.000000
v -0.939110 0.000000 0.000000
v 0.000000 0.000000 1.322726
v 0.000000 1.042904 0.000000
vn -0.0224 0.9996 0.0172
vn -0.0054 0.0494 0.9988
vn -1.0000 -0.0000 -0.0000
vn -0.0000 -1.0000 -0.0000
vn 0.9589 0.1206 0.2568
vn 0.1645 0.0892 -0.9823
vn 0.1885 -0.1063 -0.9763
vn 0.0198 -0.0595 -0.9980
vn 0.0198 0.0595 -0.9980
vn 0.9589 -0.1206 0.2568
vn 0.8832 -0.1448 -0.4461
vn 0.9243 0.0492 -0.3786
vn -0.9996 0.0227 -0.0179
vn -0.9996 0.0230 0.0181
vn -0.0054 -0.0494 0.9988
vn 0.1555 -0.1010 0.9827
vn 0.1555 0.1010 0.9827
vn 0.0229 0.9995 0.0211
vn 0.0235 0.9995 -0.0224
vn -0.0221 0.9996 -0.0175
vt 0.500000 0.910469
vt 0.499299 0.995908
vt 0.384048 0.994959
vt 0.389276 0.909721
vt 0.302581 0.405395
vt 0.302626 0.499387
vt 0.214157 0.499733
vt 0.214608 0.405638
vt 0.870068 0.105437
vt 0.870073 0.195310
vt 0.755551 0.195991
vt 0.755690 0.105375
vt 0.500000 0.094221
vt 0.500830 0.194944
vt 0.403631 0.173256
vt 0.389310 0.095127
vt 0.500318 0.408239
vt 0.500273 0.500717
vt 0.403687 0.498133
vt 0.394420 0.408799
vt 0.672567 0.411651
vt 0.672514 0.504076
vt 0.599952 0.502706
vt 0.607119 0.411452
vt 0.672515 0.318582
vt 0.619470 0.319662
vt 0.760684 0.317749
vt 0.760532 0.411588
vt 0.760381 0.505107
vt 0.500272 0.316665
vt 0.404063 0.320009
vt 0.593092 0.323765
vt 0.601221 0.409154
vt 0.595764 0.497276
vt 0.498043 0.004609
vt 0.383562 0.009750
vt 0.614829 0.007840
vt 0.607424 0.093342
vt 0.598158 0.145252
vt 0.871496 0.015221
vt 0.755828 0.014987
vt 0.982659 0.016579
vt 0.982804 0.105498
vt 0.982949 0.194639
vt 0.302631 0.313159
vt 0.215055 0.312493
vt 0.382371 0.315392
vt 0.389725 0.405973
vt 0.383160 0.498229
vt 0.500834 0.809088
vt 0.403202 0.831044
vt 0.598211 0.839937
vt 0.607447 0.911511
vt 0.614338 0.996857
s 0
usemtl Material
f 26/1/1 18/2/1 7/3/1 15/4/1
f 25/5/2 15/6/2 7/7/2 12/8/2
f 24/9/3 18/10/3 5/11/3 14/12/3
f 23/13/4 20/14/4 4/15/4 17/16/4
f 22/17/5 16/18/5 3/19/5 13/20/5
f 21/21/6 19/22/6 1/23/6 11/24/6
f 10/25/7 21/21/7 11/24/7 2/26/7
f 6/27/8 14/28/8 21/21/8 10/25/8
f 14/28/9 5/29/9 19/22/9 21/21/9
f 20/30/10 22/17/10 13/20/10 4/31/10
f 2/32/11 11/33/11 22/17/11 20/30/11
f 11/33/12 1/34/12 16/18/12 22/17/12
f 9/35/4 23/13/4 17/16/4 8/36/4
f 6/37/4 10/38/4 23/13/4 9/35/4
f 10/38/4 2/39/4 20/14/4 23/13/4
f 9/40/13 24/9/13 14/12/13 6/41/13
f 8/42/14 12/43/14 24/9/14 9/40/14
f 12/43/3 7/44/3 18/10/3 24/9/3
f 17/45/15 25/5/15 12/8/15 8/46/15
f 4/47/16 13/48/16 25/5/16 17/45/16
f 13/48/17 3/49/17 15/6/17 25/5/17
f 16/50/18 26/1/18 15/4/18 3/51/18
f 1/52/19 19/53/19 26/1/19 16/50/19
f 19/53/20 5/54/20 18/2/20 26/1/20
