# Blender 4.2.1 LTS
# www.blender.org
mtllib Cliffs_03.mtl
o Cube
v 0.793712 1.000000 -1.082927
v 0.435096 -1.000000 -1.086216
v 0.875091 1.000000 1.081449
v 0.875091 -1.000000 1.081449
v -0.939110 1.000000 -1.265717
v -0.939110 -1.000000 -1.265717
v -0.939110 1.000000 1.268180
v -0.939110 -1.000000 1.268180
v -0.984805 -1.000000 0.013350
v 0.000000 -1.000000 -1.187447
v 0.435096 0.000000 -1.086216
v -0.939110 0.000000 1.268180
v 0.939528 0.000000 0.919359
v -0.939110 0.000000 -1.265717
v 0.000000 1.000000 1.223776
v 1.129135 1.000000 0.000000
v 0.000000 -1.000000 1.223776
v -0.939110 1.000000 0.000000
v 0.000000 1.000000 -1.187447
v 1.129135 -1.000000 0.000000
v 0.000000 0.000000 -1.306725
v 1.290491 0.000000 0.000000
v 0.000000 -1.000000 0.000000
v -0.939110 0.000000 0.000000
v 0.000000 0.000000 1.322726
v 0.000000 1.042904 0.000000
vn -0.0224 0.9996 0.0172
vn -0.0054 0.0494 0.9988
vn -1.0000 -0.0000 -0.0000
vn -0.0000 -1.0000 -0.0000
vn 0.9538 0.0843 0.2884
vn 0.2557 0.0134 -0.9667
vn 0.3462 -0.0559 -0.9365
vn 0.0198 -0.0595 -0.9980
vn 0.0198 0.0595 -0.9980
vn 0.9538 -0.0843 0.2884
vn 0.8124 -0.0655 -0.5794
vn 0.8734 -0.0854 -0.4795
vn -0.9996 0.0227 -0.0179
vn -0.9996 0.0230 0.0181
vn -0.0054 -0.0494 0.9988
vn 0.2879 0.0209 0.9574
vn 0.2879 -0.0209 0.9574
vn 0.0229 0.9995 0.0211
vn 0.0235 0.9995 -0.0224
vn -0.0221 0.9996 -0.0175
vt 0.500000 0.866577
vt 0.500389 0.998095
vt 0.322848 0.998625
vt 0.330906 0.867574
vt 0.227918 0.499206
vt 0.226982 0.644032
vt 0.089066 0.646813
vt 0.089178 0.499211
vt 0.821468 0.149252
vt 0.821474 0.286213
vt 0.647404 0.286730
vt 0.647921 0.149199
vt 0.230266 0.147344
vt 0.231545 0.303221
vt 0.081919 0.269409
vt 0.061106 0.148733
vt 0.499440 0.496622
vt 0.499525 0.639054
vt 0.353602 0.632356
vt 0.374114 0.497215
vt 0.758582 0.499217
vt 0.758616 0.643018
vt 0.647021 0.640015
vt 0.697457 0.499379
vt 0.758617 0.355837
vt 0.697508 0.358867
vt 0.895587 0.353375
vt 0.895703 0.499248
vt 0.895820 0.645370
vt 0.499527 0.355312
vt 0.354150 0.362779
vt 0.634659 0.373813
vt 0.634891 0.497924
vt 0.643833 0.630528
vt 0.227300 0.011081
vt 0.053714 0.018837
vt 0.404348 0.015957
vt 0.394408 0.145997
vt 0.380834 0.206225
vt 0.823419 0.011771
vt 0.648436 0.012494
vt 0.993402 0.013720
vt 0.993921 0.149304
vt 0.994443 0.285700
vt 0.226968 0.354775
vt 0.089289 0.351863
vt 0.347162 0.360326
vt 0.350667 0.499523
vt 0.347373 0.638730
vt 0.499546 0.713991
vt 0.352009 0.748451
vt 0.647670 0.758540
vt 0.664058 0.866592
vt 0.677566 0.997566
s 0
usemtl Cliff_03.001
f 26/1/1 18/2/1 7/3/1 15/4/1
f 25/5/2 15/6/2 7/7/2 12/8/2
f 24/9/3 18/10/3 5/11/3 14/12/3
f 23/13/4 20/14/4 4/15/4 17/16/4
f 22/17/5 16/18/5 3/19/5 13/20/5
f 21/21/6 19/22/6 1/23/6 11/24/6
f 10/25/7 21/21/7 11/24/7 2/26/7
f 6/27/8 14/28/8 21/21/8 10/25/8
f 14/28/9 5/29/9 19/22/9 21/21/9
f 20/30/10 22/17/10 13/20/10 4/31/10
f 2/32/11 11/33/11 22/17/11 20/30/11
f 11/33/12 1/34/12 16/18/12 22/17/12
f 9/35/4 23/13/4 17/16/4 8/36/4
f 6/37/4 10/38/4 23/13/4 9/35/4
f 10/38/4 2/39/4 20/14/4 23/13/4
f 9/40/13 24/9/13 14/12/13 6/41/13
f 8/42/14 12/43/14 24/9/14 9/40/14
f 12/43/3 7/44/3 18/10/3 24/9/3
f 17/45/15 25/5/15 12/8/15 8/46/15
f 4/47/16 13/48/16 25/5/16 17/45/16
f 13/48/17 3/49/17 15/6/17 25/5/17
f 16/50/18 26/1/18 15/4/18 3/51/18
f 1/52/19 19/53/19 26/1/19 16/50/19
f 19/53/20 5/54/20 18/2/20 26/1/20
