# Blender 4.2.1 LTS
# www.blender.org
mtllib Cliffs_01.mtl
o Cube
v 0.664578 1.000000 -0.727642
v 0.435096 -1.000000 -0.730931
v 0.686047 1.000000 0.762102
v 0.686047 -1.000000 0.762102
v -0.939110 1.000000 -1.265717
v -0.939110 -1.000000 -1.265717
v -0.939110 1.000000 1.268180
v -0.939110 -1.000000 1.268180
v -0.939110 -1.000000 0.000000
v 0.000000 -1.000000 -1.000000
v 0.435096 0.000000 -0.730931
v -0.939110 0.000000 1.268180
v 0.485373 0.000000 0.675675
v -0.939110 0.000000 -1.265717
v 0.000000 1.000000 1.000000
v 1.000000 1.000000 0.000000
v 0.000000 -1.000000 1.000000
v -0.939110 1.000000 0.000000
v 0.000000 1.000000 -1.000000
v 1.000000 -1.000000 0.000000
v 0.000000 0.000000 -1.119278
v 0.803383 0.000000 0.000000
v 0.000000 -1.000000 0.000000
v -0.939110 0.000000 0.000000
v 0.000000 0.000000 1.098950
v 0.000000 1.042904 0.000000
vn -0.0201 0.9996 0.0189
vn 0.2266 0.0481 0.9728
vn -1.0000 -0.0000 -0.0000
vn -0.0000 -1.0000 -0.0000
vn 0.8978 -0.1954 0.3946
vn 0.5150 -0.0066 -0.8572
vn 0.6021 -0.0475 -0.7970
vn 0.2140 -0.0582 -0.9751
vn 0.2140 0.0582 -0.9751
vn 0.8978 0.1954 0.3946
vn 0.8400 0.0826 -0.5362
vn 0.8846 -0.1878 -0.4268
vn 0.2266 -0.0481 0.9728
vn 0.4911 0.0438 0.8700
vn 0.4911 -0.0438 0.8700
vn 0.0296 0.9991 0.0296
vn 0.0308 0.9991 -0.0308
vn -0.0202 0.9996 -0.0189
vt 0.750000 0.625000
vt 0.875000 0.625000
vt 0.875000 0.750000
vt 0.750000 0.750000
vt 0.500000 0.875000
vt 0.625000 0.875000
vt 0.625000 1.000000
vt 0.500000 1.000000
vt 0.500000 0.125000
vt 0.625000 0.125000
vt 0.625000 0.250000
vt 0.500000 0.250000
vt 0.250000 0.625000
vt 0.375000 0.625000
vt 0.375000 0.750000
vt 0.250000 0.750000
vt 0.500000 0.625000
vt 0.625000 0.625000
vt 0.625000 0.750000
vt 0.500000 0.750000
vt 0.500000 0.375000
vt 0.625000 0.375000
vt 0.625000 0.500000
vt 0.500000 0.500000
vt 0.375000 0.375000
vt 0.375000 0.500000
vt 0.375000 0.250000
vt 0.125000 0.625000
vt 0.125000 0.750000
vt 0.125000 0.500000
vt 0.250000 0.500000
vt 0.375000 0.125000
vt 0.375000 0.000000
vt 0.500000 0.000000
vt 0.625000 0.000000
vt 0.375000 0.875000
vt 0.375000 1.000000
vt 0.750000 0.500000
vt 0.875000 0.500000
s 0
usemtl Material
f 26/1/1 18/2/1 7/3/1 15/4/1
f 25/5/2 15/6/2 7/7/2 12/8/2
f 24/9/3 18/10/3 5/11/3 14/12/3
f 23/13/4 20/14/4 4/15/4 17/16/4
f 22/17/5 16/18/5 3/19/5 13/20/5
f 21/21/6 19/22/6 1/23/6 11/24/6
f 10/25/7 21/21/7 11/24/7 2/26/7
f 6/27/8 14/12/8 21/21/8 10/25/8
f 14/12/9 5/11/9 19/22/9 21/21/9
f 20/14/10 22/17/10 13/20/10 4/15/10
f 2/26/11 11/24/11 22/17/11 20/14/11
f 11/24/12 1/23/12 16/18/12 22/17/12
f 9/28/4 23/13/4 17/16/4 8/29/4
f 6/30/4 10/31/4 23/13/4 9/28/4
f 10/31/4 2/26/4 20/14/4 23/13/4
f 9/32/3 24/9/3 14/12/3 6/27/3
f 8/33/3 12/34/3 24/9/3 9/32/3
f 12/34/3 7/35/3 18/10/3 24/9/3
f 17/36/13 25/5/13 12/8/13 8/37/13
f 4/15/14 13/20/14 25/5/14 17/36/14
f 13/20/15 3/19/15 15/6/15 25/5/15
f 16/18/16 26/1/16 15/4/16 3/19/16
f 1/23/17 19/38/17 26/1/17 16/18/17
f 19/38/18 5/39/18 18/2/18 26/1/18
