# Blender 4.2.1 LTS
# www.blender.org
mtllib Cliffs_02.mtl
o Cube
v 0.664578 1.000000 -1.082927
v 0.435096 -1.000000 -1.086216
v 0.745956 1.000000 1.081449
v 0.745956 -1.000000 1.081449
v -0.939110 1.000000 -1.265717
v -0.939110 -1.000000 -1.265717
v -0.939110 1.000000 1.268180
v -0.939110 -1.000000 1.268180
v -0.984805 -1.000000 0.013350
v 0.000000 -1.000000 -1.187447
v 0.435096 0.000000 -1.086216
v -0.939110 0.000000 1.268180
v 0.545282 0.000000 0.995021
v -0.939110 0.000000 -1.265717
v 0.000000 1.000000 1.223776
v 1.000000 1.000000 0.000000
v 0.000000 -1.000000 1.223776
v -0.939110 1.000000 0.000000
v 0.000000 1.000000 -1.187447
v 1.000000 -1.000000 0.000000
v 0.000000 0.000000 -1.306725
v 0.803383 0.000000 0.000000
v 0.000000 -1.000000 0.000000
v -0.939110 0.000000 0.000000
v 0.000000 0.000000 1.322726
v 0.000000 1.042904 0.000000
vn -0.0224 0.9996 0.0172
vn -0.0054 0.0494 0.9988
vn -1.0000 -0.0000 -0.0000
vn -0.0000 -1.0000 -0.0000
vn 0.9515 -0.1991 0.2347
vn 0.2833 0.0262 -0.9587
vn 0.3462 -0.0559 -0.9365
vn 0.0198 -0.0595 -0.9980
vn 0.0198 0.0595 -0.9980
vn 0.9515 0.1991 0.2347
vn 0.9151 0.0900 -0.3931
vn 0.9323 -0.1981 -0.3025
vn -0.9996 0.0227 -0.0179
vn -0.9996 0.0230 0.0181
vn -0.0054 -0.0494 0.9988
vn 0.3419 0.0284 0.9393
vn 0.3419 -0.0284 0.9393
vn 0.0263 0.9994 0.0215
vn 0.0272 0.9994 -0.0229
vn -0.0221 0.9996 -0.0175
vt 0.750000 0.625000
vt 0.875000 0.625000
vt 0.875000 0.750000
vt 0.750000 0.750000
vt 0.500000 0.875000
vt 0.625000 0.875000
vt 0.625000 1.000000
vt 0.500000 1.000000
vt 0.500000 0.125000
vt 0.625000 0.125000
vt 0.625000 0.250000
vt 0.500000 0.250000
vt 0.250000 0.625000
vt 0.375000 0.625000
vt 0.375000 0.750000
vt 0.250000 0.750000
vt 0.500000 0.625000
vt 0.625000 0.625000
vt 0.625000 0.750000
vt 0.500000 0.750000
vt 0.500000 0.375000
vt 0.625000 0.375000
vt 0.625000 0.500000
vt 0.500000 0.500000
vt 0.375000 0.375000
vt 0.375000 0.500000
vt 0.375000 0.250000
vt 0.125000 0.625000
vt 0.125000 0.750000
vt 0.125000 0.500000
vt 0.250000 0.500000
vt 0.375000 0.125000
vt 0.375000 0.000000
vt 0.500000 0.000000
vt 0.625000 0.000000
vt 0.375000 0.875000
vt 0.375000 1.000000
vt 0.750000 0.500000
vt 0.875000 0.500000
s 0
usemtl Material
f 26/1/1 18/2/1 7/3/1 15/4/1
f 25/5/2 15/6/2 7/7/2 12/8/2
f 24/9/3 18/10/3 5/11/3 14/12/3
f 23/13/4 20/14/4 4/15/4 17/16/4
f 22/17/5 16/18/5 3/19/5 13/20/5
f 21/21/6 19/22/6 1/23/6 11/24/6
f 10/25/7 21/21/7 11/24/7 2/26/7
f 6/27/8 14/12/8 21/21/8 10/25/8
f 14/12/9 5/11/9 19/22/9 21/21/9
f 20/14/10 22/17/10 13/20/10 4/15/10
f 2/26/11 11/24/11 22/17/11 20/14/11
f 11/24/12 1/23/12 16/18/12 22/17/12
f 9/28/4 23/13/4 17/16/4 8/29/4
f 6/30/4 10/31/4 23/13/4 9/28/4
f 10/31/4 2/26/4 20/14/4 23/13/4
f 9/32/13 24/9/13 14/12/13 6/27/13
f 8/33/14 12/34/14 24/9/14 9/32/14
f 12/34/3 7/35/3 18/10/3 24/9/3
f 17/36/15 25/5/15 12/8/15 8/37/15
f 4/15/16 13/20/16 25/5/16 17/36/16
f 13/20/17 3/19/17 15/6/17 25/5/17
f 16/18/18 26/1/18 15/4/18 3/19/18
f 1/23/19 19/38/19 26/1/19 16/18/19
f 19/38/20 5/39/20 18/2/20 26/1/20
