# Blender 4.2.1 LTS
# www.blender.org
mtllib Mountain_Slope_03.mtl
o Cube
v 0.031590 -0.039163 -1.082927
v 0.577995 -1.000000 -1.086216
v 0.112969 -0.039163 1.081449
v 0.732266 -1.000000 1.081449
v -0.939110 1.000000 -1.307949
v -0.939110 -1.000000 -1.265717
v -0.939110 1.000000 1.363962
v -0.939110 -1.000000 1.268180
v -1.114441 -1.000000 0.013350
v 0.000000 -1.000000 -1.187447
v 0.317458 -0.541545 -1.159841
v -0.939110 0.000000 1.268180
v 0.549748 -0.541545 1.177935
v -0.939110 0.000000 -1.265717
v -0.389781 0.458455 1.223776
v 0.221934 -0.104769 0.000000
v 0.000000 -1.000000 1.223776
v -0.968684 1.040130 0.000000
v -0.389781 0.458455 -1.187447
v 0.996851 -1.000000 0.000000
v -0.389781 -0.541545 -1.306725
v 0.664007 -0.648459 0.000000
v 0.000000 -1.000000 0.000000
v -1.099365 0.000000 0.000000
v -0.389781 -0.541545 1.322726
v -0.389781 0.501359 0.000000
vn 0.6925 0.7212 0.0152
vn 0.3312 0.0929 0.9390
vn -0.9953 0.0622 -0.0744
vn -0.0000 -1.0000 -0.0000
vn 0.7642 0.6445 0.0263
vn 0.3602 0.1105 -0.9263
vn 0.1891 -0.0719 -0.9793
vn -0.0052 -0.0829 -0.9965
vn 0.3173 0.1123 -0.9417
vn 0.8442 0.5232 0.1168
vn 0.7928 0.5587 -0.2436
vn 0.8065 0.5722 -0.1490
vn -0.9914 0.0066 -0.1307
vn -0.9912 0.0084 0.1318
vn -0.9955 0.0604 0.0727
vn -0.0348 -0.0769 0.9964
vn 0.1683 -0.1039 0.9802
vn 0.3546 0.0921 0.9305
vn 0.7051 0.7086 0.0264
vn 0.7316 0.6796 -0.0545
vn 0.6924 0.7213 -0.0158
vn 0.1450 0.3067 0.9407
vn 0.1965 0.2567 -0.9463
vn -0.1154 -0.0419 -0.9924
vn -0.1893 -0.0936 0.9774
vt 0.303835 0.836161
vt 0.304877 0.993929
vt 0.030937 0.984186
vt 0.057405 0.829611
vt 0.120477 0.103175
vt 0.121808 0.290974
vt 0.011423 0.400966
vt 0.506944 0.137347
vt 0.506865 0.254797
vt 0.360417 0.249368
vt 0.366275 0.137366
vt 0.783953 0.534731
vt 0.783973 0.369123
vt 0.963660 0.413066
vt 0.987489 0.534764
vt 0.302117 0.521290
vt 0.302758 0.660802
vt 0.084686 0.687026
vt 0.067514 0.554406
vt 0.881765 0.097881
vt 0.880681 0.282235
vt 0.804166 0.192246
vt 0.809393 0.020405
vt 0.753146 0.102780
vt 0.709467 0.026126
vt 0.981817 0.014848
vt 0.984041 0.198510
vt 0.988313 0.388500
vt 0.301571 0.425180
vt 0.098059 0.474160
vt 0.502733 0.496571
vt 0.524590 0.587455
vt 0.519037 0.695536
vt 0.786153 0.720388
vt 0.995114 0.691177
vt 0.573162 0.691109
vt 0.586459 0.534699
vt 0.603444 0.438626
vt 0.508468 0.022038
vt 0.367388 0.027176
vt 0.646479 0.027165
vt 0.647643 0.137366
vt 0.659551 0.249381
vt 0.194433 0.021954
vt 0.017231 0.205908
vt 0.018342 0.018335
vt 0.323130 0.029348
vt 0.293889 0.107470
vt 0.214279 0.198384
vt 0.544051 0.827391
vt 0.568720 0.982461
s 0
usemtl Material
f 26/1/1 18/2/1 7/3/1 15/4/1
f 25/5/2 15/6/2 7/7/2
f 24/8/3 18/9/3 5/10/3 14/11/3
f 23/12/4 20/13/4 4/14/4 17/15/4
f 22/16/5 16/17/5 3/18/5 13/19/5
f 21/20/6 19/21/6 1/22/6
f 10/23/7 21/20/7 11/24/7 2/25/7
f 6/26/8 14/27/8 21/20/8 10/23/8
f 5/28/9 19/21/9 21/20/9
f 20/29/10 22/16/10 13/19/10 4/30/10
f 2/31/11 11/32/11 22/16/11 20/29/11
f 11/32/12 1/33/12 16/17/12 22/16/12
f 9/34/4 23/12/4 17/15/4 8/35/4
f 6/36/4 10/37/4 23/12/4 9/34/4
f 10/37/4 2/38/4 20/13/4 23/12/4
f 9/39/13 24/8/13 14/11/13 6/40/13
f 8/41/14 12/42/14 24/8/14 9/39/14
f 12/42/15 7/43/15 18/9/15 24/8/15
f 17/44/16 25/5/16 12/45/16 8/46/16
f 4/47/17 13/48/17 25/5/17 17/44/17
f 3/49/18 15/6/18 25/5/18
f 16/17/19 26/1/19 15/4/19 3/18/19
f 1/33/20 19/50/20 26/1/20 16/17/20
f 19/50/21 5/51/21 18/2/21 26/1/21
f 13/48/22 3/49/22 25/5/22
f 11/24/23 21/20/23 1/22/23
f 14/27/24 5/28/24 21/20/24
f 12/45/25 25/5/25 7/7/25
