# Blender 4.2.1 LTS
# www.blender.org
mtllib Mountain_Walls_Large_01.mtl
o Cube
v 0.694510 1.000000 -0.887902
v 0.435096 -1.000000 -1.086216
v 0.712662 1.000000 0.962765
v 0.875091 -1.000000 1.189394
v -0.939110 1.000000 -1.627119
v -0.939110 -1.000000 -1.627119
v -0.939110 1.000000 1.798702
v -0.939110 -1.000000 1.798702
v -0.984805 -1.000000 0.013350
v 0.000000 -1.000000 -1.318552
v 0.435096 0.000000 -1.086216
v -0.939110 0.000000 1.798702
v 0.939528 0.000000 0.919359
v -0.939110 0.000000 -1.627119
v 0.000000 1.000000 1.448474
v 1.129135 1.049048 0.000000
v 0.000000 -1.000000 1.448474
v -0.939110 1.000000 0.000000
v 0.000000 1.000000 -1.318552
v 1.129135 -1.000000 0.000000
v 0.000000 0.000000 -1.437830
v 1.290491 0.000000 0.000000
v 0.000000 -1.590191 0.000000
v -0.939110 0.000000 0.000000
v 0.000000 0.000000 1.547424
v 0.000000 1.716470 0.000000
v -0.961958 -1.000000 0.869957
v -0.469555 -1.000000 -1.485916
v 0.435096 -0.500000 -1.086216
v -0.939110 0.500000 1.798702
v 0.907310 -0.500000 1.000404
v -0.939110 -0.500000 -1.627119
v -0.469555 1.000000 1.608258
v 1.002113 1.073943 0.540724
v 0.437546 -1.000000 1.260557
v -0.939110 1.000000 -0.632859
v 0.396856 1.000000 -1.135187
v 0.782115 -1.000000 -0.543108
v -0.961958 -1.000000 -0.626184
v 0.217548 -1.000000 -1.136831
v 0.614404 0.500000 -1.084571
v -0.939110 -0.500000 1.798702
v 0.907310 0.500000 1.000404
v -0.939110 0.500000 -1.627119
v 0.437546 1.000000 1.260557
v 0.961424 1.073943 -0.541463
v -0.469555 -1.000000 1.608258
v -0.939110 1.000000 0.863282
v -0.469555 1.000000 -1.485916
v 1.002113 -1.000000 0.540724
v 0.217548 0.000000 -1.196470
v -0.469555 0.000000 -1.545555
v 0.000000 -0.500000 -1.378191
v 0.000000 0.500000 -1.378191
v 1.115010 0.000000 0.459680
v 0.862793 0.000000 -0.543108
v 1.209813 -0.500000 0.000000
v 1.209813 0.500000 0.000000
v 0.000000 -1.295095 0.611888
v 0.000000 -1.295095 -0.593723
v -0.492403 -1.295095 0.006675
v 0.564568 -1.295095 0.000000
v -0.939110 0.000000 -0.632859
v -0.939110 0.000000 0.863282
v -0.961958 -0.500000 0.006675
v -0.939110 0.500000 0.000000
v -0.469555 0.000000 1.657733
v 0.469764 0.000000 1.228987
v 0.000000 -0.500000 1.497949
v 0.000000 0.500000 1.497949
v 0.000000 1.525565 0.611888
v 0.000000 1.525565 -0.593723
v 0.564568 1.463067 0.000000
v -0.575670 1.472597 0.000000
v -0.469555 1.459453 -0.632859
v 0.437546 1.358235 0.540724
v 0.396856 1.358235 -0.541463
v -0.469555 1.459453 0.634090
v 0.217548 -1.295095 -0.543108
v 0.437546 -1.295095 0.540724
v -0.469555 -1.295095 0.634090
v -0.469555 -1.295095 -0.632859
v 0.453655 0.500000 1.244772
v 0.453655 -0.500000 1.244772
v -0.469555 -0.500000 1.632995
v -0.939110 0.500000 0.863282
v -0.950534 -0.500000 0.866619
v -0.950534 -0.500000 -0.629521
v 0.912109 0.500000 -0.542286
v 0.822454 -0.500000 -0.543108
v 1.058561 -0.500000 0.500202
v -0.469555 0.500000 -1.515736
v -0.469555 -0.500000 -1.515736
v 0.217548 -0.500000 -1.166651
v 0.307202 0.500000 -1.165828
v 1.058561 0.500000 0.500202
v -0.939110 0.500000 -0.632859
v -0.469555 0.500000 1.632995
vn -0.3887 0.9175 0.0841
vn 0.3545 0.0231 0.9348
vn -1.0000 -0.0000 -0.0000
vn 0.4605 -0.8810 0.1082
vn 0.8769 0.2039 0.4354
vn 0.4740 0.1179 -0.8726
vn 0.4013 -0.0273 -0.9156
vn 0.2518 -0.0862 -0.9639
vn 0.3077 0.0848 -0.9477
vn 0.9457 -0.0447 0.3219
vn 0.7961 -0.0963 -0.5974
vn 0.9188 0.0259 -0.3940
vn 0.0205 -0.9005 0.4343
vn 0.0978 -0.9405 -0.3254
vn 0.4442 -0.8498 -0.2838
vn -0.9999 0.0114 -0.0057
vn -0.9994 0.0343 0.0066
vn 0.3103 -0.0235 0.9503
vn 0.5260 -0.0371 0.8497
vn 0.4433 0.0373 0.8956
vn 0.3821 0.8822 0.2752
vn 0.3944 0.7868 -0.4747
vn -0.6994 0.7148 -0.0000
vn 0.2048 0.7924 -0.5746
vn 0.5883 0.8023 0.1013
vn 0.5852 0.7979 -0.1446
vn 0.1781 0.8332 0.5235
vn 0.3004 -0.8834 -0.3597
vn 0.1414 -0.9336 0.3293
vn -0.5139 -0.8578 0.0137
vn -0.5141 -0.8575 -0.0184
vn -0.5141 -0.8576 -0.0117
vn -0.5096 -0.8603 0.0125
vn -0.5074 -0.8615 0.0185
vn -0.5138 -0.8577 0.0187
vn 0.0616 -0.9235 0.3786
vn 0.0705 -0.8985 0.4333
vn 0.1030 -0.8907 -0.4427
vn 0.1705 0.8912 0.4203
vn -0.1066 0.8993 0.4241
vn -0.1195 0.9478 0.2957
vn 0.3918 0.8730 -0.2904
vn 0.4293 0.8526 -0.2980
vn 0.3962 0.7868 -0.4732
vn 0.4078 0.8099 0.4216
vn 0.4332 0.8603 0.2686
vn 0.3950 0.8801 0.2634
vn -0.1079 0.9464 -0.3043
vn -0.0841 0.8773 -0.4725
vn 0.1412 0.8716 -0.4694
vn -0.3887 0.9175 -0.0842
vn -0.6934 0.7086 -0.1310
vn -0.7927 0.6096 -0.0000
vn 0.4040 0.8708 -0.2800
vn 0.3943 0.7869 -0.4748
vn 0.2618 0.7813 -0.5665
vn 0.4344 0.8064 0.4013
vn 0.3832 0.8269 0.4115
vn 0.2227 0.8255 0.5186
vn 0.5260 0.0371 0.8497
vn 0.5136 -0.0581 0.8561
vn 0.5908 0.1419 0.7942
vn 0.4433 -0.0373 0.8956
vn 0.3286 0.1742 0.9282
vn 0.5136 0.0581 0.8561
vn 0.3545 -0.0231 0.9348
vn 0.2988 -0.0706 0.9517
vn 0.2521 -0.0716 0.9650
vn -0.9992 0.0344 0.0199
vn -0.9998 0.0115 0.0184
vn -0.9999 0.0114 0.0061
vn -0.9998 0.0114 -0.0171
vn -0.9991 0.0340 -0.0268
vn -0.9994 0.0342 -0.0090
vn 0.0371 -0.8949 -0.4448
vn 0.0272 -0.9447 -0.3268
vn 0.1332 -0.9179 -0.3737
vn 0.1168 -0.9505 0.2879
vn 0.0137 -0.9570 0.2899
vn 0.1125 -0.9371 0.3305
vn 0.8311 0.0265 -0.5555
vn 0.8170 -0.1854 -0.5460
vn 0.8442 -0.0032 -0.5361
vn 0.8243 -0.0998 -0.5573
vn 0.8280 -0.0334 -0.5598
vn 0.7994 -0.0322 -0.5999
vn 0.9714 -0.0321 0.2353
vn 0.9590 -0.1211 0.2564
vn 0.9403 -0.1160 0.3201
vn 0.2518 0.0862 -0.9639
vn 0.2012 0.0292 -0.9791
vn 0.2596 0.0288 -0.9653
vn 0.3077 -0.0848 -0.9477
vn 0.2596 -0.0288 -0.9653
vn 0.2012 -0.0292 -0.9791
vn 0.2883 -0.0285 -0.9571
vn 0.6691 -0.0662 -0.7402
vn 0.7198 -0.0619 -0.6915
vn 0.3422 -0.0618 -0.9376
vn 0.6540 0.0097 -0.7564
vn 0.4897 0.0348 -0.8712
vn 0.9457 0.0447 0.3219
vn 0.9403 0.1160 0.3201
vn 0.9610 0.1082 0.2543
vn 0.4613 -0.8826 0.0903
vn 0.3103 0.0235 0.9503
vn 0.2521 0.0716 0.9650
vn 0.2988 0.0706 0.9517
vn -0.6617 0.7391 0.1261
vt 0.501954 0.830498
vt 0.502708 0.920822
vt 0.405699 0.905236
vt 0.156808 0.567985
vt 0.157038 0.647024
vt 0.075171 0.651724
vt 0.076019 0.569283
vt 0.562500 0.187500
vt 0.625000 0.187500
vt 0.625000 0.250000
vt 0.562500 0.250000
vt 0.501953 0.142384
vt 0.502638 0.228890
vt 0.422693 0.210724
vt 0.429398 0.541656
vt 0.423854 0.622806
vt 0.372902 0.608791
vt 0.363671 0.541928
vt 0.684148 0.562844
vt 0.670408 0.635900
vt 0.619617 0.633061
vt 0.638065 0.562941
vt 0.696144 0.419800
vt 0.697739 0.490576
vt 0.663095 0.490935
vt 0.663154 0.420009
vt 0.807846 0.416886
vt 0.810798 0.489397
vt 0.740584 0.488942
vt 0.736685 0.416490
vt 0.809393 0.563326
vt 0.807990 0.637219
vt 0.734282 0.636951
vt 0.737413 0.563411
vt 0.430745 0.402974
vt 0.434855 0.470757
vt 0.375004 0.473586
vt 0.366160 0.407460
vt 0.572330 0.409171
vt 0.573438 0.474417
vt 0.499281 0.467711
vt 0.499513 0.398198
vt 0.574582 0.541883
vt 0.575873 0.622436
vt 0.499646 0.621175
vt 0.499466 0.541367
vt 0.412126 0.146396
vt 0.408816 0.078030
vt 0.723397 0.018591
vt 0.705667 0.082478
vt 0.593774 0.076524
vt 0.653263 0.207596
vt 0.578551 0.256714
vt 0.582141 0.176944
vt 0.437500 0.187500
vt 0.500000 0.187500
vt 0.500000 0.250000
vt 0.437500 0.250000
vt 0.437500 0.062500
vt 0.500000 0.062500
vt 0.500000 0.125000
vt 0.437500 0.125000
vt 0.562500 0.062500
vt 0.625000 0.062500
vt 0.625000 0.125000
vt 0.562500 0.125000
vt 0.157638 0.410911
vt 0.156577 0.488834
vt 0.076858 0.487675
vt 0.077689 0.406887
vt 0.300139 0.419560
vt 0.302658 0.492170
vt 0.231766 0.489659
vt 0.232256 0.413905
vt 0.300667 0.565200
vt 0.298645 0.639368
vt 0.232552 0.643434
vt 0.232161 0.567021
vt 0.407513 0.833024
vt 0.421247 0.769525
vt 0.623139 0.739924
vt 0.657847 0.780347
vt 0.581735 0.774162
vt 0.729691 0.964980
vt 0.591220 0.966171
vt 0.599236 0.903577
vt 0.684168 0.834722
vt 0.708655 0.899581
vt 0.593581 0.831435
vt 0.500619 0.680018
vt 0.501223 0.747374
vt 0.425548 0.697183
vt 0.576146 0.701516
vt 0.301745 0.837987
vt 0.279344 0.903261
vt 0.684138 0.147060
vt 0.659660 0.177329
vt 0.589103 0.144947
vt 0.301766 0.150193
vt 0.327390 0.210620
vt 0.499023 0.014241
vt 0.500389 0.073976
vt 0.381915 0.018274
vt 0.586486 0.016616
vt 0.254861 0.022390
vt 0.336969 0.271772
vt 0.252493 0.969086
vt 0.368831 0.739606
vt 0.503071 0.966930
vt 0.327838 0.777576
vt 0.365400 0.494325
vt 0.362913 0.563610
vt 0.335479 0.633113
vt 0.297627 0.347148
vt 0.232731 0.340479
vt 0.360173 0.349114
vt 0.361872 0.424505
vt 0.158677 0.334597
vt 0.078512 0.326907
vt 0.500000 0.000000
vt 0.562500 0.000000
vt 0.625000 0.000000
vt 0.375000 0.062500
vt 0.375000 0.125000
vt 0.375000 0.000000
vt 0.437500 0.000000
vt 0.375000 0.187500
vt 0.375000 0.250000
vt 0.503250 0.306220
vt 0.280301 0.085944
vt 0.636472 0.480117
vt 0.641590 0.542343
vt 0.618614 0.608879
vt 0.571258 0.346049
vt 0.499734 0.332221
vt 0.634258 0.358229
vt 0.635355 0.418667
vt 0.426801 0.337927
vt 0.343383 0.343401
vt 0.877458 0.490092
vt 0.878623 0.563108
vt 0.879802 0.636964
vt 0.804962 0.346046
vt 0.732921 0.346553
vt 0.875166 0.346526
vt 0.876305 0.417903
vt 0.694585 0.350615
vt 0.663213 0.349866
vt 0.427538 0.288910
vt 0.382815 0.967964
s 0
usemtl Material
f 26/1/1 74/2/1 78/3/1
f 98/4/2 33/5/2 7/6/2 30/7/2
f 97/8/3 36/9/3 5/10/3 44/11/3
f 23/12/4 62/13/4 80/14/4
f 96/15/5 34/16/5 3/17/5 43/18/5
f 95/19/6 37/20/6 1/21/6 41/22/6
f 94/23/7 51/24/7 11/25/7 29/26/7
f 93/27/8 52/28/8 21/29/8 53/30/8
f 92/31/9 49/32/9 19/33/9 54/34/9
f 91/35/10 55/36/10 13/37/10 31/38/10
f 90/39/11 56/40/11 22/41/11 57/42/11
f 89/43/12 46/44/12 16/45/12 58/46/12
f 23/12/13 59/47/13 81/48/13
f 6/49/14 28/50/14 82/51/14
f 2/52/15 38/53/15 79/54/15
f 88/55/16 63/56/16 14/57/16 32/58/16
f 87/59/17 64/60/17 24/61/17 65/62/17
f 86/63/3 48/64/3 18/65/3 66/66/3
f 85/67/18 67/68/18 12/69/18 42/70/18
f 84/71/19 68/72/19 25/73/19 69/74/19
f 83/75/20 45/76/20 15/77/20 70/78/20
f 26/1/21 71/79/21 76/80/21
f 1/81/22 37/82/22 77/83/22
f 5/84/23 36/85/23 75/86/23
f 19/87/24 49/88/24 72/89/24
f 16/90/25 73/91/25 34/92/25
f 16/90/26 46/93/26 73/91/26
f 15/94/27 71/79/27 33/95/27
f 10/96/28 40/97/28 60/98/28
f 17/99/29 59/47/29 35/100/29
f 9/101/30 61/102/30 27/103/30
f 9/101/31 39/104/31 61/102/31
f 61/102/31 82/51/31 23/12/31
f 61/102/31 39/104/31 82/51/31
f 39/104/32 6/49/32 82/51/32
f 27/103/33 81/48/33 8/105/33
f 27/103/34 61/102/34 81/48/34
f 61/102/35 23/12/35 81/48/35
f 35/100/36 80/14/36 4/106/36
f 35/100/36 59/47/36 80/14/36
f 59/47/37 23/12/37 80/14/37
f 60/98/38 79/54/38 23/12/38
f 60/98/38 40/97/38 79/54/38
f 40/97/38 2/52/38 79/54/38
f 33/95/39 78/3/39 7/107/39
f 33/95/40 71/79/40 78/3/40
f 71/79/41 26/1/41 78/3/41
f 73/91/42 77/83/42 26/1/42
f 73/91/43 46/93/43 77/83/43
f 46/93/44 1/81/44 77/83/44
f 34/92/45 76/80/45 3/108/45
f 34/92/46 73/91/46 76/80/46
f 73/91/47 26/1/47 76/80/47
f 72/89/48 75/86/48 26/1/48
f 72/89/49 49/88/49 75/86/49
f 49/88/50 5/84/50 75/86/50
f 75/86/51 74/2/51 26/1/51
f 75/86/52 36/85/52 74/2/52
f 36/85/53 18/109/53 74/2/53
f 77/83/54 72/89/54 26/1/54
f 77/83/55 37/82/55 72/89/55
f 37/82/56 19/87/56 72/89/56
f 76/80/57 45/110/57 3/108/57
f 76/80/58 71/79/58 45/110/58
f 71/79/59 15/94/59 45/110/59
f 68/72/60 83/75/60 70/78/60 25/73/60
f 13/111/61 43/112/61 83/75/61 68/72/61
f 43/112/62 3/113/62 45/76/62 83/75/62
f 35/114/63 84/71/63 69/74/63 17/115/63
f 4/116/64 31/117/64 84/71/64 35/114/64
f 31/117/65 13/111/65 68/72/65 84/71/65
f 47/118/66 85/67/66 42/70/66 8/119/66
f 17/115/67 69/74/67 85/67/67 47/118/67
f 69/74/68 25/73/68 67/68/68 85/67/68
f 64/60/3 86/63/3 66/66/3 24/61/3
f 12/120/3 30/121/3 86/63/3 64/60/3
f 30/121/3 7/122/3 48/64/3 86/63/3
f 27/123/69 87/59/69 65/62/69 9/124/69
f 8/125/70 42/126/70 87/59/70 27/123/70
f 42/126/71 12/120/71 64/60/71 87/59/71
f 39/127/72 88/55/72 32/58/72 6/128/72
f 9/124/73 65/62/73 88/55/73 39/127/73
f 65/62/74 24/61/74 63/56/74 88/55/74
f 79/54/15 62/13/15 23/12/15
f 79/54/15 38/53/15 62/13/15
f 38/53/15 20/129/15 62/13/15
f 82/51/75 60/98/75 23/12/75
f 82/51/76 28/50/76 60/98/76
f 28/50/77 10/96/77 60/98/77
f 81/48/78 47/130/78 8/105/78
f 81/48/79 59/47/79 47/130/79
f 59/47/80 17/99/80 47/130/80
f 56/40/81 89/43/81 58/46/81 22/41/81
f 11/131/82 41/132/82 89/43/82 56/40/82
f 41/132/83 1/133/83 46/44/83 89/43/83
f 38/134/84 90/39/84 57/42/84 20/135/84
f 2/136/85 29/137/85 90/39/85 38/134/85
f 29/137/86 11/131/86 56/40/86 90/39/86
f 50/138/87 91/35/87 31/38/87 4/139/87
f 20/135/88 57/42/88 91/35/88 50/138/88
f 57/42/89 22/41/89 55/36/89 91/35/89
f 52/28/90 92/31/90 54/34/90 21/29/90
f 14/140/91 44/141/91 92/31/91 52/28/91
f 44/141/92 5/142/92 49/32/92 92/31/92
f 28/143/93 93/27/93 53/30/93 10/144/93
f 6/145/94 32/146/94 93/27/94 28/143/94
f 32/146/95 14/140/95 52/28/95 93/27/95
f 40/147/96 94/23/96 29/26/96 2/148/96
f 10/144/97 53/30/97 94/23/97 40/147/97
f 53/30/98 21/29/98 51/24/98 94/23/98
f 51/24/99 95/19/99 41/22/99 11/25/99
f 21/29/100 54/34/100 95/19/100 51/24/100
f 54/34/101 19/33/101 37/20/101 95/19/101
f 55/36/102 96/15/102 43/18/102 13/37/102
f 22/41/103 58/46/103 96/15/103 55/36/103
f 58/46/104 16/45/104 34/16/104 96/15/104
f 80/14/105 50/149/105 4/106/105
f 80/14/4 62/13/4 50/149/4
f 62/13/4 20/129/4 50/149/4
f 63/56/3 97/8/3 44/11/3 14/57/3
f 24/61/3 66/66/3 97/8/3 63/56/3
f 66/66/3 18/65/3 36/9/3 97/8/3
f 67/68/106 98/4/106 30/7/106 12/69/106
f 25/73/107 70/78/107 98/4/107 67/68/107
f 70/78/108 15/77/108 33/5/108 98/4/108
f 78/3/23 48/150/23 7/107/23
f 78/3/109 74/2/109 48/150/109
f 74/2/53 18/109/53 48/150/53
